<?xml version="1.0" standalone="no"?>
<!DOCTYPE svg PUBLIC "-//W3C//DTD SVG 1.1//EN" "http://www.w3.org/Graphics/SVG/1.1/DTD/svg11.dtd" >
<svg xmlns="http://www.w3.org/2000/svg" xmlns:xlink="http://www.w3.org/1999/xlink" version="1.1">
<metadata>
Created by FontForge 20191125 at Tue Apr 20 15:26:09 2021
 By convertio
Copyright 2015-2021 Indian Type Foundry. All rights reserved.
</metadata>
<defs>
<font id="Switzer-LightItalic" horiz-adv-x="567" >
  <font-face 
    font-family="Switzer"
    font-weight="300"
    font-style="italic"
    font-stretch="normal"
    units-per-em="1000"
    panose-1="0 0 0 0 0 0 0 0 0 0"
    ascent="800"
    descent="-200"
    x-height="529"
    cap-height="680"
    bbox="-221 -232 1629 948"
    underline-thickness="50"
    underline-position="-100"
    slope="-11"
    stemh="52"
    stemv="66"
    unicode-range="U+000D-FB02"
  />
<missing-glyph horiz-adv-x="206" 
 />
    <glyph glyph-name="fi" unicode="fi" horiz-adv-x="478" 
d="M98 477l10 52h79l10 50c22 109 68 149 164 149c17 0 32 -2 40 -5l-10 -47h-10c-82 0 -105 -28 -120 -106l-8 -41h110l-10 -52h-110l-93 -477h-65l92 477h-79zM455 606l22 114h65l-23 -114h-64zM337 0l102 529h65l-102 -529h-65z" />
    <glyph glyph-name="fl" unicode="fl" horiz-adv-x="478" 
d="M98 477l10 52h79l10 50c22 109 68 149 164 149c17 0 32 -2 40 -5l-10 -47h-10c-82 0 -105 -28 -120 -106l-8 -41h110l-10 -52h-110l-93 -477h-65l92 477h-79zM337 0l140 720h65l-140 -720h-65z" />
    <glyph glyph-name=".notdef" horiz-adv-x="206" 
 />
    <glyph glyph-name=".null" horiz-adv-x="0" 
 />
    <glyph glyph-name=".null" horiz-adv-x="0" 
 />
    <glyph glyph-name="CR" unicode="&#xd;" horiz-adv-x="0" 
 />
    <glyph glyph-name="space" unicode=" " horiz-adv-x="206" 
 />
    <glyph glyph-name="nbspace" unicode="&#xa0;" horiz-adv-x="206" 
 />
    <glyph glyph-name="A" unicode="A" horiz-adv-x="672" 
d="M579 0l-36 178h-343l-106 -178h-70l404 680h79l141 -680h-69zM427 561l-195 -328h299l-67 328l-8 54z" />
    <glyph glyph-name="B" unicode="B" horiz-adv-x="618" 
d="M85 0l132 680h225c120 0 193 -54 193 -152c0 -76 -49 -145 -142 -172c77 -19 117 -71 117 -140c0 -124 -106 -216 -267 -216h-258zM430 625h-157l-48 -248h156c116 0 182 66 182 147c0 64 -48 101 -133 101zM388 323h-173l-52 -268h189c123 0 188 75 188 159
c0 67 -55 109 -152 109z" />
    <glyph glyph-name="C" unicode="C" horiz-adv-x="676" 
d="M723 492h-69c-11 90 -80 141 -174 141c-180 0 -296 -183 -296 -382c0 -128 64 -204 183 -204c90 0 171 43 224 138h71c-63 -126 -175 -196 -302 -196c-153 0 -246 97 -246 259c0 231 145 443 373 443c131 0 225 -71 236 -199z" />
    <glyph glyph-name="D" unicode="D" horiz-adv-x="692" 
d="M85 0l132 680h207c176 0 285 -100 285 -260c0 -230 -159 -420 -417 -420h-207zM302 55c204 0 337 161 337 362c0 132 -82 208 -225 208h-141l-110 -570h139z" />
    <glyph glyph-name="E" unicode="E" horiz-adv-x="585" 
d="M85 0l132 680h451l-10 -55h-385l-47 -244h348l-11 -56h-348l-52 -270h384l-11 -55h-451z" />
    <glyph glyph-name="F" unicode="F" horiz-adv-x="575" 
d="M85 0l132 680h451l-10 -55h-385l-51 -262h348l-10 -55h-348l-60 -308h-67z" />
    <glyph glyph-name="G" unicode="G" horiz-adv-x="699" 
d="M626 0h-51l18 123c-58 -94 -145 -134 -234 -134c-148 0 -245 94 -245 264c0 225 146 438 373 438c131 0 223 -71 236 -199h-68c-11 90 -81 141 -175 141c-178 0 -296 -184 -296 -380c0 -130 65 -206 185 -206c110 0 211 71 247 238h-189l11 54h255z" />
    <glyph glyph-name="H" unicode="H" horiz-adv-x="692" 
d="M85 0l132 680h67l-58 -301h387l58 301h68l-132 -680h-68l63 324h-387l-63 -324h-67z" />
    <glyph glyph-name="I" unicode="I" horiz-adv-x="237" 
d="M85 0l132 680h67l-132 -680h-67z" />
    <glyph glyph-name="J" unicode="J" horiz-adv-x="523" 
d="M73 203h67c-1 -9 -2 -18 -2 -27c0 -81 40 -129 118 -129c88 0 144 64 166 174l89 459h67l-87 -452c-30 -156 -114 -239 -239 -239c-113 0 -180 72 -180 184c0 9 0 20 1 30z" />
    <glyph glyph-name="K" unicode="K" horiz-adv-x="602" 
d="M85 0l132 680h67l-63 -327l396 327h84l-409 -336l292 -344h-83l-284 333l-65 -333h-67z" />
    <glyph glyph-name="L" unicode="L" horiz-adv-x="544" 
d="M85 0l132 680h67l-121 -625h358l-11 -55h-425z" />
    <glyph glyph-name="M" unicode="M" horiz-adv-x="855" 
d="M85 0l132 680h93l124 -535l9 -59l32 59l332 535h95l-132 -680h-68l116 598l-72 -126l-294 -472h-49l-110 472l-24 127l-116 -599h-68z" />
    <glyph glyph-name="N" unicode="N" horiz-adv-x="692" 
d="M85 0l132 680h69l248 -523l24 -60l113 583h68l-132 -680h-70l-246 520l-25 65l-114 -585h-67z" />
    <glyph glyph-name="O" unicode="O" horiz-adv-x="744" 
d="M377 -11c-169 0 -263 99 -263 272c0 216 153 430 387 430c168 0 261 -99 262 -272c1 -216 -152 -430 -386 -430zM380 47c192 0 312 187 313 370c0 135 -67 216 -197 216c-190 0 -311 -187 -311 -370c0 -135 67 -216 195 -216z" />
    <glyph glyph-name="P" unicode="P" horiz-adv-x="593" 
d="M85 0l132 680h221c128 0 207 -64 207 -178c0 -135 -111 -245 -286 -245h-157l-50 -257h-67zM427 625h-154l-60 -312h150c133 0 211 84 211 189c0 76 -54 123 -147 123z" />
    <glyph glyph-name="Q" unicode="Q" horiz-adv-x="744" 
d="M377 -11c-169 0 -263 99 -263 272c0 216 153 430 387 430c168 0 261 -99 262 -272c1 -140 -63 -278 -171 -359l87 -88l-43 -43l-98 98c-48 -24 -102 -38 -161 -38zM380 47c41 0 80 9 114 24l-100 100l43 44l111 -111c91 69 144 192 145 313c0 135 -67 216 -197 216
c-190 0 -311 -187 -311 -370c0 -135 67 -216 195 -216z" />
    <glyph glyph-name="R" unicode="R" horiz-adv-x="616" 
d="M85 0l132 680h232c121 0 194 -59 194 -162c0 -83 -55 -156 -147 -189c47 -17 66 -55 70 -128l12 -201h-69l-9 186c-4 95 -40 112 -131 112h-159l-58 -298h-67zM438 625h-165l-52 -271h162c114 0 189 70 189 163c0 67 -49 108 -134 108z" />
    <glyph glyph-name="S" unicode="S" horiz-adv-x="593" 
d="M401 633c-117 0 -171 -67 -171 -136c0 -172 363 -51 363 -287c0 -119 -105 -221 -273 -221c-146 0 -235 69 -243 196h70c6 -88 65 -138 173 -138c128 0 201 73 201 156c0 184 -363 56 -363 293c0 94 81 195 250 195c142 0 225 -73 225 -199h-70c-4 93 -59 141 -162 141z
" />
    <glyph glyph-name="T" unicode="T" horiz-adv-x="613" 
d="M273 0l121 622h-241l11 58h549l-11 -58h-240l-121 -622h-68z" />
    <glyph glyph-name="U" unicode="U" horiz-adv-x="681" 
d="M655 259c-34 -174 -144 -270 -309 -270c-145 0 -226 82 -226 206c0 21 2 42 6 64l82 421h68l-82 -421c-4 -21 -6 -41 -6 -59c0 -99 58 -156 162 -156c122 0 212 82 238 215l81 421h68z" />
    <glyph glyph-name="V" unicode="V" horiz-adv-x="672" 
d="M224 680l116 -561l8 -54l29 54l333 561h70l-404 -680h-79l-141 680h68z" />
    <glyph glyph-name="W" unicode="W" horiz-adv-x="1059" 
d="M716 0l-68 541l-4 44l-21 -44l-279 -541h-84l-85 680h70l65 -562l5 -54l25 54l287 562h69l68 -562l4 -54l26 54l283 562h71l-349 -680h-83z" />
    <glyph glyph-name="X" unicode="X" horiz-adv-x="638" 
d="M536 0l-136 258l-21 41l-35 -41l-238 -258h-79l322 352l-171 328h75l121 -227l23 -47l40 47l209 227h79l-297 -327l183 -353h-75z" />
    <glyph glyph-name="Y" unicode="Y" horiz-adv-x="602" 
d="M267 0l50 257l-166 423h72l117 -302l21 -62l42 62l234 302h77l-329 -423l-50 -257h-68z" />
    <glyph glyph-name="Z" unicode="Z" horiz-adv-x="605" 
d="M49 0l11 58l534 564h-424l11 58h506l-11 -58l-534 -564h424l-11 -58h-506z" />
    <glyph glyph-name="AE" unicode="&#xc6;" horiz-adv-x="954" 
d="M470 0l37 189h-286l-125 -189h-72l452 680h561l-10 -55h-368l-48 -247h331l-10 -55h-331l-52 -268h367l-11 -55h-435zM258 245h260l73 380h-81z" />
    <glyph glyph-name="OE" unicode="&#x152;" horiz-adv-x="1085" 
d="M365 -11c-161 0 -251 99 -251 272c0 216 148 430 375 430c108 0 181 -50 215 -141l25 130h440l-11 -55h-373l-48 -247h337l-11 -55h-336l-52 -268h373l-11 -55h-440l23 117c-63 -77 -151 -128 -255 -128zM368 47c185 0 300 187 301 370c0 135 -63 216 -185 216
c-183 0 -299 -187 -299 -370c0 -135 63 -216 183 -216z" />
    <glyph glyph-name="Lslash" unicode="&#x141;" horiz-adv-x="544" 
d="M85 0l56 287l-73 -28l10 51l73 28l66 342h67l-61 -313l158 61l-9 -51l-159 -62l-50 -260h358l-11 -55h-425z" />
    <glyph glyph-name="Oslash" unicode="&#xd8;" horiz-adv-x="744" 
d="M80 -28l90 101c-37 46 -56 109 -56 188c0 216 153 430 387 430c72 0 130 -18 173 -52l62 69h61l-91 -102c37 -45 57 -108 57 -187c1 -216 -152 -430 -386 -430c-73 0 -131 18 -175 53l-62 -70h-60zM185 263c0 -55 11 -101 33 -136l412 462c-33 29 -77 44 -134 44
c-190 0 -311 -187 -311 -370zM380 47c192 0 312 187 313 370c0 55 -11 102 -34 137l-412 -462c32 -29 77 -45 133 -45z" />
    <glyph glyph-name="Eth" unicode="&#xd0;" horiz-adv-x="692" 
d="M85 0l63 324h-68l12 57h67l58 299h207c176 0 285 -100 285 -260c0 -230 -159 -420 -417 -420h-207zM302 55c204 0 337 161 337 362c0 132 -82 208 -225 208h-141l-47 -244h184l-11 -57h-184l-52 -269h139z" />
    <glyph glyph-name="Thorn" unicode="&#xde;" horiz-adv-x="593" 
d="M85 0l132 680h67l-22 -115h154c128 0 207 -63 207 -178c0 -134 -111 -244 -286 -244h-157l-28 -143h-67zM405 510h-154l-61 -312h151c133 0 211 84 211 190c0 75 -54 122 -147 122z" />
    <glyph glyph-name="a" unicode="a" 
d="M197 357h-65c34 115 123 183 247 183c127 0 178 -63 178 -152c0 -18 -2 -37 -6 -56l-40 -208c-7 -34 -10 -60 -10 -82c0 -16 2 -29 6 -42h-69c-3 10 -4 21 -4 34c0 18 3 40 6 61c-54 -69 -130 -106 -205 -106c-99 0 -160 49 -160 135c0 77 49 131 130 158s162 33 278 33
l4 18c3 18 4 34 4 48c0 67 -37 103 -120 103c-90 0 -146 -49 -174 -127zM142 131c0 -57 40 -86 104 -86c105 0 201 86 220 184h1l7 37c-259 -1 -332 -53 -332 -135z" />
    <glyph glyph-name="b" unicode="b" horiz-adv-x="571" 
d="M142 0h-64l140 720h64l-54 -279c48 61 113 99 183 99c110 0 172 -75 172 -198c0 -177 -114 -353 -281 -353c-69 0 -119 34 -144 96zM396 484c-130 0 -209 -160 -209 -295c0 -92 42 -144 121 -144c118 0 208 144 208 294c0 93 -42 145 -120 145z" />
    <glyph glyph-name="c" unicode="c" horiz-adv-x="549" 
d="M570 350h-65c0 89 -51 134 -130 134c-131 0 -217 -141 -217 -289c0 -95 52 -150 134 -150c80 0 145 43 183 130h64c-48 -128 -145 -186 -252 -186c-119 0 -196 74 -196 204c0 179 117 347 289 347c118 0 189 -71 190 -190z" />
    <glyph glyph-name="d" unicode="d" horiz-adv-x="571" 
d="M263 -11c-111 0 -173 76 -173 198c0 177 114 353 282 353c69 0 118 -34 142 -95l54 275h65l-140 -720h-65l17 87c-48 -60 -113 -98 -182 -98zM277 45c131 0 210 161 210 296c0 91 -43 143 -121 143c-119 0 -209 -144 -209 -294c0 -93 42 -145 120 -145z" />
    <glyph glyph-name="e" unicode="e" 
d="M552 172c-55 -129 -150 -183 -265 -183c-120 0 -196 74 -196 204c0 180 118 347 289 347c129 0 195 -76 195 -195c0 -23 -3 -48 -7 -73l-3 -18h-403c-3 -18 -4 -36 -4 -54c0 -102 49 -155 138 -155c83 0 152 42 189 127h67zM376 484c-99 0 -172 -80 -203 -180h334
c1 12 2 24 2 36c0 92 -46 144 -133 144z" />
    <glyph glyph-name="f" unicode="f" horiz-adv-x="263" 
d="M98 477l10 52h79l10 50c22 109 68 149 164 149c17 0 32 -2 40 -5l-10 -47h-10c-82 0 -105 -28 -120 -106l-8 -41h110l-10 -52h-110l-93 -477h-65l92 477h-79z" />
    <glyph glyph-name="g" unicode="g" horiz-adv-x="571" 
d="M263 -5c-111 0 -173 74 -173 195c0 175 114 350 282 350c69 0 118 -34 143 -95l16 84h65l-107 -552c-29 -153 -125 -209 -244 -209c-124 0 -194 72 -194 177h65c4 -81 49 -123 134 -123c90 0 153 49 174 158l22 113c-48 -60 -113 -98 -183 -98zM277 51
c131 0 210 159 210 292c0 90 -43 141 -121 141c-119 0 -209 -143 -209 -291c0 -91 42 -142 120 -142z" />
    <glyph glyph-name="h" unicode="h" 
d="M77 0l140 720h65l-54 -280c48 65 116 100 191 100c94 0 146 -47 146 -134c0 -16 -2 -34 -6 -53l-69 -353h-64l66 340c3 15 4 30 4 43c0 62 -31 102 -105 102c-93 0 -165 -81 -185 -158l-64 -327h-65z" />
    <glyph glyph-name="i" unicode="i" horiz-adv-x="219" 
d="M195 606l22 114h65l-22 -114h-65zM77 0l103 529h64l-102 -529h-65z" />
    <glyph glyph-name="j" unicode="j" horiz-adv-x="219" 
d="M195 606l22 114h65l-22 -114h-65zM127 -77c-22 -111 -66 -152 -167 -152c-16 0 -30 2 -37 5l10 47h12c79 0 102 26 117 101l118 605h64z" />
    <glyph glyph-name="k" unicode="k" horiz-adv-x="510" 
d="M77 0l140 720h65l-81 -418l296 227h86l-317 -240l221 -289h-76l-215 277l-54 -277h-65z" />
    <glyph glyph-name="l" unicode="l" horiz-adv-x="219" 
d="M77 0l140 720h65l-140 -720h-65z" />
    <glyph glyph-name="m" unicode="m" horiz-adv-x="859" 
d="M77 0l103 529h64l-15 -79c44 59 103 90 169 90c76 0 120 -41 132 -104c47 68 114 104 186 104c90 0 138 -58 138 -145c0 -17 -2 -35 -6 -54l-66 -341h-65l66 340c4 16 5 32 5 46c0 60 -29 99 -92 99c-88 0 -153 -84 -172 -163l-62 -322h-65l66 340c4 16 5 32 5 46
c0 60 -29 99 -92 99c-90 0 -157 -89 -173 -169l-61 -316h-65z" />
    <glyph glyph-name="n" unicode="n" 
d="M77 0l103 529h64l-16 -84c47 62 112 95 184 95c102 0 151 -58 151 -146c0 -16 -2 -35 -6 -53l-67 -341h-64l66 340c3 15 4 30 4 43c0 62 -31 102 -105 102c-98 0 -172 -89 -188 -169l-61 -316h-65z" />
    <glyph glyph-name="o" unicode="o" 
d="M288 -11c-123 0 -197 75 -197 204c0 182 114 347 291 347c122 0 196 -75 196 -204c0 -181 -114 -347 -290 -347zM295 45c132 0 216 144 216 289c0 97 -48 150 -136 150c-132 0 -217 -144 -217 -289c0 -96 48 -150 137 -150z" />
    <glyph glyph-name="p" unicode="p" horiz-adv-x="571" 
d="M99 -220h-64l145 749h65l-17 -87c49 60 113 98 183 98c110 0 172 -75 172 -198c0 -177 -114 -353 -281 -353c-70 0 -119 34 -144 96zM396 484c-130 0 -209 -160 -209 -295c0 -92 42 -144 121 -144c118 0 208 144 208 294c0 93 -42 145 -120 145z" />
    <glyph glyph-name="q" unicode="q" horiz-adv-x="571" 
d="M263 -11c-111 0 -173 76 -173 198c0 177 114 353 282 353c69 0 118 -34 143 -96l16 85h65l-146 -749h-65l60 307c-48 -60 -113 -98 -182 -98zM277 45c131 0 210 161 210 296c0 91 -43 143 -121 143c-119 0 -209 -144 -209 -294c0 -93 42 -145 120 -145z" />
    <glyph glyph-name="r" unicode="r" horiz-adv-x="365" 
d="M77 0l103 529h64l-17 -89c48 67 111 100 176 100c27 0 45 -4 53 -11l-11 -59c-13 5 -32 8 -52 8c-107 0 -174 -79 -192 -174l-59 -304h-65z" />
    <glyph glyph-name="s" unicode="s" horiz-adv-x="505" 
d="M197 386c0 -137 301 -37 301 -223c0 -88 -86 -174 -227 -174c-132 0 -201 76 -202 183h65c1 -72 42 -131 140 -131c101 0 157 54 157 114c0 138 -298 34 -298 225c0 86 77 160 204 160c111 0 185 -57 185 -183h-65c0 91 -45 130 -127 130c-85 0 -133 -47 -133 -101z" />
    <glyph glyph-name="t" unicode="t" horiz-adv-x="285" 
d="M115 145l64 332h-79l10 52h79l24 122h65l-23 -122h118l-10 -52h-118l-64 -330c-3 -16 -5 -30 -5 -42c0 -42 21 -61 79 -61h22l-9 -47c-9 -3 -26 -5 -45 -5c-78 0 -114 28 -114 97c0 15 2 34 6 56z" />
    <glyph glyph-name="u" unicode="u" horiz-adv-x="562" 
d="M461 213l62 316h65l-103 -529h-65l16 82c-48 -61 -112 -93 -178 -93c-98 0 -150 51 -150 142c0 19 2 38 6 58l66 340h64l-65 -341c-4 -16 -6 -30 -6 -44c0 -61 32 -99 103 -99c97 0 170 88 185 168z" />
    <glyph glyph-name="v" unicode="v" horiz-adv-x="503" 
d="M212 0l-98 529h69l76 -432l5 -39l18 39l244 432h69l-304 -529h-79z" />
    <glyph glyph-name="w" unicode="w" horiz-adv-x="801" 
d="M542 0l-47 419l-2 54l-23 -54l-208 -419h-82l-62 529h70l41 -432l3 -49l22 49l217 432h70l50 -432l2 -47l20 47l208 432h68l-268 -529h-79z" />
    <glyph glyph-name="x" unicode="x" horiz-adv-x="513" 
d="M423 0l-105 193l-18 40l-35 -40l-178 -193h-76l259 275l-139 254h79l91 -171l20 -41l34 41l156 171h76l-237 -254l152 -275h-79z" />
    <glyph glyph-name="y" unicode="y" horiz-adv-x="510" 
d="M40 -229c-15 0 -31 4 -40 6l11 50h22c65 0 84 17 155 131l36 59l-114 512h69l82 -374l12 -68l37 67l223 375h71l-366 -604c-77 -128 -112 -154 -198 -154z" />
    <glyph glyph-name="z" unicode="z" horiz-adv-x="491" 
d="M30 0l10 51l415 426h-319l10 52h399l-9 -52l-416 -426h351l-10 -51h-431z" />
    <glyph glyph-name="ae" unicode="&#xe6;" horiz-adv-x="940" 
d="M197 357h-65c34 115 122 183 247 183c105 0 160 -41 177 -104c49 63 118 104 200 104c126 0 192 -76 192 -195c0 -22 -3 -46 -7 -70l-3 -18h-397c-2 -19 -4 -38 -4 -57c0 -102 47 -155 134 -155c82 0 149 42 187 127h67c-56 -129 -150 -183 -262 -183
c-96 0 -162 52 -180 145c-58 -94 -155 -145 -248 -145c-99 0 -160 48 -160 132c0 74 48 125 127 151c84 28 163 34 284 34l5 27c4 17 5 34 5 48c0 67 -39 103 -125 103c-89 0 -146 -49 -174 -127zM752 484c-98 0 -169 -79 -199 -178h326c1 12 2 23 2 34
c0 92 -44 144 -129 144zM142 128c0 -55 39 -83 104 -83c104 0 200 81 223 175l7 37c-260 -2 -334 -49 -334 -129z" />
    <glyph glyph-name="oe" unicode="&#x153;" horiz-adv-x="972" 
d="M288 -11c-123 0 -197 75 -197 204c0 181 114 347 291 347c95 0 159 -47 181 -134c49 80 127 134 222 134c128 0 195 -76 195 -195c0 -23 -3 -48 -7 -73l-4 -18h-402c-3 -18 -4 -36 -4 -54c0 -102 48 -155 138 -155c83 0 152 42 189 127h67c-55 -129 -151 -183 -265 -183
c-93 0 -157 47 -180 133c-49 -80 -127 -133 -224 -133zM295 45c131 0 216 144 216 289c0 97 -48 150 -136 150c-132 0 -217 -144 -217 -289c0 -96 48 -150 137 -150zM781 484c-100 0 -173 -80 -203 -180h333c1 12 2 24 2 36c0 92 -45 144 -132 144z" />
    <glyph glyph-name="lslash" unicode="&#x142;" horiz-adv-x="219" 
d="M77 0l62 320l-70 -35l10 51l70 35l68 349h65l-61 -314l69 34l-10 -51l-69 -34l-69 -355h-65z" />
    <glyph glyph-name="oslash" unicode="&#xf8;" horiz-adv-x="574" 
d="M86 -46l62 85c-37 35 -57 87 -57 154c0 181 115 347 294 347c44 0 81 -9 111 -27l45 61h49l-62 -84c37 -35 56 -87 57 -154c-1 -181 -116 -347 -293 -347c-44 0 -81 9 -112 26l-45 -61h-49zM158 195c0 -43 10 -78 29 -103l273 372c-22 13 -49 20 -82 20
c-134 0 -220 -144 -220 -289zM299 45c133 0 219 144 219 289c0 43 -10 78 -29 103l-272 -372c21 -13 49 -20 82 -20z" />
    <glyph glyph-name="eth" unicode="&#xf0;" 
d="M289 -11c-133 0 -199 76 -199 195c0 172 108 330 286 330c44 0 82 -11 112 -29c-17 51 -44 96 -80 137l-124 -49l9 43l88 35c-24 25 -52 47 -83 69h90c18 -14 36 -29 52 -45l113 45l-8 -43l-78 -31c72 -85 111 -191 111 -317c0 -179 -119 -340 -289 -340zM292 45
c130 0 217 134 217 277c0 87 -48 136 -137 136c-134 0 -215 -140 -215 -272c0 -90 47 -141 135 -141z" />
    <glyph glyph-name="thorn" unicode="&#xfe;" horiz-adv-x="571" 
d="M99 -220h-64l183 940h64l-54 -279c48 61 113 99 183 99c110 0 172 -75 172 -198c0 -177 -114 -353 -281 -353c-70 0 -119 34 -144 96zM396 484c-130 0 -209 -160 -209 -295c0 -92 42 -144 121 -144c118 0 208 144 208 294c0 93 -42 145 -120 145z" />
    <glyph glyph-name="germandbls" unicode="&#xdf;" horiz-adv-x="592" 
d="M305 -8c-33 0 -70 2 -98 8l9 48h83c155 0 227 81 227 182c0 61 -36 117 -173 117h-17l10 52h7c148 0 192 90 192 163c0 65 -40 107 -127 107c-96 0 -157 -55 -178 -163l-98 -506h-65l98 507c27 142 111 219 250 219c125 0 187 -68 187 -160c0 -71 -36 -152 -131 -187
c83 -27 110 -90 110 -147c0 -129 -95 -240 -286 -240z" />
    <glyph glyph-name="dotlessi" unicode="&#x131;" horiz-adv-x="219" 
d="M77 0l103 529h64l-102 -529h-65z" />
    <glyph glyph-name="dotlessj" unicode="&#x237;" horiz-adv-x="219" 
d="M127 -77c-22 -111 -66 -152 -167 -152c-16 0 -30 2 -37 5l10 47h12c79 0 102 26 117 101l118 605h64z" />
    <glyph glyph-name="Aacute" unicode="&#xc1;" horiz-adv-x="672" 
d="M455 757l120 114h90l-146 -114h-64zM579 0l-36 178h-343l-106 -178h-70l404 680h79l141 -680h-69zM427 561l-195 -328h299l-67 328l-8 54z" />
    <glyph glyph-name="Acircumflex" unicode="&#xc2;" horiz-adv-x="672" 
d="M571 757l-62 81l-94 -81h-61l114 114h87l77 -114h-61zM579 0l-36 178h-343l-106 -178h-70l404 680h79l141 -680h-69zM427 561l-195 -328h299l-67 328l-8 54z" />
    <glyph glyph-name="Adieresis" unicode="&#xc4;" horiz-adv-x="672" 
d="M411 757l22 114h57l-22 -114h-57zM517 757l22 114h57l-22 -114h-57zM579 0l-36 178h-343l-106 -178h-70l404 680h79l141 -680h-69zM427 561l-195 -328h299l-67 328l-8 54z" />
    <glyph glyph-name="Agrave" unicode="&#xc0;" horiz-adv-x="672" 
d="M530 757h-64l-98 114h83zM579 0l-36 178h-343l-106 -178h-70l404 680h79l141 -680h-69zM427 561l-195 -328h299l-67 328l-8 54z" />
    <glyph glyph-name="Aring" unicode="&#xc5;" horiz-adv-x="672" 
d="M495 757c-48 0 -82 33 -82 79c0 54 47 112 113 112c49 0 82 -35 82 -79c0 -55 -46 -112 -113 -112zM499 795c38 0 68 34 68 71c0 25 -18 44 -44 44c-39 0 -68 -34 -68 -71c0 -27 17 -44 44 -44zM579 0l-36 178h-343l-106 -178h-70l404 680h79l141 -680h-69zM427 561
l-195 -328h299l-67 328l-8 54z" />
    <glyph glyph-name="Atilde" unicode="&#xc3;" horiz-adv-x="672" 
d="M386 757h-40c17 91 65 114 100 114c70 0 78 -71 120 -71c19 0 42 12 55 71h40c-18 -91 -64 -114 -100 -114c-69 0 -77 70 -120 70c-19 0 -42 -12 -55 -70zM579 0l-36 178h-343l-106 -178h-70l404 680h79l141 -680h-69zM427 561l-195 -328h299l-67 328l-8 54z" />
    <glyph glyph-name="Abreve" unicode="&#x102;" horiz-adv-x="672" 
d="M382 871h49c0 -52 30 -71 71 -71s81 19 97 71h49c-28 -84 -87 -114 -152 -114c-64 0 -114 36 -114 114zM579 0l-36 178h-343l-106 -178h-70l404 680h79l141 -680h-69zM427 561l-195 -328h299l-67 328l-8 54z" />
    <glyph glyph-name="Amacron" unicode="&#x100;" horiz-adv-x="672" 
d="M389 789l10 51h219l-10 -51h-219zM579 0l-36 178h-343l-106 -178h-70l404 680h79l141 -680h-69zM427 561l-195 -328h299l-67 328l-8 54z" />
    <glyph glyph-name="Aogonek" unicode="&#x104;" horiz-adv-x="672" 
d="M611 -220c-24 -9 -44 -12 -70 -12c-64 0 -108 31 -108 82c0 64 56 124 143 164l-33 164h-343l-106 -178h-70l404 680h79l141 -680h-45c-82 -43 -114 -100 -114 -135c0 -33 25 -55 71 -55c29 0 45 5 59 11zM427 561l-195 -328h299l-67 328l-8 54z" />
    <glyph glyph-name="Ccedilla" unicode="&#xc7;" horiz-adv-x="676" 
d="M223 -187c95 3 141 24 141 60c0 23 -25 34 -84 39l59 78c-140 8 -225 104 -225 258c0 231 145 443 373 443c131 0 225 -71 236 -199h-69c-11 90 -80 141 -174 141c-180 0 -296 -183 -296 -382c0 -128 64 -204 183 -204c90 0 171 43 224 138h71
c-59 -119 -163 -188 -281 -195l-38 -50c51 -6 76 -28 76 -60c0 -64 -71 -97 -203 -101z" />
    <glyph glyph-name="Cacute" unicode="&#x106;" horiz-adv-x="676" 
d="M453 757l120 114h90l-146 -114h-64zM723 492h-69c-11 90 -80 141 -174 141c-180 0 -296 -183 -296 -382c0 -128 64 -204 183 -204c90 0 171 43 224 138h71c-63 -126 -175 -196 -302 -196c-153 0 -246 97 -246 259c0 231 145 443 373 443c131 0 225 -71 236 -199z" />
    <glyph glyph-name="Ccaron" unicode="&#x10c;" horiz-adv-x="676" 
d="M591 871h62l-115 -114h-87l-77 114h61l62 -82zM723 492h-69c-11 90 -80 141 -174 141c-180 0 -296 -183 -296 -382c0 -128 64 -204 183 -204c90 0 171 43 224 138h71c-63 -126 -175 -196 -302 -196c-153 0 -246 97 -246 259c0 231 145 443 373 443
c131 0 225 -71 236 -199z" />
    <glyph glyph-name="Ccircumflex" unicode="&#x108;" horiz-adv-x="676" 
d="M569 757l-62 81l-94 -81h-61l114 114h87l77 -114h-61zM723 492h-69c-11 90 -80 141 -174 141c-180 0 -296 -183 -296 -382c0 -128 64 -204 183 -204c90 0 171 43 224 138h71c-63 -126 -175 -196 -302 -196c-153 0 -246 97 -246 259c0 231 145 443 373 443
c131 0 225 -71 236 -199z" />
    <glyph glyph-name="Cdotaccent" unicode="&#x10a;" horiz-adv-x="676" 
d="M458 757l22 114h65l-22 -114h-65zM723 492h-69c-11 90 -80 141 -174 141c-180 0 -296 -183 -296 -382c0 -128 64 -204 183 -204c90 0 171 43 224 138h71c-63 -126 -175 -196 -302 -196c-153 0 -246 97 -246 259c0 231 145 443 373 443c131 0 225 -71 236 -199z" />
    <glyph glyph-name="Dcaron" unicode="&#x10e;" horiz-adv-x="692" 
d="M530 871h62l-115 -114h-87l-77 114h61l62 -82zM85 0l132 680h207c176 0 285 -100 285 -260c0 -230 -159 -420 -417 -420h-207zM302 55c204 0 337 161 337 362c0 132 -82 208 -225 208h-141l-110 -570h139z" />
    <glyph glyph-name="Dcroat" unicode="&#x110;" horiz-adv-x="692" 
d="M85 0l63 324h-68l12 57h67l58 299h207c176 0 285 -100 285 -260c0 -230 -159 -420 -417 -420h-207zM302 55c204 0 337 161 337 362c0 132 -82 208 -225 208h-141l-47 -244h184l-11 -57h-184l-52 -269h139z" />
    <glyph glyph-name="Eacute" unicode="&#xc9;" horiz-adv-x="585" 
d="M407 757l120 114h90l-146 -114h-64zM85 0l132 680h451l-10 -55h-385l-47 -244h348l-11 -56h-348l-52 -270h384l-11 -55h-451z" />
    <glyph glyph-name="Ecircumflex" unicode="&#xca;" horiz-adv-x="585" 
d="M523 757l-62 81l-94 -81h-61l114 114h87l77 -114h-61zM85 0l132 680h451l-10 -55h-385l-47 -244h348l-11 -56h-348l-52 -270h384l-11 -55h-451z" />
    <glyph glyph-name="Edieresis" unicode="&#xcb;" horiz-adv-x="585" 
d="M363 757l22 114h57l-22 -114h-57zM469 757l22 114h57l-22 -114h-57zM85 0l132 680h451l-10 -55h-385l-47 -244h348l-11 -56h-348l-52 -270h384l-11 -55h-451z" />
    <glyph glyph-name="Egrave" unicode="&#xc8;" horiz-adv-x="585" 
d="M482 757h-64l-98 114h83zM85 0l132 680h451l-10 -55h-385l-47 -244h348l-11 -56h-348l-52 -270h384l-11 -55h-451z" />
    <glyph glyph-name="Ebreve" unicode="&#x114;" horiz-adv-x="585" 
d="M334 871h49c0 -52 30 -71 71 -71s81 19 97 71h49c-28 -84 -87 -114 -152 -114c-64 0 -114 36 -114 114zM85 0l132 680h451l-10 -55h-385l-47 -244h348l-11 -56h-348l-52 -270h384l-11 -55h-451z" />
    <glyph glyph-name="Ecaron" unicode="&#x11a;" horiz-adv-x="585" 
d="M545 871h62l-115 -114h-87l-77 114h61l62 -82zM85 0l132 680h451l-10 -55h-385l-47 -244h348l-11 -56h-348l-52 -270h384l-11 -55h-451z" />
    <glyph glyph-name="Edotaccent" unicode="&#x116;" horiz-adv-x="585" 
d="M412 757l22 114h65l-22 -114h-65zM85 0l132 680h451l-10 -55h-385l-47 -244h348l-11 -56h-348l-52 -270h384l-11 -55h-451z" />
    <glyph glyph-name="Emacron" unicode="&#x112;" horiz-adv-x="585" 
d="M341 789l10 51h219l-10 -51h-219zM85 0l132 680h451l-10 -55h-385l-47 -244h348l-11 -56h-348l-52 -270h384l-11 -55h-451z" />
    <glyph glyph-name="Eogonek" unicode="&#x118;" horiz-adv-x="585" 
d="M85 0l132 680h451l-10 -55h-385l-47 -244h348l-11 -56h-348l-52 -270h384l-11 -55h-57c-82 -43 -114 -100 -114 -135c0 -33 26 -55 72 -55c29 0 45 5 59 11l-9 -41c-24 -9 -43 -12 -70 -12c-64 0 -108 31 -108 82c0 57 44 111 116 150h-340z" />
    <glyph glyph-name="Gbreve" unicode="&#x11e;" horiz-adv-x="699" 
d="M385 871h49c0 -52 30 -71 71 -71s81 19 97 71h49c-28 -84 -87 -114 -152 -114c-64 0 -114 36 -114 114zM626 0h-51l18 123c-58 -94 -145 -134 -234 -134c-148 0 -245 94 -245 264c0 225 146 438 373 438c131 0 223 -71 236 -199h-68c-11 90 -81 141 -175 141
c-178 0 -296 -184 -296 -380c0 -130 65 -206 185 -206c110 0 211 71 247 238h-189l11 54h255z" />
    <glyph glyph-name="Gcircumflex" unicode="&#x11c;" horiz-adv-x="699" 
d="M574 757l-62 81l-94 -81h-61l114 114h87l77 -114h-61zM626 0h-51l18 123c-58 -94 -145 -134 -234 -134c-148 0 -245 94 -245 264c0 225 146 438 373 438c131 0 223 -71 236 -199h-68c-11 90 -81 141 -175 141c-178 0 -296 -184 -296 -380c0 -130 65 -206 185 -206
c110 0 211 71 247 238h-189l11 54h255z" />
    <glyph glyph-name="Gcommaaccent" unicode="&#x122;" horiz-adv-x="699" 
d="M626 0h-51l18 123c-58 -94 -145 -134 -234 -134c-148 0 -245 94 -245 264c0 225 146 438 373 438c131 0 223 -71 236 -199h-68c-11 90 -81 141 -175 141c-178 0 -296 -184 -296 -380c0 -130 65 -206 185 -206c110 0 211 71 247 238h-189l11 54h255zM308 -140l11 58h78
l-4 -23c-11 -54 -31 -88 -60 -122h-34c21 30 36 53 43 87h-34z" />
    <glyph glyph-name="Gdotaccent" unicode="&#x120;" horiz-adv-x="699" 
d="M463 757l22 114h65l-22 -114h-65zM626 0h-51l18 123c-58 -94 -145 -134 -234 -134c-148 0 -245 94 -245 264c0 225 146 438 373 438c131 0 223 -71 236 -199h-68c-11 90 -81 141 -175 141c-178 0 -296 -184 -296 -380c0 -130 65 -206 185 -206c110 0 211 71 247 238h-189
l11 54h255z" />
    <glyph glyph-name="Hbar" unicode="&#x126;" horiz-adv-x="692" 
d="M85 0l101 521h-58l8 47h59l22 112h67l-22 -112h387l22 112h68l-22 -112h58l-8 -47h-59l-101 -521h-68l63 324h-387l-63 -324h-67zM226 379h387l27 142h-387z" />
    <glyph glyph-name="Hcircumflex" unicode="&#x124;" horiz-adv-x="692" 
d="M571 757l-62 81l-94 -81h-61l114 114h87l77 -114h-61zM85 0l132 680h67l-58 -301h387l58 301h68l-132 -680h-68l63 324h-387l-63 -324h-67z" />
    <glyph glyph-name="Iacute" unicode="&#xcd;" horiz-adv-x="237" 
d="M227 757l120 114h90l-146 -114h-64zM85 0l132 680h67l-132 -680h-67z" />
    <glyph glyph-name="Icircumflex" unicode="&#xce;" horiz-adv-x="237" 
d="M343 757l-62 81l-94 -81h-61l114 114h87l77 -114h-61zM85 0l132 680h67l-132 -680h-67z" />
    <glyph glyph-name="Idieresis" unicode="&#xcf;" horiz-adv-x="237" 
d="M183 757l22 114h57l-22 -114h-57zM289 757l22 114h57l-22 -114h-57zM85 0l132 680h67l-132 -680h-67z" />
    <glyph glyph-name="Igrave" unicode="&#xcc;" horiz-adv-x="237" 
d="M302 757h-64l-98 114h83zM85 0l132 680h67l-132 -680h-67z" />
    <glyph glyph-name="Ibreve" unicode="&#x12c;" horiz-adv-x="237" 
d="M154 871h49c0 -52 30 -71 71 -71s81 19 97 71h49c-28 -84 -87 -114 -152 -114c-64 0 -114 36 -114 114zM85 0l132 680h67l-132 -680h-67z" />
    <glyph glyph-name="Idotaccent" unicode="&#x130;" horiz-adv-x="237" 
d="M232 757l22 114h65l-22 -114h-65zM85 0l132 680h67l-132 -680h-67z" />
    <glyph glyph-name="Imacron" unicode="&#x12a;" horiz-adv-x="237" 
d="M161 789l10 51h219l-10 -51h-219zM85 0l132 680h67l-132 -680h-67z" />
    <glyph glyph-name="Iogonek" unicode="&#x12e;" horiz-adv-x="237" 
d="M129 -220c-24 -9 -44 -12 -71 -12c-64 0 -107 31 -107 82c0 63 53 121 136 161l130 669h67l-132 -680h-31c-83 -43 -115 -100 -115 -135c0 -33 26 -55 72 -55c29 0 45 5 59 11z" />
    <glyph glyph-name="Itilde" unicode="&#x128;" horiz-adv-x="237" 
d="M158 757h-40c17 91 65 114 100 114c70 0 78 -71 120 -71c19 0 42 12 55 71h40c-18 -91 -64 -114 -100 -114c-69 0 -77 70 -120 70c-19 0 -42 -12 -55 -70zM85 0l132 680h67l-132 -680h-67z" />
    <glyph glyph-name="Jcircumflex" unicode="&#x134;" horiz-adv-x="523" 
d="M634 757l-62 81l-94 -81h-61l114 114h87l77 -114h-61zM73 203h67c-1 -9 -2 -18 -2 -27c0 -81 40 -129 118 -129c88 0 144 64 166 174l89 459h67l-87 -452c-30 -156 -114 -239 -239 -239c-113 0 -180 72 -180 184c0 9 0 20 1 30z" />
    <glyph glyph-name="IJ" unicode="&#x132;" horiz-adv-x="760" 
d="M85 0l132 680h67l-132 -680h-67zM310 203h67c-1 -9 -2 -18 -2 -27c0 -81 40 -129 118 -129c88 0 144 64 166 174l89 459h67l-87 -452c-30 -156 -114 -239 -239 -239c-113 0 -180 72 -180 184c0 9 0 20 1 30z" />
    <glyph glyph-name="Kcommaaccent" unicode="&#x136;" horiz-adv-x="602" 
d="M85 0l132 680h67l-63 -327l396 327h84l-409 -336l292 -344h-83l-284 333l-65 -333h-67zM252 -140l11 58h78l-4 -23c-11 -54 -31 -88 -60 -122h-34c21 30 36 53 43 87h-34z" />
    <glyph glyph-name="Lacute" unicode="&#x139;" horiz-adv-x="544" 
d="M228 757l120 114h90l-146 -114h-64zM85 0l132 680h67l-121 -625h358l-11 -55h-425z" />
    <glyph glyph-name="Lcaron" unicode="&#x13d;" horiz-adv-x="544" 
d="M85 0l132 680h67l-121 -625h358l-11 -55h-425zM369 622l12 58h77l-4 -23c-11 -54 -32 -88 -59 -121h-34c24 32 35 52 41 86h-33z" />
    <glyph glyph-name="Lcommaaccent" unicode="&#x13b;" horiz-adv-x="544" 
d="M85 0l132 680h67l-121 -625h358l-11 -55h-425zM236 -140l11 58h78l-4 -23c-11 -54 -31 -88 -60 -122h-34c21 30 36 53 43 87h-34z" />
    <glyph glyph-name="Ldot" unicode="&#x13f;" horiz-adv-x="544" 
d="M85 0l132 680h67l-121 -625h358l-11 -55h-425zM391 245l22 113h65l-22 -113h-65z" />
    <glyph glyph-name="Ntilde" unicode="&#xd1;" horiz-adv-x="692" 
d="M386 757h-40c17 91 65 114 100 114c70 0 78 -71 120 -71c19 0 42 12 55 71h40c-18 -91 -64 -114 -100 -114c-69 0 -77 70 -120 70c-19 0 -42 -12 -55 -70zM85 0l132 680h69l248 -523l24 -60l113 583h68l-132 -680h-70l-246 520l-25 65l-114 -585h-67z" />
    <glyph glyph-name="Nacute" unicode="&#x143;" horiz-adv-x="692" 
d="M455 757l120 114h90l-146 -114h-64zM85 0l132 680h69l248 -523l24 -60l113 583h68l-132 -680h-70l-246 520l-25 65l-114 -585h-67z" />
    <glyph glyph-name="Ncaron" unicode="&#x147;" horiz-adv-x="692" 
d="M593 871h62l-115 -114h-87l-77 114h61l62 -82zM85 0l132 680h69l248 -523l24 -60l113 583h68l-132 -680h-70l-246 520l-25 65l-114 -585h-67z" />
    <glyph glyph-name="Ncommaaccent" unicode="&#x145;" horiz-adv-x="692" 
d="M85 0l132 680h69l248 -523l24 -60l113 583h68l-132 -680h-70l-246 520l-25 65l-114 -585h-67zM288 -140l11 58h78l-4 -23c-11 -54 -31 -88 -60 -122h-34c21 30 36 53 43 87h-34z" />
    <glyph glyph-name="Oacute" unicode="&#xd3;" horiz-adv-x="744" 
d="M481 757l120 114h90l-146 -114h-64zM377 -11c-169 0 -263 99 -263 272c0 216 153 430 387 430c168 0 261 -99 262 -272c1 -216 -152 -430 -386 -430zM380 47c192 0 312 187 313 370c0 135 -67 216 -197 216c-190 0 -311 -187 -311 -370c0 -135 67 -216 195 -216z" />
    <glyph glyph-name="Ocircumflex" unicode="&#xd4;" horiz-adv-x="744" 
d="M597 757l-62 81l-94 -81h-61l114 114h87l77 -114h-61zM377 -11c-169 0 -263 99 -263 272c0 216 153 430 387 430c168 0 261 -99 262 -272c1 -216 -152 -430 -386 -430zM380 47c192 0 312 187 313 370c0 135 -67 216 -197 216c-190 0 -311 -187 -311 -370
c0 -135 67 -216 195 -216z" />
    <glyph glyph-name="Odieresis" unicode="&#xd6;" horiz-adv-x="744" 
d="M437 757l22 114h57l-22 -114h-57zM543 757l22 114h57l-22 -114h-57zM377 -11c-169 0 -263 99 -263 272c0 216 153 430 387 430c168 0 261 -99 262 -272c1 -216 -152 -430 -386 -430zM380 47c192 0 312 187 313 370c0 135 -67 216 -197 216c-190 0 -311 -187 -311 -370
c0 -135 67 -216 195 -216z" />
    <glyph glyph-name="Ograve" unicode="&#xd2;" horiz-adv-x="744" 
d="M556 757h-64l-98 114h83zM377 -11c-169 0 -263 99 -263 272c0 216 153 430 387 430c168 0 261 -99 262 -272c1 -216 -152 -430 -386 -430zM380 47c192 0 312 187 313 370c0 135 -67 216 -197 216c-190 0 -311 -187 -311 -370c0 -135 67 -216 195 -216z" />
    <glyph glyph-name="Otilde" unicode="&#xd5;" horiz-adv-x="744" 
d="M412 757h-40c17 91 65 114 100 114c70 0 78 -71 120 -71c19 0 42 12 55 71h40c-18 -91 -64 -114 -100 -114c-69 0 -77 70 -120 70c-19 0 -42 -12 -55 -70zM377 -11c-169 0 -263 99 -263 272c0 216 153 430 387 430c168 0 261 -99 262 -272c1 -216 -152 -430 -386 -430z
M380 47c192 0 312 187 313 370c0 135 -67 216 -197 216c-190 0 -311 -187 -311 -370c0 -135 67 -216 195 -216z" />
    <glyph glyph-name="Obreve" unicode="&#x14e;" horiz-adv-x="744" 
d="M408 871h49c0 -52 30 -71 71 -71s81 19 97 71h49c-28 -84 -87 -114 -152 -114c-64 0 -114 36 -114 114zM377 -11c-169 0 -263 99 -263 272c0 216 153 430 387 430c168 0 261 -99 262 -272c1 -216 -152 -430 -386 -430zM380 47c192 0 312 187 313 370
c0 135 -67 216 -197 216c-190 0 -311 -187 -311 -370c0 -135 67 -216 195 -216z" />
    <glyph glyph-name="Ohungarumlaut" unicode="&#x150;" horiz-adv-x="744" 
d="M429 757l92 114h71l-113 -114h-50zM558 757l92 114h71l-114 -114h-49zM377 -11c-169 0 -263 99 -263 272c0 216 153 430 387 430c168 0 261 -99 262 -272c1 -216 -152 -430 -386 -430zM380 47c192 0 312 187 313 370c0 135 -67 216 -197 216c-190 0 -311 -187 -311 -370
c0 -135 67 -216 195 -216z" />
    <glyph glyph-name="Omacron" unicode="&#x14c;" horiz-adv-x="744" 
d="M415 789l10 51h219l-10 -51h-219zM377 -11c-169 0 -263 99 -263 272c0 216 153 430 387 430c168 0 261 -99 262 -272c1 -216 -152 -430 -386 -430zM380 47c192 0 312 187 313 370c0 135 -67 216 -197 216c-190 0 -311 -187 -311 -370c0 -135 67 -216 195 -216z" />
    <glyph glyph-name="Racute" unicode="&#x154;" horiz-adv-x="616" 
d="M381 757l120 114h90l-146 -114h-64zM85 0l132 680h232c121 0 194 -59 194 -162c0 -83 -55 -156 -147 -189c47 -17 66 -55 70 -128l12 -201h-69l-9 186c-4 95 -40 112 -131 112h-159l-58 -298h-67zM438 625h-165l-52 -271h162c114 0 189 70 189 163c0 67 -49 108 -134 108
z" />
    <glyph glyph-name="Rcaron" unicode="&#x158;" horiz-adv-x="616" 
d="M519 871h62l-115 -114h-87l-77 114h61l62 -82zM85 0l132 680h232c121 0 194 -59 194 -162c0 -83 -55 -156 -147 -189c47 -17 66 -55 70 -128l12 -201h-69l-9 186c-4 95 -40 112 -131 112h-159l-58 -298h-67zM438 625h-165l-52 -271h162c114 0 189 70 189 163
c0 67 -49 108 -134 108z" />
    <glyph glyph-name="Rcommaaccent" unicode="&#x156;" horiz-adv-x="616" 
d="M85 0l132 680h232c121 0 194 -59 194 -162c0 -83 -55 -156 -147 -189c47 -17 66 -55 70 -128l12 -201h-69l-9 186c-4 95 -40 112 -131 112h-159l-58 -298h-67zM438 625h-165l-52 -271h162c114 0 189 70 189 163c0 67 -49 108 -134 108zM263 -140l11 58h78l-4 -23
c-11 -54 -31 -88 -60 -122h-34c21 30 36 53 43 87h-34z" />
    <glyph glyph-name="Scaron" unicode="&#x160;" horiz-adv-x="593" 
d="M544 871h62l-115 -114h-87l-77 114h61l62 -82zM401 633c-117 0 -171 -67 -171 -136c0 -172 363 -51 363 -287c0 -119 -105 -221 -273 -221c-146 0 -235 69 -243 196h70c6 -88 65 -138 173 -138c128 0 201 73 201 156c0 184 -363 56 -363 293c0 94 81 195 250 195
c142 0 225 -73 225 -199h-70c-4 93 -59 141 -162 141z" />
    <glyph glyph-name="Sacute" unicode="&#x15a;" horiz-adv-x="593" 
d="M406 757l120 114h90l-146 -114h-64zM401 633c-117 0 -171 -67 -171 -136c0 -172 363 -51 363 -287c0 -119 -105 -221 -273 -221c-146 0 -235 69 -243 196h70c6 -88 65 -138 173 -138c128 0 201 73 201 156c0 184 -363 56 -363 293c0 94 81 195 250 195
c142 0 225 -73 225 -199h-70c-4 93 -59 141 -162 141z" />
    <glyph glyph-name="Scedilla" unicode="&#x15e;" horiz-adv-x="593" 
d="M178 -187c94 3 140 24 140 60c0 23 -24 34 -84 39l60 78c-130 8 -209 76 -217 195h70c6 -88 65 -138 173 -138c128 0 201 73 201 156c0 184 -363 56 -363 293c0 94 81 195 250 195c142 0 225 -73 225 -199h-70c-4 93 -59 141 -162 141c-117 0 -171 -67 -171 -136
c0 -172 363 -51 363 -287c0 -115 -99 -215 -257 -221l-39 -49c51 -6 76 -28 76 -60c0 -64 -71 -97 -202 -101z" />
    <glyph glyph-name="Scircumflex" unicode="&#x15c;" horiz-adv-x="593" 
d="M522 757l-62 81l-94 -81h-61l114 114h87l77 -114h-61zM401 633c-117 0 -171 -67 -171 -136c0 -172 363 -51 363 -287c0 -119 -105 -221 -273 -221c-146 0 -235 69 -243 196h70c6 -88 65 -138 173 -138c128 0 201 73 201 156c0 184 -363 56 -363 293c0 94 81 195 250 195
c142 0 225 -73 225 -199h-70c-4 93 -59 141 -162 141z" />
    <glyph glyph-name="Scommaaccent" unicode="&#x218;" horiz-adv-x="593" 
d="M401 633c-117 0 -171 -67 -171 -136c0 -172 363 -51 363 -287c0 -119 -105 -221 -273 -221c-146 0 -235 69 -243 196h70c6 -88 65 -138 173 -138c128 0 201 73 201 156c0 184 -363 56 -363 293c0 94 81 195 250 195c142 0 225 -73 225 -199h-70c-4 93 -59 141 -162 141z
M261 -140l11 58h78l-4 -23c-11 -54 -31 -88 -60 -122h-34c21 30 36 53 43 87h-34z" />
    <glyph glyph-name="Tbar" unicode="&#x166;" horiz-adv-x="613" 
d="M273 0l63 326h-102l9 48h103l48 248h-241l11 58h549l-11 -58h-240l-48 -248h106l-9 -48h-107l-63 -326h-68z" />
    <glyph glyph-name="Tcaron" unicode="&#x164;" horiz-adv-x="613" 
d="M555 871h62l-115 -114h-87l-77 114h61l62 -82zM273 0l121 622h-241l11 58h549l-11 -58h-240l-121 -622h-68z" />
    <glyph glyph-name="Tcedilla" unicode="&#x162;" horiz-adv-x="613" 
d="M273 0l121 622h-241l11 58h549l-11 -58h-240l-121 -622h-68zM242 -140l11 58h78l-4 -23c-11 -54 -31 -88 -60 -122h-34c21 30 36 53 43 87h-34z" />
    <glyph glyph-name="Tcommaaccent" unicode="&#x21a;" horiz-adv-x="613" 
d="M273 0l121 622h-241l11 58h549l-11 -58h-240l-121 -622h-68zM242 -140l11 58h78l-4 -23c-11 -54 -31 -88 -60 -122h-34c21 30 36 53 43 87h-34z" />
    <glyph glyph-name="Uacute" unicode="&#xda;" horiz-adv-x="681" 
d="M449 757l120 114h90l-146 -114h-64zM655 259c-34 -174 -144 -270 -309 -270c-145 0 -226 82 -226 206c0 21 2 42 6 64l82 421h68l-82 -421c-4 -21 -6 -41 -6 -59c0 -99 58 -156 162 -156c122 0 212 82 238 215l81 421h68z" />
    <glyph glyph-name="Ucircumflex" unicode="&#xdb;" horiz-adv-x="681" 
d="M565 757l-62 81l-94 -81h-61l114 114h87l77 -114h-61zM655 259c-34 -174 -144 -270 -309 -270c-145 0 -226 82 -226 206c0 21 2 42 6 64l82 421h68l-82 -421c-4 -21 -6 -41 -6 -59c0 -99 58 -156 162 -156c122 0 212 82 238 215l81 421h68z" />
    <glyph glyph-name="Udieresis" unicode="&#xdc;" horiz-adv-x="681" 
d="M405 757l22 114h57l-22 -114h-57zM511 757l22 114h57l-22 -114h-57zM655 259c-34 -174 -144 -270 -309 -270c-145 0 -226 82 -226 206c0 21 2 42 6 64l82 421h68l-82 -421c-4 -21 -6 -41 -6 -59c0 -99 58 -156 162 -156c122 0 212 82 238 215l81 421h68z" />
    <glyph glyph-name="Ugrave" unicode="&#xd9;" horiz-adv-x="681" 
d="M524 757h-64l-98 114h83zM655 259c-34 -174 -144 -270 -309 -270c-145 0 -226 82 -226 206c0 21 2 42 6 64l82 421h68l-82 -421c-4 -21 -6 -41 -6 -59c0 -99 58 -156 162 -156c122 0 212 82 238 215l81 421h68z" />
    <glyph glyph-name="Ubreve" unicode="&#x16c;" horiz-adv-x="681" 
d="M376 871h49c0 -52 30 -71 71 -71s81 19 97 71h49c-28 -84 -87 -114 -152 -114c-64 0 -114 36 -114 114zM655 259c-34 -174 -144 -270 -309 -270c-145 0 -226 82 -226 206c0 21 2 42 6 64l82 421h68l-82 -421c-4 -21 -6 -41 -6 -59c0 -99 58 -156 162 -156
c122 0 212 82 238 215l81 421h68z" />
    <glyph glyph-name="Uhungarumlaut" unicode="&#x170;" horiz-adv-x="681" 
d="M397 757l92 114h71l-113 -114h-50zM526 757l92 114h71l-114 -114h-49zM655 259c-34 -174 -144 -270 -309 -270c-145 0 -226 82 -226 206c0 21 2 42 6 64l82 421h68l-82 -421c-4 -21 -6 -41 -6 -59c0 -99 58 -156 162 -156c122 0 212 82 238 215l81 421h68z" />
    <glyph glyph-name="Umacron" unicode="&#x16a;" horiz-adv-x="681" 
d="M383 789l10 51h219l-10 -51h-219zM655 259c-34 -174 -144 -270 -309 -270c-145 0 -226 82 -226 206c0 21 2 42 6 64l82 421h68l-82 -421c-4 -21 -6 -41 -6 -59c0 -99 58 -156 162 -156c122 0 212 82 238 215l81 421h68z" />
    <glyph glyph-name="Uogonek" unicode="&#x172;" horiz-adv-x="681" 
d="M655 259c-29 -146 -111 -237 -234 -263c-78 -42 -108 -97 -108 -131c0 -33 26 -55 72 -55c29 0 45 5 59 11l-9 -41c-24 -9 -43 -12 -70 -12c-64 0 -108 31 -108 82c0 52 37 101 98 139h-9c-145 0 -226 82 -226 206c0 21 2 42 6 64l82 421h68l-82 -421
c-4 -21 -6 -41 -6 -59c0 -99 58 -156 162 -156c122 0 212 82 238 215l81 421h68z" />
    <glyph glyph-name="Uring" unicode="&#x16e;" horiz-adv-x="681" 
d="M489 757c-48 0 -82 33 -82 79c0 54 47 112 113 112c49 0 82 -35 82 -79c0 -55 -46 -112 -113 -112zM493 795c38 0 68 34 68 71c0 25 -18 44 -44 44c-39 0 -68 -34 -68 -71c0 -27 17 -44 44 -44zM655 259c-34 -174 -144 -270 -309 -270c-145 0 -226 82 -226 206
c0 21 2 42 6 64l82 421h68l-82 -421c-4 -21 -6 -41 -6 -59c0 -99 58 -156 162 -156c122 0 212 82 238 215l81 421h68z" />
    <glyph glyph-name="Utilde" unicode="&#x168;" horiz-adv-x="681" 
d="M380 757h-40c17 91 65 114 100 114c70 0 78 -71 120 -71c19 0 42 12 55 71h40c-18 -91 -64 -114 -100 -114c-69 0 -77 70 -120 70c-19 0 -42 -12 -55 -70zM655 259c-34 -174 -144 -270 -309 -270c-145 0 -226 82 -226 206c0 21 2 42 6 64l82 421h68l-82 -421
c-4 -21 -6 -41 -6 -59c0 -99 58 -156 162 -156c122 0 212 82 238 215l81 421h68z" />
    <glyph glyph-name="Wacute" unicode="&#x1e82;" horiz-adv-x="1059" 
d="M650 757l120 114h90l-146 -114h-64zM716 0l-68 541l-4 44l-21 -44l-279 -541h-84l-85 680h70l65 -562l5 -54l25 54l287 562h69l68 -562l4 -54l26 54l283 562h71l-349 -680h-83z" />
    <glyph glyph-name="Wcircumflex" unicode="&#x174;" horiz-adv-x="1059" 
d="M766 757l-62 81l-94 -81h-61l114 114h87l77 -114h-61zM716 0l-68 541l-4 44l-21 -44l-279 -541h-84l-85 680h70l65 -562l5 -54l25 54l287 562h69l68 -562l4 -54l26 54l283 562h71l-349 -680h-83z" />
    <glyph glyph-name="Wdieresis" unicode="&#x1e84;" horiz-adv-x="1059" 
d="M606 757l22 114h57l-22 -114h-57zM712 757l22 114h57l-22 -114h-57zM716 0l-68 541l-4 44l-21 -44l-279 -541h-84l-85 680h70l65 -562l5 -54l25 54l287 562h69l68 -562l4 -54l26 54l283 562h71l-349 -680h-83z" />
    <glyph glyph-name="Wgrave" unicode="&#x1e80;" horiz-adv-x="1059" 
d="M725 757h-64l-98 114h83zM716 0l-68 541l-4 44l-21 -44l-279 -541h-84l-85 680h70l65 -562l5 -54l25 54l287 562h69l68 -562l4 -54l26 54l283 562h71l-349 -680h-83z" />
    <glyph glyph-name="Yacute" unicode="&#xdd;" horiz-adv-x="602" 
d="M414 757l120 114h90l-146 -114h-64zM267 0l50 257l-166 423h72l117 -302l21 -62l42 62l234 302h77l-329 -423l-50 -257h-68z" />
    <glyph glyph-name="Ydieresis" unicode="&#x178;" horiz-adv-x="602" 
d="M370 757l22 114h57l-22 -114h-57zM476 757l22 114h57l-22 -114h-57zM267 0l50 257l-166 423h72l117 -302l21 -62l42 62l234 302h77l-329 -423l-50 -257h-68z" />
    <glyph glyph-name="Ycircumflex" unicode="&#x176;" horiz-adv-x="602" 
d="M530 757l-62 81l-94 -81h-61l114 114h87l77 -114h-61zM267 0l50 257l-166 423h72l117 -302l21 -62l42 62l234 302h77l-329 -423l-50 -257h-68z" />
    <glyph glyph-name="Ygrave" unicode="&#x1ef2;" horiz-adv-x="602" 
d="M489 757h-64l-98 114h83zM267 0l50 257l-166 423h72l117 -302l21 -62l42 62l234 302h77l-329 -423l-50 -257h-68z" />
    <glyph glyph-name="Zcaron" unicode="&#x17d;" horiz-adv-x="605" 
d="M554 871h62l-115 -114h-87l-77 114h61l62 -82zM49 0l11 58l534 564h-424l11 58h506l-11 -58l-534 -564h424l-11 -58h-506z" />
    <glyph glyph-name="Zacute" unicode="&#x179;" horiz-adv-x="605" 
d="M416 757l120 114h90l-146 -114h-64zM49 0l11 58l534 564h-424l11 58h506l-11 -58l-534 -564h424l-11 -58h-506z" />
    <glyph glyph-name="Zdotaccent" unicode="&#x17b;" horiz-adv-x="605" 
d="M421 757l22 114h65l-22 -114h-65zM49 0l11 58l534 564h-424l11 58h506l-11 -58l-534 -564h424l-11 -58h-506z" />
    <glyph glyph-name="aacute" unicode="&#xe1;" 
d="M357 606l120 114h90l-146 -114h-64zM197 357h-65c34 115 123 183 247 183c127 0 178 -63 178 -152c0 -18 -2 -37 -6 -56l-40 -208c-7 -34 -10 -60 -10 -82c0 -16 2 -29 6 -42h-69c-3 10 -4 21 -4 34c0 18 3 40 6 61c-54 -69 -130 -106 -205 -106c-99 0 -160 49 -160 135
c0 77 49 131 130 158s162 33 278 33l4 18c3 18 4 34 4 48c0 67 -37 103 -120 103c-90 0 -146 -49 -174 -127zM142 131c0 -57 40 -86 104 -86c105 0 201 86 220 184h1l7 37c-259 -1 -332 -53 -332 -135z" />
    <glyph glyph-name="acircumflex" unicode="&#xe2;" 
d="M473 606l-62 81l-94 -81h-61l114 114h87l77 -114h-61zM197 357h-65c34 115 123 183 247 183c127 0 178 -63 178 -152c0 -18 -2 -37 -6 -56l-40 -208c-7 -34 -10 -60 -10 -82c0 -16 2 -29 6 -42h-69c-3 10 -4 21 -4 34c0 18 3 40 6 61c-54 -69 -130 -106 -205 -106
c-99 0 -160 49 -160 135c0 77 49 131 130 158s162 33 278 33l4 18c3 18 4 34 4 48c0 67 -37 103 -120 103c-90 0 -146 -49 -174 -127zM142 131c0 -57 40 -86 104 -86c105 0 201 86 220 184h1l7 37c-259 -1 -332 -53 -332 -135z" />
    <glyph glyph-name="adieresis" unicode="&#xe4;" 
d="M313 606l22 114h57l-22 -114h-57zM419 606l22 114h57l-22 -114h-57zM197 357h-65c34 115 123 183 247 183c127 0 178 -63 178 -152c0 -18 -2 -37 -6 -56l-40 -208c-7 -34 -10 -60 -10 -82c0 -16 2 -29 6 -42h-69c-3 10 -4 21 -4 34c0 18 3 40 6 61
c-54 -69 -130 -106 -205 -106c-99 0 -160 49 -160 135c0 77 49 131 130 158s162 33 278 33l4 18c3 18 4 34 4 48c0 67 -37 103 -120 103c-90 0 -146 -49 -174 -127zM142 131c0 -57 40 -86 104 -86c105 0 201 86 220 184h1l7 37c-259 -1 -332 -53 -332 -135z" />
    <glyph glyph-name="agrave" unicode="&#xe0;" 
d="M432 606h-64l-98 114h83zM197 357h-65c34 115 123 183 247 183c127 0 178 -63 178 -152c0 -18 -2 -37 -6 -56l-40 -208c-7 -34 -10 -60 -10 -82c0 -16 2 -29 6 -42h-69c-3 10 -4 21 -4 34c0 18 3 40 6 61c-54 -69 -130 -106 -205 -106c-99 0 -160 49 -160 135
c0 77 49 131 130 158s162 33 278 33l4 18c3 18 4 34 4 48c0 67 -37 103 -120 103c-90 0 -146 -49 -174 -127zM142 131c0 -57 40 -86 104 -86c105 0 201 86 220 184h1l7 37c-259 -1 -332 -53 -332 -135z" />
    <glyph glyph-name="aring" unicode="&#xe5;" 
d="M397 606c-48 0 -82 33 -82 79c0 54 47 112 113 112c49 0 82 -35 82 -79c0 -55 -46 -112 -113 -112zM401 644c38 0 68 34 68 71c0 25 -18 44 -44 44c-39 0 -68 -34 -68 -71c0 -27 17 -44 44 -44zM197 357h-65c34 115 123 183 247 183c127 0 178 -63 178 -152
c0 -18 -2 -37 -6 -56l-40 -208c-7 -34 -10 -60 -10 -82c0 -16 2 -29 6 -42h-69c-3 10 -4 21 -4 34c0 18 3 40 6 61c-54 -69 -130 -106 -205 -106c-99 0 -160 49 -160 135c0 77 49 131 130 158s162 33 278 33l4 18c3 18 4 34 4 48c0 67 -37 103 -120 103
c-90 0 -146 -49 -174 -127zM142 131c0 -57 40 -86 104 -86c105 0 201 86 220 184h1l7 37c-259 -1 -332 -53 -332 -135z" />
    <glyph glyph-name="atilde" unicode="&#xe3;" 
d="M288 606h-40c17 91 65 114 100 114c70 0 78 -71 120 -71c19 0 42 12 55 71h40c-18 -91 -64 -114 -100 -114c-69 0 -77 70 -120 70c-19 0 -42 -12 -55 -70zM197 357h-65c34 115 123 183 247 183c127 0 178 -63 178 -152c0 -18 -2 -37 -6 -56l-40 -208
c-7 -34 -10 -60 -10 -82c0 -16 2 -29 6 -42h-69c-3 10 -4 21 -4 34c0 18 3 40 6 61c-54 -69 -130 -106 -205 -106c-99 0 -160 49 -160 135c0 77 49 131 130 158s162 33 278 33l4 18c3 18 4 34 4 48c0 67 -37 103 -120 103c-90 0 -146 -49 -174 -127zM142 131
c0 -57 40 -86 104 -86c105 0 201 86 220 184h1l7 37c-259 -1 -332 -53 -332 -135z" />
    <glyph glyph-name="abreve" unicode="&#x103;" 
d="M284 720h49c0 -52 30 -71 71 -71s81 19 97 71h49c-28 -84 -87 -114 -152 -114c-64 0 -114 36 -114 114zM197 357h-65c34 115 123 183 247 183c127 0 178 -63 178 -152c0 -18 -2 -37 -6 -56l-40 -208c-7 -34 -10 -60 -10 -82c0 -16 2 -29 6 -42h-69c-3 10 -4 21 -4 34
c0 18 3 40 6 61c-54 -69 -130 -106 -205 -106c-99 0 -160 49 -160 135c0 77 49 131 130 158s162 33 278 33l4 18c3 18 4 34 4 48c0 67 -37 103 -120 103c-90 0 -146 -49 -174 -127zM142 131c0 -57 40 -86 104 -86c105 0 201 86 220 184h1l7 37c-259 -1 -332 -53 -332 -135z
" />
    <glyph glyph-name="amacron" unicode="&#x101;" 
d="M291 638l10 51h219l-10 -51h-219zM197 357h-65c34 115 123 183 247 183c127 0 178 -63 178 -152c0 -18 -2 -37 -6 -56l-40 -208c-7 -34 -10 -60 -10 -82c0 -16 2 -29 6 -42h-69c-3 10 -4 21 -4 34c0 18 3 40 6 61c-54 -69 -130 -106 -205 -106c-99 0 -160 49 -160 135
c0 77 49 131 130 158s162 33 278 33l4 18c3 18 4 34 4 48c0 67 -37 103 -120 103c-90 0 -146 -49 -174 -127zM142 131c0 -57 40 -86 104 -86c105 0 201 86 220 184h1l7 37c-259 -1 -332 -53 -332 -135z" />
    <glyph glyph-name="aogonek" unicode="&#x105;" 
d="M197 357h-65c34 115 123 183 247 183c127 0 178 -63 178 -152c0 -18 -2 -37 -6 -56l-40 -208c-7 -34 -10 -60 -10 -82c0 -16 2 -29 6 -42h-36c-83 -43 -115 -100 -115 -135c0 -33 26 -55 72 -55c29 0 45 5 59 11l-8 -41c-24 -9 -44 -12 -71 -12c-64 0 -107 31 -107 82
c0 62 52 120 135 160c-2 7 -2 15 -2 24c0 22 4 49 9 74v2c-54 -76 -133 -121 -208 -121c-99 0 -160 49 -160 135c0 77 49 131 130 158s162 33 278 33l4 18c3 18 4 34 4 48c0 67 -37 103 -120 103c-90 0 -146 -49 -174 -127zM142 131c0 -57 40 -86 104 -86
c105 0 201 86 220 184h1l7 37c-259 -1 -332 -53 -332 -135z" />
    <glyph glyph-name="ccedilla" unicode="&#xe7;" horiz-adv-x="549" 
d="M139 -187c95 3 141 24 141 60c0 23 -25 34 -84 39l60 79c-101 12 -165 84 -165 202c0 179 117 347 289 347c118 0 189 -71 190 -190h-65c0 89 -51 134 -130 134c-131 0 -217 -141 -217 -289c0 -95 52 -150 134 -150c80 0 145 43 183 130h64c-47 -124 -139 -182 -242 -186
l-38 -49c51 -6 76 -28 76 -60c0 -64 -71 -97 -203 -101z" />
    <glyph glyph-name="cacute" unicode="&#x107;" horiz-adv-x="549" 
d="M355 606l120 114h90l-146 -114h-64zM570 350h-65c0 89 -51 134 -130 134c-131 0 -217 -141 -217 -289c0 -95 52 -150 134 -150c80 0 145 43 183 130h64c-48 -128 -145 -186 -252 -186c-119 0 -196 74 -196 204c0 179 117 347 289 347c118 0 189 -71 190 -190z" />
    <glyph glyph-name="ccaron" unicode="&#x10d;" horiz-adv-x="549" 
d="M493 720h62l-115 -114h-87l-77 114h61l62 -82zM570 350h-65c0 89 -51 134 -130 134c-131 0 -217 -141 -217 -289c0 -95 52 -150 134 -150c80 0 145 43 183 130h64c-48 -128 -145 -186 -252 -186c-119 0 -196 74 -196 204c0 179 117 347 289 347c118 0 189 -71 190 -190z
" />
    <glyph glyph-name="ccircumflex" unicode="&#x109;" horiz-adv-x="549" 
d="M471 606l-62 81l-94 -81h-61l114 114h87l77 -114h-61zM570 350h-65c0 89 -51 134 -130 134c-131 0 -217 -141 -217 -289c0 -95 52 -150 134 -150c80 0 145 43 183 130h64c-48 -128 -145 -186 -252 -186c-119 0 -196 74 -196 204c0 179 117 347 289 347
c118 0 189 -71 190 -190z" />
    <glyph glyph-name="cdotaccent" unicode="&#x10b;" horiz-adv-x="549" 
d="M360 606l22 114h65l-22 -114h-65zM570 350h-65c0 89 -51 134 -130 134c-131 0 -217 -141 -217 -289c0 -95 52 -150 134 -150c80 0 145 43 183 130h64c-48 -128 -145 -186 -252 -186c-119 0 -196 74 -196 204c0 179 117 347 289 347c118 0 189 -71 190 -190z" />
    <glyph glyph-name="dcaron" unicode="&#x10f;" horiz-adv-x="593" 
d="M263 -11c-111 0 -173 76 -173 198c0 177 114 353 282 353c69 0 118 -34 142 -95l54 275h65l-140 -720h-65l17 87c-48 -60 -113 -98 -182 -98zM674 662l12 58h77l-4 -23c-11 -54 -32 -88 -59 -121h-34c24 32 35 52 41 86h-33zM277 45c131 0 210 161 210 296
c0 91 -43 143 -121 143c-119 0 -209 -144 -209 -294c0 -93 42 -145 120 -145z" />
    <glyph glyph-name="dcroat" unicode="&#x111;" horiz-adv-x="571" 
d="M263 -11c-111 0 -173 76 -173 198c0 177 114 353 282 353c69 0 118 -34 142 -95l34 171h-102l10 48h101l11 56h65l-11 -56h53l-10 -48h-52l-120 -616h-65l17 87c-48 -60 -113 -98 -182 -98zM277 45c131 0 210 161 210 296c0 91 -43 143 -121 143
c-119 0 -209 -144 -209 -294c0 -93 42 -145 120 -145z" />
    <glyph glyph-name="eacute" unicode="&#xe9;" 
d="M364 606l120 114h90l-146 -114h-64zM552 172c-55 -129 -150 -183 -265 -183c-120 0 -196 74 -196 204c0 180 118 347 289 347c129 0 195 -76 195 -195c0 -23 -3 -48 -7 -73l-3 -18h-403c-3 -18 -4 -36 -4 -54c0 -102 49 -155 138 -155c83 0 152 42 189 127h67zM376 484
c-99 0 -172 -80 -203 -180h334c1 12 2 24 2 36c0 92 -46 144 -133 144z" />
    <glyph glyph-name="ecircumflex" unicode="&#xea;" 
d="M480 606l-62 81l-94 -81h-61l114 114h87l77 -114h-61zM552 172c-55 -129 -150 -183 -265 -183c-120 0 -196 74 -196 204c0 180 118 347 289 347c129 0 195 -76 195 -195c0 -23 -3 -48 -7 -73l-3 -18h-403c-3 -18 -4 -36 -4 -54c0 -102 49 -155 138 -155
c83 0 152 42 189 127h67zM376 484c-99 0 -172 -80 -203 -180h334c1 12 2 24 2 36c0 92 -46 144 -133 144z" />
    <glyph glyph-name="edieresis" unicode="&#xeb;" 
d="M320 606l22 114h57l-22 -114h-57zM426 606l22 114h57l-22 -114h-57zM552 172c-55 -129 -150 -183 -265 -183c-120 0 -196 74 -196 204c0 180 118 347 289 347c129 0 195 -76 195 -195c0 -23 -3 -48 -7 -73l-3 -18h-403c-3 -18 -4 -36 -4 -54c0 -102 49 -155 138 -155
c83 0 152 42 189 127h67zM376 484c-99 0 -172 -80 -203 -180h334c1 12 2 24 2 36c0 92 -46 144 -133 144z" />
    <glyph glyph-name="egrave" unicode="&#xe8;" 
d="M439 606h-64l-98 114h83zM552 172c-55 -129 -150 -183 -265 -183c-120 0 -196 74 -196 204c0 180 118 347 289 347c129 0 195 -76 195 -195c0 -23 -3 -48 -7 -73l-3 -18h-403c-3 -18 -4 -36 -4 -54c0 -102 49 -155 138 -155c83 0 152 42 189 127h67zM376 484
c-99 0 -172 -80 -203 -180h334c1 12 2 24 2 36c0 92 -46 144 -133 144z" />
    <glyph glyph-name="ebreve" unicode="&#x115;" 
d="M291 720h49c0 -52 30 -71 71 -71s81 19 97 71h49c-28 -84 -87 -114 -152 -114c-64 0 -114 36 -114 114zM552 172c-55 -129 -150 -183 -265 -183c-120 0 -196 74 -196 204c0 180 118 347 289 347c129 0 195 -76 195 -195c0 -23 -3 -48 -7 -73l-3 -18h-403
c-3 -18 -4 -36 -4 -54c0 -102 49 -155 138 -155c83 0 152 42 189 127h67zM376 484c-99 0 -172 -80 -203 -180h334c1 12 2 24 2 36c0 92 -46 144 -133 144z" />
    <glyph glyph-name="ecaron" unicode="&#x11b;" 
d="M502 720h62l-115 -114h-87l-77 114h61l62 -82zM552 172c-55 -129 -150 -183 -265 -183c-120 0 -196 74 -196 204c0 180 118 347 289 347c129 0 195 -76 195 -195c0 -23 -3 -48 -7 -73l-3 -18h-403c-3 -18 -4 -36 -4 -54c0 -102 49 -155 138 -155c83 0 152 42 189 127h67z
M376 484c-99 0 -172 -80 -203 -180h334c1 12 2 24 2 36c0 92 -46 144 -133 144z" />
    <glyph glyph-name="edotaccent" unicode="&#x117;" 
d="M369 606l22 114h65l-22 -114h-65zM552 172c-55 -129 -150 -183 -265 -183c-120 0 -196 74 -196 204c0 180 118 347 289 347c129 0 195 -76 195 -195c0 -23 -3 -48 -7 -73l-3 -18h-403c-3 -18 -4 -36 -4 -54c0 -102 49 -155 138 -155c83 0 152 42 189 127h67zM376 484
c-99 0 -172 -80 -203 -180h334c1 12 2 24 2 36c0 92 -46 144 -133 144z" />
    <glyph glyph-name="emacron" unicode="&#x113;" 
d="M298 638l10 51h219l-10 -51h-219zM552 172c-55 -129 -150 -183 -265 -183c-120 0 -196 74 -196 204c0 180 118 347 289 347c129 0 195 -76 195 -195c0 -23 -3 -48 -7 -73l-3 -18h-403c-3 -18 -4 -36 -4 -54c0 -102 49 -155 138 -155c83 0 152 42 189 127h67zM376 484
c-99 0 -172 -80 -203 -180h334c1 12 2 24 2 36c0 92 -46 144 -133 144z" />
    <glyph glyph-name="eogonek" unicode="&#x119;" 
d="M400 -220c-25 -9 -44 -12 -71 -12c-64 0 -108 31 -108 82c0 56 39 98 104 141c-13 -1 -25 -2 -38 -2c-120 0 -196 74 -196 204c0 180 118 347 289 347c129 0 195 -76 195 -195c0 -23 -3 -48 -7 -73l-3 -18h-403c-3 -18 -4 -36 -4 -54c0 -102 49 -155 138 -155
c83 0 152 42 189 127h67c-32 -75 -77 -124 -132 -153c-102 -65 -143 -113 -143 -154c0 -33 26 -55 72 -55c29 0 45 5 59 11zM376 484c-99 0 -172 -80 -203 -180h334c1 12 2 24 2 36c0 92 -46 144 -133 144z" />
    <glyph glyph-name="gbreve" unicode="&#x11f;" horiz-adv-x="571" 
d="M280 720h49c0 -52 30 -71 71 -71s81 19 97 71h49c-28 -84 -87 -114 -152 -114c-64 0 -114 36 -114 114zM263 -5c-111 0 -173 74 -173 195c0 175 114 350 282 350c69 0 118 -34 143 -95l16 84h65l-107 -552c-29 -153 -125 -209 -244 -209c-124 0 -194 72 -194 177h65
c4 -81 49 -123 134 -123c90 0 153 49 174 158l22 113c-48 -60 -113 -98 -183 -98zM277 51c131 0 210 159 210 292c0 90 -43 141 -121 141c-119 0 -209 -143 -209 -291c0 -91 42 -142 120 -142z" />
    <glyph glyph-name="gcircumflex" unicode="&#x11d;" horiz-adv-x="571" 
d="M469 606l-62 81l-94 -81h-61l114 114h87l77 -114h-61zM263 -5c-111 0 -173 74 -173 195c0 175 114 350 282 350c69 0 118 -34 143 -95l16 84h65l-107 -552c-29 -153 -125 -209 -244 -209c-124 0 -194 72 -194 177h65c4 -81 49 -123 134 -123c90 0 153 49 174 158l22 113
c-48 -60 -113 -98 -183 -98zM277 51c131 0 210 159 210 292c0 90 -43 141 -121 141c-119 0 -209 -143 -209 -291c0 -91 42 -142 120 -142z" />
    <glyph glyph-name="gcommaaccent" unicode="&#x123;" horiz-adv-x="571" 
d="M443 663l-12 -57h-78l4 23c11 54 31 87 59 121h35c-22 -30 -36 -53 -41 -87h33zM263 -5c-111 0 -173 74 -173 195c0 175 114 350 282 350c69 0 118 -34 143 -95l16 84h65l-107 -552c-29 -153 -125 -209 -244 -209c-124 0 -194 72 -194 177h65c4 -81 49 -123 134 -123
c90 0 153 49 174 158l22 113c-48 -60 -113 -98 -183 -98zM277 51c131 0 210 159 210 292c0 90 -43 141 -121 141c-119 0 -209 -143 -209 -291c0 -91 42 -142 120 -142z" />
    <glyph glyph-name="gdotaccent" unicode="&#x121;" horiz-adv-x="571" 
d="M358 606l22 114h65l-22 -114h-65zM263 -5c-111 0 -173 74 -173 195c0 175 114 350 282 350c69 0 118 -34 143 -95l16 84h65l-107 -552c-29 -153 -125 -209 -244 -209c-124 0 -194 72 -194 177h65c4 -81 49 -123 134 -123c90 0 153 49 174 158l22 113
c-48 -60 -113 -98 -183 -98zM277 51c131 0 210 159 210 292c0 90 -43 141 -121 141c-119 0 -209 -143 -209 -291c0 -91 42 -142 120 -142z" />
    <glyph glyph-name="hbar" unicode="&#x127;" 
d="M77 0l120 616h-52l11 48h50l11 56h65l-11 -56h105l-12 -48h-102l-34 -176c48 65 116 100 191 100c94 0 146 -47 146 -134c0 -16 -2 -34 -6 -53l-69 -353h-64l66 340c3 15 4 30 4 43c0 62 -31 102 -105 102c-93 0 -165 -81 -185 -158l-64 -327h-65z" />
    <glyph glyph-name="hcircumflex" unicode="&#x125;" 
d="M444 763l-62 81l-94 -81h-61l114 114h87l77 -114h-61zM77 0l140 720h65l-54 -280c48 65 116 100 191 100c94 0 146 -47 146 -134c0 -16 -2 -34 -6 -53l-69 -353h-64l66 340c3 15 4 30 4 43c0 62 -31 102 -105 102c-93 0 -165 -81 -185 -158l-64 -327h-65z" />
    <glyph glyph-name="iacute" unicode="&#xed;" horiz-adv-x="219" 
d="M190 606l120 114h90l-146 -114h-64zM77 0l103 529h64l-102 -529h-65z" />
    <glyph glyph-name="icircumflex" unicode="&#xee;" horiz-adv-x="219" 
d="M306 606l-62 81l-94 -81h-61l114 114h87l77 -114h-61zM77 0l103 529h64l-102 -529h-65z" />
    <glyph glyph-name="idieresis" unicode="&#xef;" horiz-adv-x="219" 
d="M146 606l22 114h57l-22 -114h-57zM252 606l22 114h57l-22 -114h-57zM77 0l103 529h64l-102 -529h-65z" />
    <glyph glyph-name="igrave" unicode="&#xec;" horiz-adv-x="219" 
d="M265 606h-64l-98 114h83zM77 0l103 529h64l-102 -529h-65z" />
    <glyph glyph-name="ibreve" unicode="&#x12d;" horiz-adv-x="219" 
d="M117 720h49c0 -52 30 -71 71 -71s81 19 97 71h49c-28 -84 -87 -114 -152 -114c-64 0 -114 36 -114 114zM77 0l103 529h64l-102 -529h-65z" />
    <glyph glyph-name="i.dot" unicode="&#xe166;" horiz-adv-x="219" 
d="M195 606l22 114h65l-22 -114h-65zM77 0l103 529h64l-102 -529h-65z" />
    <glyph glyph-name="imacron" unicode="&#x12b;" horiz-adv-x="219" 
d="M124 638l10 51h219l-10 -51h-219zM77 0l103 529h64l-102 -529h-65z" />
    <glyph glyph-name="iogonek" unicode="&#x12f;" horiz-adv-x="219" 
d="M195 606l22 114h65l-22 -114h-65zM112 -220c-24 -9 -43 -12 -70 -12c-64 0 -108 31 -108 82c0 65 58 125 146 165l100 514h64l-102 -529h-37c-83 -43 -115 -100 -115 -135c0 -33 26 -55 72 -55c29 0 45 5 59 11z" />
    <glyph glyph-name="itilde" unicode="&#x129;" horiz-adv-x="219" 
d="M121 606h-40c17 91 65 114 100 114c70 0 78 -71 120 -71c19 0 42 12 55 71h40c-18 -91 -64 -114 -100 -114c-69 0 -77 70 -120 70c-19 0 -42 -12 -55 -70zM77 0l103 529h64l-102 -529h-65z" />
    <glyph glyph-name="jcircumflex" unicode="&#x135;" horiz-adv-x="219" 
d="M306 606l-62 81l-94 -81h-61l114 114h87l77 -114h-61zM127 -77c-22 -111 -66 -152 -167 -152c-16 0 -30 2 -37 5l10 47h12c79 0 102 26 117 101l118 605h64z" />
    <glyph glyph-name="ij" unicode="&#x133;" horiz-adv-x="437" 
d="M195 606l22 114h65l-22 -114h-65zM414 606l22 114h65l-22 -114h-65zM77 0l103 529h64l-102 -529h-65zM346 -77c-22 -111 -66 -152 -167 -152c-16 0 -30 2 -37 5l10 47h12c79 0 102 26 117 101l118 605h64z" />
    <glyph glyph-name="kcommaaccent" unicode="&#x137;" horiz-adv-x="510" 
d="M77 0l140 720h65l-81 -418l296 227h86l-317 -240l221 -289h-76l-215 277l-54 -277h-65zM190 -140l11 58h78l-4 -23c-11 -54 -31 -88 -60 -122h-34c21 30 36 53 43 87h-34z" />
    <glyph glyph-name="lacute" unicode="&#x13a;" horiz-adv-x="219" 
d="M224 763l120 114h90l-146 -114h-64zM77 0l140 720h65l-140 -720h-65z" />
    <glyph glyph-name="lcaron" unicode="&#x13e;" horiz-adv-x="238" 
d="M77 0l140 720h65l-140 -720h-65zM319 662l12 58h77l-4 -23c-11 -54 -32 -88 -59 -121h-34c24 32 35 52 41 86h-33z" />
    <glyph glyph-name="lcommaaccent" unicode="&#x13c;" horiz-adv-x="219" 
d="M77 0l140 720h65l-140 -720h-65zM45 -140l11 58h78l-4 -23c-11 -54 -31 -88 -60 -122h-34c21 30 36 53 43 87h-34z" />
    <glyph glyph-name="ldot" unicode="&#x140;" horiz-adv-x="233" 
d="M77 0l140 720h65l-140 -720h-65zM242 245l22 113h65l-22 -113h-65z" />
    <glyph glyph-name="ntilde" unicode="&#xf1;" 
d="M295 606h-40c17 91 65 114 100 114c70 0 78 -71 120 -71c19 0 42 12 55 71h40c-18 -91 -64 -114 -100 -114c-69 0 -77 70 -120 70c-19 0 -42 -12 -55 -70zM77 0l103 529h64l-16 -84c47 62 112 95 184 95c102 0 151 -58 151 -146c0 -16 -2 -35 -6 -53l-67 -341h-64l66 340
c3 15 4 30 4 43c0 62 -31 102 -105 102c-98 0 -172 -89 -188 -169l-61 -316h-65z" />
    <glyph glyph-name="nacute" unicode="&#x144;" 
d="M364 606l120 114h90l-146 -114h-64zM77 0l103 529h64l-16 -84c47 62 112 95 184 95c102 0 151 -58 151 -146c0 -16 -2 -35 -6 -53l-67 -341h-64l66 340c3 15 4 30 4 43c0 62 -31 102 -105 102c-98 0 -172 -89 -188 -169l-61 -316h-65z" />
    <glyph glyph-name="ncaron" unicode="&#x148;" 
d="M502 720h62l-115 -114h-87l-77 114h61l62 -82zM77 0l103 529h64l-16 -84c47 62 112 95 184 95c102 0 151 -58 151 -146c0 -16 -2 -35 -6 -53l-67 -341h-64l66 340c3 15 4 30 4 43c0 62 -31 102 -105 102c-98 0 -172 -89 -188 -169l-61 -316h-65z" />
    <glyph glyph-name="ncommaaccent" unicode="&#x146;" 
d="M77 0l103 529h64l-16 -84c47 62 112 95 184 95c102 0 151 -58 151 -146c0 -16 -2 -35 -6 -53l-67 -341h-64l66 340c3 15 4 30 4 43c0 62 -31 102 -105 102c-98 0 -172 -89 -188 -169l-61 -316h-65zM219 -140l11 58h78l-4 -23c-11 -54 -31 -88 -60 -122h-34
c21 30 36 53 43 87h-34z" />
    <glyph glyph-name="oacute" unicode="&#xf3;" 
d="M364 606l120 114h90l-146 -114h-64zM288 -11c-123 0 -197 75 -197 204c0 182 114 347 291 347c122 0 196 -75 196 -204c0 -181 -114 -347 -290 -347zM295 45c132 0 216 144 216 289c0 97 -48 150 -136 150c-132 0 -217 -144 -217 -289c0 -96 48 -150 137 -150z" />
    <glyph glyph-name="ocircumflex" unicode="&#xf4;" 
d="M480 606l-62 81l-94 -81h-61l114 114h87l77 -114h-61zM288 -11c-123 0 -197 75 -197 204c0 182 114 347 291 347c122 0 196 -75 196 -204c0 -181 -114 -347 -290 -347zM295 45c132 0 216 144 216 289c0 97 -48 150 -136 150c-132 0 -217 -144 -217 -289
c0 -96 48 -150 137 -150z" />
    <glyph glyph-name="odieresis" unicode="&#xf6;" 
d="M320 606l22 114h57l-22 -114h-57zM426 606l22 114h57l-22 -114h-57zM288 -11c-123 0 -197 75 -197 204c0 182 114 347 291 347c122 0 196 -75 196 -204c0 -181 -114 -347 -290 -347zM295 45c132 0 216 144 216 289c0 97 -48 150 -136 150c-132 0 -217 -144 -217 -289
c0 -96 48 -150 137 -150z" />
    <glyph glyph-name="ograve" unicode="&#xf2;" 
d="M439 606h-64l-98 114h83zM288 -11c-123 0 -197 75 -197 204c0 182 114 347 291 347c122 0 196 -75 196 -204c0 -181 -114 -347 -290 -347zM295 45c132 0 216 144 216 289c0 97 -48 150 -136 150c-132 0 -217 -144 -217 -289c0 -96 48 -150 137 -150z" />
    <glyph glyph-name="otilde" unicode="&#xf5;" 
d="M295 606h-40c17 91 65 114 100 114c70 0 78 -71 120 -71c19 0 42 12 55 71h40c-18 -91 -64 -114 -100 -114c-69 0 -77 70 -120 70c-19 0 -42 -12 -55 -70zM288 -11c-123 0 -197 75 -197 204c0 182 114 347 291 347c122 0 196 -75 196 -204c0 -181 -114 -347 -290 -347z
M295 45c132 0 216 144 216 289c0 97 -48 150 -136 150c-132 0 -217 -144 -217 -289c0 -96 48 -150 137 -150z" />
    <glyph glyph-name="obreve" unicode="&#x14f;" 
d="M291 720h49c0 -52 30 -71 71 -71s81 19 97 71h49c-28 -84 -87 -114 -152 -114c-64 0 -114 36 -114 114zM288 -11c-123 0 -197 75 -197 204c0 182 114 347 291 347c122 0 196 -75 196 -204c0 -181 -114 -347 -290 -347zM295 45c132 0 216 144 216 289
c0 97 -48 150 -136 150c-132 0 -217 -144 -217 -289c0 -96 48 -150 137 -150z" />
    <glyph glyph-name="ohungarumlaut" unicode="&#x151;" 
d="M312 606l92 114h71l-113 -114h-50zM441 606l92 114h71l-114 -114h-49zM288 -11c-123 0 -197 75 -197 204c0 182 114 347 291 347c122 0 196 -75 196 -204c0 -181 -114 -347 -290 -347zM295 45c132 0 216 144 216 289c0 97 -48 150 -136 150c-132 0 -217 -144 -217 -289
c0 -96 48 -150 137 -150z" />
    <glyph glyph-name="omacron" unicode="&#x14d;" 
d="M298 638l10 51h219l-10 -51h-219zM288 -11c-123 0 -197 75 -197 204c0 182 114 347 291 347c122 0 196 -75 196 -204c0 -181 -114 -347 -290 -347zM295 45c132 0 216 144 216 289c0 97 -48 150 -136 150c-132 0 -217 -144 -217 -289c0 -96 48 -150 137 -150z" />
    <glyph glyph-name="racute" unicode="&#x155;" horiz-adv-x="365" 
d="M266 606l120 114h90l-146 -114h-64zM77 0l103 529h64l-17 -89c48 67 111 100 176 100c27 0 45 -4 53 -11l-11 -59c-13 5 -32 8 -52 8c-107 0 -174 -79 -192 -174l-59 -304h-65z" />
    <glyph glyph-name="rcaron" unicode="&#x159;" horiz-adv-x="365" 
d="M404 720h62l-115 -114h-87l-77 114h61l62 -82zM77 0l103 529h64l-17 -89c48 67 111 100 176 100c27 0 45 -4 53 -11l-11 -59c-13 5 -32 8 -52 8c-107 0 -174 -79 -192 -174l-59 -304h-65z" />
    <glyph glyph-name="rcommaaccent" unicode="&#x157;" horiz-adv-x="365" 
d="M77 0l103 529h64l-17 -89c48 67 111 100 176 100c27 0 45 -4 53 -11l-11 -59c-13 5 -32 8 -52 8c-107 0 -174 -79 -192 -174l-59 -304h-65zM60 -140l11 58h78l-4 -23c-11 -54 -31 -88 -60 -122h-34c21 30 36 53 43 87h-34z" />
    <glyph glyph-name="scaron" unicode="&#x161;" horiz-adv-x="505" 
d="M471 720h62l-115 -114h-87l-77 114h61l62 -82zM197 386c0 -137 301 -37 301 -223c0 -88 -86 -174 -227 -174c-132 0 -201 76 -202 183h65c1 -72 42 -131 140 -131c101 0 157 54 157 114c0 138 -298 34 -298 225c0 86 77 160 204 160c111 0 185 -57 185 -183h-65
c0 91 -45 130 -127 130c-85 0 -133 -47 -133 -101z" />
    <glyph glyph-name="sacute" unicode="&#x15b;" horiz-adv-x="505" 
d="M333 606l120 114h90l-146 -114h-64zM197 386c0 -137 301 -37 301 -223c0 -88 -86 -174 -227 -174c-132 0 -201 76 -202 183h65c1 -72 42 -131 140 -131c101 0 157 54 157 114c0 138 -298 34 -298 225c0 86 77 160 204 160c111 0 185 -57 185 -183h-65
c0 91 -45 130 -127 130c-85 0 -133 -47 -133 -101z" />
    <glyph glyph-name="scedilla" unicode="&#x15f;" horiz-adv-x="505" 
d="M125 -187c94 3 141 24 141 60c0 23 -25 34 -84 39l60 78c-113 11 -172 83 -173 182h65c1 -72 42 -131 140 -131c101 0 157 54 157 114c0 138 -298 34 -298 225c0 86 77 160 204 160c111 0 185 -57 185 -183h-65c0 91 -45 130 -127 130c-85 0 -133 -47 -133 -101
c0 -137 301 -37 301 -223c0 -86 -81 -169 -215 -174l-39 -49c52 -6 77 -28 77 -60c0 -64 -71 -97 -203 -101z" />
    <glyph glyph-name="scircumflex" unicode="&#x15d;" horiz-adv-x="505" 
d="M449 606l-62 81l-94 -81h-61l114 114h87l77 -114h-61zM197 386c0 -137 301 -37 301 -223c0 -88 -86 -174 -227 -174c-132 0 -201 76 -202 183h65c1 -72 42 -131 140 -131c101 0 157 54 157 114c0 138 -298 34 -298 225c0 86 77 160 204 160c111 0 185 -57 185 -183h-65
c0 91 -45 130 -127 130c-85 0 -133 -47 -133 -101z" />
    <glyph glyph-name="scommaaccent" unicode="&#x219;" horiz-adv-x="505" 
d="M197 386c0 -137 301 -37 301 -223c0 -88 -86 -174 -227 -174c-132 0 -201 76 -202 183h65c1 -72 42 -131 140 -131c101 0 157 54 157 114c0 138 -298 34 -298 225c0 86 77 160 204 160c111 0 185 -57 185 -183h-65c0 91 -45 130 -127 130c-85 0 -133 -47 -133 -101z
M198 -140l11 58h78l-4 -23c-11 -54 -31 -88 -60 -122h-34c21 30 36 53 43 87h-34z" />
    <glyph glyph-name="tbar" unicode="&#x167;" horiz-adv-x="285" 
d="M115 145l21 110h-71l10 48h71l33 174h-79l10 52h79l24 122h65l-23 -122h118l-10 -52h-118l-34 -174h112l-10 -48h-111l-21 -108c-3 -16 -5 -30 -5 -42c0 -42 21 -61 79 -61h22l-9 -47c-9 -3 -26 -5 -45 -5c-78 0 -114 28 -114 97c0 15 2 34 6 56z" />
    <glyph glyph-name="tcaron" unicode="&#x165;" horiz-adv-x="285" 
d="M325 662l12 58h77l-4 -23c-11 -54 -32 -88 -59 -121h-34c24 32 35 52 41 86h-33zM115 145l64 332h-79l10 52h79l24 122h65l-23 -122h118l-10 -52h-118l-64 -330c-3 -16 -5 -30 -5 -42c0 -42 21 -61 79 -61h22l-9 -47c-9 -3 -26 -5 -45 -5c-78 0 -114 28 -114 97
c0 15 2 34 6 56z" />
    <glyph glyph-name="tcedilla" unicode="&#x163;" horiz-adv-x="285" 
d="M115 145l64 332h-79l10 52h79l24 122h65l-23 -122h118l-10 -52h-118l-64 -330c-3 -16 -5 -30 -5 -42c0 -42 21 -61 79 -61h22l-9 -47c-9 -3 -26 -5 -45 -5c-78 0 -114 28 -114 97c0 15 2 34 6 56zM90 -140l11 58h78l-4 -23c-11 -54 -31 -88 -60 -122h-34
c21 30 36 53 43 87h-34z" />
    <glyph glyph-name="tcommaaccent" unicode="&#x21b;" horiz-adv-x="285" 
d="M115 145l64 332h-79l10 52h79l24 122h65l-23 -122h118l-10 -52h-118l-64 -330c-3 -16 -5 -30 -5 -42c0 -42 21 -61 79 -61h22l-9 -47c-9 -3 -26 -5 -45 -5c-78 0 -114 28 -114 97c0 15 2 34 6 56zM90 -140l11 58h78l-4 -23c-11 -54 -31 -88 -60 -122h-34
c21 30 36 53 43 87h-34z" />
    <glyph glyph-name="uacute" unicode="&#xfa;" horiz-adv-x="562" 
d="M361 606l120 114h90l-146 -114h-64zM461 213l62 316h65l-103 -529h-65l16 82c-48 -61 -112 -93 -178 -93c-98 0 -150 51 -150 142c0 19 2 38 6 58l66 340h64l-65 -341c-4 -16 -6 -30 -6 -44c0 -61 32 -99 103 -99c97 0 170 88 185 168z" />
    <glyph glyph-name="ucircumflex" unicode="&#xfb;" horiz-adv-x="562" 
d="M477 606l-62 81l-94 -81h-61l114 114h87l77 -114h-61zM461 213l62 316h65l-103 -529h-65l16 82c-48 -61 -112 -93 -178 -93c-98 0 -150 51 -150 142c0 19 2 38 6 58l66 340h64l-65 -341c-4 -16 -6 -30 -6 -44c0 -61 32 -99 103 -99c97 0 170 88 185 168z" />
    <glyph glyph-name="udieresis" unicode="&#xfc;" horiz-adv-x="562" 
d="M317 606l22 114h57l-22 -114h-57zM423 606l22 114h57l-22 -114h-57zM461 213l62 316h65l-103 -529h-65l16 82c-48 -61 -112 -93 -178 -93c-98 0 -150 51 -150 142c0 19 2 38 6 58l66 340h64l-65 -341c-4 -16 -6 -30 -6 -44c0 -61 32 -99 103 -99c97 0 170 88 185 168z
" />
    <glyph glyph-name="ugrave" unicode="&#xf9;" horiz-adv-x="562" 
d="M436 606h-64l-98 114h83zM461 213l62 316h65l-103 -529h-65l16 82c-48 -61 -112 -93 -178 -93c-98 0 -150 51 -150 142c0 19 2 38 6 58l66 340h64l-65 -341c-4 -16 -6 -30 -6 -44c0 -61 32 -99 103 -99c97 0 170 88 185 168z" />
    <glyph glyph-name="ubreve" unicode="&#x16d;" horiz-adv-x="562" 
d="M288 720h49c0 -52 30 -71 71 -71s81 19 97 71h49c-28 -84 -87 -114 -152 -114c-64 0 -114 36 -114 114zM461 213l62 316h65l-103 -529h-65l16 82c-48 -61 -112 -93 -178 -93c-98 0 -150 51 -150 142c0 19 2 38 6 58l66 340h64l-65 -341c-4 -16 -6 -30 -6 -44
c0 -61 32 -99 103 -99c97 0 170 88 185 168z" />
    <glyph glyph-name="uhungarumlaut" unicode="&#x171;" horiz-adv-x="562" 
d="M309 606l92 114h71l-113 -114h-50zM438 606l92 114h71l-114 -114h-49zM461 213l62 316h65l-103 -529h-65l16 82c-48 -61 -112 -93 -178 -93c-98 0 -150 51 -150 142c0 19 2 38 6 58l66 340h64l-65 -341c-4 -16 -6 -30 -6 -44c0 -61 32 -99 103 -99c97 0 170 88 185 168z
" />
    <glyph glyph-name="umacron" unicode="&#x16b;" horiz-adv-x="562" 
d="M295 638l10 51h219l-10 -51h-219zM461 213l62 316h65l-103 -529h-65l16 82c-48 -61 -112 -93 -178 -93c-98 0 -150 51 -150 142c0 19 2 38 6 58l66 340h64l-65 -341c-4 -16 -6 -30 -6 -44c0 -61 32 -99 103 -99c97 0 170 88 185 168z" />
    <glyph glyph-name="uogonek" unicode="&#x173;" horiz-adv-x="562" 
d="M461 213l62 316h65l-103 -529h-20c-83 -43 -115 -100 -115 -135c0 -33 26 -55 72 -55c29 0 45 5 59 11l-8 -41c-24 -9 -44 -12 -71 -12c-64 0 -107 31 -107 82c0 60 49 116 126 156l18 90c-48 -69 -115 -107 -181 -107c-98 0 -150 51 -150 142c0 19 2 38 6 58l66 340h64
l-65 -341c-4 -16 -6 -30 -6 -44c0 -61 32 -99 103 -99c97 0 170 88 185 168z" />
    <glyph glyph-name="uring" unicode="&#x16f;" horiz-adv-x="562" 
d="M401 606c-48 0 -82 33 -82 79c0 54 47 112 113 112c49 0 82 -35 82 -79c0 -55 -46 -112 -113 -112zM405 644c38 0 68 34 68 71c0 25 -18 44 -44 44c-39 0 -68 -34 -68 -71c0 -27 17 -44 44 -44zM461 213l62 316h65l-103 -529h-65l16 82c-48 -61 -112 -93 -178 -93
c-98 0 -150 51 -150 142c0 19 2 38 6 58l66 340h64l-65 -341c-4 -16 -6 -30 -6 -44c0 -61 32 -99 103 -99c97 0 170 88 185 168z" />
    <glyph glyph-name="utilde" unicode="&#x169;" horiz-adv-x="562" 
d="M292 606h-40c17 91 65 114 100 114c70 0 78 -71 120 -71c19 0 42 12 55 71h40c-18 -91 -64 -114 -100 -114c-69 0 -77 70 -120 70c-19 0 -42 -12 -55 -70zM461 213l62 316h65l-103 -529h-65l16 82c-48 -61 -112 -93 -178 -93c-98 0 -150 51 -150 142c0 19 2 38 6 58
l66 340h64l-65 -341c-4 -16 -6 -30 -6 -44c0 -61 32 -99 103 -99c97 0 170 88 185 168z" />
    <glyph glyph-name="wacute" unicode="&#x1e83;" horiz-adv-x="801" 
d="M476 606l120 114h90l-146 -114h-64zM542 0l-47 419l-2 54l-23 -54l-208 -419h-82l-62 529h70l41 -432l3 -49l22 49l217 432h70l50 -432l2 -47l20 47l208 432h68l-268 -529h-79z" />
    <glyph glyph-name="wcircumflex" unicode="&#x175;" horiz-adv-x="801" 
d="M592 606l-62 81l-94 -81h-61l114 114h87l77 -114h-61zM542 0l-47 419l-2 54l-23 -54l-208 -419h-82l-62 529h70l41 -432l3 -49l22 49l217 432h70l50 -432l2 -47l20 47l208 432h68l-268 -529h-79z" />
    <glyph glyph-name="wdieresis" unicode="&#x1e85;" horiz-adv-x="801" 
d="M432 606l22 114h57l-22 -114h-57zM538 606l22 114h57l-22 -114h-57zM542 0l-47 419l-2 54l-23 -54l-208 -419h-82l-62 529h70l41 -432l3 -49l22 49l217 432h70l50 -432l2 -47l20 47l208 432h68l-268 -529h-79z" />
    <glyph glyph-name="wgrave" unicode="&#x1e81;" horiz-adv-x="801" 
d="M551 606h-64l-98 114h83zM542 0l-47 419l-2 54l-23 -54l-208 -419h-82l-62 529h70l41 -432l3 -49l22 49l217 432h70l50 -432l2 -47l20 47l208 432h68l-268 -529h-79z" />
    <glyph glyph-name="yacute" unicode="&#xfd;" horiz-adv-x="504" 
d="M329 606l120 114h90l-146 -114h-64zM40 -229c-15 0 -31 4 -40 6l11 50h22c65 0 84 17 155 131l36 59l-114 512h69l82 -374l12 -68l37 67l223 375h71l-366 -604c-77 -128 -112 -154 -198 -154z" />
    <glyph glyph-name="ydieresis" unicode="&#xff;" horiz-adv-x="504" 
d="M285 606l22 114h57l-22 -114h-57zM391 606l22 114h57l-22 -114h-57zM40 -229c-15 0 -31 4 -40 6l11 50h22c65 0 84 17 155 131l36 59l-114 512h69l82 -374l12 -68l37 67l223 375h71l-366 -604c-77 -128 -112 -154 -198 -154z" />
    <glyph glyph-name="ycircumflex" unicode="&#x177;" horiz-adv-x="504" 
d="M445 606l-62 81l-94 -81h-61l114 114h87l77 -114h-61zM40 -229c-15 0 -31 4 -40 6l11 50h22c65 0 84 17 155 131l36 59l-114 512h69l82 -374l12 -68l37 67l223 375h71l-366 -604c-77 -128 -112 -154 -198 -154z" />
    <glyph glyph-name="ygrave" unicode="&#x1ef3;" horiz-adv-x="504" 
d="M404 606h-64l-98 114h83zM40 -229c-15 0 -31 4 -40 6l11 50h22c65 0 84 17 155 131l36 59l-114 512h69l82 -374l12 -68l37 67l223 375h71l-366 -604c-77 -128 -112 -154 -198 -154z" />
    <glyph glyph-name="zcaron" unicode="&#x17e;" horiz-adv-x="491" 
d="M464 720h62l-115 -114h-87l-77 114h61l62 -82zM30 0l10 51l415 426h-319l10 52h399l-9 -52l-416 -426h351l-10 -51h-431z" />
    <glyph glyph-name="zacute" unicode="&#x17a;" horiz-adv-x="491" 
d="M326 606l120 114h90l-146 -114h-64zM30 0l10 51l415 426h-319l10 52h399l-9 -52l-416 -426h351l-10 -51h-431z" />
    <glyph glyph-name="zdotaccent" unicode="&#x17c;" horiz-adv-x="491" 
d="M331 606l22 114h65l-22 -114h-65zM30 0l10 51l415 426h-319l10 52h399l-9 -52l-416 -426h351l-10 -51h-431z" />
    <glyph glyph-name="acute" unicode="&#xb4;" 
d="M364 606l120 114h90l-146 -114h-64z" />
    <glyph glyph-name="grave" unicode="`" 
d="M439 606h-64l-98 114h83z" />
    <glyph glyph-name="circumflex" unicode="&#x2c6;" 
d="M480 606l-62 81l-94 -81h-61l114 114h87l77 -114h-61z" />
    <glyph glyph-name="caron" unicode="&#x2c7;" 
d="M502 720h62l-115 -114h-87l-77 114h61l62 -82z" />
    <glyph glyph-name="tilde" unicode="&#x2dc;" 
d="M295 606h-40c17 91 65 114 100 114c70 0 78 -71 120 -71c19 0 42 12 55 71h40c-18 -91 -64 -114 -100 -114c-69 0 -77 70 -120 70c-19 0 -42 -12 -55 -70z" />
    <glyph glyph-name="dieresis" unicode="&#xa8;" 
d="M320 606l22 114h57l-22 -114h-57zM426 606l22 114h57l-22 -114h-57z" />
    <glyph glyph-name="ring" unicode="&#x2da;" 
d="M404 606c-48 0 -82 33 -82 79c0 54 47 112 113 112c49 0 82 -35 82 -79c0 -55 -46 -112 -113 -112zM408 644c38 0 68 34 68 71c0 25 -18 44 -44 44c-39 0 -68 -34 -68 -71c0 -27 17 -44 44 -44z" />
    <glyph glyph-name="cedilla" unicode="&#xb8;" 
d="M136 -187c94 3 141 24 141 60c0 23 -25 34 -84 39l67 88h42l-47 -60c52 -6 77 -28 77 -60c0 -64 -71 -97 -203 -101z" />
    <glyph glyph-name="hungarumlaut" unicode="&#x2dd;" 
d="M312 606l92 114h71l-113 -114h-50zM441 606l92 114h71l-114 -114h-49z" />
    <glyph glyph-name="breve" unicode="&#x2d8;" 
d="M291 720h49c0 -52 30 -71 71 -71s81 19 97 71h49c-28 -84 -87 -114 -152 -114c-64 0 -114 36 -114 114z" />
    <glyph glyph-name="macron" unicode="&#xaf;" 
d="M298 638l10 51h219l-10 -51h-219z" />
    <glyph glyph-name="dotaccent" unicode="&#x2d9;" 
d="M369 606l22 114h65l-22 -114h-65z" />
    <glyph glyph-name="periodcentered" unicode="&#xb7;" 
d="M299 245l22 113h65l-22 -113h-65z" />
    <glyph glyph-name="ogonek" unicode="&#x2db;" 
d="M314 8c-95 -44 -131 -106 -131 -143c0 -33 26 -55 72 -55c29 0 45 5 59 11l-9 -41c-24 -9 -43 -12 -70 -12c-64 0 -108 31 -108 82c0 71 69 136 172 176z" />
    <glyph glyph-name="commaaccentcomb" unicode="&#x326;" 
d="M219 -140l11 58h78l-4 -23c-11 -54 -31 -88 -60 -122h-34c21 30 36 53 43 87h-34z" />
    <glyph glyph-name="caron.alt" unicode="&#xe189;" 
d="M381 662l12 58h77l-4 -23c-11 -54 -32 -88 -59 -121h-34c24 32 35 52 41 86h-33z" />
    <glyph glyph-name="revcommaaccent" unicode="&#xe18a;" 
d="M454 663l-12 -57h-78l4 23c11 54 31 87 59 121h35c-22 -30 -36 -53 -41 -87h33z" />
    <glyph glyph-name="period" unicode="." horiz-adv-x="219" 
d="M67 0l16 84h85l-17 -84h-84z" />
    <glyph glyph-name="comma" unicode="," horiz-adv-x="219" 
d="M67 0l16 84h85l-9 -45c-17 -85 -39 -136 -78 -193h-38c32 58 48 95 60 154h-36z" />
    <glyph glyph-name="colon" unicode=":" horiz-adv-x="219" 
d="M144 393l17 85h84l-16 -85h-85zM66 0l17 84h84l-16 -84h-85z" />
    <glyph glyph-name="semicolon" unicode=";" horiz-adv-x="219" 
d="M144 393l17 85h84l-16 -85h-85zM67 0l16 84h85l-9 -45c-17 -85 -39 -136 -78 -193h-38c32 58 48 95 60 154h-36z" />
    <glyph glyph-name="ellipsis" unicode="&#x2026;" horiz-adv-x="678" 
d="M66 0l17 84h84l-16 -84h-85zM296 0l16 84h85l-17 -84h-84zM526 0l16 84h85l-16 -84h-85z" />
    <glyph glyph-name="question" unicode="?" horiz-adv-x="515" 
d="M565 538c0 -197 -231 -151 -276 -382h-65c51 259 276 214 276 378c0 67 -40 104 -122 104c-97 0 -154 -51 -184 -140h-65c37 123 121 193 253 193c121 0 183 -60 183 -153zM185 0l16 84h84l-16 -84h-84z" />
    <glyph glyph-name="exclam" unicode="!" horiz-adv-x="307" 
d="M151 156l102 524h65l-102 -524h-65zM110 0l17 84h85l-17 -84h-85z" />
    <glyph glyph-name="questiondown" unicode="&#xbf;" horiz-adv-x="515" 
d="M423 478l-16 -85h-85l17 85h84zM43 -60c0 196 231 151 276 382h65c-51 -259 -276 -214 -276 -378c0 -67 40 -104 122 -104c97 0 154 51 184 139h65c-37 -122 -121 -192 -253 -192c-122 0 -183 60 -183 153z" />
    <glyph glyph-name="exclamdown" unicode="&#xa1;" horiz-adv-x="307" 
d="M290 478l-17 -85h-85l17 85h85zM249 322l-103 -524h-64l102 524h65z" />
    <glyph glyph-name="parenleft" unicode="(" horiz-adv-x="305" 
d="M182 -181c-49 110 -74 217 -74 324c0 202 85 381 249 577h64c-164 -204 -245 -385 -245 -581c0 -105 24 -209 70 -320h-64z" />
    <glyph glyph-name="parenright" unicode=")" horiz-adv-x="305" 
d="M53 -181h-64c162 203 243 385 243 583c0 103 -23 207 -68 318h64c48 -109 73 -215 73 -321c0 -198 -83 -383 -248 -580z" />
    <glyph glyph-name="braceleft" unicode="{" horiz-adv-x="321" 
d="M154 270c50 -6 72 -25 72 -73c0 -15 -2 -33 -6 -53l-40 -198c-2 -11 -3 -21 -3 -29c0 -35 18 -51 62 -51h36l-9 -47h-64c-64 0 -92 26 -92 78c0 11 1 24 3 37l41 206c4 21 6 38 6 52c0 43 -22 54 -86 54l10 47c84 0 103 20 120 106l40 206c15 76 54 115 133 115h64
l-9 -47h-36c-55 0 -79 -24 -90 -80l-38 -198c-17 -87 -47 -119 -114 -125z" />
    <glyph glyph-name="braceright" unicode="}" horiz-adv-x="321" 
d="M271 270c-49 5 -70 24 -70 71c0 15 2 33 6 54l38 198c2 12 3 22 3 30c0 35 -18 50 -61 50h-36l9 47h64c64 0 92 -26 92 -77c0 -11 -2 -24 -5 -38l-39 -206c-4 -21 -6 -38 -6 -52c0 -42 22 -54 85 -54l-9 -47c-84 0 -104 -20 -121 -106l-40 -206
c-15 -77 -54 -115 -132 -115h-64l9 47h36c55 0 79 24 89 80l39 198c17 87 46 119 113 126z" />
    <glyph glyph-name="bracketleft" unicode="[" horiz-adv-x="319" 
d="M80 -181l175 901h184l-9 -47h-120l-157 -807h120l-9 -47h-184z" />
    <glyph glyph-name="bracketright" unicode="]" horiz-adv-x="319" 
d="M169 -181h-184l9 47h120l157 807h-120l9 47h184z" />
    <glyph glyph-name="slash" unicode="/" horiz-adv-x="327" 
d="M9 0l376 680h65l-376 -680h-65z" />
    <glyph glyph-name="backslash" unicode="\" horiz-adv-x="327" 
d="M318 0h-65l-112 680h65z" />
    <glyph glyph-name="underscore" unicode="_" horiz-adv-x="435" 
d="M22 -61l10 50h367l-10 -50h-367z" />
    <glyph glyph-name="hyphen" unicode="-" horiz-adv-x="411" 
d="M122 245l11 56h261l-10 -56h-262z" />
    <glyph glyph-name="softhyphen" unicode="&#xad;" horiz-adv-x="411" 
 />
    <glyph glyph-name="endash" unicode="&#x2013;" horiz-adv-x="500" 
d="M122 245l11 56h350l-10 -56h-351z" />
    <glyph glyph-name="emdash" unicode="&#x2014;" horiz-adv-x="1000" 
d="M122 245l11 56h850l-10 -56h-851z" />
    <glyph glyph-name="brokenbar" unicode="&#xa6;" horiz-adv-x="235" 
d="M154 356l71 364h64l-70 -364h-65zM42 -221l70 364h65l-71 -364h-64z" />
    <glyph glyph-name="bar" unicode="|" horiz-adv-x="235" 
d="M42 -221l183 941h64l-183 -941h-64z" />
    <glyph glyph-name="guillemotleft" unicode="&#xab;" horiz-adv-x="685" 
d="M324 47l-202 194l11 60l278 194l-16 -78l-207 -148l150 -148zM598 47l-202 194l11 60l278 194l-16 -78l-207 -148l150 -148z" />
    <glyph glyph-name="guillemotright" unicode="&#xbb;" horiz-adv-x="685" 
d="M106 46l14 80l208 148l-150 147l15 74l201 -195l-11 -59zM379 46l15 80l208 148l-150 147l15 74l201 -195l-11 -59z" />
    <glyph glyph-name="guilsinglleft" unicode="&#x2039;" horiz-adv-x="411" 
d="M324 47l-202 194l11 60l278 194l-16 -78l-207 -148l150 -148z" />
    <glyph glyph-name="guilsinglright" unicode="&#x203a;" horiz-adv-x="411" 
d="M106 46l14 80l208 148l-150 147l15 74l201 -195l-11 -59z" />
    <glyph glyph-name="quotesinglbase" unicode="&#x201a;" horiz-adv-x="219" 
d="M66 -7l16 82h84l-10 -52c-13 -68 -34 -107 -66 -153h-38c25 47 41 76 50 123h-36z" />
    <glyph glyph-name="quotedblbase" unicode="&#x201e;" horiz-adv-x="374" 
d="M66 -7l16 82h84l-10 -52c-13 -68 -34 -107 -66 -153h-38c25 47 41 76 50 123h-36zM221 -7l15 82h85l-10 -52c-13 -68 -34 -107 -67 -153h-37c25 47 40 76 49 123h-35z" />
    <glyph glyph-name="quoteleft" unicode="&#x2018;" horiz-adv-x="219" 
d="M259 556l-15 -82h-85l10 53c14 67 34 106 66 153h38c-25 -48 -40 -77 -50 -124h36z" />
    <glyph glyph-name="quotedblleft" unicode="&#x201c;" horiz-adv-x="374" 
d="M414 556l-15 -82h-85l10 53c13 67 33 106 66 153h38c-25 -48 -41 -77 -51 -124h37zM259 556l-15 -82h-85l10 53c14 67 34 106 66 153h38c-25 -48 -40 -77 -50 -124h36z" />
    <glyph glyph-name="quoteright" unicode="&#x2019;" horiz-adv-x="219" 
d="M184 597l16 83h83l-10 -53c-13 -68 -33 -108 -65 -153h-38c25 47 40 76 50 123h-36z" />
    <glyph glyph-name="quotedblright" unicode="&#x201d;" horiz-adv-x="374" 
d="M184 597l16 83h83l-10 -53c-13 -68 -33 -107 -65 -153h-38c25 47 40 76 50 123h-36zM339 597l14 83h86l-11 -53c-13 -68 -33 -107 -66 -153h-38c26 47 41 76 50 123h-35z" />
    <glyph glyph-name="quotesingle" unicode="'" horiz-adv-x="206" 
d="M172 474l29 206h71l-53 -206h-47z" />
    <glyph glyph-name="quotedbl" unicode="&#x22;" horiz-adv-x="359" 
d="M172 474l29 206h71l-53 -206h-47zM325 474l28 206h71l-51 -206h-48z" />
    <glyph glyph-name="bullet" unicode="&#x2022;" horiz-adv-x="419" 
d="M240 154c-61 0 -104 43 -104 101c0 82 68 148 152 148c60 0 103 -43 103 -100c0 -82 -68 -149 -151 -149z" />
    <glyph glyph-name="ampersand" unicode="&#x26;" horiz-adv-x="730" 
d="M583 564c0 -106 -93 -151 -191 -192l3 -4l158 -189c34 49 59 108 72 176h67c-15 -80 -50 -159 -100 -222l111 -133h-89l-69 82c-62 -57 -141 -93 -233 -93c-140 0 -212 72 -212 171c0 126 94 180 193 223c-35 48 -50 86 -50 133c0 92 74 175 193 175
c103 0 147 -62 147 -127zM309 519c0 -35 17 -65 51 -109c85 35 158 71 158 147c0 40 -29 78 -87 78c-72 0 -122 -51 -122 -116zM167 163c0 -67 48 -118 148 -118c72 0 139 29 192 81l-163 193c-7 8 -14 16 -20 24c-85 -38 -157 -84 -157 -180z" />
    <glyph glyph-name="paragraph" unicode="&#xb6;" horiz-adv-x="577" 
d="M330 -181h-68l85 438h-10c-129 0 -207 65 -207 176c0 142 110 247 290 247h214l-167 -861h-68l155 798h-69z" />
    <glyph glyph-name="dagger" unicode="&#x2020;" horiz-adv-x="473" 
d="M166 -192l115 591h-170l11 55h170l46 237h64l-46 -237h171l-10 -55h-172l-114 -591h-65z" />
    <glyph glyph-name="daggerdbl" unicode="&#x2021;" horiz-adv-x="473" 
d="M38 26l11 55h170l62 318h-170l11 55h170l46 237h64l-46 -237h171l-10 -55h-172l-61 -318h171l-11 -55h-171l-42 -218h-65l42 218h-170z" />
    <glyph glyph-name="section" unicode="&#xa7;" horiz-adv-x="620" 
d="M521 -3c0 -92 -80 -189 -239 -189c-132 0 -198 73 -202 184h65c4 -85 49 -135 147 -135c104 0 161 64 161 133c0 169 -345 60 -345 273c0 69 42 126 123 168c-17 21 -27 48 -27 86c0 87 76 174 213 174c126 0 189 -63 189 -184h-64c0 96 -46 135 -125 135
c-105 0 -149 -67 -149 -123c0 -159 343 -48 343 -264c0 -73 -49 -130 -121 -172c19 -20 31 -48 31 -86zM171 268c0 -118 178 -100 280 -155c59 35 98 76 98 139c0 120 -181 91 -281 149c-61 -33 -97 -76 -97 -133z" />
    <glyph glyph-name="asterisk" unicode="*" horiz-adv-x="326" 
d="M352 454l-49 -32l-40 90l-75 -90l-36 32l81 81l-96 27l26 51l92 -38l14 105h53l-26 -105l105 38l6 -51l-106 -27z" />
    <glyph glyph-name="trademark" unicode="&#x2122;" horiz-adv-x="886" 
d="M209 272l69 358h-138l10 50h336l-10 -50h-138l-69 -358h-60zM465 272l79 408h81l64 -293l6 -47l23 47l176 293h79l-79 -408h-59l68 341l-47 -88l-154 -253h-44l-57 254l-12 87l-63 -341h-61z" />
    <glyph glyph-name="registered" unicode="&#xae;" horiz-adv-x="550" 
d="M408 691c114 0 192 -75 192 -183c0 -145 -116 -270 -277 -270c-114 0 -192 75 -192 183c0 144 117 270 277 270zM328 268c135 0 236 111 236 238c0 92 -62 155 -160 155c-136 0 -237 -111 -237 -238c0 -92 62 -155 161 -155zM247 332l53 272h100c51 0 82 -25 82 -68
c0 -32 -21 -60 -55 -75c15 -8 22 -22 23 -47l6 -82h-43l-2 73c-1 35 -14 41 -47 41h-54l-22 -114h-41zM392 572h-57l-19 -97h56c44 0 69 26 69 58c0 24 -18 39 -49 39z" />
    <glyph glyph-name="copyright" unicode="&#xa9;" horiz-adv-x="854" 
d="M557 691c189 0 310 -124 310 -292c0 -232 -184 -439 -444 -439c-189 0 -310 123 -310 292c0 232 184 439 444 439zM555 661c-236 0 -406 -190 -406 -408c0 -156 109 -263 276 -263c236 0 406 190 406 408c0 155 -109 263 -276 263zM696 423h-59c-7 57 -49 91 -108 91
c-113 0 -188 -121 -188 -251c0 -79 43 -126 114 -126c58 0 111 31 143 88h59c-43 -92 -120 -135 -205 -135c-105 0 -171 67 -171 174c0 161 102 297 254 297c89 0 155 -51 161 -138z" />
    <glyph glyph-name="at" unicode="@" horiz-adv-x="977" 
d="M683 -130c-70 -26 -140 -37 -213 -37c-232 0 -374 142 -374 352c0 307 233 546 535 546c223 0 362 -141 362 -350c0 -192 -104 -363 -237 -363c-72 0 -107 34 -107 92c0 5 0 11 1 16c-55 -70 -132 -107 -207 -107c-98 0 -160 48 -160 134c0 77 50 131 131 158
c80 28 162 34 278 34l3 17c4 18 5 34 5 48c0 67 -37 103 -120 103c-90 0 -147 -48 -174 -127h-65c33 116 122 184 246 184c127 0 179 -64 179 -153c0 -18 -3 -36 -6 -56l-39 -197c-3 -15 -5 -28 -5 -40c0 -40 18 -63 61 -63c91 0 177 155 177 317c0 189 -122 319 -326 319
c-280 0 -494 -225 -494 -510c0 -194 128 -320 339 -320c72 0 136 10 201 35zM351 160c0 -57 39 -85 103 -85c100 0 191 76 217 168l11 53c-258 -1 -331 -53 -331 -136z" />
    <glyph glyph-name="ordfeminine" unicode="&#xaa;" horiz-adv-x="344" 
d="M197 541h-57c21 72 76 113 155 113c77 0 112 -39 112 -96c0 -10 -2 -21 -4 -32l-23 -124c-5 -23 -7 -40 -7 -54c0 -8 1 -15 3 -21h-60c-1 5 -2 10 -2 16c0 10 1 21 3 33c-32 -37 -76 -56 -118 -56c-57 0 -95 28 -95 81c0 46 30 80 80 97c48 16 92 19 161 19l2 11
c2 9 3 18 3 25c0 35 -20 53 -63 53c-46 0 -75 -25 -90 -65zM163 407c0 -30 20 -45 54 -45c53 0 100 39 115 90l6 29c-137 -1 -175 -30 -175 -74z" />
    <glyph glyph-name="ordmasculine" unicode="&#xba;" horiz-adv-x="344" 
d="M238 320c-77 0 -124 45 -124 125c0 109 71 209 181 209c77 0 123 -47 123 -126c0 -109 -70 -208 -180 -208zM244 366c71 0 115 82 115 161c0 51 -25 79 -70 79c-71 0 -116 -81 -116 -160c0 -52 24 -80 71 -80z" />
    <glyph glyph-name="numbersign" unicode="#" horiz-adv-x="683" 
d="M111 0l68 169h-93l11 51h102l96 239h-85l9 52h96l68 169h61l-68 -169h199l68 169h61l-68 -169h92l-10 -52h-102l-96 -239h85l-11 -51h-94l-68 -169h-61l68 169h-199l-68 -169h-61zM260 220h199l96 239h-199z" />
    <glyph glyph-name="Euro" unicode="&#x20ac;" horiz-adv-x="576" 
d="M50 229l21 52h65c3 28 8 55 15 82h-50l22 52h44c49 135 149 239 283 239c104 0 180 -69 188 -185h-67c-7 82 -57 129 -127 129c-92 0 -166 -80 -207 -183h235l-22 -52h-231c-7 -27 -13 -54 -16 -82h218l-22 -52h-199v-2c0 -117 48 -182 136 -182c68 0 135 40 176 126h66
c-58 -121 -149 -182 -247 -182c-127 0 -198 87 -198 232v8h-83z" />
    <glyph glyph-name="dollar" unicode="$" horiz-adv-x="576" 
d="M232 -107l19 100c-104 17 -165 88 -165 187h66c0 -86 57 -135 161 -135c110 0 181 64 181 142c0 171 -335 62 -335 276c0 90 78 184 221 191l19 96h66l-20 -100c96 -16 151 -81 151 -183h-65c0 84 -50 131 -143 131c-106 0 -162 -69 -162 -129c0 -158 337 -64 337 -269
c0 -112 -98 -205 -246 -211l-19 -96h-66z" />
    <glyph glyph-name="yen" unicode="&#xa5;" horiz-adv-x="576" 
d="M136 118l9 52h141l16 82h-140l9 52h118l-140 339h71l108 -272l20 -60l42 60l214 272h72l-272 -339h117l-9 -52h-142l-15 -82h141l-10 -52h-141l-23 -118h-69l23 118h-140z" />
    <glyph glyph-name="sterling" unicode="&#xa3;" horiz-adv-x="576" 
d="M68 0l10 55h69c72 40 110 106 110 161c0 13 -2 25 -5 36h-121l9 52h91c-24 45 -55 89 -55 150c0 102 85 200 237 200c126 0 197 -61 197 -187h-66c0 90 -47 131 -133 131c-109 0 -168 -62 -168 -140c0 -56 37 -101 61 -154h186l-9 -52h-160c2 -10 3 -20 3 -31
c0 -66 -38 -124 -101 -166h307l-11 -55h-451z" />
    <glyph glyph-name="cent" unicode="&#xa2;" horiz-adv-x="576" 
d="M251 -53l20 99c-95 16 -154 87 -154 201c0 169 103 328 260 345l19 98h66l-19 -99c95 -13 151 -81 152 -188h-65c0 90 -51 135 -130 135c-131 0 -217 -141 -217 -289c0 -95 52 -151 134 -151c80 0 146 43 183 130h64c-44 -117 -130 -176 -228 -184l-18 -97h-67z" />
    <glyph glyph-name="florin" unicode="&#x192;" horiz-adv-x="576" 
d="M304 -76c-21 -110 -69 -153 -167 -153c-16 0 -30 2 -37 5l9 47h10c80 0 106 27 120 101l92 476h-79l10 52h79l9 46c21 108 69 153 167 153c16 0 30 -2 37 -5l-9 -47h-10c-81 0 -106 -30 -120 -101l-9 -46h113l-10 -52h-113z" />
    <glyph glyph-name="currency" unicode="&#xa4;" horiz-adv-x="576" 
d="M175 141l-29 36l69 58c-8 16 -12 34 -12 55c0 42 16 82 43 113l-45 55l42 36l46 -56c24 14 53 23 85 23c34 0 62 -9 83 -25l68 57l28 -36l-68 -56c9 -16 13 -35 13 -57c0 -42 -16 -83 -43 -114l43 -53l-42 -35l-43 53c-25 -14 -54 -23 -86 -23c-34 0 -62 9 -83 26z
M450 341c0 46 -30 78 -80 78c-71 0 -119 -64 -119 -126c0 -46 31 -78 80 -78c71 0 119 64 119 126z" />
    <glyph glyph-name="zero" unicode="0" horiz-adv-x="576" 
d="M291 -11c-126 0 -199 82 -199 230c0 214 124 435 318 435c126 0 199 -82 199 -230c0 -214 -124 -435 -318 -435zM405 598c-147 0 -246 -196 -246 -377c0 -113 47 -176 137 -176c147 0 246 196 246 377c0 113 -47 176 -137 176z" />
    <glyph glyph-name="one" unicode="1" horiz-adv-x="576" 
d="M150 0l10 52h124l95 491c-5 -1 -13 -1 -28 -1h-96l10 52h82c43 0 54 10 60 38l3 11h57l-115 -591h125l-11 -52h-316z" />
    <glyph glyph-name="two" unicode="2" horiz-adv-x="576" 
d="M69 0l4 20c62 322 455 271 455 479c0 61 -40 99 -121 99c-96 0 -156 -50 -182 -134h-67c37 118 119 190 257 190c117 0 180 -60 180 -151c0 -240 -374 -211 -447 -451h373l-10 -52h-442z" />
    <glyph glyph-name="three" unicode="3" horiz-adv-x="576" 
d="M300 -11c-140 0 -216 75 -217 191h66c0 -83 47 -135 154 -135c133 0 194 76 194 154c0 59 -33 109 -176 109h-20l9 52h17c181 0 209 72 209 134c0 68 -42 104 -130 104c-98 0 -159 -51 -189 -134h-66c36 122 132 190 260 190c127 0 192 -62 192 -160
c0 -66 -32 -133 -135 -161c73 -23 96 -74 96 -134c0 -108 -93 -210 -264 -210z" />
    <glyph glyph-name="four" unicode="4" horiz-adv-x="576" 
d="M440 0h-67l31 160h-327l11 59l417 424h60l-84 -431h96l-10 -52h-96zM149 212h265l67 343z" />
    <glyph glyph-name="five" unicode="5" horiz-adv-x="576" 
d="M580 254c0 -141 -99 -265 -274 -265c-139 0 -216 73 -216 188h65c0 -83 52 -132 152 -132c128 0 206 84 206 207c0 71 -34 131 -142 131c-85 0 -137 -37 -172 -76l-57 6l84 330h403l-10 -52h-350l-52 -204c45 33 97 52 163 52c144 0 200 -82 200 -185z" />
    <glyph glyph-name="six" unicode="6" horiz-adv-x="576" 
d="M311 -11h-4c-123 1 -204 75 -204 232c0 227 133 433 320 433c123 0 194 -69 203 -188h-65c-10 86 -59 132 -141 132c-130 0 -222 -144 -250 -292c44 69 121 116 218 116c113 0 193 -64 193 -175c0 -140 -114 -258 -270 -258zM314 45c111 0 200 84 200 194
c0 81 -54 127 -139 127c-113 0 -201 -91 -201 -196c0 -79 53 -125 140 -125z" />
    <glyph glyph-name="seven" unicode="7" horiz-adv-x="576" 
d="M254 0h-69c76 218 194 413 363 591h-375l11 52h445l-8 -42c-180 -189 -296 -389 -367 -601z" />
    <glyph glyph-name="eight" unicode="8" horiz-adv-x="576" 
d="M299 -11c-128 0 -208 64 -208 160c0 80 57 155 156 187c-45 23 -71 63 -71 120c0 104 97 198 241 198c112 0 185 -55 185 -148c0 -72 -53 -137 -132 -170c60 -24 95 -71 95 -132c0 -119 -113 -215 -266 -215zM411 599c-108 0 -172 -75 -172 -144c0 -62 48 -96 125 -96
c94 0 173 63 173 145c0 62 -49 95 -126 95zM303 44c108 0 197 72 197 159c0 68 -57 107 -145 107c-112 0 -197 -73 -197 -159c0 -67 56 -107 145 -107z" />
    <glyph glyph-name="nine" unicode="9" horiz-adv-x="576" 
d="M131 398c0 140 111 256 269 256h2h2c121 -2 197 -74 197 -227c0 -241 -128 -438 -314 -438c-113 0 -196 66 -204 185h67c8 -84 59 -129 139 -129c129 0 218 137 243 297c-43 -72 -116 -121 -203 -121c-125 0 -198 71 -198 177zM397 601c-115 0 -199 -94 -199 -202
c0 -77 52 -121 136 -121c110 0 198 86 198 202c0 73 -49 121 -135 121z" />
    <glyph glyph-name="degree" unicode="&#xb0;" horiz-adv-x="344" 
d="M245 359c-76 0 -125 51 -125 120c0 93 71 175 175 175c76 0 126 -51 126 -121c0 -92 -72 -174 -176 -174zM290 606c-68 0 -111 -64 -111 -124c0 -46 28 -75 71 -75c69 0 111 63 111 124c0 45 -28 75 -71 75z" />
    <glyph glyph-name="percent" unicode="%" horiz-adv-x="782" 
d="M232 294c-79 0 -124 49 -124 141c0 108 73 219 187 219c79 0 124 -51 124 -142c0 -108 -72 -218 -187 -218zM124 0l594 643h65l-594 -643h-65zM291 605c-73 0 -124 -88 -124 -170c0 -60 24 -93 70 -93c72 0 123 87 123 170c0 60 -24 93 -69 93zM613 -7
c-79 0 -124 49 -124 141c0 108 73 219 187 219c79 0 124 -51 124 -142c0 -108 -72 -218 -187 -218zM672 304c-73 0 -124 -88 -124 -170c0 -60 24 -93 70 -93c72 0 123 87 123 170c0 60 -24 93 -69 93z" />
    <glyph glyph-name="perthousand" unicode="&#x2030;" horiz-adv-x="1127" 
d="M232 294c-79 0 -124 49 -124 141c0 108 73 219 187 219c79 0 124 -51 124 -142c0 -108 -72 -218 -187 -218zM124 0l594 643h65l-594 -643h-65zM291 605c-73 0 -124 -88 -124 -170c0 -60 24 -93 70 -93c72 0 123 87 123 170c0 60 -24 93 -69 93zM613 -7
c-79 0 -124 49 -124 141c0 108 73 219 187 219c79 0 124 -51 124 -142c0 -108 -72 -218 -187 -218zM959 -7c-79 0 -124 49 -124 141c0 108 73 219 187 219c79 0 124 -51 124 -142c0 -108 -72 -218 -187 -218zM672 304c-73 0 -124 -88 -124 -170c0 -60 24 -93 70 -93
c72 0 123 87 123 170c0 60 -24 93 -69 93zM1018 304c-73 0 -124 -88 -124 -170c0 -60 24 -93 70 -93c72 0 123 87 123 170c0 60 -24 93 -69 93z" />
    <glyph glyph-name="fraction" unicode="&#x2044;" horiz-adv-x="92" 
d="M-221 0l594 643h65l-594 -643h-65z" />
    <glyph glyph-name="divisionslash" unicode="&#x2215;" horiz-adv-x="92" 
d="M-221 0l594 643h65l-594 -643h-65z" />
    <glyph glyph-name="zero.superior" unicode="&#x2070;" horiz-adv-x="345" 
d="M226 254c-79 0 -124 49 -124 141c0 128 75 259 193 259c79 0 124 -51 124 -142c0 -128 -74 -258 -193 -258zM291 605c-76 0 -130 -108 -130 -210c0 -60 24 -93 70 -93c76 0 129 108 129 210c0 60 -24 93 -69 93z" />
    <glyph glyph-name="onesuperior" unicode="&#xb9;" horiz-adv-x="345" 
d="M132 261l8 44h74l51 266h-73l8 43h42c33 0 41 7 46 26l2 6h50l-66 -341h73l-9 -44h-206z" />
    <glyph glyph-name="twosuperior" unicode="&#xb2;" horiz-adv-x="345" 
d="M87 261l3 15c37 191 265 168 265 279c0 32 -21 51 -63 51c-49 0 -81 -26 -95 -70h-58c23 75 77 118 159 118c75 0 115 -40 115 -96c0 -135 -209 -128 -256 -253h212l-9 -44h-273z" />
    <glyph glyph-name="threesuperior" unicode="&#xb3;" horiz-adv-x="345" 
d="M233 254c-90 0 -137 46 -137 119h58c0 -45 24 -73 82 -73c66 0 100 39 100 80c0 32 -19 58 -93 58h-17l8 43h13c96 0 111 40 111 71c0 36 -21 54 -66 54c-51 0 -83 -27 -99 -70h-57c22 76 81 118 160 118c81 0 121 -41 121 -100c0 -38 -18 -75 -74 -94
c38 -15 51 -44 51 -78c0 -67 -57 -128 -161 -128z" />
    <glyph glyph-name="four.superior" unicode="&#x2074;" horiz-adv-x="345" 
d="M323 261h-58l17 88h-189l10 52l242 245h53l-49 -252h53l-9 -45h-53zM148 394h143l36 183z" />
    <glyph glyph-name="onehalf" unicode="&#xbd;" horiz-adv-x="782" 
d="M132 261l8 44h74l51 266h-73l8 43h42c33 0 41 7 46 26l2 6h50l-66 -341h73l-9 -44h-206zM137 0l594 643h65l-594 -643h-65zM474 0l3 15c37 191 265 168 265 279c0 32 -21 51 -63 51c-49 0 -81 -26 -95 -70h-58c23 75 77 118 159 118c75 0 115 -40 115 -96
c0 -135 -209 -128 -256 -253h212l-9 -44h-273z" />
    <glyph glyph-name="onequarter" unicode="&#xbc;" horiz-adv-x="782" 
d="M132 261l8 44h74l51 266h-73l8 43h42c33 0 41 7 46 26l2 6h50l-66 -341h73l-9 -44h-206zM170 0l594 643h65l-594 -643h-65zM710 0h-58l17 88h-189l10 52l242 245h53l-49 -252h53l-9 -45h-53zM535 133h143l36 183z" />
    <glyph glyph-name="threequarters" unicode="&#xbe;" horiz-adv-x="782" 
d="M233 254c-90 0 -137 46 -137 119h58c0 -45 24 -73 82 -73c66 0 100 39 100 80c0 32 -19 58 -93 58h-17l8 43h13c96 0 111 40 111 71c0 36 -21 54 -66 54c-51 0 -83 -27 -99 -70h-57c22 76 81 118 160 118c81 0 121 -41 121 -100c0 -38 -18 -75 -74 -94
c38 -15 51 -44 51 -78c0 -67 -57 -128 -161 -128zM175 0l594 643h65l-594 -643h-65zM710 0h-58l17 88h-189l10 52l242 245h53l-49 -252h53l-9 -45h-53zM535 133h143l36 183z" />
    <glyph glyph-name="plus" unicode="+" horiz-adv-x="576" 
d="M155 291l10 52h164l32 163h52l-32 -163h163l-10 -52h-163l-32 -164h-52l32 164h-164z" />
    <glyph glyph-name="minus" unicode="&#x2212;" horiz-adv-x="576" 
d="M155 291l10 52h379l-10 -52h-379z" />
    <glyph glyph-name="multiply" unicode="&#xd7;" horiz-adv-x="576" 
d="M188 145l-33 40l158 135l-106 132l41 33l106 -130l157 134l32 -40l-157 -134l107 -132l-41 -35l-106 132z" />
    <glyph glyph-name="divide" unicode="&#xf7;" horiz-adv-x="576" 
d="M343 454l13 62h65l-12 -62h-66zM155 292l9 50h379l-9 -50h-379zM275 103l12 63h66l-12 -63h-66z" />
    <glyph glyph-name="equal" unicode="=" horiz-adv-x="576" 
d="M174 391l10 52h379l-10 -52h-379zM136 191l9 52h379l-9 -52h-379z" />
    <glyph glyph-name="logicalnot" unicode="&#xac;" horiz-adv-x="576" 
d="M155 291l10 52h379l-10 -52l-32 -164h-52l32 164h-327z" />
    <glyph glyph-name="asciitilde" unicode="~" horiz-adv-x="576" 
d="M155 292l9 50c39 23 72 33 99 33c72 0 117 -66 183 -66c27 0 59 10 97 33l-9 -50c-39 -23 -71 -33 -98 -33c-72 0 -118 66 -183 66c-27 0 -59 -10 -98 -33z" />
    <glyph glyph-name="less" unicode="&#x3c;" horiz-adv-x="576" 
d="M495 93l-340 200l9 50l418 200l-12 -65l-344 -162l281 -163z" />
    <glyph glyph-name="greater" unicode="&#x3e;" horiz-adv-x="576" 
d="M116 92l12 65l345 163l-282 162l12 60l340 -200l-9 -50z" />
    <glyph glyph-name="plusminus" unicode="&#xb1;" horiz-adv-x="576" 
d="M162 328l10 52h164l32 163h52l-32 -163h163l-10 -52h-163l-32 -164h-52l32 164h-164zM98 0l10 52h380l-11 -52h-379z" />
    <glyph glyph-name="asciicircum" unicode="^" horiz-adv-x="576" 
d="M201 400l194 280h50l85 -280h-54l-66 227l-155 -227h-54z" />
    <glyph glyph-name="notequal" unicode="&#x2260;" horiz-adv-x="576" 
d="M136 191l9 52h127l104 148h-202l10 52h229l49 70h52l-49 -70h98l-10 -52h-125l-104 -148h200l-9 -52h-227l-50 -71h-52l50 71h-100z" />
    <glyph glyph-name="approxequal" unicode="&#x2248;" horiz-adv-x="576" 
d="M175 392l9 50c39 23 71 33 98 33c72 0 117 -66 183 -66c27 0 59 10 98 33l-9 -50c-40 -23 -72 -33 -99 -33c-72 0 -117 66 -183 66c-27 0 -59 -10 -97 -33zM136 192l9 50c39 23 71 33 98 33c72 0 117 -66 183 -66c27 0 59 10 98 33l-9 -50c-40 -23 -72 -33 -99 -33
c-72 0 -117 66 -183 66c-27 0 -59 -10 -97 -33z" />
    <glyph glyph-name="lessequal" unicode="&#x2264;" horiz-adv-x="576" 
d="M503 130l-341 200l10 50l418 200l-13 -65l-343 -162l280 -163zM98 0l10 52h380l-11 -52h-379z" />
    <glyph glyph-name="greaterequal" unicode="&#x2265;" horiz-adv-x="576" 
d="M124 129l11 65l345 163l-281 162l12 60l340 -200l-10 -50zM477 0h-379l10 52h380z" />
    <glyph glyph-name="infinity" unicode="&#x221e;" horiz-adv-x="734" 
d="M313 505c65 0 112 -28 134 -76c36 45 90 76 158 76c99 0 154 -58 154 -147c0 -112 -82 -220 -214 -220c-64 0 -111 28 -133 76c-36 -45 -90 -76 -158 -76c-99 0 -155 58 -155 147c0 112 83 220 214 220zM158 288c0 -60 35 -98 100 -98c88 0 144 80 144 166
c0 59 -32 97 -92 97c-93 0 -152 -80 -152 -165zM701 356c0 59 -35 97 -100 97c-89 0 -145 -80 -145 -165c0 -60 33 -98 93 -98c93 0 152 80 152 166z" />
    <glyph glyph-name="lozenge" unicode="&#x25ca;" horiz-adv-x="507" 
d="M294 0h-81l-103 321l228 322h81l102 -322zM452 321l-72 241l-12 41l-25 -41l-168 -241l74 -241l10 -41l26 41z" />
    <glyph glyph-name="radical" unicode="&#x221a;" horiz-adv-x="591" 
d="M609 643h66l-368 -643h-86l-100 407h68l75 -327l8 -39l21 39z" />
    <glyph glyph-name="integral" unicode="&#x222b;" horiz-adv-x="357" 
d="M196 -76c-20 -106 -71 -153 -166 -153c-16 0 -31 2 -38 5l10 47h10c79 0 106 31 119 101l112 574c21 106 71 153 167 153c16 0 30 -2 37 -5l-9 -47h-9c-80 0 -107 -31 -121 -101z" />
    <glyph glyph-name="partialdiff" unicode="&#x2202;" 
d="M289 -11c-132 0 -205 71 -205 177c0 143 108 270 277 270c48 0 88 -9 119 -26c-32 86 -99 163 -197 233h90c132 -102 194 -227 194 -373c0 -152 -113 -281 -278 -281zM292 45c126 0 206 99 206 212c0 78 -49 123 -141 123c-128 0 -206 -102 -206 -212
c0 -79 49 -123 141 -123z" />
    <glyph glyph-name="product" unicode="&#x220f;" horiz-adv-x="646" 
d="M50 -181l160 824h476l-160 -824h-68l149 769h-341l-149 -769h-67z" />
    <glyph glyph-name="pi" unicode="&#x3c0;" horiz-adv-x="603" 
d="M105 0l93 477h-92l10 52h583l-10 -52h-118l-65 -329c-3 -15 -4 -28 -4 -40c0 -43 23 -61 86 -61h16l-9 -47c-9 -4 -27 -6 -46 -6c-75 0 -112 34 -112 104c0 16 2 34 5 53l64 326h-243l-93 -477h-65z" />
    <glyph glyph-name="mu" unicode="&#x3bc;" horiz-adv-x="562" 
d="M99 -220h-65l146 749h64l-65 -341c-4 -16 -6 -30 -6 -44c0 -61 32 -100 103 -100c97 0 170 89 185 169l62 316h65l-103 -529h-65l16 81c-48 -61 -112 -93 -178 -93c-49 0 -86 13 -112 37z" />
    <glyph glyph-name="summation" unicode="&#x2211;" horiz-adv-x="577" 
d="M-5 -208l351 438l-185 413h481l-11 -56h-371l160 -363l-300 -377h368l-11 -55h-482z" />
    <glyph glyph-name="Ohm" unicode="&#x2126;" horiz-adv-x="756" 
d="M332 0h-284l10 55h171c-66 44 -104 121 -104 215c0 199 145 384 376 384c166 0 262 -100 262 -244c0 -146 -90 -289 -217 -355h171l-10 -55h-283l9 48c141 46 262 179 262 356c0 117 -74 194 -201 194c-190 0 -303 -165 -303 -327c0 -112 59 -190 150 -223z" />
    <glyph glyph-name="Omega" unicode="&#x3a9;" horiz-adv-x="756" 
d="M332 0h-284l10 55h171c-66 44 -104 121 -104 215c0 199 145 384 376 384c166 0 262 -100 262 -244c0 -146 -90 -289 -217 -355h171l-10 -55h-283l9 48c141 46 262 179 262 356c0 117 -74 194 -201 194c-190 0 -303 -165 -303 -327c0 -112 59 -190 150 -223z" />
    <glyph glyph-name="increment" unicode="&#x2206;" horiz-adv-x="652" 
d="M490 643l128 -643h-583l377 643h78zM411 524l-274 -469h403l-92 469l-7 55z" />
    <glyph glyph-name="Delta" unicode="&#x394;" horiz-adv-x="652" 
d="M490 643l128 -643h-583l377 643h78zM411 524l-274 -469h403l-92 469l-7 55z" />
    <glyph glyph-name="litre" unicode="&#x2113;" horiz-adv-x="506" 
d="M61 174c24 4 48 10 71 16v3c0 239 118 461 273 461c90 0 134 -58 134 -142c0 -157 -164 -285 -341 -351c7 -75 39 -116 93 -116c59 0 113 40 142 127h61c-42 -126 -119 -183 -208 -183c-85 0 -137 55 -150 151c-29 -9 -58 -15 -86 -20zM398 598
c-104 0 -195 -199 -201 -386c151 59 275 165 275 294c0 51 -24 92 -74 92z" />
    <glyph glyph-name="estimated" unicode="&#x212e;" horiz-adv-x="753" 
d="M139 244c0 150 138 259 286 259c159 0 287 -122 287 -259v-7h-465c-2 0 -3 0 -3 -2v-141c0 -6 1 -11 6 -17c43 -47 106 -74 176 -74c71 0 137 29 185 83h41c-52 -59 -135 -99 -227 -99c-153 0 -286 109 -286 257zM600 414c-48 45 -108 73 -174 73c-31 0 -60 -6 -88 -17
c-33 -14 -94 -49 -94 -77v-138c0 -3 1 -4 3 -4h357c2 0 3 1 3 4v141c0 6 -3 11 -7 18z" />
    <glyph glyph-name="ITF" unicode="&#xf8ff;" horiz-adv-x="1739" 
d="M110 0v700h216v-700h-216zM371 496v204h216v-204h-216zM631 0v700h217v-700h-217zM892 496v204h216v-204h-216zM1152 0v700h217v-700h-217zM1413 496v204h216v-204h-216zM1413 247v205h216v-205h-216z" />
    </font>
</defs>
</svg>
