<?xml version="1.0" standalone="no"?>
<!DOCTYPE svg PUBLIC "-//W3C//DTD SVG 1.1//EN" "http://www.w3.org/Graphics/SVG/1.1/DTD/svg11.dtd" >
<svg xmlns="http://www.w3.org/2000/svg" xmlns:xlink="http://www.w3.org/1999/xlink" version="1.1">
<metadata>
Created by FontForge 20170812 at Tue Apr 20 18:26:04 2021
 By www-data
Copyright 2015-2021 Indian Type Foundry. All rights reserved.
</metadata>
<defs>
<font id="Switzer-ThinItalic" horiz-adv-x="556" >
  <font-face 
    font-family="Switzer"
    font-weight="100"
    font-style="italic"
    font-stretch="normal"
    units-per-em="1000"
    panose-1="0 0 0 0 0 0 0 0 0 0"
    ascent="800"
    descent="-200"
    x-height="523"
    cap-height="680"
    bbox="-200 -229 1629 936"
    underline-thickness="50"
    underline-position="-100"
    slope="-11"
    stemh="9"
    stemv="10"
    unicode-range="U+000D-FB02"
  />
<missing-glyph horiz-adv-x="220" 
 />
    <glyph glyph-name="fi" unicode="fi" horiz-adv-x="427" 
d="M105 514l2 9h93l14 72c18 92 52 125 144 125h13l-2 -9h-11c-89 0 -118 -33 -134 -116l-14 -72h123l-2 -9h-123l-100 -514h-10l100 514h-93zM444 615l20 105h10l-20 -105h-10zM324 0l102 523h10l-102 -523h-10z" />
    <glyph glyph-name="fl" unicode="fl" horiz-adv-x="427" 
d="M105 514l2 9h93l14 72c18 92 52 125 144 125h13l-2 -9h-11c-89 0 -118 -33 -134 -116l-14 -72h123l-2 -9h-123l-100 -514h-10l100 514h-93zM324 0l140 720h10l-140 -720h-10z" />
    <glyph glyph-name=".notdef" horiz-adv-x="220" 
 />
    <glyph glyph-name=".null" horiz-adv-x="0" 
 />
    <glyph glyph-name=".null" horiz-adv-x="0" 
 />
    <glyph glyph-name="CR" unicode="&#xd;" horiz-adv-x="0" 
 />
    <glyph glyph-name="space" unicode=" " horiz-adv-x="220" 
 />
    <glyph glyph-name="nbspace" unicode="&#xa0;" horiz-adv-x="220" 
 />
    <glyph glyph-name="A" unicode="A" horiz-adv-x="652" 
d="M606 0l-48 214v-1h-381l-131 -213h-11l416 680h13l153 -680h-11zM434 633l-252 -411h374l-92 412l-8 35z" />
    <glyph glyph-name="B" unicode="B" horiz-adv-x="596" 
d="M100 0l132 680h194c110 0 178 -51 178 -138c0 -98 -73 -168 -184 -186c100 -13 155 -64 155 -148c0 -115 -95 -208 -250 -208h-225zM424 671h-184l-60 -312h184c139 0 230 81 230 183c0 82 -64 129 -170 129zM372 350h-194l-66 -341h213c146 0 239 89 239 199
c0 87 -67 142 -192 142z" />
    <glyph glyph-name="C" unicode="C" horiz-adv-x="663" 
d="M703 512h-9c-15 105 -98 167 -208 167c-209 0 -351 -208 -351 -431c0 -155 78 -247 220 -247c106 0 206 59 269 167h11c-67 -115 -169 -176 -282 -176c-147 0 -228 95 -228 256c0 225 144 440 363 440c112 0 199 -64 215 -176z" />
    <glyph glyph-name="D" unicode="D" horiz-adv-x="681" 
d="M100 0l132 680h174c176 0 280 -93 280 -252c0 -237 -166 -428 -415 -428h-171zM273 9c239 0 403 188 403 418c0 155 -99 244 -272 244h-164l-128 -662h161z" />
    <glyph glyph-name="E" unicode="E" horiz-adv-x="589" 
d="M100 0l132 680h429l-2 -9h-419l-61 -313h385l-2 -9h-384l-66 -340h419l-2 -9h-429z" />
    <glyph glyph-name="F" unicode="F" horiz-adv-x="579" 
d="M100 0l132 680h429l-2 -9h-419l-63 -328h384l-2 -9h-384l-65 -334h-10z" />
    <glyph glyph-name="G" unicode="G" horiz-adv-x="693" 
d="M601 0h-10l41 210c-57 -153 -165 -218 -280 -218c-146 0 -227 96 -227 257c0 225 141 439 363 439c113 0 199 -64 215 -176h-9c-16 105 -98 167 -208 167c-215 0 -351 -212 -351 -430c0 -156 78 -248 219 -248c133 0 255 92 297 308h-228l2 9h238z" />
    <glyph glyph-name="H" unicode="H" horiz-adv-x="681" 
d="M100 0l132 680h10l-63 -322h461l63 322h10l-132 -680h-10l68 349h-461l-68 -349h-10z" />
    <glyph glyph-name="I" unicode="I" horiz-adv-x="210" 
d="M100 0l132 680h10l-132 -680h-10z" />
    <glyph glyph-name="J" unicode="J" horiz-adv-x="506" 
d="M79 199h10c-1 -11 -2 -22 -2 -32c0 -105 51 -166 149 -166c109 0 186 79 213 219l89 460h10l-89 -460c-28 -146 -110 -228 -223 -228c-105 0 -159 64 -159 173c0 11 1 22 2 34z" />
    <glyph glyph-name="K" unicode="K" 
d="M100 0l132 680h10l-64 -330l464 330h15l-469 -333l338 -347h-13l-336 345l-67 -345h-10z" />
    <glyph glyph-name="L" unicode="L" horiz-adv-x="544" 
d="M100 0l132 680h10l-130 -671h394l-2 -9h-404z" />
    <glyph glyph-name="M" unicode="M" horiz-adv-x="830" 
d="M100 0l132 680h15l158 -620l12 -49l31 49l398 620h16l-132 -680h-10l129 666l-68 -107l-360 -559h-11l-142 558l-28 111l-130 -669h-10z" />
    <glyph glyph-name="N" unicode="N" horiz-adv-x="681" 
d="M100 0l132 680h12l309 -626l21 -41l129 667h10l-132 -680h-12l-308 622l-22 45l-129 -667h-10z" />
    <glyph glyph-name="O" unicode="O" horiz-adv-x="736" 
d="M366 -8c-154 0 -240 97 -240 258c0 226 143 438 376 438c154 0 240 -97 240 -258c0 -226 -143 -438 -376 -438zM368 1c226 0 364 213 364 428c0 158 -82 250 -232 250c-226 0 -364 -213 -364 -428c0 -158 82 -250 232 -250z" />
    <glyph glyph-name="P" unicode="P" horiz-adv-x="571" 
d="M100 0l132 680h194c119 0 192 -61 192 -162c0 -130 -108 -238 -273 -238h-181l-54 -280h-10zM424 671h-184l-74 -382h181c158 0 261 105 261 228c0 96 -69 154 -184 154z" />
    <glyph glyph-name="Q" unicode="Q" horiz-adv-x="736" 
d="M366 -8c-154 0 -240 97 -240 258c0 226 143 438 376 438c154 0 240 -97 240 -258c0 -160 -72 -314 -197 -389l108 -108l-6 -7l-110 110c-50 -28 -107 -44 -171 -44zM368 1c61 0 115 15 162 42l-121 121l6 7l123 -123c123 74 194 227 194 381c0 158 -82 250 -232 250
c-226 0 -364 -213 -364 -428c0 -158 82 -250 232 -250z" />
    <glyph glyph-name="R" unicode="R" horiz-adv-x="601" 
d="M100 0l132 680h204c109 0 177 -55 177 -145c0 -100 -77 -180 -191 -200c76 -8 108 -41 115 -138l14 -197h-10l-13 192c-7 117 -52 138 -165 138h-189l-64 -330h-10zM434 671h-194l-64 -332h194c137 0 233 88 233 196c0 85 -64 136 -169 136z" />
    <glyph glyph-name="S" unicode="S" horiz-adv-x="570" 
d="M407 679c-150 0 -227 -91 -227 -182c0 -232 378 -47 378 -297c0 -108 -95 -208 -258 -208c-137 0 -212 65 -217 177h10c5 -105 75 -168 207 -168c157 0 248 94 248 198c0 242 -379 56 -379 297c0 88 72 192 239 192c125 0 193 -62 195 -176h-10c-2 110 -67 167 -186 167z
" />
    <glyph glyph-name="T" unicode="T" horiz-adv-x="598" 
d="M294 0l130 671h-259l2 9h528l-2 -9h-259l-130 -671h-10z" />
    <glyph glyph-name="U" unicode="U" horiz-adv-x="676" 
d="M637 260c-32 -168 -145 -268 -299 -268c-131 0 -205 75 -205 197c0 22 2 45 7 70l82 421h10l-82 -421c-5 -25 -7 -48 -7 -70c0 -118 71 -188 197 -188c147 0 256 99 287 259l81 420h10z" />
    <glyph glyph-name="V" unicode="V" horiz-adv-x="652" 
d="M178 680l142 -634l8 -35l22 36l388 633h11l-416 -680h-13l-153 680h11z" />
    <glyph glyph-name="W" unicode="W" horiz-adv-x="1080" 
d="M789 0l-114 635l-5 30l-17 -30l-360 -635h-13l-93 680h12l84 -634l4 -38l22 38l358 634h11l111 -634l6 -38l20 38l331 634h11l-357 -680h-11z" />
    <glyph glyph-name="X" unicode="X" horiz-adv-x="623" 
d="M571 0l-172 309l-20 36l-34 -36l-293 -309h-12l335 353l-183 327h12l155 -277l23 -42l39 42l262 277h12l-308 -327l196 -353h-12z" />
    <glyph glyph-name="Y" unicode="Y" horiz-adv-x="582" 
d="M286 0l52 270l-176 410h11l149 -347l22 -52l44 52l284 347h12l-336 -410l-52 -270h-10z" />
    <glyph glyph-name="Z" unicode="Z" horiz-adv-x="578" 
d="M45 0l2 9l603 662h-475l2 9h488l-2 -9l-603 -662h475l-2 -9h-488z" />
    <glyph glyph-name="AE" unicode="&#xc6;" horiz-adv-x="944" 
d="M475 0l41 213h-321l-149 -213h-11l476 680h505l-2 -9h-399l-61 -313h365l-2 -9h-364l-66 -340h399l-2 -9h-409zM202 222h316l87 449h-88z" />
    <glyph glyph-name="OE" unicode="&#x152;" horiz-adv-x="1105" 
d="M354 -8c-146 0 -228 97 -228 258c0 226 138 438 364 438c146 0 227 -97 227 -258v-14l51 264h409l-2 -9h-399l-61 -313h365l-2 -9h-364l-66 -340h399l-2 -9h-409l46 239c-54 -141 -169 -247 -328 -247zM356 1c218 0 352 213 352 428c0 158 -78 250 -220 250
c-219 0 -352 -213 -352 -428c0 -158 78 -250 220 -250z" />
    <glyph glyph-name="Lslash" unicode="&#x141;" horiz-adv-x="544" 
d="M100 0l59 306l-84 -36l2 10l84 36l71 364h10l-70 -360l179 76l-2 -10l-179 -76l-58 -301h394l-2 -9h-404z" />
    <glyph glyph-name="Oslash" unicode="&#xd8;" horiz-adv-x="736" 
d="M96 -20l84 91c-36 43 -54 104 -54 179c0 226 143 438 376 438c79 0 140 -26 181 -72l78 84h11l-84 -91c36 -43 54 -104 54 -179c0 -226 -143 -438 -376 -438c-79 0 -140 26 -181 72l-78 -84h-11zM136 251c0 -72 17 -131 50 -173l490 530c-39 46 -98 71 -176 71
c-226 0 -364 -213 -364 -428zM368 1c226 0 364 213 364 428c0 72 -17 131 -50 173l-490 -530c39 -46 98 -71 176 -71z" />
    <glyph glyph-name="Eth" unicode="&#xd0;" horiz-adv-x="681" 
d="M100 0l68 349h-77l2 9h76l63 322h174c176 0 280 -93 280 -252c0 -237 -166 -428 -415 -428h-171zM273 9c239 0 403 188 403 418c0 155 -99 244 -272 244h-164l-61 -313h172l-2 -9h-171l-66 -340h161z" />
    <glyph glyph-name="Thorn" unicode="&#xde;" horiz-adv-x="571" 
d="M100 0l132 680h10l-25 -130h184c119 0 192 -61 192 -162c0 -130 -108 -238 -273 -238h-181l-29 -150h-10zM399 541h-184l-74 -382h181c158 0 261 105 261 228c0 96 -69 154 -184 154z" />
    <glyph glyph-name="a" unicode="a" 
d="M155 354h-10c37 112 113 177 238 177c102 0 148 -47 148 -135c0 -21 -3 -44 -8 -70l-41 -212c-5 -25 -8 -47 -8 -66c0 -18 3 -34 10 -48h-11c-7 14 -9 31 -9 48c0 19 2 38 6 56l12 61c-45 -99 -139 -173 -248 -173c-93 0 -146 47 -146 131c0 80 55 119 118 140
c75 26 173 34 302 34l6 31c5 24 7 45 7 65c0 83 -43 129 -139 129c-120 0 -191 -65 -227 -168zM98 123c0 -81 51 -122 138 -122c122 0 235 105 257 222l13 65c-325 -1 -408 -67 -408 -165z" />
    <glyph glyph-name="b" unicode="b" 
d="M103 0h-10l140 720h10l-74 -378c45 107 129 189 231 189s156 -72 156 -187c0 -173 -110 -352 -264 -352c-97 0 -154 66 -157 173zM399 522c-148 0 -254 -185 -254 -348c0 -110 52 -173 148 -173c148 0 253 177 253 341c0 114 -52 180 -147 180z" />
    <glyph glyph-name="c" unicode="c" horiz-adv-x="542" 
d="M552 354h-10c-2 106 -64 168 -165 168c-156 0 -265 -172 -265 -339c0 -116 63 -182 166 -182c102 0 182 55 232 168h10c-54 -124 -139 -177 -242 -177c-109 0 -176 69 -176 188c0 178 112 351 277 351c108 0 172 -67 173 -177z" />
    <glyph glyph-name="d" unicode="d" 
d="M258 -8c-102 0 -156 72 -156 187c0 173 110 352 264 352c96 0 154 -65 157 -172l70 361h10l-140 -720h-10l35 180c-45 -106 -129 -188 -230 -188zM259 1c148 0 254 185 254 348c0 110 -52 173 -148 173c-148 0 -253 -177 -253 -341c0 -114 52 -180 147 -180z" />
    <glyph glyph-name="e" unicode="e" 
d="M526 169c-54 -124 -140 -177 -245 -177c-115 0 -179 68 -179 187c0 178 113 352 277 352c112 0 172 -66 172 -180c0 -24 -3 -51 -8 -79l-1 -7h-421c-6 -28 -9 -56 -9 -85c0 -114 60 -179 169 -179c104 0 185 56 235 168h10zM377 522c-127 0 -223 -114 -254 -248h410
c5 26 8 51 8 74c0 111 -57 174 -164 174z" />
    <glyph glyph-name="f" unicode="f" horiz-adv-x="241" 
d="M105 514l2 9h93l14 72c18 92 52 125 144 125h13l-2 -9h-11c-89 0 -118 -33 -134 -116l-14 -72h123l-2 -9h-123l-100 -514h-10l100 514h-93z" />
    <glyph glyph-name="g" unicode="g" 
d="M258 -8c-102 0 -156 72 -156 187c0 173 110 352 264 352c97 0 155 -66 157 -173l32 165h10l-107 -549c-28 -142 -105 -203 -224 -203c-112 0 -174 58 -173 167h10c-3 -103 57 -158 163 -158c118 0 189 64 215 197l40 205c-45 -107 -129 -190 -231 -190zM259 1
c148 0 254 185 254 348c0 110 -52 173 -148 173c-148 0 -253 -177 -253 -341c0 -114 52 -180 147 -180z" />
    <glyph glyph-name="h" unicode="h" 
d="M93 0l140 720h10l-67 -343c45 95 129 154 221 154s139 -49 139 -131c0 -16 -1 -33 -5 -51l-68 -349h-10l68 348c3 17 5 34 5 50c0 73 -38 124 -131 124c-117 0 -205 -104 -228 -191l-64 -331h-10z" />
    <glyph glyph-name="i" unicode="i" horiz-adv-x="196" 
d="M213 615l20 105h10l-20 -105h-10zM93 0l102 523h10l-102 -523h-10z" />
    <glyph glyph-name="j" unicode="j" horiz-adv-x="196" 
d="M213 615l20 105h10l-20 -105h-10zM84 -99c-18 -90 -51 -122 -144 -122h-13l2 9h11c90 0 118 32 134 116l121 619h10z" />
    <glyph glyph-name="k" unicode="k" horiz-adv-x="476" 
d="M93 0l140 720h10l-83 -428l365 231h16l-370 -234l267 -289h-13l-266 288l-56 -288h-10z" />
    <glyph glyph-name="l" unicode="l" horiz-adv-x="196" 
d="M93 0l140 720h10l-140 -720h-10z" />
    <glyph glyph-name="m" unicode="m" horiz-adv-x="836" 
d="M93 0l102 523h10l-28 -143c42 93 117 151 200 151c77 0 120 -48 120 -128c0 -8 0 -15 -1 -23c41 95 118 151 201 151c77 0 120 -48 120 -128c0 -17 -2 -35 -6 -54l-68 -349h-10l68 348c4 18 5 36 5 53c0 71 -34 121 -111 121c-106 0 -184 -101 -207 -187l-65 -335h-10
l68 348c4 18 5 36 5 53c0 71 -34 121 -111 121c-105 0 -183 -102 -207 -187l-65 -335h-10z" />
    <glyph glyph-name="n" unicode="n" 
d="M93 0l102 523h10l-28 -145c44 94 128 153 220 153s139 -49 139 -131c0 -16 -1 -33 -5 -51l-68 -349h-10l68 348c3 17 5 34 5 50c0 73 -38 124 -131 124c-116 0 -203 -102 -227 -188l-65 -334h-10z" />
    <glyph glyph-name="o" unicode="o" 
d="M280 -8c-115 0 -178 71 -178 188c0 181 105 351 275 351c115 0 178 -71 178 -188c0 -181 -105 -351 -275 -351zM281 1c164 0 264 170 264 340c0 115 -60 181 -169 181c-164 0 -264 -170 -264 -340c0 -115 60 -181 169 -181z" />
    <glyph glyph-name="p" unicode="p" 
d="M60 -221h-10l145 744h10l-35 -180c45 106 129 188 230 188c102 0 156 -72 156 -187c0 -173 -110 -352 -264 -352c-97 0 -154 66 -157 172zM399 522c-148 0 -254 -185 -254 -348c0 -110 52 -173 148 -173c148 0 253 177 253 341c0 114 -52 180 -147 180z" />
    <glyph glyph-name="q" unicode="q" 
d="M258 -8c-102 0 -156 72 -156 187c0 173 110 352 264 352c97 0 154 -66 157 -173l32 165h10l-145 -744h-10l78 402c-44 -107 -129 -189 -230 -189zM259 1c148 0 254 185 254 348c0 110 -52 173 -148 173c-148 0 -253 -177 -253 -341c0 -114 52 -180 147 -180z" />
    <glyph glyph-name="r" unicode="r" horiz-adv-x="346" 
d="M93 0l102 523h10l-28 -143c43 94 121 151 203 151c20 0 39 -3 48 -8l-2 -10c-11 6 -30 9 -47 9c-105 0 -187 -98 -210 -186l-66 -336h-10z" />
    <glyph glyph-name="s" unicode="s" horiz-adv-x="480" 
d="M154 392c0 -186 309 -43 309 -230c0 -88 -85 -170 -208 -170c-119 0 -177 67 -180 177h10c3 -107 58 -168 171 -168c120 0 197 85 197 160c0 178 -309 38 -309 229c0 75 62 141 179 141c100 0 164 -44 166 -177h-10c-2 127 -63 168 -156 168c-110 0 -169 -63 -169 -130z
" />
    <glyph glyph-name="t" unicode="t" horiz-adv-x="246" 
d="M122 125l76 389h-93l2 9h92l24 122h10l-24 -122h124l-2 -9h-123l-76 -389c-3 -18 -5 -33 -5 -46c0 -49 26 -70 95 -70h11l-2 -9h-13c-72 0 -101 22 -101 78c0 13 2 29 5 47z" />
    <glyph glyph-name="u" unicode="u" horiz-adv-x="552" 
d="M488 202l63 321h10l-102 -523h-10l29 146c-44 -95 -129 -154 -219 -154c-92 0 -138 49 -138 131c0 16 2 34 6 53l68 347h10l-68 -348c-4 -18 -6 -35 -6 -51c0 -72 37 -123 129 -123c121 0 211 113 228 201z" />
    <glyph glyph-name="v" unicode="v" horiz-adv-x="478" 
d="M235 0l-108 523h11l98 -478l6 -31l17 31l284 478h12l-312 -523h-8z" />
    <glyph glyph-name="w" unicode="w" horiz-adv-x="781" 
d="M565 0l-69 470l-6 40l-21 -40l-251 -470h-11l-77 523h10l69 -478l4 -34l19 34l255 478h11l70 -478l4 -31l16 31l255 478h12l-281 -523h-9z" />
    <glyph glyph-name="x" unicode="x" horiz-adv-x="488" 
d="M451 0l-134 231l-21 36l-34 -36l-224 -231h-13l265 274l-143 249h12l118 -206l21 -36l34 36l200 206h13l-242 -249l160 -274h-12z" />
    <glyph glyph-name="y" unicode="y" horiz-adv-x="470" 
d="M18 -221h-13l2 9h11c71 0 98 26 171 150l41 70l-115 515h11l96 -429l17 -75l44 74l259 430h12l-362 -600c-77 -127 -102 -144 -174 -144z" />
    <glyph glyph-name="z" unicode="z" horiz-adv-x="475" 
d="M30 0l2 9l479 505h-366l2 9h380l-2 -9l-479 -505h401l-2 -9h-415z" />
    <glyph glyph-name="ae" unicode="&#xe6;" horiz-adv-x="946" 
d="M155 354h-10c37 112 113 177 238 177c106 0 154 -47 154 -135c0 -16 -2 -32 -5 -50c45 106 132 185 241 185c110 0 169 -66 169 -180c0 -21 -3 -45 -7 -70l-1 -7h-414c-7 -31 -11 -62 -11 -94c0 -114 59 -179 166 -179c102 0 182 56 232 168h10
c-54 -124 -139 -177 -242 -177c-113 0 -176 68 -176 187v8c-41 -110 -145 -195 -265 -195c-93 0 -146 44 -146 123c0 77 52 114 115 134c76 25 161 34 308 34l9 45c5 24 7 45 7 65c0 83 -45 129 -145 129c-120 0 -191 -65 -227 -168zM771 522c-123 0 -216 -109 -249 -239
h403c4 22 7 45 7 65c0 111 -56 174 -161 174zM98 115c0 -76 51 -114 138 -114c123 0 238 102 262 217l11 56c-328 -1 -411 -62 -411 -159z" />
    <glyph glyph-name="oe" unicode="&#x153;" horiz-adv-x="982" 
d="M280 -8c-115 0 -178 71 -178 188c0 181 105 351 275 351c113 0 176 -71 176 -188c0 -8 0 -16 -1 -24c41 119 134 212 253 212c112 0 172 -66 172 -180c0 -24 -3 -51 -8 -79l-1 -7h-421c-6 -28 -9 -56 -9 -85c0 -114 60 -179 169 -179c104 0 185 56 235 168h10
c-54 -124 -140 -177 -245 -177c-114 0 -178 68 -178 187v19c-39 -118 -128 -206 -249 -206zM281 1c163 0 263 170 263 340c0 115 -60 181 -168 181c-164 0 -264 -170 -264 -340c0 -115 60 -181 169 -181zM803 522c-127 0 -223 -114 -254 -248h410c5 26 8 51 8 74
c0 111 -57 174 -164 174z" />
    <glyph glyph-name="lslash" unicode="&#x142;" horiz-adv-x="196" 
d="M93 0l69 355l-79 -46l2 10l79 46l69 355h10l-68 -348l79 46l-2 -10l-79 -46l-70 -362h-10z" />
    <glyph glyph-name="oslash" unicode="&#xf8;" 
d="M85 -40l64 81c-31 32 -47 80 -47 139c0 181 105 351 275 351c53 0 95 -15 125 -43l59 75h11l-64 -81c31 -32 47 -80 47 -139c0 -181 -105 -351 -275 -351c-53 0 -95 15 -125 43l-59 -75h-11zM112 182c0 -57 15 -102 43 -133l341 431c-29 28 -69 42 -120 42
c-164 0 -264 -170 -264 -340zM281 1c164 0 264 170 264 340c0 57 -15 102 -43 133l-341 -431c29 -28 69 -42 120 -42z" />
    <glyph glyph-name="eth" unicode="&#xf0;" 
d="M276 -8c-115 0 -175 66 -175 180c0 176 113 339 276 339c81 0 135 -29 161 -77c-16 84 -58 161 -125 225l-99 -53l2 10l91 49c-22 19 -45 38 -71 55h16c23 -16 44 -33 63 -50l94 50l-2 -10l-86 -46c92 -88 135 -196 135 -308c0 -181 -110 -364 -280 -364zM278 1
c158 0 268 177 268 350c0 96 -60 151 -170 151c-158 0 -265 -165 -265 -328c0 -110 59 -173 167 -173z" />
    <glyph glyph-name="thorn" unicode="&#xfe;" 
d="M60 -221h-10l183 941h10l-74 -378c45 107 129 189 231 189s156 -72 156 -187c0 -173 -110 -352 -264 -352c-97 0 -154 66 -157 173zM399 522c-148 0 -254 -185 -254 -348c0 -110 52 -173 148 -173c148 0 253 177 253 341c0 114 -52 180 -147 180z" />
    <glyph glyph-name="germandbls" unicode="&#xdf;" horiz-adv-x="562" 
d="M275 0h-86l2 9h85c184 0 262 99 262 217c0 75 -39 147 -206 147h-4l1 9h4c186 0 233 108 233 191c0 85 -50 138 -159 138c-111 0 -179 -65 -203 -191l-101 -520h-10l101 520c26 133 96 200 215 200c116 0 167 -60 167 -145c0 -68 -28 -168 -173 -197
c115 -20 146 -83 146 -150c0 -131 -85 -228 -274 -228z" />
    <glyph glyph-name="dotlessi" unicode="&#x131;" horiz-adv-x="196" 
d="M93 0l102 523h10l-102 -523h-10z" />
    <glyph glyph-name="dotlessj" unicode="&#x237;" horiz-adv-x="196" 
d="M84 -99c-18 -90 -51 -122 -144 -122h-13l2 9h11c90 0 118 32 134 116l121 619h10z" />
    <glyph glyph-name="Aacute" unicode="&#xc1;" horiz-adv-x="652" 
d="M478 772l138 105h15l-141 -105h-12zM606 0l-48 214v-1h-381l-131 -213h-11l416 680h13l153 -680h-11zM434 633l-252 -411h374l-92 412l-8 35z" />
    <glyph glyph-name="Acircumflex" unicode="&#xc2;" horiz-adv-x="652" 
d="M585 772l-74 98l-113 -98h-12l119 105h13l79 -105h-12zM606 0l-48 214v-1h-381l-131 -213h-11l416 680h13l153 -680h-11zM434 633l-252 -411h374l-92 412l-8 35z" />
    <glyph glyph-name="Adieresis" unicode="&#xc4;" horiz-adv-x="652" 
d="M446 772l20 105h10l-20 -105h-10zM526 772l20 105h10l-20 -105h-10zM606 0l-48 214v-1h-381l-131 -213h-11l416 680h13l153 -680h-11zM434 633l-252 -411h374l-92 412l-8 35z" />
    <glyph glyph-name="Agrave" unicode="&#xc0;" horiz-adv-x="652" 
d="M504 772h-12l-100 105h13zM606 0l-48 214v-1h-381l-131 -213h-11l416 680h13l153 -680h-11zM434 633l-252 -411h374l-92 412l-8 35z" />
    <glyph glyph-name="Aring" unicode="&#xc5;" horiz-adv-x="652" 
d="M491 772c-41 0 -68 28 -68 66c0 54 46 98 99 98c41 0 68 -28 68 -66c0 -54 -46 -98 -99 -98zM492 781c48 0 88 41 88 89c0 33 -23 57 -59 57c-48 0 -88 -41 -88 -89c0 -33 23 -57 59 -57zM606 0l-48 214v-1h-381l-131 -213h-11l416 680h13l153 -680h-11zM434 633
l-252 -411h374l-92 412l-8 35z" />
    <glyph glyph-name="Atilde" unicode="&#xc3;" horiz-adv-x="652" 
d="M369 772h-10c16 83 55 105 88 105c64 0 56 -96 109 -96c27 0 61 16 77 96h10c-16 -83 -55 -105 -88 -105c-63 0 -55 96 -110 96c-27 0 -61 -16 -76 -96zM606 0l-48 214v-1h-381l-131 -213h-11l416 680h13l153 -680h-11zM434 633l-252 -411h374l-92 412l-8 35z" />
    <glyph glyph-name="Abreve" unicode="&#x102;" horiz-adv-x="652" 
d="M408 877h10c0 -73 30 -96 75 -96s90 23 112 96h10c-23 -78 -73 -105 -122 -105c-51 0 -85 26 -85 105zM606 0l-48 214v-1h-381l-131 -213h-11l416 680h13l153 -680h-11zM434 633l-252 -411h374l-92 412l-8 35z" />
    <glyph glyph-name="Amacron" unicode="&#x100;" horiz-adv-x="652" 
d="M415 820l2 9h170l-2 -9h-170zM606 0l-48 214v-1h-381l-131 -213h-11l416 680h13l153 -680h-11zM434 633l-252 -411h374l-92 412l-8 35z" />
    <glyph glyph-name="Aogonek" unicode="&#x104;" horiz-adv-x="652" 
d="M617 0c-105 -35 -167 -99 -167 -155c0 -38 34 -65 90 -65c31 0 47 6 61 12l-2 -9c-17 -8 -38 -12 -62 -12c-59 0 -97 30 -97 74c0 61 64 125 165 158l-47 211v-1h-381l-131 -213h-11l416 680h13zM434 633l-252 -411h374l-92 412l-8 35z" />
    <glyph glyph-name="Ccedilla" unicode="&#xc7;" horiz-adv-x="663" 
d="M231 -212c100 3 161 34 161 84c0 30 -28 47 -98 52l59 68c-147 0 -228 95 -228 256c0 225 144 440 363 440c112 0 199 -64 215 -176h-9c-15 105 -98 167 -208 167c-209 0 -351 -208 -351 -431c0 -155 78 -247 220 -247c106 0 206 59 269 167h11
c-65 -111 -162 -172 -271 -176l-51 -61c62 -6 89 -25 89 -57c0 -54 -57 -90 -173 -95z" />
    <glyph glyph-name="Cacute" unicode="&#x106;" horiz-adv-x="663" 
d="M489 772l138 105h15l-141 -105h-12zM703 512h-9c-15 105 -98 167 -208 167c-209 0 -351 -208 -351 -431c0 -155 78 -247 220 -247c106 0 206 59 269 167h11c-67 -115 -169 -176 -282 -176c-147 0 -228 95 -228 256c0 225 144 440 363 440c112 0 199 -64 215 -176z" />
    <glyph glyph-name="Ccaron" unicode="&#x10c;" horiz-adv-x="663" 
d="M616 877h13l-119 -105h-13l-79 105h11l75 -98zM703 512h-9c-15 105 -98 167 -208 167c-209 0 -351 -208 -351 -431c0 -155 78 -247 220 -247c106 0 206 59 269 167h11c-67 -115 -169 -176 -282 -176c-147 0 -228 95 -228 256c0 225 144 440 363 440
c112 0 199 -64 215 -176z" />
    <glyph glyph-name="Ccircumflex" unicode="&#x108;" horiz-adv-x="663" 
d="M596 772l-74 98l-113 -98h-12l119 105h13l79 -105h-12zM703 512h-9c-15 105 -98 167 -208 167c-209 0 -351 -208 -351 -431c0 -155 78 -247 220 -247c106 0 206 59 269 167h11c-67 -115 -169 -176 -282 -176c-147 0 -228 95 -228 256c0 225 144 440 363 440
c112 0 199 -64 215 -176z" />
    <glyph glyph-name="Cdotaccent" unicode="&#x10a;" horiz-adv-x="663" 
d="M497 772l20 105h10l-20 -105h-10zM703 512h-9c-15 105 -98 167 -208 167c-209 0 -351 -208 -351 -431c0 -155 78 -247 220 -247c106 0 206 59 269 167h11c-67 -115 -169 -176 -282 -176c-147 0 -228 95 -228 256c0 225 144 440 363 440c112 0 199 -64 215 -176z" />
    <glyph glyph-name="Dcaron" unicode="&#x10e;" horiz-adv-x="681" 
d="M555 877h13l-119 -105h-13l-79 105h11l75 -98zM100 0l132 680h174c176 0 280 -93 280 -252c0 -237 -166 -428 -415 -428h-171zM273 9c239 0 403 188 403 418c0 155 -99 244 -272 244h-164l-128 -662h161z" />
    <glyph glyph-name="Dcroat" unicode="&#x110;" horiz-adv-x="681" 
d="M100 0l68 349h-77l2 9h76l63 322h174c176 0 280 -93 280 -252c0 -237 -166 -428 -415 -428h-171zM273 9c239 0 403 188 403 418c0 155 -99 244 -272 244h-164l-61 -313h172l-2 -9h-171l-66 -340h161z" />
    <glyph glyph-name="Eacute" unicode="&#xc9;" horiz-adv-x="589" 
d="M452 772l138 105h15l-141 -105h-12zM100 0l132 680h429l-2 -9h-419l-61 -313h385l-2 -9h-384l-66 -340h419l-2 -9h-429z" />
    <glyph glyph-name="Ecircumflex" unicode="&#xca;" horiz-adv-x="589" 
d="M559 772l-74 98l-113 -98h-12l119 105h13l79 -105h-12zM100 0l132 680h429l-2 -9h-419l-61 -313h385l-2 -9h-384l-66 -340h419l-2 -9h-429z" />
    <glyph glyph-name="Edieresis" unicode="&#xcb;" horiz-adv-x="589" 
d="M420 772l20 105h10l-20 -105h-10zM500 772l20 105h10l-20 -105h-10zM100 0l132 680h429l-2 -9h-419l-61 -313h385l-2 -9h-384l-66 -340h419l-2 -9h-429z" />
    <glyph glyph-name="Egrave" unicode="&#xc8;" horiz-adv-x="589" 
d="M478 772h-12l-100 105h13zM100 0l132 680h429l-2 -9h-419l-61 -313h385l-2 -9h-384l-66 -340h419l-2 -9h-429z" />
    <glyph glyph-name="Ebreve" unicode="&#x114;" horiz-adv-x="589" 
d="M382 877h10c0 -73 30 -96 75 -96s90 23 112 96h10c-23 -78 -73 -105 -122 -105c-51 0 -85 26 -85 105zM100 0l132 680h429l-2 -9h-419l-61 -313h385l-2 -9h-384l-66 -340h419l-2 -9h-429z" />
    <glyph glyph-name="Ecaron" unicode="&#x11a;" horiz-adv-x="589" 
d="M579 877h13l-119 -105h-13l-79 105h11l75 -98zM100 0l132 680h429l-2 -9h-419l-61 -313h385l-2 -9h-384l-66 -340h419l-2 -9h-429z" />
    <glyph glyph-name="Edotaccent" unicode="&#x116;" horiz-adv-x="589" 
d="M460 772l20 105h10l-20 -105h-10zM100 0l132 680h429l-2 -9h-419l-61 -313h385l-2 -9h-384l-66 -340h419l-2 -9h-429z" />
    <glyph glyph-name="Emacron" unicode="&#x112;" horiz-adv-x="589" 
d="M389 820l2 9h170l-2 -9h-170zM100 0l132 680h429l-2 -9h-419l-61 -313h385l-2 -9h-384l-66 -340h419l-2 -9h-429z" />
    <glyph glyph-name="Eogonek" unicode="&#x118;" horiz-adv-x="589" 
d="M100 0l132 680h429l-2 -9h-419l-61 -313h385l-2 -9h-384l-66 -340h419l-2 -9h-16c-105 -35 -167 -99 -167 -155c0 -38 34 -65 90 -65c31 0 47 6 61 12l-2 -9c-17 -8 -38 -12 -62 -12c-59 0 -97 30 -97 74c0 58 58 119 157 155h-393z" />
    <glyph glyph-name="Gbreve" unicode="&#x11e;" horiz-adv-x="693" 
d="M414 877h10c0 -73 30 -96 75 -96s90 23 112 96h10c-23 -78 -73 -105 -122 -105c-51 0 -85 26 -85 105zM601 0h-10l41 210c-57 -153 -165 -218 -280 -218c-146 0 -227 96 -227 257c0 225 141 439 363 439c113 0 199 -64 215 -176h-9c-16 105 -98 167 -208 167
c-215 0 -351 -212 -351 -430c0 -156 78 -248 219 -248c133 0 255 92 297 308h-228l2 9h238z" />
    <glyph glyph-name="Gcircumflex" unicode="&#x11c;" horiz-adv-x="693" 
d="M591 772l-74 98l-113 -98h-12l119 105h13l79 -105h-12zM601 0h-10l41 210c-57 -153 -165 -218 -280 -218c-146 0 -227 96 -227 257c0 225 141 439 363 439c113 0 199 -64 215 -176h-9c-16 105 -98 167 -208 167c-215 0 -351 -212 -351 -430c0 -156 78 -248 219 -248
c133 0 255 92 297 308h-228l2 9h238z" />
    <glyph glyph-name="Gcommaaccent" unicode="&#x122;" horiz-adv-x="693" 
d="M601 0h-10l41 210c-57 -153 -165 -218 -280 -218c-146 0 -227 96 -227 257c0 225 141 439 363 439c113 0 199 -64 215 -176h-9c-16 105 -98 167 -208 167c-215 0 -351 -212 -351 -430c0 -156 78 -248 219 -248c133 0 255 92 297 308h-228l2 9h238zM322 -120l5 28h28
l-3 -14c-10 -53 -24 -83 -42 -115h-8c19 42 28 60 36 101h-16z" />
    <glyph glyph-name="Gdotaccent" unicode="&#x120;" horiz-adv-x="693" 
d="M492 772l20 105h10l-20 -105h-10zM601 0h-10l41 210c-57 -153 -165 -218 -280 -218c-146 0 -227 96 -227 257c0 225 141 439 363 439c113 0 199 -64 215 -176h-9c-16 105 -98 167 -208 167c-215 0 -351 -212 -351 -430c0 -156 78 -248 219 -248c133 0 255 92 297 308
h-228l2 9h238z" />
    <glyph glyph-name="Hbar" unicode="&#x126;" horiz-adv-x="681" 
d="M100 0l103 529h-57l2 9h56l28 142h10l-28 -142h461l28 142h10l-28 -142h58l-2 -9h-57l-103 -529h-10l68 349h-461l-68 -349h-10zM179 358h461l34 171h-461z" />
    <glyph glyph-name="Hcircumflex" unicode="&#x124;" horiz-adv-x="681" 
d="M585 772l-74 98l-113 -98h-12l119 105h13l79 -105h-12zM100 0l132 680h10l-63 -322h461l63 322h10l-132 -680h-10l68 349h-461l-68 -349h-10z" />
    <glyph glyph-name="Iacute" unicode="&#xcd;" horiz-adv-x="210" 
d="M242 772l138 105h15l-141 -105h-12zM100 0l132 680h10l-132 -680h-10z" />
    <glyph glyph-name="Icircumflex" unicode="&#xce;" horiz-adv-x="210" 
d="M349 772l-74 98l-113 -98h-12l119 105h13l79 -105h-12zM100 0l132 680h10l-132 -680h-10z" />
    <glyph glyph-name="Idieresis" unicode="&#xcf;" horiz-adv-x="210" 
d="M210 772l20 105h10l-20 -105h-10zM290 772l20 105h10l-20 -105h-10zM100 0l132 680h10l-132 -680h-10z" />
    <glyph glyph-name="Igrave" unicode="&#xcc;" horiz-adv-x="210" 
d="M268 772h-12l-100 105h13zM100 0l132 680h10l-132 -680h-10z" />
    <glyph glyph-name="Ibreve" unicode="&#x12c;" horiz-adv-x="210" 
d="M172 877h10c0 -73 30 -96 75 -96s90 23 112 96h10c-23 -78 -73 -105 -122 -105c-51 0 -85 26 -85 105zM100 0l132 680h10l-132 -680h-10z" />
    <glyph glyph-name="Idotaccent" unicode="&#x130;" horiz-adv-x="210" 
d="M250 772l20 105h10l-20 -105h-10zM100 0l132 680h10l-132 -680h-10z" />
    <glyph glyph-name="Imacron" unicode="&#x12a;" horiz-adv-x="210" 
d="M179 820l2 9h170l-2 -9h-170zM100 0l132 680h10l-132 -680h-10z" />
    <glyph glyph-name="Iogonek" unicode="&#x12e;" horiz-adv-x="210" 
d="M110 0c-105 -35 -167 -99 -167 -155c0 -38 34 -65 90 -65c31 0 47 6 61 12l-2 -9c-17 -8 -38 -12 -62 -12c-59 0 -97 30 -97 74c0 61 64 125 168 159l131 676h10z" />
    <glyph glyph-name="Itilde" unicode="&#x128;" horiz-adv-x="210" 
d="M133 772h-10c16 83 55 105 88 105c64 0 56 -96 109 -96c27 0 61 16 77 96h10c-16 -83 -55 -105 -88 -105c-63 0 -55 96 -110 96c-27 0 -61 -16 -76 -96zM100 0l132 680h10l-132 -680h-10z" />
    <glyph glyph-name="Jcircumflex" unicode="&#x134;" horiz-adv-x="506" 
d="M647 772l-74 98l-113 -98h-12l119 105h13l79 -105h-12zM79 199h10c-1 -11 -2 -22 -2 -32c0 -105 51 -166 149 -166c109 0 186 79 213 219l89 460h10l-89 -460c-28 -146 -110 -228 -223 -228c-105 0 -159 64 -159 173c0 11 1 22 2 34z" />
    <glyph glyph-name="IJ" unicode="&#x132;" horiz-adv-x="716" 
d="M100 0l132 680h10l-132 -680h-10zM289 199h10c-1 -11 -2 -22 -2 -32c0 -105 51 -166 149 -166c109 0 186 79 213 219l89 460h10l-89 -460c-28 -146 -110 -228 -223 -228c-105 0 -159 64 -159 173c0 11 1 22 2 34z" />
    <glyph glyph-name="Kcommaaccent" unicode="&#x136;" 
d="M100 0l132 680h10l-64 -330l464 330h15l-469 -333l338 -347h-13l-336 345l-67 -345h-10zM253 -120l5 28h28l-3 -14c-10 -53 -24 -83 -42 -115h-8c19 42 28 60 36 101h-16z" />
    <glyph glyph-name="Lacute" unicode="&#x139;" horiz-adv-x="544" 
d="M249 772l138 105h15l-141 -105h-12zM100 0l132 680h10l-130 -671h394l-2 -9h-404z" />
    <glyph glyph-name="Lcaron" unicode="&#x13d;" horiz-adv-x="544" 
d="M100 0l132 680h10l-130 -671h394l-2 -9h-404zM395 652l5 28h28l-3 -14c-10 -53 -24 -83 -42 -115h-8c19 42 28 60 36 101h-16z" />
    <glyph glyph-name="Lcommaaccent" unicode="&#x13b;" horiz-adv-x="544" 
d="M100 0l132 680h10l-130 -671h394l-2 -9h-404zM267 -120l5 28h28l-3 -14c-10 -53 -24 -83 -42 -115h-8c19 42 28 60 36 101h-16z" />
    <glyph glyph-name="Ldot" unicode="&#x13f;" horiz-adv-x="544" 
d="M100 0l132 680h10l-130 -671h394l-2 -9h-404zM405 245l20 105h10l-20 -105h-10z" />
    <glyph glyph-name="Ntilde" unicode="&#xd1;" horiz-adv-x="681" 
d="M369 772h-10c16 83 55 105 88 105c64 0 56 -96 109 -96c27 0 61 16 77 96h10c-16 -83 -55 -105 -88 -105c-63 0 -55 96 -110 96c-27 0 -61 -16 -76 -96zM100 0l132 680h12l309 -626l21 -41l129 667h10l-132 -680h-12l-308 622l-22 45l-129 -667h-10z" />
    <glyph glyph-name="Nacute" unicode="&#x143;" horiz-adv-x="681" 
d="M478 772l138 105h15l-141 -105h-12zM100 0l132 680h12l309 -626l21 -41l129 667h10l-132 -680h-12l-308 622l-22 45l-129 -667h-10z" />
    <glyph glyph-name="Ncaron" unicode="&#x147;" horiz-adv-x="681" 
d="M605 877h13l-119 -105h-13l-79 105h11l75 -98zM100 0l132 680h12l309 -626l21 -41l129 667h10l-132 -680h-12l-308 622l-22 45l-129 -667h-10z" />
    <glyph glyph-name="Ncommaaccent" unicode="&#x145;" horiz-adv-x="681" 
d="M100 0l132 680h12l309 -626l21 -41l129 667h10l-132 -680h-12l-308 622l-22 45l-129 -667h-10zM306 -120l5 28h28l-3 -14c-10 -53 -24 -83 -42 -115h-8c19 42 28 60 36 101h-16z" />
    <glyph glyph-name="Oacute" unicode="&#xd3;" horiz-adv-x="736" 
d="M505 772l138 105h15l-141 -105h-12zM366 -8c-154 0 -240 97 -240 258c0 226 143 438 376 438c154 0 240 -97 240 -258c0 -226 -143 -438 -376 -438zM368 1c226 0 364 213 364 428c0 158 -82 250 -232 250c-226 0 -364 -213 -364 -428c0 -158 82 -250 232 -250z" />
    <glyph glyph-name="Ocircumflex" unicode="&#xd4;" horiz-adv-x="736" 
d="M612 772l-74 98l-113 -98h-12l119 105h13l79 -105h-12zM366 -8c-154 0 -240 97 -240 258c0 226 143 438 376 438c154 0 240 -97 240 -258c0 -226 -143 -438 -376 -438zM368 1c226 0 364 213 364 428c0 158 -82 250 -232 250c-226 0 -364 -213 -364 -428
c0 -158 82 -250 232 -250z" />
    <glyph glyph-name="Odieresis" unicode="&#xd6;" horiz-adv-x="736" 
d="M473 772l20 105h10l-20 -105h-10zM553 772l20 105h10l-20 -105h-10zM366 -8c-154 0 -240 97 -240 258c0 226 143 438 376 438c154 0 240 -97 240 -258c0 -226 -143 -438 -376 -438zM368 1c226 0 364 213 364 428c0 158 -82 250 -232 250c-226 0 -364 -213 -364 -428
c0 -158 82 -250 232 -250z" />
    <glyph glyph-name="Ograve" unicode="&#xd2;" horiz-adv-x="736" 
d="M531 772h-12l-100 105h13zM366 -8c-154 0 -240 97 -240 258c0 226 143 438 376 438c154 0 240 -97 240 -258c0 -226 -143 -438 -376 -438zM368 1c226 0 364 213 364 428c0 158 -82 250 -232 250c-226 0 -364 -213 -364 -428c0 -158 82 -250 232 -250z" />
    <glyph glyph-name="Otilde" unicode="&#xd5;" horiz-adv-x="736" 
d="M396 772h-10c16 83 55 105 88 105c64 0 56 -96 109 -96c27 0 61 16 77 96h10c-16 -83 -55 -105 -88 -105c-63 0 -55 96 -110 96c-27 0 -61 -16 -76 -96zM366 -8c-154 0 -240 97 -240 258c0 226 143 438 376 438c154 0 240 -97 240 -258c0 -226 -143 -438 -376 -438z
M368 1c226 0 364 213 364 428c0 158 -82 250 -232 250c-226 0 -364 -213 -364 -428c0 -158 82 -250 232 -250z" />
    <glyph glyph-name="Obreve" unicode="&#x14e;" horiz-adv-x="736" 
d="M435 877h10c0 -73 30 -96 75 -96s90 23 112 96h10c-23 -78 -73 -105 -122 -105c-51 0 -85 26 -85 105zM366 -8c-154 0 -240 97 -240 258c0 226 143 438 376 438c154 0 240 -97 240 -258c0 -226 -143 -438 -376 -438zM368 1c226 0 364 213 364 428c0 158 -82 250 -232 250
c-226 0 -364 -213 -364 -428c0 -158 82 -250 232 -250z" />
    <glyph glyph-name="Ohungarumlaut" unicode="&#x150;" horiz-adv-x="736" 
d="M467 772l98 105h14l-102 -105h-10zM567 772l98 105h14l-102 -105h-10zM366 -8c-154 0 -240 97 -240 258c0 226 143 438 376 438c154 0 240 -97 240 -258c0 -226 -143 -438 -376 -438zM368 1c226 0 364 213 364 428c0 158 -82 250 -232 250c-226 0 -364 -213 -364 -428
c0 -158 82 -250 232 -250z" />
    <glyph glyph-name="Omacron" unicode="&#x14c;" horiz-adv-x="736" 
d="M442 820l2 9h170l-2 -9h-170zM366 -8c-154 0 -240 97 -240 258c0 226 143 438 376 438c154 0 240 -97 240 -258c0 -226 -143 -438 -376 -438zM368 1c226 0 364 213 364 428c0 158 -82 250 -232 250c-226 0 -364 -213 -364 -428c0 -158 82 -250 232 -250z" />
    <glyph glyph-name="Racute" unicode="&#x154;" horiz-adv-x="601" 
d="M413 772l138 105h15l-141 -105h-12zM100 0l132 680h204c109 0 177 -55 177 -145c0 -100 -77 -180 -191 -200c76 -8 108 -41 115 -138l14 -197h-10l-13 192c-7 117 -52 138 -165 138h-189l-64 -330h-10zM434 671h-194l-64 -332h194c137 0 233 88 233 196
c0 85 -64 136 -169 136z" />
    <glyph glyph-name="Rcaron" unicode="&#x158;" horiz-adv-x="601" 
d="M540 877h13l-119 -105h-13l-79 105h11l75 -98zM100 0l132 680h204c109 0 177 -55 177 -145c0 -100 -77 -180 -191 -200c76 -8 108 -41 115 -138l14 -197h-10l-13 192c-7 117 -52 138 -165 138h-189l-64 -330h-10zM434 671h-194l-64 -332h194c137 0 233 88 233 196
c0 85 -64 136 -169 136z" />
    <glyph glyph-name="Rcommaaccent" unicode="&#x156;" horiz-adv-x="601" 
d="M100 0l132 680h204c109 0 177 -55 177 -145c0 -100 -77 -180 -191 -200c76 -8 108 -41 115 -138l14 -197h-10l-13 192c-7 117 -52 138 -165 138h-189l-64 -330h-10zM434 671h-194l-64 -332h194c137 0 233 88 233 196c0 85 -64 136 -169 136zM291 -120l5 28h28l-3 -14
c-10 -53 -24 -83 -42 -115h-8c19 42 28 60 36 101h-16z" />
    <glyph glyph-name="Scaron" unicode="&#x160;" horiz-adv-x="570" 
d="M549 877h13l-119 -105h-13l-79 105h11l75 -98zM407 679c-150 0 -227 -91 -227 -182c0 -232 378 -47 378 -297c0 -108 -95 -208 -258 -208c-137 0 -212 65 -217 177h10c5 -105 75 -168 207 -168c157 0 248 94 248 198c0 242 -379 56 -379 297c0 88 72 192 239 192
c125 0 193 -62 195 -176h-10c-2 110 -67 167 -186 167z" />
    <glyph glyph-name="Sacute" unicode="&#x15a;" horiz-adv-x="570" 
d="M422 772l138 105h15l-141 -105h-12zM407 679c-150 0 -227 -91 -227 -182c0 -232 378 -47 378 -297c0 -108 -95 -208 -258 -208c-137 0 -212 65 -217 177h10c5 -105 75 -168 207 -168c157 0 248 94 248 198c0 242 -379 56 -379 297c0 88 72 192 239 192
c125 0 193 -62 195 -176h-10c-2 110 -67 167 -186 167z" />
    <glyph glyph-name="Scedilla" unicode="&#x15e;" horiz-adv-x="570" 
d="M180 -212c100 3 161 34 161 84c0 30 -28 47 -98 52l59 68h-2c-137 0 -212 65 -217 177h10c5 -105 75 -168 207 -168c157 0 248 94 248 198c0 242 -379 56 -379 297c0 88 72 192 239 192c125 0 193 -62 195 -176h-10c-2 110 -67 167 -186 167c-150 0 -227 -91 -227 -182
c0 -232 378 -47 378 -297c0 -105 -90 -202 -245 -208l-51 -61c62 -6 89 -25 89 -57c0 -54 -57 -90 -173 -95z" />
    <glyph glyph-name="Scircumflex" unicode="&#x15c;" horiz-adv-x="570" 
d="M529 772l-74 98l-113 -98h-12l119 105h13l79 -105h-12zM407 679c-150 0 -227 -91 -227 -182c0 -232 378 -47 378 -297c0 -108 -95 -208 -258 -208c-137 0 -212 65 -217 177h10c5 -105 75 -168 207 -168c157 0 248 94 248 198c0 242 -379 56 -379 297c0 88 72 192 239 192
c125 0 193 -62 195 -176h-10c-2 110 -67 167 -186 167z" />
    <glyph glyph-name="Scommaaccent" unicode="&#x218;" horiz-adv-x="570" 
d="M407 679c-150 0 -227 -91 -227 -182c0 -232 378 -47 378 -297c0 -108 -95 -208 -258 -208c-137 0 -212 65 -217 177h10c5 -105 75 -168 207 -168c157 0 248 94 248 198c0 242 -379 56 -379 297c0 88 72 192 239 192c125 0 193 -62 195 -176h-10c-2 110 -67 167 -186 167z
M280 -120l5 28h28l-3 -14c-10 -53 -24 -83 -42 -115h-8c19 42 28 60 36 101h-16z" />
    <glyph glyph-name="Tbar" unicode="&#x166;" horiz-adv-x="598" 
d="M294 0l68 348h-99l2 9h98l61 314h-259l2 9h528l-2 -9h-259l-61 -314h112l-2 -9h-111l-68 -348h-10z" />
    <glyph glyph-name="Tcaron" unicode="&#x164;" horiz-adv-x="598" 
d="M568 877h13l-119 -105h-13l-79 105h11l75 -98zM294 0l130 671h-259l2 9h528l-2 -9h-259l-130 -671h-10z" />
    <glyph glyph-name="Tcedilla" unicode="&#x162;" horiz-adv-x="598" 
d="M294 0l130 671h-259l2 9h528l-2 -9h-259l-130 -671h-10zM269 -120l5 28h28l-3 -14c-10 -53 -24 -83 -42 -115h-8c19 42 28 60 36 101h-16z" />
    <glyph glyph-name="Tcommaaccent" unicode="&#x21a;" horiz-adv-x="598" 
d="M294 0l130 671h-259l2 9h528l-2 -9h-259l-130 -671h-10zM269 -120l5 28h28l-3 -14c-10 -53 -24 -83 -42 -115h-8c19 42 28 60 36 101h-16z" />
    <glyph glyph-name="Uacute" unicode="&#xda;" horiz-adv-x="676" 
d="M475 772l138 105h15l-141 -105h-12zM637 260c-32 -168 -145 -268 -299 -268c-131 0 -205 75 -205 197c0 22 2 45 7 70l82 421h10l-82 -421c-5 -25 -7 -48 -7 -70c0 -118 71 -188 197 -188c147 0 256 99 287 259l81 420h10z" />
    <glyph glyph-name="Ucircumflex" unicode="&#xdb;" horiz-adv-x="676" 
d="M582 772l-74 98l-113 -98h-12l119 105h13l79 -105h-12zM637 260c-32 -168 -145 -268 -299 -268c-131 0 -205 75 -205 197c0 22 2 45 7 70l82 421h10l-82 -421c-5 -25 -7 -48 -7 -70c0 -118 71 -188 197 -188c147 0 256 99 287 259l81 420h10z" />
    <glyph glyph-name="Udieresis" unicode="&#xdc;" horiz-adv-x="676" 
d="M443 772l20 105h10l-20 -105h-10zM523 772l20 105h10l-20 -105h-10zM637 260c-32 -168 -145 -268 -299 -268c-131 0 -205 75 -205 197c0 22 2 45 7 70l82 421h10l-82 -421c-5 -25 -7 -48 -7 -70c0 -118 71 -188 197 -188c147 0 256 99 287 259l81 420h10z" />
    <glyph glyph-name="Ugrave" unicode="&#xd9;" horiz-adv-x="676" 
d="M501 772h-12l-100 105h13zM637 260c-32 -168 -145 -268 -299 -268c-131 0 -205 75 -205 197c0 22 2 45 7 70l82 421h10l-82 -421c-5 -25 -7 -48 -7 -70c0 -118 71 -188 197 -188c147 0 256 99 287 259l81 420h10z" />
    <glyph glyph-name="Ubreve" unicode="&#x16c;" horiz-adv-x="676" 
d="M405 877h10c0 -73 30 -96 75 -96s90 23 112 96h10c-23 -78 -73 -105 -122 -105c-51 0 -85 26 -85 105zM637 260c-32 -168 -145 -268 -299 -268c-131 0 -205 75 -205 197c0 22 2 45 7 70l82 421h10l-82 -421c-5 -25 -7 -48 -7 -70c0 -118 71 -188 197 -188
c147 0 256 99 287 259l81 420h10z" />
    <glyph glyph-name="Uhungarumlaut" unicode="&#x170;" horiz-adv-x="676" 
d="M437 772l98 105h14l-102 -105h-10zM537 772l98 105h14l-102 -105h-10zM637 260c-32 -168 -145 -268 -299 -268c-131 0 -205 75 -205 197c0 22 2 45 7 70l82 421h10l-82 -421c-5 -25 -7 -48 -7 -70c0 -118 71 -188 197 -188c147 0 256 99 287 259l81 420h10z" />
    <glyph glyph-name="Umacron" unicode="&#x16a;" horiz-adv-x="676" 
d="M412 820l2 9h170l-2 -9h-170zM637 260c-32 -168 -145 -268 -299 -268c-131 0 -205 75 -205 197c0 22 2 45 7 70l82 421h10l-82 -421c-5 -25 -7 -48 -7 -70c0 -118 71 -188 197 -188c147 0 256 99 287 259l81 420h10z" />
    <glyph glyph-name="Uogonek" unicode="&#x172;" horiz-adv-x="676" 
d="M637 260c-27 -142 -112 -236 -231 -261c-103 -35 -164 -99 -164 -154c0 -38 34 -65 90 -65c31 0 47 6 61 12l-2 -9c-17 -8 -38 -12 -62 -12c-59 0 -97 30 -97 74c0 55 52 112 140 149c-11 -1 -22 -2 -34 -2c-131 0 -205 75 -205 197c0 22 2 45 7 70l82 421h10l-82 -421
c-5 -25 -7 -48 -7 -70c0 -118 71 -188 197 -188c147 0 256 99 287 259l81 420h10z" />
    <glyph glyph-name="Uring" unicode="&#x16e;" horiz-adv-x="676" 
d="M488 772c-41 0 -68 28 -68 66c0 54 46 98 99 98c41 0 68 -28 68 -66c0 -54 -46 -98 -99 -98zM489 781c48 0 88 41 88 89c0 33 -23 57 -59 57c-48 0 -88 -41 -88 -89c0 -33 23 -57 59 -57zM637 260c-32 -168 -145 -268 -299 -268c-131 0 -205 75 -205 197c0 22 2 45 7 70
l82 421h10l-82 -421c-5 -25 -7 -48 -7 -70c0 -118 71 -188 197 -188c147 0 256 99 287 259l81 420h10z" />
    <glyph glyph-name="Utilde" unicode="&#x168;" horiz-adv-x="676" 
d="M366 772h-10c16 83 55 105 88 105c64 0 56 -96 109 -96c27 0 61 16 77 96h10c-16 -83 -55 -105 -88 -105c-63 0 -55 96 -110 96c-27 0 -61 -16 -76 -96zM637 260c-32 -168 -145 -268 -299 -268c-131 0 -205 75 -205 197c0 22 2 45 7 70l82 421h10l-82 -421
c-5 -25 -7 -48 -7 -70c0 -118 71 -188 197 -188c147 0 256 99 287 259l81 420h10z" />
    <glyph glyph-name="Wacute" unicode="&#x1e82;" horiz-adv-x="1080" 
d="M692 772l138 105h15l-141 -105h-12zM789 0l-114 635l-5 30l-17 -30l-360 -635h-13l-93 680h12l84 -634l4 -38l22 38l358 634h11l111 -634l6 -38l20 38l331 634h11l-357 -680h-11z" />
    <glyph glyph-name="Wcircumflex" unicode="&#x174;" horiz-adv-x="1080" 
d="M799 772l-74 98l-113 -98h-12l119 105h13l79 -105h-12zM789 0l-114 635l-5 30l-17 -30l-360 -635h-13l-93 680h12l84 -634l4 -38l22 38l358 634h11l111 -634l6 -38l20 38l331 634h11l-357 -680h-11z" />
    <glyph glyph-name="Wdieresis" unicode="&#x1e84;" horiz-adv-x="1080" 
d="M660 772l20 105h10l-20 -105h-10zM740 772l20 105h10l-20 -105h-10zM789 0l-114 635l-5 30l-17 -30l-360 -635h-13l-93 680h12l84 -634l4 -38l22 38l358 634h11l111 -634l6 -38l20 38l331 634h11l-357 -680h-11z" />
    <glyph glyph-name="Wgrave" unicode="&#x1e80;" horiz-adv-x="1080" 
d="M718 772h-12l-100 105h13zM789 0l-114 635l-5 30l-17 -30l-360 -635h-13l-93 680h12l84 -634l4 -38l22 38l358 634h11l111 -634l6 -38l20 38l331 634h11l-357 -680h-11z" />
    <glyph glyph-name="Yacute" unicode="&#xdd;" horiz-adv-x="582" 
d="M428 772l138 105h15l-141 -105h-12zM286 0l52 270l-176 410h11l149 -347l22 -52l44 52l284 347h12l-336 -410l-52 -270h-10z" />
    <glyph glyph-name="Ydieresis" unicode="&#x178;" horiz-adv-x="582" 
d="M396 772l20 105h10l-20 -105h-10zM476 772l20 105h10l-20 -105h-10zM286 0l52 270l-176 410h11l149 -347l22 -52l44 52l284 347h12l-336 -410l-52 -270h-10z" />
    <glyph glyph-name="Ycircumflex" unicode="&#x176;" horiz-adv-x="582" 
d="M535 772l-74 98l-113 -98h-12l119 105h13l79 -105h-12zM286 0l52 270l-176 410h11l149 -347l22 -52l44 52l284 347h12l-336 -410l-52 -270h-10z" />
    <glyph glyph-name="Ygrave" unicode="&#x1ef2;" horiz-adv-x="582" 
d="M454 772h-12l-100 105h13zM286 0l52 270l-176 410h11l149 -347l22 -52l44 52l284 347h12l-336 -410l-52 -270h-10z" />
    <glyph glyph-name="Zcaron" unicode="&#x17d;" horiz-adv-x="578" 
d="M568 877h13l-119 -105h-13l-79 105h11l75 -98zM45 0l2 9l603 662h-475l2 9h488l-2 -9l-603 -662h475l-2 -9h-488z" />
    <glyph glyph-name="Zacute" unicode="&#x179;" horiz-adv-x="578" 
d="M441 772l138 105h15l-141 -105h-12zM45 0l2 9l603 662h-475l2 9h488l-2 -9l-603 -662h475l-2 -9h-488z" />
    <glyph glyph-name="Zdotaccent" unicode="&#x17b;" horiz-adv-x="578" 
d="M449 772l20 105h10l-20 -105h-10zM45 0l2 9l603 662h-475l2 9h488l-2 -9l-603 -662h475l-2 -9h-488z" />
    <glyph glyph-name="aacute" unicode="&#xe1;" 
d="M385 615l138 105h15l-141 -105h-12zM155 354h-10c37 112 113 177 238 177c102 0 148 -47 148 -135c0 -21 -3 -44 -8 -70l-41 -212c-5 -25 -8 -47 -8 -66c0 -18 3 -34 10 -48h-11c-7 14 -9 31 -9 48c0 19 2 38 6 56l12 61c-45 -99 -139 -173 -248 -173
c-93 0 -146 47 -146 131c0 80 55 119 118 140c75 26 173 34 302 34l6 31c5 24 7 45 7 65c0 83 -43 129 -139 129c-120 0 -191 -65 -227 -168zM98 123c0 -81 51 -122 138 -122c122 0 235 105 257 222l13 65c-325 -1 -408 -67 -408 -165z" />
    <glyph glyph-name="acircumflex" unicode="&#xe2;" 
d="M492 615l-74 98l-113 -98h-12l119 105h13l79 -105h-12zM155 354h-10c37 112 113 177 238 177c102 0 148 -47 148 -135c0 -21 -3 -44 -8 -70l-41 -212c-5 -25 -8 -47 -8 -66c0 -18 3 -34 10 -48h-11c-7 14 -9 31 -9 48c0 19 2 38 6 56l12 61c-45 -99 -139 -173 -248 -173
c-93 0 -146 47 -146 131c0 80 55 119 118 140c75 26 173 34 302 34l6 31c5 24 7 45 7 65c0 83 -43 129 -139 129c-120 0 -191 -65 -227 -168zM98 123c0 -81 51 -122 138 -122c122 0 235 105 257 222l13 65c-325 -1 -408 -67 -408 -165z" />
    <glyph glyph-name="adieresis" unicode="&#xe4;" 
d="M353 615l20 105h10l-20 -105h-10zM433 615l20 105h10l-20 -105h-10zM155 354h-10c37 112 113 177 238 177c102 0 148 -47 148 -135c0 -21 -3 -44 -8 -70l-41 -212c-5 -25 -8 -47 -8 -66c0 -18 3 -34 10 -48h-11c-7 14 -9 31 -9 48c0 19 2 38 6 56l12 61
c-45 -99 -139 -173 -248 -173c-93 0 -146 47 -146 131c0 80 55 119 118 140c75 26 173 34 302 34l6 31c5 24 7 45 7 65c0 83 -43 129 -139 129c-120 0 -191 -65 -227 -168zM98 123c0 -81 51 -122 138 -122c122 0 235 105 257 222l13 65c-325 -1 -408 -67 -408 -165z" />
    <glyph glyph-name="agrave" unicode="&#xe0;" 
d="M411 615h-12l-100 105h13zM155 354h-10c37 112 113 177 238 177c102 0 148 -47 148 -135c0 -21 -3 -44 -8 -70l-41 -212c-5 -25 -8 -47 -8 -66c0 -18 3 -34 10 -48h-11c-7 14 -9 31 -9 48c0 19 2 38 6 56l12 61c-45 -99 -139 -173 -248 -173c-93 0 -146 47 -146 131
c0 80 55 119 118 140c75 26 173 34 302 34l6 31c5 24 7 45 7 65c0 83 -43 129 -139 129c-120 0 -191 -65 -227 -168zM98 123c0 -81 51 -122 138 -122c122 0 235 105 257 222l13 65c-325 -1 -408 -67 -408 -165z" />
    <glyph glyph-name="aring" unicode="&#xe5;" 
d="M398 615c-41 0 -68 28 -68 66c0 54 46 98 99 98c41 0 68 -28 68 -66c0 -54 -46 -98 -99 -98zM399 624c48 0 88 41 88 89c0 33 -23 57 -59 57c-48 0 -88 -41 -88 -89c0 -33 23 -57 59 -57zM155 354h-10c37 112 113 177 238 177c102 0 148 -47 148 -135
c0 -21 -3 -44 -8 -70l-41 -212c-5 -25 -8 -47 -8 -66c0 -18 3 -34 10 -48h-11c-7 14 -9 31 -9 48c0 19 2 38 6 56l12 61c-45 -99 -139 -173 -248 -173c-93 0 -146 47 -146 131c0 80 55 119 118 140c75 26 173 34 302 34l6 31c5 24 7 45 7 65c0 83 -43 129 -139 129
c-120 0 -191 -65 -227 -168zM98 123c0 -81 51 -122 138 -122c122 0 235 105 257 222l13 65c-325 -1 -408 -67 -408 -165z" />
    <glyph glyph-name="atilde" unicode="&#xe3;" 
d="M276 615h-10c16 83 55 105 88 105c64 0 56 -96 109 -96c27 0 61 16 77 96h10c-16 -83 -55 -105 -88 -105c-63 0 -55 96 -110 96c-27 0 -61 -16 -76 -96zM155 354h-10c37 112 113 177 238 177c102 0 148 -47 148 -135c0 -21 -3 -44 -8 -70l-41 -212c-5 -25 -8 -47 -8 -66
c0 -18 3 -34 10 -48h-11c-7 14 -9 31 -9 48c0 19 2 38 6 56l12 61c-45 -99 -139 -173 -248 -173c-93 0 -146 47 -146 131c0 80 55 119 118 140c75 26 173 34 302 34l6 31c5 24 7 45 7 65c0 83 -43 129 -139 129c-120 0 -191 -65 -227 -168zM98 123c0 -81 51 -122 138 -122
c122 0 235 105 257 222l13 65c-325 -1 -408 -67 -408 -165z" />
    <glyph glyph-name="abreve" unicode="&#x103;" 
d="M315 720h10c0 -73 30 -96 75 -96s90 23 112 96h10c-23 -78 -73 -105 -122 -105c-51 0 -85 26 -85 105zM155 354h-10c37 112 113 177 238 177c102 0 148 -47 148 -135c0 -21 -3 -44 -8 -70l-41 -212c-5 -25 -8 -47 -8 -66c0 -18 3 -34 10 -48h-11c-7 14 -9 31 -9 48
c0 19 2 38 6 56l12 61c-45 -99 -139 -173 -248 -173c-93 0 -146 47 -146 131c0 80 55 119 118 140c75 26 173 34 302 34l6 31c5 24 7 45 7 65c0 83 -43 129 -139 129c-120 0 -191 -65 -227 -168zM98 123c0 -81 51 -122 138 -122c122 0 235 105 257 222l13 65
c-325 -1 -408 -67 -408 -165z" />
    <glyph glyph-name="amacron" unicode="&#x101;" 
d="M322 663l2 9h170l-2 -9h-170zM155 354h-10c37 112 113 177 238 177c102 0 148 -47 148 -135c0 -21 -3 -44 -8 -70l-41 -212c-5 -25 -8 -47 -8 -66c0 -18 3 -34 10 -48h-11c-7 14 -9 31 -9 48c0 19 2 38 6 56l12 61c-45 -99 -139 -173 -248 -173c-93 0 -146 47 -146 131
c0 80 55 119 118 140c75 26 173 34 302 34l6 31c5 24 7 45 7 65c0 83 -43 129 -139 129c-120 0 -191 -65 -227 -168zM98 123c0 -81 51 -122 138 -122c122 0 235 105 257 222l13 65c-325 -1 -408 -67 -408 -165z" />
    <glyph glyph-name="aogonek" unicode="&#x105;" 
d="M155 354h-10c37 112 113 177 238 177c102 0 148 -47 148 -135c0 -21 -3 -44 -8 -70l-41 -212c-5 -25 -8 -47 -8 -66c0 -18 3 -34 10 -48c-105 -35 -167 -99 -167 -155c0 -38 34 -65 90 -65c31 0 47 6 61 12l-2 -9c-17 -8 -38 -12 -62 -12c-59 0 -97 30 -97 74
c0 61 64 125 165 158c-6 13 -8 29 -8 45c0 19 2 38 6 56l12 61c-45 -99 -139 -173 -248 -173c-93 0 -146 47 -146 131c0 80 55 119 118 140c75 26 173 34 302 34l6 31c5 24 7 45 7 65c0 83 -43 129 -139 129c-120 0 -191 -65 -227 -168zM98 123c0 -81 51 -122 138 -122
c122 0 235 105 257 222l13 65c-325 -1 -408 -67 -408 -165z" />
    <glyph glyph-name="ccedilla" unicode="&#xe7;" horiz-adv-x="542" 
d="M142 -212c100 3 161 34 161 84c0 30 -28 47 -98 52l59 68c-101 6 -162 74 -162 188c0 178 112 351 277 351c108 0 172 -67 173 -177h-10c-2 106 -64 168 -165 168c-156 0 -265 -172 -265 -339c0 -116 63 -182 166 -182c102 0 182 55 232 168h10
c-54 -124 -139 -177 -242 -177h-3l-51 -61c62 -6 89 -25 89 -57c0 -54 -57 -90 -173 -95z" />
    <glyph glyph-name="cacute" unicode="&#x107;" horiz-adv-x="542" 
d="M378 615l138 105h15l-141 -105h-12zM552 354h-10c-2 106 -64 168 -165 168c-156 0 -265 -172 -265 -339c0 -116 63 -182 166 -182c102 0 182 55 232 168h10c-54 -124 -139 -177 -242 -177c-109 0 -176 69 -176 188c0 178 112 351 277 351c108 0 172 -67 173 -177z" />
    <glyph glyph-name="ccaron" unicode="&#x10d;" horiz-adv-x="542" 
d="M505 720h13l-119 -105h-13l-79 105h11l75 -98zM552 354h-10c-2 106 -64 168 -165 168c-156 0 -265 -172 -265 -339c0 -116 63 -182 166 -182c102 0 182 55 232 168h10c-54 -124 -139 -177 -242 -177c-109 0 -176 69 -176 188c0 178 112 351 277 351
c108 0 172 -67 173 -177z" />
    <glyph glyph-name="ccircumflex" unicode="&#x109;" horiz-adv-x="542" 
d="M485 615l-74 98l-113 -98h-12l119 105h13l79 -105h-12zM552 354h-10c-2 106 -64 168 -165 168c-156 0 -265 -172 -265 -339c0 -116 63 -182 166 -182c102 0 182 55 232 168h10c-54 -124 -139 -177 -242 -177c-109 0 -176 69 -176 188c0 178 112 351 277 351
c108 0 172 -67 173 -177z" />
    <glyph glyph-name="cdotaccent" unicode="&#x10b;" horiz-adv-x="542" 
d="M386 615l20 105h10l-20 -105h-10zM552 354h-10c-2 106 -64 168 -165 168c-156 0 -265 -172 -265 -339c0 -116 63 -182 166 -182c102 0 182 55 232 168h10c-54 -124 -139 -177 -242 -177c-109 0 -176 69 -176 188c0 178 112 351 277 351c108 0 172 -67 173 -177z" />
    <glyph glyph-name="dcaron" unicode="&#x10f;" 
d="M258 -8c-102 0 -156 72 -156 187c0 173 110 352 264 352c96 0 154 -65 157 -172l70 361h10l-140 -720h-10l35 180c-45 -106 -129 -188 -230 -188zM671 692l5 28h28l-3 -14c-10 -53 -24 -83 -42 -115h-8c19 42 28 60 36 101h-16zM259 1c148 0 254 185 254 348
c0 110 -52 173 -148 173c-148 0 -253 -177 -253 -341c0 -114 52 -180 147 -180z" />
    <glyph glyph-name="dcroat" unicode="&#x111;" 
d="M258 -8c-102 0 -156 72 -156 187c0 173 110 352 264 352c96 0 154 -65 157 -172l53 274h-104l2 9h104l15 78h10l-15 -78h56l-2 -9h-56l-123 -633h-10l35 180c-45 -106 -129 -188 -230 -188zM259 1c148 0 254 185 254 348c0 110 -52 173 -148 173
c-148 0 -253 -177 -253 -341c0 -114 52 -180 147 -180z" />
    <glyph glyph-name="eacute" unicode="&#xe9;" 
d="M385 615l138 105h15l-141 -105h-12zM526 169c-54 -124 -140 -177 -245 -177c-115 0 -179 68 -179 187c0 178 113 352 277 352c112 0 172 -66 172 -180c0 -24 -3 -51 -8 -79l-1 -7h-421c-6 -28 -9 -56 -9 -85c0 -114 60 -179 169 -179c104 0 185 56 235 168h10zM377 522
c-127 0 -223 -114 -254 -248h410c5 26 8 51 8 74c0 111 -57 174 -164 174z" />
    <glyph glyph-name="ecircumflex" unicode="&#xea;" 
d="M492 615l-74 98l-113 -98h-12l119 105h13l79 -105h-12zM526 169c-54 -124 -140 -177 -245 -177c-115 0 -179 68 -179 187c0 178 113 352 277 352c112 0 172 -66 172 -180c0 -24 -3 -51 -8 -79l-1 -7h-421c-6 -28 -9 -56 -9 -85c0 -114 60 -179 169 -179
c104 0 185 56 235 168h10zM377 522c-127 0 -223 -114 -254 -248h410c5 26 8 51 8 74c0 111 -57 174 -164 174z" />
    <glyph glyph-name="edieresis" unicode="&#xeb;" 
d="M353 615l20 105h10l-20 -105h-10zM433 615l20 105h10l-20 -105h-10zM526 169c-54 -124 -140 -177 -245 -177c-115 0 -179 68 -179 187c0 178 113 352 277 352c112 0 172 -66 172 -180c0 -24 -3 -51 -8 -79l-1 -7h-421c-6 -28 -9 -56 -9 -85c0 -114 60 -179 169 -179
c104 0 185 56 235 168h10zM377 522c-127 0 -223 -114 -254 -248h410c5 26 8 51 8 74c0 111 -57 174 -164 174z" />
    <glyph glyph-name="egrave" unicode="&#xe8;" 
d="M411 615h-12l-100 105h13zM526 169c-54 -124 -140 -177 -245 -177c-115 0 -179 68 -179 187c0 178 113 352 277 352c112 0 172 -66 172 -180c0 -24 -3 -51 -8 -79l-1 -7h-421c-6 -28 -9 -56 -9 -85c0 -114 60 -179 169 -179c104 0 185 56 235 168h10zM377 522
c-127 0 -223 -114 -254 -248h410c5 26 8 51 8 74c0 111 -57 174 -164 174z" />
    <glyph glyph-name="ebreve" unicode="&#x115;" 
d="M315 720h10c0 -73 30 -96 75 -96s90 23 112 96h10c-23 -78 -73 -105 -122 -105c-51 0 -85 26 -85 105zM526 169c-54 -124 -140 -177 -245 -177c-115 0 -179 68 -179 187c0 178 113 352 277 352c112 0 172 -66 172 -180c0 -24 -3 -51 -8 -79l-1 -7h-421
c-6 -28 -9 -56 -9 -85c0 -114 60 -179 169 -179c104 0 185 56 235 168h10zM377 522c-127 0 -223 -114 -254 -248h410c5 26 8 51 8 74c0 111 -57 174 -164 174z" />
    <glyph glyph-name="ecaron" unicode="&#x11b;" 
d="M512 720h13l-119 -105h-13l-79 105h11l75 -98zM526 169c-54 -124 -140 -177 -245 -177c-115 0 -179 68 -179 187c0 178 113 352 277 352c112 0 172 -66 172 -180c0 -24 -3 -51 -8 -79l-1 -7h-421c-6 -28 -9 -56 -9 -85c0 -114 60 -179 169 -179c104 0 185 56 235 168h10z
M377 522c-127 0 -223 -114 -254 -248h410c5 26 8 51 8 74c0 111 -57 174 -164 174z" />
    <glyph glyph-name="edotaccent" unicode="&#x117;" 
d="M393 615l20 105h10l-20 -105h-10zM526 169c-54 -124 -140 -177 -245 -177c-115 0 -179 68 -179 187c0 178 113 352 277 352c112 0 172 -66 172 -180c0 -24 -3 -51 -8 -79l-1 -7h-421c-6 -28 -9 -56 -9 -85c0 -114 60 -179 169 -179c104 0 185 56 235 168h10zM377 522
c-127 0 -223 -114 -254 -248h410c5 26 8 51 8 74c0 111 -57 174 -164 174z" />
    <glyph glyph-name="emacron" unicode="&#x113;" 
d="M322 663l2 9h170l-2 -9h-170zM526 169c-54 -124 -140 -177 -245 -177c-115 0 -179 68 -179 187c0 178 113 352 277 352c112 0 172 -66 172 -180c0 -24 -3 -51 -8 -79l-1 -7h-421c-6 -28 -9 -56 -9 -85c0 -114 60 -179 169 -179c104 0 185 56 235 168h10zM377 522
c-127 0 -223 -114 -254 -248h410c5 26 8 51 8 74c0 111 -57 174 -164 174z" />
    <glyph glyph-name="eogonek" unicode="&#x119;" 
d="M365 -217c-17 -8 -38 -12 -62 -12c-59 0 -97 30 -97 74c0 59 49 102 142 155c-21 -5 -44 -8 -67 -8c-115 0 -179 68 -179 187c0 178 113 352 277 352c112 0 172 -66 172 -180c0 -24 -3 -51 -8 -79l-1 -7h-421c-6 -28 -9 -56 -9 -85c0 -114 60 -179 169 -179
c104 0 185 56 235 168h10c-33 -76 -78 -125 -132 -152c-117 -64 -178 -110 -178 -172c0 -38 34 -65 90 -65c31 0 47 6 61 12zM377 522c-127 0 -223 -114 -254 -248h410c5 26 8 51 8 74c0 111 -57 174 -164 174z" />
    <glyph glyph-name="gbreve" unicode="&#x11f;" 
d="M295 720h10c0 -73 30 -96 75 -96s90 23 112 96h10c-23 -78 -73 -105 -122 -105c-51 0 -85 26 -85 105zM258 -8c-102 0 -156 72 -156 187c0 173 110 352 264 352c97 0 155 -66 157 -173l32 165h10l-107 -549c-28 -142 -105 -203 -224 -203c-112 0 -174 58 -173 167h10
c-3 -103 57 -158 163 -158c118 0 189 64 215 197l40 205c-45 -107 -129 -190 -231 -190zM259 1c148 0 254 185 254 348c0 110 -52 173 -148 173c-148 0 -253 -177 -253 -341c0 -114 52 -180 147 -180z" />
    <glyph glyph-name="gcircumflex" unicode="&#x11d;" 
d="M472 615l-74 98l-113 -98h-12l119 105h13l79 -105h-12zM258 -8c-102 0 -156 72 -156 187c0 173 110 352 264 352c97 0 155 -66 157 -173l32 165h10l-107 -549c-28 -142 -105 -203 -224 -203c-112 0 -174 58 -173 167h10c-3 -103 57 -158 163 -158c118 0 189 64 215 197
l40 205c-45 -107 -129 -190 -231 -190zM259 1c148 0 254 185 254 348c0 110 -52 173 -148 173c-148 0 -253 -177 -253 -341c0 -114 52 -180 147 -180z" />
    <glyph glyph-name="gcommaaccent" unicode="&#x123;" 
d="M399 643l-5 -28h-28l2 14c11 53 24 83 43 115h8c-20 -42 -28 -60 -36 -101h16zM258 -8c-102 0 -156 72 -156 187c0 173 110 352 264 352c97 0 155 -66 157 -173l32 165h10l-107 -549c-28 -142 -105 -203 -224 -203c-112 0 -174 58 -173 167h10c-3 -103 57 -158 163 -158
c118 0 189 64 215 197l40 205c-45 -107 -129 -190 -231 -190zM259 1c148 0 254 185 254 348c0 110 -52 173 -148 173c-148 0 -253 -177 -253 -341c0 -114 52 -180 147 -180z" />
    <glyph glyph-name="gdotaccent" unicode="&#x121;" 
d="M373 615l20 105h10l-20 -105h-10zM258 -8c-102 0 -156 72 -156 187c0 173 110 352 264 352c97 0 155 -66 157 -173l32 165h10l-107 -549c-28 -142 -105 -203 -224 -203c-112 0 -174 58 -173 167h10c-3 -103 57 -158 163 -158c118 0 189 64 215 197l40 205
c-45 -107 -129 -190 -231 -190zM259 1c148 0 254 185 254 348c0 110 -52 173 -148 173c-148 0 -253 -177 -253 -341c0 -114 52 -180 147 -180z" />
    <glyph glyph-name="hbar" unicode="&#x127;" 
d="M93 0l123 633h-54l2 9h54l15 78h10l-15 -78h106l-2 -9h-106l-50 -256c45 95 129 154 221 154s139 -49 139 -131c0 -16 -1 -33 -5 -51l-68 -349h-10l68 348c3 17 5 34 5 50c0 73 -38 124 -131 124c-117 0 -205 -104 -228 -191l-64 -331h-10z" />
    <glyph glyph-name="hcircumflex" unicode="&#x125;" 
d="M442 765l-74 98l-113 -98h-12l119 105h13l79 -105h-12zM93 0l140 720h10l-67 -343c45 95 129 154 221 154s139 -49 139 -131c0 -16 -1 -33 -5 -51l-68 -349h-10l68 348c3 17 5 34 5 50c0 73 -38 124 -131 124c-117 0 -205 -104 -228 -191l-64 -331h-10z" />
    <glyph glyph-name="iacute" unicode="&#xed;" horiz-adv-x="196" 
d="M205 615l138 105h15l-141 -105h-12zM93 0l102 523h10l-102 -523h-10z" />
    <glyph glyph-name="icircumflex" unicode="&#xee;" horiz-adv-x="196" 
d="M312 615l-74 98l-113 -98h-12l119 105h13l79 -105h-12zM93 0l102 523h10l-102 -523h-10z" />
    <glyph glyph-name="idieresis" unicode="&#xef;" horiz-adv-x="196" 
d="M173 615l20 105h10l-20 -105h-10zM253 615l20 105h10l-20 -105h-10zM93 0l102 523h10l-102 -523h-10z" />
    <glyph glyph-name="igrave" unicode="&#xec;" horiz-adv-x="196" 
d="M231 615h-12l-100 105h13zM93 0l102 523h10l-102 -523h-10z" />
    <glyph glyph-name="ibreve" unicode="&#x12d;" horiz-adv-x="196" 
d="M135 720h10c0 -73 30 -96 75 -96s90 23 112 96h10c-23 -78 -73 -105 -122 -105c-51 0 -85 26 -85 105zM93 0l102 523h10l-102 -523h-10z" />
    <glyph glyph-name="i.dot" unicode="&#xe166;" horiz-adv-x="196" 
d="M213 615l20 105h10l-20 -105h-10zM93 0l102 523h10l-102 -523h-10z" />
    <glyph glyph-name="imacron" unicode="&#x12b;" horiz-adv-x="196" 
d="M142 663l2 9h170l-2 -9h-170zM93 0l102 523h10l-102 -523h-10z" />
    <glyph glyph-name="iogonek" unicode="&#x12f;" horiz-adv-x="196" 
d="M213 615l20 105h10l-20 -105h-10zM103 0c-105 -35 -167 -99 -167 -155c0 -38 34 -65 90 -65c31 0 47 6 61 12l-2 -9c-17 -8 -38 -12 -62 -12c-59 0 -97 30 -97 74c0 61 64 125 168 159l101 519h10z" />
    <glyph glyph-name="itilde" unicode="&#x129;" horiz-adv-x="196" 
d="M96 615h-10c16 83 55 105 88 105c64 0 56 -96 109 -96c27 0 61 16 77 96h10c-16 -83 -55 -105 -88 -105c-63 0 -55 96 -110 96c-27 0 -61 -16 -76 -96zM93 0l102 523h10l-102 -523h-10z" />
    <glyph glyph-name="jcircumflex" unicode="&#x135;" horiz-adv-x="196" 
d="M312 615l-74 98l-113 -98h-12l119 105h13l79 -105h-12zM84 -99c-18 -90 -51 -122 -144 -122h-13l2 9h11c90 0 118 32 134 116l121 619h10z" />
    <glyph glyph-name="ij" unicode="&#x133;" horiz-adv-x="392" 
d="M213 615l20 105h10l-20 -105h-10zM409 615l20 105h10l-20 -105h-10zM93 0l102 523h10l-102 -523h-10zM280 -99c-18 -90 -51 -122 -144 -122h-13l2 9h11c90 0 118 32 134 116l121 619h10z" />
    <glyph glyph-name="kcommaaccent" unicode="&#x137;" horiz-adv-x="476" 
d="M93 0l140 720h10l-83 -428l365 231h16l-370 -234l267 -289h-13l-266 288l-56 -288h-10zM203 -120l5 28h28l-3 -14c-10 -53 -24 -83 -42 -115h-8c19 42 28 60 36 101h-16z" />
    <glyph glyph-name="lacute" unicode="&#x13a;" horiz-adv-x="196" 
d="M239 765l138 105h15l-141 -105h-12zM93 0l140 720h10l-140 -720h-10z" />
    <glyph glyph-name="lcaron" unicode="&#x13e;" horiz-adv-x="196" 
d="M93 0l140 720h10l-140 -720h-10zM311 692l5 28h28l-3 -14c-10 -53 -24 -83 -42 -115h-8c19 42 28 60 36 101h-16z" />
    <glyph glyph-name="lcommaaccent" unicode="&#x13c;" horiz-adv-x="196" 
d="M93 0l140 720h10l-140 -720h-10zM63 -120l5 28h28l-3 -14c-10 -53 -24 -83 -42 -115h-8c19 42 28 60 36 101h-16z" />
    <glyph glyph-name="ldot" unicode="&#x140;" horiz-adv-x="196" 
d="M93 0l140 720h10l-140 -720h-10zM241 245l20 105h10l-20 -105h-10z" />
    <glyph glyph-name="ntilde" unicode="&#xf1;" 
d="M276 615h-10c16 83 55 105 88 105c64 0 56 -96 109 -96c27 0 61 16 77 96h10c-16 -83 -55 -105 -88 -105c-63 0 -55 96 -110 96c-27 0 -61 -16 -76 -96zM93 0l102 523h10l-28 -145c44 94 128 153 220 153s139 -49 139 -131c0 -16 -1 -33 -5 -51l-68 -349h-10l68 348
c3 17 5 34 5 50c0 73 -38 124 -131 124c-116 0 -203 -102 -227 -188l-65 -334h-10z" />
    <glyph glyph-name="nacute" unicode="&#x144;" 
d="M385 615l138 105h15l-141 -105h-12zM93 0l102 523h10l-28 -145c44 94 128 153 220 153s139 -49 139 -131c0 -16 -1 -33 -5 -51l-68 -349h-10l68 348c3 17 5 34 5 50c0 73 -38 124 -131 124c-116 0 -203 -102 -227 -188l-65 -334h-10z" />
    <glyph glyph-name="ncaron" unicode="&#x148;" 
d="M512 720h13l-119 -105h-13l-79 105h11l75 -98zM93 0l102 523h10l-28 -145c44 94 128 153 220 153s139 -49 139 -131c0 -16 -1 -33 -5 -51l-68 -349h-10l68 348c3 17 5 34 5 50c0 73 -38 124 -131 124c-116 0 -203 -102 -227 -188l-65 -334h-10z" />
    <glyph glyph-name="ncommaaccent" unicode="&#x146;" 
d="M93 0l102 523h10l-28 -145c44 94 128 153 220 153s139 -49 139 -131c0 -16 -1 -33 -5 -51l-68 -349h-10l68 348c3 17 5 34 5 50c0 73 -38 124 -131 124c-116 0 -203 -102 -227 -188l-65 -334h-10zM243 -120l5 28h28l-3 -14c-10 -53 -24 -83 -42 -115h-8
c19 42 28 60 36 101h-16z" />
    <glyph glyph-name="oacute" unicode="&#xf3;" 
d="M385 615l138 105h15l-141 -105h-12zM280 -8c-115 0 -178 71 -178 188c0 181 105 351 275 351c115 0 178 -71 178 -188c0 -181 -105 -351 -275 -351zM281 1c164 0 264 170 264 340c0 115 -60 181 -169 181c-164 0 -264 -170 -264 -340c0 -115 60 -181 169 -181z" />
    <glyph glyph-name="ocircumflex" unicode="&#xf4;" 
d="M492 615l-74 98l-113 -98h-12l119 105h13l79 -105h-12zM280 -8c-115 0 -178 71 -178 188c0 181 105 351 275 351c115 0 178 -71 178 -188c0 -181 -105 -351 -275 -351zM281 1c164 0 264 170 264 340c0 115 -60 181 -169 181c-164 0 -264 -170 -264 -340
c0 -115 60 -181 169 -181z" />
    <glyph glyph-name="odieresis" unicode="&#xf6;" 
d="M353 615l20 105h10l-20 -105h-10zM433 615l20 105h10l-20 -105h-10zM280 -8c-115 0 -178 71 -178 188c0 181 105 351 275 351c115 0 178 -71 178 -188c0 -181 -105 -351 -275 -351zM281 1c164 0 264 170 264 340c0 115 -60 181 -169 181c-164 0 -264 -170 -264 -340
c0 -115 60 -181 169 -181z" />
    <glyph glyph-name="ograve" unicode="&#xf2;" 
d="M411 615h-12l-100 105h13zM280 -8c-115 0 -178 71 -178 188c0 181 105 351 275 351c115 0 178 -71 178 -188c0 -181 -105 -351 -275 -351zM281 1c164 0 264 170 264 340c0 115 -60 181 -169 181c-164 0 -264 -170 -264 -340c0 -115 60 -181 169 -181z" />
    <glyph glyph-name="otilde" unicode="&#xf5;" 
d="M276 615h-10c16 83 55 105 88 105c64 0 56 -96 109 -96c27 0 61 16 77 96h10c-16 -83 -55 -105 -88 -105c-63 0 -55 96 -110 96c-27 0 -61 -16 -76 -96zM280 -8c-115 0 -178 71 -178 188c0 181 105 351 275 351c115 0 178 -71 178 -188c0 -181 -105 -351 -275 -351z
M281 1c164 0 264 170 264 340c0 115 -60 181 -169 181c-164 0 -264 -170 -264 -340c0 -115 60 -181 169 -181z" />
    <glyph glyph-name="obreve" unicode="&#x14f;" 
d="M315 720h10c0 -73 30 -96 75 -96s90 23 112 96h10c-23 -78 -73 -105 -122 -105c-51 0 -85 26 -85 105zM280 -8c-115 0 -178 71 -178 188c0 181 105 351 275 351c115 0 178 -71 178 -188c0 -181 -105 -351 -275 -351zM281 1c164 0 264 170 264 340c0 115 -60 181 -169 181
c-164 0 -264 -170 -264 -340c0 -115 60 -181 169 -181z" />
    <glyph glyph-name="ohungarumlaut" unicode="&#x151;" 
d="M347 615l98 105h14l-102 -105h-10zM447 615l98 105h14l-102 -105h-10zM280 -8c-115 0 -178 71 -178 188c0 181 105 351 275 351c115 0 178 -71 178 -188c0 -181 -105 -351 -275 -351zM281 1c164 0 264 170 264 340c0 115 -60 181 -169 181c-164 0 -264 -170 -264 -340
c0 -115 60 -181 169 -181z" />
    <glyph glyph-name="omacron" unicode="&#x14d;" 
d="M322 663l2 9h170l-2 -9h-170zM280 -8c-115 0 -178 71 -178 188c0 181 105 351 275 351c115 0 178 -71 178 -188c0 -181 -105 -351 -275 -351zM281 1c164 0 264 170 264 340c0 115 -60 181 -169 181c-164 0 -264 -170 -264 -340c0 -115 60 -181 169 -181z" />
    <glyph glyph-name="racute" unicode="&#x155;" horiz-adv-x="346" 
d="M280 615l138 105h15l-141 -105h-12zM93 0l102 523h10l-28 -143c43 94 121 151 203 151c20 0 39 -3 48 -8l-2 -10c-11 6 -30 9 -47 9c-105 0 -187 -98 -210 -186l-66 -336h-10z" />
    <glyph glyph-name="rcaron" unicode="&#x159;" horiz-adv-x="346" 
d="M407 720h13l-119 -105h-13l-79 105h11l75 -98zM93 0l102 523h10l-28 -143c43 94 121 151 203 151c20 0 39 -3 48 -8l-2 -10c-11 6 -30 9 -47 9c-105 0 -187 -98 -210 -186l-66 -336h-10z" />
    <glyph glyph-name="rcommaaccent" unicode="&#x157;" horiz-adv-x="346" 
d="M93 0l102 523h10l-28 -143c43 94 121 151 203 151c20 0 39 -3 48 -8l-2 -10c-11 6 -30 9 -47 9c-105 0 -187 -98 -210 -186l-66 -336h-10zM78 -120l5 28h28l-3 -14c-10 -53 -24 -83 -42 -115h-8c19 42 28 60 36 101h-16z" />
    <glyph glyph-name="scaron" unicode="&#x161;" horiz-adv-x="480" 
d="M474 720h13l-119 -105h-13l-79 105h11l75 -98zM154 392c0 -186 309 -43 309 -230c0 -88 -85 -170 -208 -170c-119 0 -177 67 -180 177h10c3 -107 58 -168 171 -168c120 0 197 85 197 160c0 178 -309 38 -309 229c0 75 62 141 179 141c100 0 164 -44 166 -177h-10
c-2 127 -63 168 -156 168c-110 0 -169 -63 -169 -130z" />
    <glyph glyph-name="sacute" unicode="&#x15b;" horiz-adv-x="480" 
d="M347 615l138 105h15l-141 -105h-12zM154 392c0 -186 309 -43 309 -230c0 -88 -85 -170 -208 -170c-119 0 -177 67 -180 177h10c3 -107 58 -168 171 -168c120 0 197 85 197 160c0 178 -309 38 -309 229c0 75 62 141 179 141c100 0 164 -44 166 -177h-10
c-2 127 -63 168 -156 168c-110 0 -169 -63 -169 -130z" />
    <glyph glyph-name="scedilla" unicode="&#x15f;" horiz-adv-x="480" 
d="M125 -212c100 3 161 34 161 84c0 30 -28 47 -98 52l59 68c-114 3 -169 69 -172 177h10c3 -107 58 -168 171 -168c120 0 197 85 197 160c0 178 -309 38 -309 229c0 75 62 141 179 141c100 0 164 -44 166 -177h-10c-2 127 -63 168 -156 168c-110 0 -169 -63 -169 -130
c0 -186 309 -43 309 -230c0 -88 -85 -170 -205 -170l-51 -61c62 -6 89 -25 89 -57c0 -54 -57 -90 -173 -95z" />
    <glyph glyph-name="scircumflex" unicode="&#x15d;" horiz-adv-x="480" 
d="M454 615l-74 98l-113 -98h-12l119 105h13l79 -105h-12zM154 392c0 -186 309 -43 309 -230c0 -88 -85 -170 -208 -170c-119 0 -177 67 -180 177h10c3 -107 58 -168 171 -168c120 0 197 85 197 160c0 178 -309 38 -309 229c0 75 62 141 179 141c100 0 164 -44 166 -177h-10
c-2 127 -63 168 -156 168c-110 0 -169 -63 -169 -130z" />
    <glyph glyph-name="scommaaccent" unicode="&#x219;" horiz-adv-x="480" 
d="M154 392c0 -186 309 -43 309 -230c0 -88 -85 -170 -208 -170c-119 0 -177 67 -180 177h10c3 -107 58 -168 171 -168c120 0 197 85 197 160c0 178 -309 38 -309 229c0 75 62 141 179 141c100 0 164 -44 166 -177h-10c-2 127 -63 168 -156 168c-110 0 -169 -63 -169 -130z
M205 -120l5 28h28l-3 -14c-10 -53 -24 -83 -42 -115h-8c19 42 28 60 36 101h-16z" />
    <glyph glyph-name="tbar" unicode="&#x167;" horiz-adv-x="246" 
d="M122 125l33 168h-73l2 9h72l42 212h-93l2 9h92l24 122h10l-24 -122h124l-2 -9h-123l-42 -212h107l-2 -9h-106l-33 -168c-3 -18 -5 -33 -5 -46c0 -49 26 -70 95 -70h11l-2 -9h-13c-72 0 -101 22 -101 78c0 13 2 29 5 47z" />
    <glyph glyph-name="tcaron" unicode="&#x165;" horiz-adv-x="246" 
d="M316 692l5 28h28l-3 -14c-10 -53 -24 -83 -42 -115h-8c19 42 28 60 36 101h-16zM122 125l76 389h-93l2 9h92l24 122h10l-24 -122h124l-2 -9h-123l-76 -389c-3 -18 -5 -33 -5 -46c0 -49 26 -70 95 -70h11l-2 -9h-13c-72 0 -101 22 -101 78c0 13 2 29 5 47z" />
    <glyph glyph-name="tcedilla" unicode="&#x163;" horiz-adv-x="246" 
d="M122 125l76 389h-93l2 9h92l24 122h10l-24 -122h124l-2 -9h-123l-76 -389c-3 -18 -5 -33 -5 -46c0 -49 26 -70 95 -70h11l-2 -9h-13c-72 0 -101 22 -101 78c0 13 2 29 5 47zM98 -120l5 28h28l-3 -14c-10 -53 -24 -83 -42 -115h-8c19 42 28 60 36 101h-16z" />
    <glyph glyph-name="tcommaaccent" unicode="&#x21b;" horiz-adv-x="246" 
d="M122 125l76 389h-93l2 9h92l24 122h10l-24 -122h124l-2 -9h-123l-76 -389c-3 -18 -5 -33 -5 -46c0 -49 26 -70 95 -70h11l-2 -9h-13c-72 0 -101 22 -101 78c0 13 2 29 5 47zM98 -120l5 28h28l-3 -14c-10 -53 -24 -83 -42 -115h-8c19 42 28 60 36 101h-16z" />
    <glyph glyph-name="uacute" unicode="&#xfa;" horiz-adv-x="552" 
d="M383 615l138 105h15l-141 -105h-12zM488 202l63 321h10l-102 -523h-10l29 146c-44 -95 -129 -154 -219 -154c-92 0 -138 49 -138 131c0 16 2 34 6 53l68 347h10l-68 -348c-4 -18 -6 -35 -6 -51c0 -72 37 -123 129 -123c121 0 211 113 228 201z" />
    <glyph glyph-name="ucircumflex" unicode="&#xfb;" horiz-adv-x="552" 
d="M490 615l-74 98l-113 -98h-12l119 105h13l79 -105h-12zM488 202l63 321h10l-102 -523h-10l29 146c-44 -95 -129 -154 -219 -154c-92 0 -138 49 -138 131c0 16 2 34 6 53l68 347h10l-68 -348c-4 -18 -6 -35 -6 -51c0 -72 37 -123 129 -123c121 0 211 113 228 201z" />
    <glyph glyph-name="udieresis" unicode="&#xfc;" horiz-adv-x="552" 
d="M351 615l20 105h10l-20 -105h-10zM431 615l20 105h10l-20 -105h-10zM488 202l63 321h10l-102 -523h-10l29 146c-44 -95 -129 -154 -219 -154c-92 0 -138 49 -138 131c0 16 2 34 6 53l68 347h10l-68 -348c-4 -18 -6 -35 -6 -51c0 -72 37 -123 129 -123
c121 0 211 113 228 201z" />
    <glyph glyph-name="ugrave" unicode="&#xf9;" horiz-adv-x="552" 
d="M409 615h-12l-100 105h13zM488 202l63 321h10l-102 -523h-10l29 146c-44 -95 -129 -154 -219 -154c-92 0 -138 49 -138 131c0 16 2 34 6 53l68 347h10l-68 -348c-4 -18 -6 -35 -6 -51c0 -72 37 -123 129 -123c121 0 211 113 228 201z" />
    <glyph glyph-name="ubreve" unicode="&#x16d;" horiz-adv-x="552" 
d="M313 720h10c0 -73 30 -96 75 -96s90 23 112 96h10c-23 -78 -73 -105 -122 -105c-51 0 -85 26 -85 105zM488 202l63 321h10l-102 -523h-10l29 146c-44 -95 -129 -154 -219 -154c-92 0 -138 49 -138 131c0 16 2 34 6 53l68 347h10l-68 -348c-4 -18 -6 -35 -6 -51
c0 -72 37 -123 129 -123c121 0 211 113 228 201z" />
    <glyph glyph-name="uhungarumlaut" unicode="&#x171;" horiz-adv-x="552" 
d="M345 615l98 105h14l-102 -105h-10zM445 615l98 105h14l-102 -105h-10zM488 202l63 321h10l-102 -523h-10l29 146c-44 -95 -129 -154 -219 -154c-92 0 -138 49 -138 131c0 16 2 34 6 53l68 347h10l-68 -348c-4 -18 -6 -35 -6 -51c0 -72 37 -123 129 -123
c121 0 211 113 228 201z" />
    <glyph glyph-name="umacron" unicode="&#x16b;" horiz-adv-x="552" 
d="M320 663l2 9h170l-2 -9h-170zM488 202l63 321h10l-102 -523h-10l29 146c-44 -95 -129 -154 -219 -154c-92 0 -138 49 -138 131c0 16 2 34 6 53l68 347h10l-68 -348c-4 -18 -6 -35 -6 -51c0 -72 37 -123 129 -123c121 0 211 113 228 201z" />
    <glyph glyph-name="uogonek" unicode="&#x173;" horiz-adv-x="552" 
d="M459 0c-105 -35 -167 -99 -167 -155c0 -38 34 -65 90 -65c31 0 47 6 61 12l-2 -9c-17 -8 -38 -12 -62 -12c-59 0 -97 30 -97 74c0 61 64 125 168 159l28 142c-44 -95 -129 -154 -219 -154c-92 0 -138 49 -138 131c0 16 2 34 6 53l68 347h10l-68 -348
c-4 -18 -6 -35 -6 -51c0 -72 37 -123 129 -123c121 0 211 113 228 201l63 321h10z" />
    <glyph glyph-name="uring" unicode="&#x16f;" horiz-adv-x="552" 
d="M396 615c-41 0 -68 28 -68 66c0 54 46 98 99 98c41 0 68 -28 68 -66c0 -54 -46 -98 -99 -98zM397 624c48 0 88 41 88 89c0 33 -23 57 -59 57c-48 0 -88 -41 -88 -89c0 -33 23 -57 59 -57zM488 202l63 321h10l-102 -523h-10l29 146c-44 -95 -129 -154 -219 -154
c-92 0 -138 49 -138 131c0 16 2 34 6 53l68 347h10l-68 -348c-4 -18 -6 -35 -6 -51c0 -72 37 -123 129 -123c121 0 211 113 228 201z" />
    <glyph glyph-name="utilde" unicode="&#x169;" horiz-adv-x="552" 
d="M274 615h-10c16 83 55 105 88 105c64 0 56 -96 109 -96c27 0 61 16 77 96h10c-16 -83 -55 -105 -88 -105c-63 0 -55 96 -110 96c-27 0 -61 -16 -76 -96zM488 202l63 321h10l-102 -523h-10l29 146c-44 -95 -129 -154 -219 -154c-92 0 -138 49 -138 131c0 16 2 34 6 53
l68 347h10l-68 -348c-4 -18 -6 -35 -6 -51c0 -72 37 -123 129 -123c121 0 211 113 228 201z" />
    <glyph glyph-name="wacute" unicode="&#x1e83;" horiz-adv-x="781" 
d="M480 615l138 105h15l-141 -105h-12zM565 0l-69 470l-6 40l-21 -40l-251 -470h-11l-77 523h10l69 -478l4 -34l19 34l255 478h11l70 -478l4 -31l16 31l255 478h12l-281 -523h-9z" />
    <glyph glyph-name="wcircumflex" unicode="&#x175;" horiz-adv-x="781" 
d="M587 615l-74 98l-113 -98h-12l119 105h13l79 -105h-12zM565 0l-69 470l-6 40l-21 -40l-251 -470h-11l-77 523h10l69 -478l4 -34l19 34l255 478h11l70 -478l4 -31l16 31l255 478h12l-281 -523h-9z" />
    <glyph glyph-name="wdieresis" unicode="&#x1e85;" horiz-adv-x="781" 
d="M448 615l20 105h10l-20 -105h-10zM528 615l20 105h10l-20 -105h-10zM565 0l-69 470l-6 40l-21 -40l-251 -470h-11l-77 523h10l69 -478l4 -34l19 34l255 478h11l70 -478l4 -31l16 31l255 478h12l-281 -523h-9z" />
    <glyph glyph-name="wgrave" unicode="&#x1e81;" horiz-adv-x="781" 
d="M506 615h-12l-100 105h13zM565 0l-69 470l-6 40l-21 -40l-251 -470h-11l-77 523h10l69 -478l4 -34l19 34l255 478h11l70 -478l4 -31l16 31l255 478h12l-281 -523h-9z" />
    <glyph glyph-name="yacute" unicode="&#xfd;" horiz-adv-x="450" 
d="M332 615l138 105h15l-141 -105h-12zM18 -221h-13l2 9h11c71 0 98 26 171 150l41 70l-115 515h11l96 -429l17 -75l44 74l259 430h12l-362 -600c-77 -127 -102 -144 -174 -144z" />
    <glyph glyph-name="ydieresis" unicode="&#xff;" horiz-adv-x="450" 
d="M300 615l20 105h10l-20 -105h-10zM380 615l20 105h10l-20 -105h-10zM18 -221h-13l2 9h11c71 0 98 26 171 150l41 70l-115 515h11l96 -429l17 -75l44 74l259 430h12l-362 -600c-77 -127 -102 -144 -174 -144z" />
    <glyph glyph-name="ycircumflex" unicode="&#x177;" horiz-adv-x="450" 
d="M439 615l-74 98l-113 -98h-12l119 105h13l79 -105h-12zM18 -221h-13l2 9h11c71 0 98 26 171 150l41 70l-115 515h11l96 -429l17 -75l44 74l259 430h12l-362 -600c-77 -127 -102 -144 -174 -144z" />
    <glyph glyph-name="ygrave" unicode="&#x1ef3;" horiz-adv-x="450" 
d="M358 615h-12l-100 105h13zM18 -221h-13l2 9h11c71 0 98 26 171 150l41 70l-115 515h11l96 -429l17 -75l44 74l259 430h12l-362 -600c-77 -127 -102 -144 -174 -144z" />
    <glyph glyph-name="zcaron" unicode="&#x17e;" horiz-adv-x="475" 
d="M472 720h13l-119 -105h-13l-79 105h11l75 -98zM30 0l2 9l479 505h-366l2 9h380l-2 -9l-479 -505h401l-2 -9h-415z" />
    <glyph glyph-name="zacute" unicode="&#x17a;" horiz-adv-x="475" 
d="M345 615l138 105h15l-141 -105h-12zM30 0l2 9l479 505h-366l2 9h380l-2 -9l-479 -505h401l-2 -9h-415z" />
    <glyph glyph-name="zdotaccent" unicode="&#x17c;" horiz-adv-x="475" 
d="M353 615l20 105h10l-20 -105h-10zM30 0l2 9l479 505h-366l2 9h380l-2 -9l-479 -505h401l-2 -9h-415z" />
    <glyph glyph-name="acute" unicode="&#xb4;" 
d="M385 615l138 105h15l-141 -105h-12z" />
    <glyph glyph-name="grave" unicode="`" 
d="M411 615h-12l-100 105h13z" />
    <glyph glyph-name="circumflex" unicode="&#x2c6;" 
d="M492 615l-74 98l-113 -98h-12l119 105h13l79 -105h-12z" />
    <glyph glyph-name="caron" unicode="&#x2c7;" 
d="M512 720h13l-119 -105h-13l-79 105h11l75 -98z" />
    <glyph glyph-name="tilde" unicode="&#x2dc;" 
d="M276 615h-10c16 83 55 105 88 105c64 0 56 -96 109 -96c27 0 61 16 77 96h10c-16 -83 -55 -105 -88 -105c-63 0 -55 96 -110 96c-27 0 -61 -16 -76 -96z" />
    <glyph glyph-name="dieresis" unicode="&#xa8;" 
d="M353 615l20 105h10l-20 -105h-10zM433 615l20 105h10l-20 -105h-10z" />
    <glyph glyph-name="ring" unicode="&#x2da;" 
d="M398 615c-41 0 -68 28 -68 66c0 54 46 98 99 98c41 0 68 -28 68 -66c0 -54 -46 -98 -99 -98zM399 624c48 0 88 41 88 89c0 33 -23 57 -59 57c-48 0 -88 -41 -88 -89c0 -33 23 -57 59 -57z" />
    <glyph glyph-name="cedilla" unicode="&#xb8;" 
d="M143 -212c100 3 161 34 161 84c0 30 -28 47 -98 52l66 76h11l-58 -69c62 -6 89 -25 89 -57c0 -54 -57 -90 -173 -95z" />
    <glyph glyph-name="hungarumlaut" unicode="&#x2dd;" 
d="M347 615l98 105h14l-102 -105h-10zM447 615l98 105h14l-102 -105h-10z" />
    <glyph glyph-name="breve" unicode="&#x2d8;" 
d="M315 720h10c0 -73 30 -96 75 -96s90 23 112 96h10c-23 -78 -73 -105 -122 -105c-51 0 -85 26 -85 105z" />
    <glyph glyph-name="macron" unicode="&#xaf;" 
d="M322 663l2 9h170l-2 -9h-170z" />
    <glyph glyph-name="dotaccent" unicode="&#x2d9;" 
d="M393 615l20 105h10l-20 -105h-10z" />
    <glyph glyph-name="periodcentered" unicode="&#xb7;" 
d="M321 245l20 105h10l-20 -105h-10z" />
    <glyph glyph-name="ogonek" unicode="&#x2db;" 
d="M303 0c-105 -35 -167 -99 -167 -155c0 -38 34 -65 90 -65c31 0 47 6 61 12l-2 -9c-17 -8 -38 -12 -62 -12c-59 0 -97 30 -97 74c0 61 64 125 171 160z" />
    <glyph glyph-name="commaaccentcomb" unicode="&#x326;" 
d="M243 -120l5 28h28l-3 -14c-10 -53 -24 -83 -42 -115h-8c19 42 28 60 36 101h-16z" />
    <glyph glyph-name="caron.alt" unicode="&#xe189;" 
d="M401 692l5 28h28l-3 -14c-10 -53 -24 -83 -42 -115h-8c19 42 28 60 36 101h-16z" />
    <glyph glyph-name="revcommaaccent" unicode="&#xe18a;" 
d="M419 643l-5 -28h-28l2 14c11 53 24 83 43 115h8c-20 -42 -28 -60 -36 -101h16z" />
    <glyph glyph-name="period" unicode="." horiz-adv-x="196" 
d="M84 0l5 28h28l-5 -28h-28z" />
    <glyph glyph-name="comma" unicode="," horiz-adv-x="196" 
d="M84 0l5 28h28l-2 -14c-13 -66 -27 -105 -48 -143h-8c24 53 31 76 41 129h-16z" />
    <glyph glyph-name="colon" unicode=":" horiz-adv-x="196" 
d="M169 435l5 28h28l-5 -28h-28zM84 0l5 28h28l-5 -28h-28z" />
    <glyph glyph-name="semicolon" unicode=";" horiz-adv-x="196" 
d="M169 435l5 28h28l-5 -28h-28zM84 0l5 28h28l-2 -14c-13 -66 -27 -105 -48 -143h-8c24 53 31 76 41 129h-16z" />
    <glyph glyph-name="ellipsis" unicode="&#x2026;" horiz-adv-x="596" 
d="M84 0l5 28h28l-5 -28h-28zM284 0l5 28h28l-5 -28h-28zM484 0l5 28h28l-5 -28h-28z" />
    <glyph glyph-name="question" unicode="?" horiz-adv-x="498" 
d="M537 539c0 -204 -238 -133 -292 -410h-10c56 283 292 212 292 408c0 91 -52 142 -161 142c-118 0 -186 -65 -222 -168h-10c39 111 111 177 235 177c114 0 168 -55 168 -149zM206 0l5 28h28l-5 -28h-28z" />
    <glyph glyph-name="exclam" unicode="!" horiz-adv-x="288" 
d="M164 129l107 551h10l-107 -551h-10zM130 0l5 28h28l-5 -28h-28z" />
    <glyph glyph-name="questiondown" unicode="&#xbf;" horiz-adv-x="498" 
d="M382 463l-5 -28h-28l5 28h28zM51 -76c0 204 238 133 292 410h10c-56 -283 -292 -212 -292 -408c0 -91 52 -142 161 -142c118 0 186 65 222 168h10c-39 -111 -111 -177 -235 -177c-114 0 -168 55 -168 149z" />
    <glyph glyph-name="exclamdown" unicode="&#xa1;" horiz-adv-x="288" 
d="M248 463l-5 -28h-28l5 28h28zM214 334l-107 -551h-10l107 551h10z" />
    <glyph glyph-name="parenleft" unicode="(" horiz-adv-x="268" 
d="M194 -181c-49 110 -74 217 -74 324c0 216 85 381 249 577h9c-167 -203 -248 -371 -248 -577c0 -106 25 -212 73 -324h-9z" />
    <glyph glyph-name="parenright" unicode=")" horiz-adv-x="268" 
d="M4 -181h-9c165 203 248 368 248 579c0 104 -25 210 -73 322h9c48 -109 73 -215 73 -321c0 -212 -83 -383 -248 -580z" />
    <glyph glyph-name="braceleft" unicode="{" horiz-adv-x="270" 
d="M107 270c48 0 70 -12 70 -59c0 -14 -2 -32 -6 -53l-49 -249c-2 -11 -3 -20 -3 -29c0 -35 18 -52 61 -52h37l-2 -9h-37c-49 0 -69 20 -69 59c0 9 1 20 3 31l48 245c4 23 7 42 7 57c0 42 -21 54 -85 54l1 10c86 0 105 22 122 111l47 244c11 59 36 90 101 90h37l-2 -9h-37
c-54 0 -78 -26 -89 -81l-48 -248c-17 -91 -44 -112 -107 -112z" />
    <glyph glyph-name="braceright" unicode="}" horiz-adv-x="270" 
d="M267 270c-48 0 -69 12 -69 58c0 14 2 32 6 54l48 248c2 11 3 22 3 30c0 35 -17 51 -60 51h-37l2 9h37c49 0 69 -20 69 -58c0 -9 -2 -20 -4 -32l-47 -244c-4 -23 -7 -42 -7 -57c0 -42 21 -54 85 -54l-1 -10c-86 0 -105 -22 -122 -111l-48 -245c-13 -64 -39 -90 -100 -90
h-37l2 9h37c54 0 78 26 88 81l49 249c17 91 43 112 106 112z" />
    <glyph glyph-name="bracketleft" unicode="[" horiz-adv-x="280" 
d="M95 -181l175 901h130l-2 -9h-120l-171 -883h120l-2 -9h-130z" />
    <glyph glyph-name="bracketright" unicode="]" horiz-adv-x="280" 
d="M115 -181h-130l2 9h120l171 883h-120l2 9h130z" />
    <glyph glyph-name="slash" unicode="/" horiz-adv-x="300" 
d="M30 0l362 680h10l-362 -680h-10z" />
    <glyph glyph-name="backslash" unicode="\" horiz-adv-x="300" 
d="M270 0h-10l-98 680h10z" />
    <glyph glyph-name="underscore" unicode="_" horiz-adv-x="431" 
d="M37 -17l1 9h351l-1 -9h-351z" />
    <glyph glyph-name="hyphen" unicode="-" horiz-adv-x="431" 
d="M142 269l2 9h251l-2 -9h-251z" />
    <glyph glyph-name="softhyphen" unicode="&#xad;" horiz-adv-x="431" 
 />
    <glyph glyph-name="endash" unicode="&#x2013;" horiz-adv-x="500" 
d="M142 269l2 9h320l-2 -9h-320z" />
    <glyph glyph-name="emdash" unicode="&#x2014;" horiz-adv-x="1000" 
d="M142 269l2 9h820l-2 -9h-820z" />
    <glyph glyph-name="brokenbar" unicode="&#xa6;" horiz-adv-x="210" 
d="M170 359l70 361h10l-70 -361h-10zM57 -221l70 361h10l-70 -361h-10z" />
    <glyph glyph-name="bar" unicode="|" horiz-adv-x="210" 
d="M57 -221l183 941h10l-183 -941h-10z" />
    <glyph glyph-name="guillemotleft" unicode="&#xab;" horiz-adv-x="681" 
d="M324 66l-182 200l2 13l260 200l-3 -14l-251 -193l176 -194zM574 66l-182 200l2 13l260 200l-3 -14l-251 -193l176 -194z" />
    <glyph glyph-name="guillemotright" unicode="&#xbb;" horiz-adv-x="681" 
d="M133 64l2 14l252 194l-177 193l3 12l182 -200l-2 -13zM383 64l2 14l252 194l-177 193l3 12l182 -200l-2 -13z" />
    <glyph glyph-name="guilsinglleft" unicode="&#x2039;" horiz-adv-x="431" 
d="M324 66l-182 200l2 13l260 200l-3 -14l-251 -193l176 -194z" />
    <glyph glyph-name="guilsinglright" unicode="&#x203a;" horiz-adv-x="431" 
d="M133 64l2 14l252 194l-177 193l3 12l182 -200l-2 -13z" />
    <glyph glyph-name="quotesinglbase" unicode="&#x201a;" horiz-adv-x="196" 
d="M84 0l5 28h28l-2 -14c-12 -58 -25 -91 -45 -126h-8c21 47 29 66 38 112h-16z" />
    <glyph glyph-name="quotedblbase" unicode="&#x201e;" horiz-adv-x="306" 
d="M84 0l5 28h28l-2 -14c-12 -58 -25 -91 -45 -126h-8c21 47 29 66 38 112h-16zM194 0l5 28h28l-2 -14c-12 -58 -25 -91 -45 -126h-8c21 47 29 66 38 112h-16z" />
    <glyph glyph-name="quoteleft" unicode="&#x2018;" horiz-adv-x="196" 
d="M222 568l-5 -28h-28l3 14c11 58 25 91 44 126h8c-21 -47 -29 -66 -38 -112h16z" />
    <glyph glyph-name="quotedblleft" unicode="&#x201c;" horiz-adv-x="306" 
d="M332 568l-5 -28h-28l3 14c11 58 25 91 44 126h8c-21 -47 -29 -66 -38 -112h16zM222 568l-5 -28h-28l3 14c11 58 25 91 44 126h8c-21 -47 -29 -66 -38 -112h16z" />
    <glyph glyph-name="quoteright" unicode="&#x2019;" horiz-adv-x="196" 
d="M211 652l5 28h28l-3 -14c-11 -58 -24 -91 -44 -126h-8c21 47 29 66 38 112h-16z" />
    <glyph glyph-name="quotedblright" unicode="&#x201d;" horiz-adv-x="306" 
d="M211 652l5 28h28l-3 -14c-11 -58 -24 -91 -44 -126h-8c21 47 29 66 38 112h-16zM321 652l5 28h28l-3 -14c-11 -58 -24 -91 -44 -126h-8c21 47 29 66 38 112h-16z" />
    <glyph glyph-name="quotesingle" unicode="'" horiz-adv-x="178" 
d="M189 540l27 140h10l-27 -140h-10z" />
    <glyph glyph-name="quotedbl" unicode="&#x22;" horiz-adv-x="298" 
d="M189 540l27 140h10l-27 -140h-10zM309 540l27 140h10l-27 -140h-10z" />
    <glyph glyph-name="bullet" unicode="&#x2022;" horiz-adv-x="392" 
d="M232 183c-47 0 -80 34 -80 78c0 63 52 114 117 114c46 0 79 -33 79 -77c0 -63 -52 -115 -116 -115z" />
    <glyph glyph-name="ampersand" unicode="&#x26;" horiz-adv-x="698" 
d="M556 572c0 -121 -113 -152 -224 -191c6 -8 12 -16 19 -24l191 -230c54 63 94 144 110 228h10c-16 -83 -57 -168 -114 -235l100 -120h-13l-94 113c-64 -72 -148 -121 -241 -121c-134 0 -189 77 -189 164c0 143 101 192 205 230c-39 53 -55 93 -55 138c0 89 71 164 170 164
c85 0 125 -53 125 -116zM271 524c0 -42 15 -82 55 -135c109 39 220 68 220 182c0 56 -39 108 -116 108c-90 0 -159 -70 -159 -155zM121 157c0 -83 53 -156 181 -156c87 0 170 47 234 118l-191 230c-8 10 -16 20 -23 29c-103 -37 -201 -84 -201 -221z" />
    <glyph glyph-name="paragraph" unicode="&#xb6;" horiz-adv-x="501" 
d="M266 -181h-10l89 461h-14c-119 0 -192 62 -192 166c0 136 102 234 270 234h124l-167 -861h-10l165 852h-90z" />
    <glyph glyph-name="dagger" unicode="&#x2020;" horiz-adv-x="439" 
d="M179 -181l116 600h-174l2 9h174l49 252h10l-49 -252h175l-2 -9h-175l-116 -600h-10z" />
    <glyph glyph-name="daggerdbl" unicode="&#x2021;" horiz-adv-x="439" 
d="M49 44l1 9h174l71 366h-174l2 9h174l49 252h10l-49 -252h175l-2 -9h-175l-71 -366h175l-1 -9h-175l-44 -225h-10l44 225h-174z" />
    <glyph glyph-name="section" unicode="&#xa7;" horiz-adv-x="607" 
d="M495 -6c0 -93 -91 -183 -225 -183c-119 0 -185 64 -185 177h10c0 -106 62 -168 177 -168c133 0 213 93 213 174c0 207 -364 50 -364 271c0 77 41 129 121 175c-19 17 -30 42 -30 78c0 81 71 170 197 170c109 0 170 -56 170 -177h-10c0 113 -54 168 -162 168
c-118 0 -185 -85 -185 -159c0 -197 364 -44 364 -271c0 -77 -53 -134 -119 -174c18 -19 28 -45 28 -81zM131 266c0 -172 239 -103 329 -185c68 40 116 98 116 167c0 173 -234 112 -327 186c-77 -40 -118 -97 -118 -168z" />
    <glyph glyph-name="asterisk" unicode="*" horiz-adv-x="282" 
d="M304 484l-9 -6l-45 84l-77 -84l-7 6l77 83l-92 32l5 10l92 -32l20 103h10l-20 -103l104 32l1 -10l-104 -32z" />
    <glyph glyph-name="trademark" unicode="&#x2122;" horiz-adv-x="859" 
d="M230 272l77 398h-154l2 10h318l-2 -10h-154l-77 -398h-10zM471 272l79 408h16l92 -365l7 -29l18 29l234 365h15l-79 -408h-10l77 396l-42 -68l-211 -328h-9l-84 327l-15 69l-77 -396h-11z" />
    <glyph glyph-name="registered" unicode="&#xae;" horiz-adv-x="542" 
d="M405 688c105 0 173 -68 173 -167c0 -138 -103 -257 -256 -257c-105 0 -173 68 -173 167c0 138 103 257 256 257zM324 273c146 0 244 113 244 246c0 97 -63 160 -165 160c-146 0 -244 -113 -244 -246c0 -97 63 -160 165 -160zM258 343l53 272h85c45 0 71 -22 71 -59
c0 -38 -28 -70 -69 -80c26 -5 37 -20 39 -56l6 -77h-11l-5 76c-2 44 -19 52 -62 52h-72l-25 -128h-10zM393 606h-74l-24 -126h73c51 0 89 33 89 76c0 31 -23 50 -64 50z" />
    <glyph glyph-name="copyright" unicode="&#xa9;" horiz-adv-x="862" 
d="M565 688c177 0 298 -117 298 -285c0 -239 -183 -439 -439 -439c-177 0 -298 117 -298 285c0 239 183 439 439 439zM563 679c-250 0 -427 -195 -427 -429c0 -164 118 -277 290 -277c250 0 427 195 427 429c0 164 -118 277 -290 277zM695 445h-10c-10 72 -67 115 -143 115
c-139 0 -242 -132 -242 -305c0 -103 54 -164 151 -164c74 0 144 37 187 115h10c-47 -85 -119 -123 -197 -123c-103 0 -161 63 -161 172c0 178 108 314 253 314c79 0 142 -47 152 -124z" />
    <glyph glyph-name="at" unicode="@" horiz-adv-x="970" 
d="M685 162l6 28c-46 -97 -139 -170 -247 -170c-93 0 -146 47 -146 131c0 80 55 119 118 140c75 26 173 34 302 34l6 31c5 24 7 45 7 65c0 83 -43 129 -139 129c-120 0 -191 -65 -227 -168h-10c37 112 113 177 238 177c102 0 148 -47 148 -135c0 -21 -3 -44 -8 -70l-38 -192
c-4 -21 -6 -40 -6 -57c0 -49 20 -76 70 -76c110 0 207 179 207 345c0 205 -130 345 -335 345c-296 0 -517 -255 -517 -540c0 -201 134 -339 346 -339c72 0 137 8 202 32l3 -8c-66 -24 -135 -33 -207 -33c-217 0 -354 141 -354 346c0 298 226 551 528 551
c211 0 344 -144 344 -353c0 -168 -99 -355 -217 -355c-56 0 -80 30 -80 86c0 17 2 35 6 56zM308 151c0 -81 51 -122 138 -122c118 0 228 99 255 212l15 75c-325 -1 -408 -67 -408 -165z" />
    <glyph glyph-name="ordfeminine" unicode="&#xaa;" horiz-adv-x="334" 
d="M156 544h-10c22 68 68 107 143 107c63 0 91 -30 91 -83c0 -12 -2 -25 -5 -40l-24 -127c-3 -16 -5 -30 -5 -41s2 -20 6 -28h-11c-4 8 -5 17 -5 27c0 12 1 24 4 35l5 28c-29 -56 -83 -95 -145 -95c-56 0 -89 28 -89 78c0 48 33 73 72 86c46 16 103 20 180 20l3 18
c3 14 4 26 4 37c0 49 -25 76 -82 76c-70 0 -111 -38 -132 -98zM121 406c0 -47 30 -70 81 -70c70 0 135 57 151 124l8 43c-191 -1 -240 -38 -240 -97z" />
    <glyph glyph-name="ordmasculine" unicode="&#xba;" horiz-adv-x="334" 
d="M233 327c-69 0 -108 42 -108 114c0 108 64 210 166 210c70 0 108 -43 108 -114c0 -109 -63 -210 -166 -210zM234 336c96 0 155 99 155 200c0 67 -35 106 -99 106c-96 0 -155 -100 -155 -200c0 -68 35 -106 99 -106z" />
    <glyph glyph-name="numbersign" unicode="#" horiz-adv-x="646" 
d="M117 0l74 184h-95l2 9h96l118 294h-90l1 9h92l74 184h10l-74 -184h252l74 184h10l-74 -184h95l-1 -9h-97l-118 -294h91l-2 -9h-92l-74 -184h-10l74 184h-252l-74 -184h-10zM204 193h252l118 294h-252z" />
    <glyph glyph-name="Euro" unicode="&#x20ac;" horiz-adv-x="576" 
d="M55 263l5 9h74c4 38 12 75 23 111h-59l5 9h57c48 142 152 259 291 259c97 0 173 -61 184 -176h-10c-10 108 -80 167 -176 167c-130 0 -231 -112 -278 -250h308l-5 -9h-306c-12 -36 -20 -73 -24 -111h292l-5 -9h-288c-1 -16 -2 -31 -2 -47c0 -135 65 -215 183 -215
c93 0 185 56 240 167h10c-58 -120 -151 -176 -251 -176c-123 0 -192 83 -192 223c0 16 1 32 2 48h-78z" />
    <glyph glyph-name="dollar" unicode="$" horiz-adv-x="576" 
d="M259 -107l20 100c-114 6 -183 71 -183 176h10c0 -107 72 -168 195 -168c140 0 239 92 239 200c0 208 -364 48 -364 258c0 84 80 192 231 192l19 99h10l-19 -99c104 -3 171 -61 171 -176h-10c0 110 -62 167 -171 167c-144 0 -221 -101 -221 -183c0 -200 364 -42 364 -257
c0 -110 -101 -210 -251 -210h-11l-19 -99h-10z" />
    <glyph glyph-name="yen" unicode="&#xa5;" horiz-adv-x="576" 
d="M161 146l2 9h150l21 111h-149l1 9h147l-161 368h11l135 -314l22 -52l44 52l258 314h12l-305 -368h147l-1 -9h-151l-21 -111h150l-2 -9h-150l-28 -146h-10l28 146h-150z" />
    <glyph glyph-name="sterling" unicode="&#xa3;" horiz-adv-x="576" 
d="M83 0l2 9h71c78 45 123 110 123 193c0 23 -4 44 -11 64h-122l1 9h117c-26 65 -77 115 -77 190c0 89 73 186 225 186c121 0 186 -49 186 -176h-10c0 123 -62 167 -176 167c-133 0 -215 -79 -215 -176c0 -75 52 -125 78 -191h182l-1 -9h-178c7 -19 11 -40 11 -63
c0 -84 -43 -148 -117 -194h336l-2 -9h-423z" />
    <glyph glyph-name="cent" unicode="&#xa2;" horiz-adv-x="576" 
d="M283 -47l19 99c-105 2 -170 71 -170 188c0 178 112 351 275 351l19 99h10l-19 -99c103 -3 164 -70 165 -177h-10c-2 106 -64 168 -165 168c-156 0 -265 -172 -265 -339c0 -116 63 -182 166 -182c102 0 182 55 232 168h10c-54 -124 -139 -177 -238 -177l-19 -99h-10z" />
    <glyph glyph-name="florin" unicode="&#x192;" horiz-adv-x="576" 
d="M272 -96c-18 -94 -52 -125 -144 -125h-13l2 9h11c86 0 117 31 134 116l104 533h-93l2 9h93l14 72c18 92 52 125 144 125h13l-2 -9h-11c-86 0 -118 -33 -134 -116l-14 -72h123l-2 -9h-123z" />
    <glyph glyph-name="currency" unicode="&#xa4;" horiz-adv-x="576" 
d="M169 157l-6 7l71 60c-12 17 -19 38 -19 63c0 47 22 89 55 119l-48 60l8 7l49 -60c27 21 60 33 95 33c36 0 66 -13 85 -34l72 60l5 -7l-71 -60c13 -17 20 -39 20 -64c0 -46 -21 -88 -54 -118l47 -58l-8 -7l-47 59c-27 -22 -61 -35 -97 -35c-37 0 -66 13 -86 35zM475 341
c0 57 -40 96 -101 96c-79 0 -149 -68 -149 -150c0 -57 40 -96 101 -96c79 0 149 68 149 150z" />
    <glyph glyph-name="zero" unicode="0" horiz-adv-x="576" 
d="M286 -8c-119 0 -185 81 -185 218c0 217 133 441 314 441c119 0 185 -81 185 -218c0 -217 -133 -441 -314 -441zM413 642c-175 0 -302 -227 -302 -429c0 -135 61 -212 177 -212c175 0 302 227 302 429c0 135 -61 212 -177 212z" />
    <glyph glyph-name="one" unicode="1" horiz-adv-x="576" 
d="M177 0l2 9h128l114 590c-2 -3 -9 -5 -24 -5h-105l2 9h103c23 0 27 4 32 30l2 10h9l-123 -634h128l-2 -9h-266z" />
    <glyph glyph-name="two" unicode="2" horiz-adv-x="576" 
d="M84 0l2 9c62 318 484 250 484 506c0 75 -53 127 -164 127c-113 0 -184 -61 -218 -168h-10c37 114 111 177 229 177c115 0 173 -54 173 -135c0 -263 -423 -194 -484 -507h406l-2 -9h-416z" />
    <glyph glyph-name="three" unicode="3" horiz-adv-x="576" 
d="M294 -8c-143 0 -198 70 -198 177h10c0 -102 52 -168 189 -168c157 0 244 88 244 197c0 69 -40 135 -215 135h-4l1 9h4c220 0 254 86 254 164c0 87 -52 136 -170 136s-194 -65 -230 -168h-10c39 111 119 177 241 177c123 0 179 -53 179 -144c0 -80 -31 -149 -184 -170
c107 -16 144 -71 144 -137c0 -121 -92 -208 -255 -208z" />
    <glyph glyph-name="four" unicode="4" horiz-adv-x="576" 
d="M422 0h-10l35 180h-362l2 9l450 454h10l-88 -454h103l-2 -9h-103zM100 189h349l86 440z" />
    <glyph glyph-name="five" unicode="5" horiz-adv-x="576" 
d="M570 261c0 -161 -95 -269 -267 -269c-124 0 -200 59 -200 177h10c0 -114 73 -168 191 -168c160 0 256 99 256 259c0 83 -40 163 -178 163c-109 0 -171 -48 -214 -95l-8 2l79 313h386l-2 -9h-377l-73 -289c50 51 115 87 210 87c140 0 187 -80 187 -171z" />
    <glyph glyph-name="six" unicode="6" horiz-adv-x="576" 
d="M309 -8h-2c-77 0 -135 27 -166 85c-1 2 -2 3 -2 4c0 0 0 1 -1 1c-14 30 -22 67 -22 114c0 208 122 455 318 455c104 0 170 -62 181 -177h-10c-12 108 -71 168 -173 168c-188 0 -307 -247 -307 -446c19 122 128 225 262 225c110 0 181 -62 181 -162
c0 -150 -115 -267 -259 -267zM310 1c137 0 248 114 248 255c0 99 -68 156 -173 156c-139 0 -253 -118 -253 -255c0 -98 69 -156 178 -156z" />
    <glyph glyph-name="seven" unicode="7" horiz-adv-x="576" 
d="M217 0h-12c81 225 208 434 393 634h-412l2 9h424l-2 -8c-183 -198 -314 -411 -393 -635z" />
    <glyph glyph-name="eight" unicode="8" horiz-adv-x="576" 
d="M296 -8c-115 0 -188 55 -188 146c0 98 91 179 204 199c-70 13 -115 56 -115 125c0 97 99 189 228 189c98 0 165 -46 165 -134c0 -83 -73 -160 -175 -180c85 -14 137 -64 137 -141c0 -108 -110 -204 -256 -204zM423 642c-127 0 -216 -93 -216 -179c0 -80 61 -122 157 -122
c120 0 215 83 215 178c0 79 -60 123 -156 123zM298 1c140 0 244 94 244 194c0 87 -72 137 -179 137c-131 0 -245 -89 -245 -194c0 -86 70 -137 180 -137z" />
    <glyph glyph-name="nine" unicode="9" horiz-adv-x="576" 
d="M403 651h2h6c109 -3 175 -64 175 -202c0 -210 -119 -457 -306 -457c-109 0 -172 67 -184 177h10c12 -108 73 -168 175 -168c179 0 295 244 295 443c-22 -119 -129 -212 -255 -212c-109 0 -177 57 -177 158c0 136 111 261 259 261zM401 642c-138 0 -247 -120 -247 -251
c0 -96 65 -150 169 -150c137 0 247 118 247 247c0 87 -57 154 -169 154z" />
    <glyph glyph-name="degree" unicode="&#xb0;" horiz-adv-x="334" 
d="M244 387c-67 0 -111 43 -111 105c0 84 71 159 159 159c67 0 111 -43 111 -105c0 -84 -71 -159 -159 -159zM292 642c-83 0 -149 -70 -149 -150c0 -57 40 -96 101 -96c83 0 149 70 149 150c0 57 -40 96 -101 96z" />
    <glyph glyph-name="percent" unicode="%" horiz-adv-x="782" 
d="M228 296c-71 0 -112 48 -112 131c0 110 77 224 183 224c72 0 112 -48 112 -131c0 -110 -76 -224 -183 -224zM145 0l605 643h12l-605 -643h-12zM298 642c-100 0 -171 -113 -171 -213c0 -79 35 -124 103 -124c100 0 171 112 171 213c0 79 -36 124 -103 124zM609 -5
c-71 0 -112 48 -112 131c0 110 77 224 183 224c72 0 112 -48 112 -131c0 -110 -76 -224 -183 -224zM679 341c-100 0 -171 -113 -171 -213c0 -79 35 -124 103 -124c100 0 171 112 171 213c0 79 -36 124 -103 124z" />
    <glyph glyph-name="perthousand" unicode="&#x2030;" horiz-adv-x="1127" 
d="M228 296c-71 0 -112 48 -112 131c0 110 77 224 183 224c72 0 112 -48 112 -131c0 -110 -76 -224 -183 -224zM145 0l605 643h12l-605 -643h-12zM298 642c-100 0 -171 -113 -171 -213c0 -79 35 -124 103 -124c100 0 171 112 171 213c0 79 -36 124 -103 124zM609 -5
c-71 0 -112 48 -112 131c0 110 77 224 183 224c72 0 112 -48 112 -131c0 -110 -76 -224 -183 -224zM955 -5c-71 0 -112 48 -112 131c0 110 77 224 183 224c72 0 112 -48 112 -131c0 -110 -76 -224 -183 -224zM679 341c-100 0 -171 -113 -171 -213c0 -79 35 -124 103 -124
c100 0 171 112 171 213c0 79 -36 124 -103 124zM1025 341c-100 0 -171 -113 -171 -213c0 -79 35 -124 103 -124c100 0 171 112 171 213c0 79 -36 124 -103 124z" />
    <glyph glyph-name="fraction" unicode="&#x2044;" horiz-adv-x="92" 
d="M-200 0l605 643h12l-605 -643h-12z" />
    <glyph glyph-name="divisionslash" unicode="&#x2215;" horiz-adv-x="92" 
d="M-200 0l605 643h12l-605 -643h-12z" />
    <glyph glyph-name="zero.superior" unicode="&#x2070;" horiz-adv-x="345" 
d="M222 256c-71 0 -112 48 -112 131c0 130 80 264 189 264c72 0 112 -48 112 -131c0 -130 -79 -264 -189 -264zM298 642c-103 0 -177 -134 -177 -253c0 -79 35 -124 103 -124c103 0 177 133 177 253c0 79 -36 124 -103 124z" />
    <glyph glyph-name="onesuperior" unicode="&#xb9;" horiz-adv-x="345" 
d="M155 261l2 8h76l67 346c-1 -1 -6 -2 -15 -2h-62l2 9h60c15 0 18 2 21 18l2 6h8l-73 -377h77l-2 -8h-163z" />
    <glyph glyph-name="twosuperior" unicode="&#xb2;" horiz-adv-x="345" 
d="M100 261l1 6c37 191 289 152 289 301c0 44 -31 74 -96 74c-66 0 -108 -36 -128 -98h-10c22 69 67 107 139 107c69 0 105 -33 105 -82c0 -157 -253 -118 -288 -300h241l-2 -8h-251z" />
    <glyph glyph-name="threesuperior" unicode="&#xb3;" horiz-adv-x="345" 
d="M227 256c-85 0 -120 42 -120 107h10c0 -60 31 -98 111 -98c92 0 143 52 143 114c0 41 -24 79 -126 79h-4l1 9h4c129 0 149 51 149 96c0 51 -31 79 -99 79c-70 0 -114 -38 -135 -98h-10c23 68 72 107 146 107s108 -32 108 -87c0 -47 -19 -88 -105 -102
c60 -11 81 -43 81 -82c0 -71 -55 -124 -154 -124z" />
    <glyph glyph-name="four.superior" unicode="&#x2074;" horiz-adv-x="345" 
d="M305 261h-10l21 106h-215l2 9l267 270h10l-53 -270h62l-2 -9h-61zM114 376h204l50 256z" />
    <glyph glyph-name="onehalf" unicode="&#xbd;" horiz-adv-x="782" 
d="M155 261l2 8h76l67 346c-1 -1 -6 -2 -15 -2h-62l2 9h60c15 0 18 2 21 18l2 6h8l-73 -377h77l-2 -8h-163zM152 0l605 643h12l-605 -643h-12zM487 0l1 6c37 191 289 152 289 301c0 44 -31 74 -96 74c-66 0 -108 -36 -128 -98h-10c22 69 67 107 139 107
c69 0 105 -33 105 -82c0 -157 -253 -118 -288 -300h241l-2 -8h-251z" />
    <glyph glyph-name="onequarter" unicode="&#xbc;" horiz-adv-x="782" 
d="M155 261l2 8h76l67 346c-1 -1 -6 -2 -15 -2h-62l2 9h60c15 0 18 2 21 18l2 6h8l-73 -377h77l-2 -8h-163zM185 0l605 643h12l-605 -643h-12zM692 0h-10l21 106h-215l2 9l267 270h10l-53 -270h62l-2 -9h-61zM501 115h204l50 256z" />
    <glyph glyph-name="threequarters" unicode="&#xbe;" horiz-adv-x="782" 
d="M227 256c-85 0 -120 42 -120 107h10c0 -60 31 -98 111 -98c92 0 143 52 143 114c0 41 -24 79 -126 79h-4l1 9h4c129 0 149 51 149 96c0 51 -31 79 -99 79c-70 0 -114 -38 -135 -98h-10c23 68 72 107 146 107s108 -32 108 -87c0 -47 -19 -88 -105 -102
c60 -11 81 -43 81 -82c0 -71 -55 -124 -154 -124zM201 0l605 643h12l-605 -643h-12zM692 0h-10l21 106h-215l2 9l267 270h10l-53 -270h62l-2 -9h-61zM501 115h204l50 256z" />
    <glyph glyph-name="plus" unicode="+" horiz-adv-x="576" 
d="M321 137h-10l34 173h-175l2 9h174l34 174h10l-34 -174h172l-2 -9h-171z" />
    <glyph glyph-name="minus" unicode="&#x2212;" horiz-adv-x="576" 
d="M170 310l2 9h356l-2 -9h-356z" />
    <glyph glyph-name="multiply" unicode="&#xd7;" horiz-adv-x="576" 
d="M177 163l-6 8l172 145l-116 143l8 6l115 -143l171 144l7 -7l-171 -144l115 -143l-7 -6l-116 142z" />
    <glyph glyph-name="divide" unicode="&#xf7;" horiz-adv-x="576" 
d="M361 449l6 28h28l-6 -28h-28zM170 310l2 9h356l-2 -9h-356zM300 132l5 28h28l-5 -28h-28z" />
    <glyph glyph-name="equal" unicode="=" horiz-adv-x="576" 
d="M190 410l1 9h356l-1 -9h-356zM151 210l2 9h356l-2 -9h-356z" />
    <glyph glyph-name="logicalnot" unicode="&#xac;" horiz-adv-x="576" 
d="M170 310l2 9h356l-1 -6l-34 -176h-10l33 173h-346z" />
    <glyph glyph-name="asciitilde" unicode="~" horiz-adv-x="576" 
d="M170 310l2 9c37 23 68 32 93 32c68 0 102 -64 170 -64c25 0 56 9 93 32l-2 -9c-37 -23 -68 -32 -93 -32c-68 0 -102 64 -170 64c-25 0 -55 -9 -93 -32z" />
    <glyph glyph-name="less" unicode="&#x3c;" horiz-adv-x="576" 
d="M487 111l-317 200l2 10l395 200l-2 -11l-385 -195l309 -195z" />
    <glyph glyph-name="greater" unicode="&#x3e;" horiz-adv-x="576" 
d="M131 109l2 11l385 195l-309 195l2 9l317 -200l-2 -10z" />
    <glyph glyph-name="plusminus" unicode="&#xb1;" horiz-adv-x="576" 
d="M326 167h-10l34 173h-174l2 9h174l34 174h10l-34 -174h172l-2 -9h-172zM110 0l2 9h356l-2 -9h-356z" />
    <glyph glyph-name="asciicircum" unicode="^" horiz-adv-x="576" 
d="M235 424l180 256h10l80 -256h-10l-76 248l-174 -248h-10z" />
    <glyph glyph-name="notequal" unicode="&#x2260;" horiz-adv-x="576" 
d="M151 210l2 9h120l144 191h-227l1 9h233l56 74h10l-56 -74h113l-1 -9h-119l-144 -191h226l-2 -9h-231l-55 -73h-10l55 73h-115z" />
    <glyph glyph-name="approxequal" unicode="&#x2248;" horiz-adv-x="576" 
d="M190 410l1 9c38 23 69 32 94 32c68 0 101 -64 169 -64c25 0 56 9 93 32l-1 -9c-38 -23 -69 -32 -94 -32c-68 0 -101 64 -169 64c-25 0 -56 -9 -93 -32zM151 210l2 9c37 23 68 32 93 32c68 0 101 -64 169 -64c25 0 56 9 94 32l-2 -9c-38 -23 -68 -32 -93 -32
c-68 0 -102 64 -170 64c-25 0 -56 -9 -93 -32z" />
    <glyph glyph-name="lessequal" unicode="&#x2264;" horiz-adv-x="576" 
d="M493 141l-317 200l2 10l395 200l-2 -11l-385 -195l309 -195zM110 0l2 9h356l-2 -9h-356z" />
    <glyph glyph-name="greaterequal" unicode="&#x2265;" horiz-adv-x="576" 
d="M137 139l2 11l385 195l-309 195l2 9l317 -200l-2 -10zM466 0h-356l2 9h356z" />
    <glyph glyph-name="infinity" unicode="&#x221e;" horiz-adv-x="729" 
d="M304 495c84 0 131 -52 131 -128c29 71 93 128 178 128c84 0 131 -52 131 -132c0 -106 -78 -214 -195 -214c-84 0 -131 52 -131 128c-29 -71 -93 -128 -178 -128c-84 0 -131 52 -131 132c0 106 78 214 195 214zM119 280c0 -73 43 -121 121 -121c112 0 185 102 185 205
c0 73 -43 121 -121 121c-112 0 -185 -102 -185 -205zM734 364c0 73 -43 121 -121 121c-112 0 -185 -102 -185 -205c0 -73 43 -121 121 -121c112 0 185 102 185 205z" />
    <glyph glyph-name="lozenge" unicode="&#x25ca;" horiz-adv-x="461" 
d="M236 0h-12l-102 321l227 322h12l102 -322zM453 322l-86 275l-13 41l-29 -42l-194 -276l87 -273l13 -42l29 41z" />
    <glyph glyph-name="radical" unicode="&#x221a;" horiz-adv-x="541" 
d="M605 643h12l-370 -643h-14l-104 401h9l93 -354l9 -41l23 40z" />
    <glyph glyph-name="integral" unicode="&#x222b;" horiz-adv-x="356" 
d="M164 -96c-17 -90 -54 -125 -144 -125h-13l2 9h11c86 0 118 33 134 116l120 614c17 90 54 125 144 125h13l-2 -9h-11c-86 0 -118 -33 -134 -116z" />
    <glyph glyph-name="partialdiff" unicode="&#x2202;" 
d="M278 -8c-119 0 -183 60 -183 163c0 147 104 279 265 279c82 0 138 -29 165 -81c-22 109 -89 205 -204 290h16c143 -108 206 -230 206 -374c0 -145 -107 -277 -265 -277zM278 1c154 0 255 128 255 268c0 98 -61 156 -172 156c-153 0 -256 -128 -256 -270
c0 -98 62 -154 173 -154z" />
    <glyph glyph-name="product" unicode="&#x220f;" horiz-adv-x="621" 
d="M65 -181l160 824h421l-160 -824h-10l158 815h-401l-158 -815h-10z" />
    <glyph glyph-name="pi" unicode="&#x3c0;" horiz-adv-x="566" 
d="M112 0l100 514h-92l2 9h546l-2 -9h-123l-76 -389c-3 -17 -5 -32 -5 -45c0 -50 26 -71 95 -71h11l-2 -9h-13c-72 0 -101 24 -101 78c0 14 2 29 5 47l76 389h-311l-100 -514h-10z" />
    <glyph glyph-name="mu" unicode="&#x3bc;" horiz-adv-x="552" 
d="M60 -221h-10l74 377c0 7 2 13 3 20l68 347h10l-72 -367c-1 -11 -2 -22 -2 -32c0 -72 37 -123 129 -123c121 0 211 113 228 201l63 321h10l-102 -523h-10l29 146c-44 -95 -129 -154 -219 -154c-83 0 -128 40 -137 107z" />
    <glyph glyph-name="summation" unicode="&#x2211;" horiz-adv-x="569" 
d="M15 -181l383 426l-223 397h459l-2 -9h-440l219 -389l-373 -416h438l-2 -9h-459z" />
    <glyph glyph-name="Ohm" unicode="&#x2126;" horiz-adv-x="752" 
d="M326 0h-266l2 9h233c-102 38 -159 132 -159 252c0 197 149 390 366 390c158 0 246 -97 246 -235c0 -187 -124 -353 -287 -407h233l-2 -9h-266l1 7c172 44 310 210 310 408c0 136 -83 227 -236 227c-213 0 -355 -191 -355 -382c0 -131 70 -221 181 -253z" />
    <glyph glyph-name="Omega" unicode="&#x3a9;" horiz-adv-x="752" 
d="M326 0h-266l2 9h233c-102 38 -159 132 -159 252c0 197 149 390 366 390c158 0 246 -97 246 -235c0 -187 -124 -353 -287 -407h233l-2 -9h-266l1 7c172 44 310 210 310 408c0 136 -83 227 -236 227c-213 0 -355 -191 -355 -382c0 -131 70 -221 181 -253z" />
    <glyph glyph-name="increment" unicode="&#x2206;" horiz-adv-x="641" 
d="M451 643l140 -643h-541l389 643h12zM422 596l-356 -587h513l-127 588l-7 37z" />
    <glyph glyph-name="Delta" unicode="&#x394;" horiz-adv-x="641" 
d="M451 643l140 -643h-541l389 643h12zM422 596l-356 -587h513l-127 588l-7 37z" />
    <glyph glyph-name="litre" unicode="&#x2113;" horiz-adv-x="481" 
d="M57 137c28 7 58 16 88 27v17c0 220 112 470 254 470c71 0 107 -54 107 -124c0 -170 -178 -303 -350 -368c5 -101 44 -158 116 -158c77 0 147 52 182 168h10c-41 -129 -112 -177 -192 -177c-77 0 -120 59 -126 163c-31 -11 -62 -20 -91 -27zM155 181v-13
c163 62 341 189 341 358c0 66 -33 116 -97 116c-137 0 -244 -248 -244 -461z" />
    <glyph glyph-name="estimated" unicode="&#x212e;" horiz-adv-x="753" 
d="M139 244c0 150 138 259 286 259c159 0 287 -122 287 -259v-7h-465c-2 0 -3 0 -3 -2v-141c0 -6 1 -11 6 -17c43 -47 106 -74 176 -74c71 0 137 29 185 83h41c-52 -59 -135 -99 -227 -99c-153 0 -286 109 -286 257zM600 414c-48 45 -108 73 -174 73c-31 0 -60 -6 -88 -17
c-33 -14 -94 -49 -94 -77v-138c0 -3 1 -4 3 -4h357c2 0 3 1 3 4v141c0 6 -3 11 -7 18z" />
    <glyph glyph-name="ITF" unicode="&#xf8ff;" horiz-adv-x="1739" 
d="M110 0v700h216v-700h-216zM371 496v204h216v-204h-216zM631 0v700h217v-700h-217zM892 496v204h216v-204h-216zM1152 0v700h217v-700h-217zM1413 496v204h216v-204h-216zM1413 247v205h216v-205h-216z" />
    </font>
</defs>
</svg>
