<svg xmlns="http://www.w3.org/2000/svg" xmlns:xlink="http://www.w3.org/1999/xlink" viewBox="0 0 504 556"><defs><style>.cls-1{fill:none;}.cls-2{clip-path:url(#clip-path);}.Graphic-Style{fill:url(#linear-gradient);}</style><clipPath id="clip-path" transform="translate(60.92 221.43)"><path class="cls-1" d="M114.2,262.27v5.81H0v-5.81H39.68V10.65H0V4.84H74.52v31Q84.2,29.53,96.05,23a227.61,227.61,0,0,1,24.44-11.61A186,186,0,0,1,145.9,3.15,102.39,102.39,0,0,1,170.33,0q20.32,0,34.36,9.92a77.61,77.61,0,0,1,22.74,25.16A115.17,115.17,0,0,1,240,68.47a168.16,168.16,0,0,1,3.87,35.08V262.27h39.68v5.81H169.36v-5.81H209V116.14a183.94,183.94,0,0,0-3.14-32.43,119.86,119.86,0,0,0-10.65-32.42,72.69,72.69,0,0,0-20.08-24.92q-12.58-9.91-31.45-9.92-6.3,0-15.73,3.15t-19.35,7.5q-9.93,4.35-19.12,9.19t-15,8.23V262.27Z"/></clipPath><linearGradient id="linear-gradient" x1="-660.98" y1="704.9" x2="-660.19" y2="704.9" gradientTransform="matrix(640, 0, 0, -640, 422964.96, 451191.2)" gradientUnits="userSpaceOnUse"><stop offset="0" stop-color="#160d04"/><stop offset="0.61" stop-color="#b38756"/><stop offset="1" stop-color="#120a05"/></linearGradient></defs><g id="Layer_2" data-name="Layer 2"><g id="Layer_1-2" data-name="Layer 1"><g class="cls-2"><rect class="Graphic-Style" width="504" height="556"/></g></g></g></svg>