<?xml version="1.0" standalone="no"?>
<!DOCTYPE svg PUBLIC "-//W3C//DTD SVG 1.1//EN" "http://www.w3.org/Graphics/SVG/1.1/DTD/svg11.dtd" >
<svg xmlns="http://www.w3.org/2000/svg" xmlns:xlink="http://www.w3.org/1999/xlink" version="1.1">
<metadata>
Created by FontForge 20200511 at Tue Apr 20 15:26:17 2021
 By convertio
Copyright 2015-2021 Indian Type Foundry. All rights reserved.
</metadata>
<defs>
<font id="Switzer-SemiboldItalic" horiz-adv-x="581" >
  <font-face 
    font-family="Switzer"
    font-weight="600"
    font-style="italic"
    font-stretch="normal"
    units-per-em="1000"
    panose-1="0 0 0 0 0 0 0 0 0 0"
    ascent="800"
    descent="-200"
    x-height="536"
    cap-height="680"
    bbox="-213 -236 1629 961"
    underline-thickness="50"
    underline-position="-100"
    slope="-11"
    stemh="102"
    stemv="131"
    unicode-range="U+000D-FB02"
  />
<missing-glyph horiz-adv-x="192" 
 />
    <glyph glyph-name="fi" unicode="fi" horiz-adv-x="541" 
d="M91 440l18 96h65l4 23c24 124 82 176 189 176c34 0 59 -7 70 -13l-17 -83h-10c-73 0 -92 -23 -105 -91l-2 -12h97l-18 -96h-98l-86 -440h-128l85 440h-64zM470 596l25 124h128l-24 -124h-129zM355 0l104 536h128l-104 -536h-128z" />
    <glyph glyph-name="fl" unicode="fl" horiz-adv-x="541" 
d="M91 440l18 96h65l4 23c24 124 82 176 189 176c34 0 59 -7 70 -13l-17 -83h-10c-73 0 -92 -23 -105 -91l-2 -12h97l-18 -96h-98l-86 -440h-128l85 440h-64zM355 0l140 720h128l-140 -720h-128z" />
    <glyph glyph-name=".notdef" horiz-adv-x="192" 
 />
    <glyph glyph-name=".null" horiz-adv-x="0" 
 />
    <glyph glyph-name=".null" horiz-adv-x="0" 
 />
    <glyph glyph-name="CR" unicode="&#xd;" horiz-adv-x="0" 
 />
    <glyph glyph-name="space" unicode=" " horiz-adv-x="192" 
 />
    <glyph glyph-name="nbspace" unicode="&#xa0;" horiz-adv-x="192" 
 />
    <glyph glyph-name="A" unicode="A" horiz-adv-x="695" 
d="M544 0l-25 141h-290l-79 -141h-138l388 680h159l124 -680h-139zM419 478l-131 -233h213l-41 233l-7 71z" />
    <glyph glyph-name="B" unicode="B" horiz-adv-x="643" 
d="M67 0l132 680h262c129 0 209 -59 209 -164c0 -65 -36 -128 -109 -158c60 -24 90 -72 90 -132c0 -128 -108 -226 -288 -226h-296zM438 573h-125l-34 -176h122c85 0 127 48 127 106c0 44 -31 70 -90 70zM409 297h-149l-37 -190h157c89 0 133 55 133 115
c0 45 -37 75 -104 75z" />
    <glyph glyph-name="C" unicode="C" horiz-adv-x="691" 
d="M748 470h-138c-9 73 -59 113 -134 113c-145 0 -237 -158 -237 -326c0 -101 49 -160 142 -160c72 0 135 32 174 108h141c-61 -147 -189 -220 -326 -220c-166 0 -270 100 -270 269c0 228 148 441 389 441c161 0 253 -89 259 -225z" />
    <glyph glyph-name="D" unicode="D" horiz-adv-x="705" 
d="M67 0l132 680h240c185 0 296 -103 296 -272c0 -219 -157 -408 -415 -408h-253zM333 109c162 0 263 133 263 296c0 106 -61 166 -171 166h-112l-90 -462h110z" />
    <glyph glyph-name="E" unicode="E" horiz-adv-x="586" 
d="M67 0l132 680h478l-20 -107h-344l-33 -170h305l-20 -106h-305l-37 -190h343l-21 -107h-478z" />
    <glyph glyph-name="F" unicode="F" horiz-adv-x="578" 
d="M67 0l132 680h478l-20 -107h-344l-37 -192h305l-21 -107h-305l-53 -274h-135z" />
    <glyph glyph-name="G" unicode="G" horiz-adv-x="711" 
d="M656 0h-94l5 82c-54 -66 -128 -97 -204 -97c-155 0 -263 97 -263 276c0 221 149 434 387 434c153 0 254 -83 261 -225h-137c-7 73 -60 113 -135 113c-141 0 -236 -157 -236 -321c0 -105 51 -165 146 -165c84 0 161 48 192 161h-147l21 102h274z" />
    <glyph glyph-name="H" unicode="H" horiz-adv-x="705" 
d="M67 0l132 680h135l-54 -276h301l54 276h134l-132 -680h-134l57 294h-301l-57 -294h-135z" />
    <glyph glyph-name="I" unicode="I" horiz-adv-x="269" 
d="M67 0l132 680h135l-132 -680h-135z" />
    <glyph glyph-name="J" unicode="J" horiz-adv-x="553" 
d="M68 210h131c-1 -8 -1 -14 -1 -21c0 -58 29 -92 84 -92c64 0 104 48 120 131l88 452h134l-86 -444c-32 -164 -121 -251 -265 -251c-132 0 -206 80 -206 195c0 10 0 20 1 30z" />
    <glyph glyph-name="K" unicode="K" horiz-adv-x="657" 
d="M67 0l132 680h135l-62 -320l329 320h158l-354 -339l244 -341h-159l-227 316l-61 -316h-135z" />
    <glyph glyph-name="L" unicode="L" horiz-adv-x="544" 
d="M67 0l132 680h135l-111 -571h315l-21 -109h-450z" />
    <glyph glyph-name="M" unicode="M" horiz-adv-x="883" 
d="M68 0l132 680h178l85 -439l9 -87l42 87l255 439h178l-132 -680h-135l108 526l-80 -155l-219 -371h-96l-74 373l-20 152l-96 -525h-135z" />
    <glyph glyph-name="N" unicode="N" horiz-adv-x="705" 
d="M67 0l132 680h141l175 -404l29 -92l91 496h134l-132 -680h-140l-174 403l-30 96l-91 -499h-135z" />
    <glyph glyph-name="O" unicode="O" horiz-adv-x="755" 
d="M384 -15c-177 0 -283 103 -283 282c0 220 162 428 402 428c178 0 283 -103 284 -282c0 -220 -162 -428 -403 -428zM395 97c155 0 252 161 252 309c1 110 -52 177 -155 177c-154 0 -252 -161 -252 -309c0 -110 53 -177 155 -177z" />
    <glyph glyph-name="P" unicode="P" horiz-adv-x="618" 
d="M67 0l132 680h251c140 0 228 -69 228 -192c0 -140 -117 -256 -307 -256h-124l-45 -232h-135zM430 573h-117l-45 -234h113c101 0 156 63 156 145c0 54 -38 89 -107 89z" />
    <glyph glyph-name="Q" unicode="Q" horiz-adv-x="755" 
d="M384 -15c-177 0 -283 103 -283 282c0 220 162 428 402 428c178 0 283 -103 284 -282c0 -128 -55 -252 -148 -333l71 -71l-74 -73l-86 86c-49 -24 -105 -37 -166 -37zM395 97c24 0 47 4 68 11l-75 75l75 74l91 -91c59 61 93 153 93 240c1 110 -52 177 -155 177
c-154 0 -252 -161 -252 -309c0 -110 53 -177 155 -177z" />
    <glyph glyph-name="R" unicode="R" horiz-adv-x="638" 
d="M67 0l132 680h264c134 0 215 -64 215 -178c0 -81 -46 -147 -125 -183c30 -22 44 -59 47 -114l12 -205h-141l-4 180c-2 70 -25 84 -93 84h-121l-51 -264h-135zM442 573h-129l-39 -203h125c86 0 138 51 138 126c0 47 -33 77 -95 77z" />
    <glyph glyph-name="S" unicode="S" horiz-adv-x="619" 
d="M401 587c-81 0 -117 -43 -117 -92c0 -126 346 -40 346 -280c0 -128 -112 -230 -292 -230c-166 0 -262 81 -269 220h140c5 -72 51 -112 133 -112c92 0 145 48 145 109c0 136 -346 47 -346 283c0 107 89 210 273 210c159 0 253 -83 253 -219h-140c-5 73 -45 111 -126 111z
" />
    <glyph glyph-name="T" unicode="T" horiz-adv-x="627" 
d="M246 0l110 569h-219l22 111h573l-21 -111h-220l-110 -569h-135z" />
    <glyph glyph-name="U" unicode="U" horiz-adv-x="688" 
d="M677 259c-34 -176 -147 -274 -324 -274c-159 0 -248 89 -248 216c0 19 2 38 6 58l82 421h135l-82 -421c-4 -17 -5 -32 -5 -47c0 -75 42 -118 121 -118c94 0 162 62 181 165l82 421h134z" />
    <glyph glyph-name="V" unicode="V" horiz-adv-x="695" 
d="M281 680l84 -478l7 -74l33 74l270 478h140l-387 -680h-159l-125 680h137z" />
    <glyph glyph-name="W" unicode="W" horiz-adv-x="1054" 
d="M666 0l-39 433l-4 61l-26 -61l-207 -433h-163l-68 680h140l37 -479l2 -76l34 76l229 479h120l43 -479l4 -75l30 75l223 479h137l-331 -680h-161z" />
    <glyph glyph-name="X" unicode="X" horiz-adv-x="666" 
d="M499 0l-97 198l-21 48l-37 -48l-177 -198h-150l307 351l-158 329h150l84 -169l22 -53l41 53l151 169h149l-284 -327l169 -353h-149z" />
    <glyph glyph-name="Y" unicode="Y" horiz-adv-x="628" 
d="M247 0l47 242l-153 438h143l82 -248l16 -73l42 73l179 248h148l-323 -438l-47 -242h-134z" />
    <glyph glyph-name="Z" unicode="Z" horiz-adv-x="621" 
d="M47 0l21 111l453 458h-364l22 111h526l-21 -111l-453 -458h364l-22 -111h-526z" />
    <glyph glyph-name="AE" unicode="&#xc6;" horiz-adv-x="970" 
d="M465 0l31 162h-241l-100 -162h-143l424 680h626l-21 -107h-331l-33 -172h292l-20 -106h-293l-36 -188h331l-21 -107h-465zM320 267h197l59 306h-68z" />
    <glyph glyph-name="OE" unicode="&#x152;" horiz-adv-x="1068" 
d="M364 -15c-161 0 -263 103 -263 282c0 220 157 428 387 428c81 0 143 -27 185 -78l12 63h474l-20 -107h-344l-33 -172h305l-20 -106h-306l-36 -188h343l-21 -107h-474l11 56c-56 -44 -124 -71 -200 -71zM383 97c148 0 240 161 241 309c0 110 -48 177 -144 177
c-146 0 -240 -161 -240 -309c0 -110 49 -177 143 -177z" />
    <glyph glyph-name="Lslash" unicode="&#x141;" horiz-adv-x="544" 
d="M67 0l54 281l-61 -22l15 79l62 22l62 320h135l-52 -269l133 47l-15 -79l-134 -47l-43 -223h315l-21 -109h-450z" />
    <glyph glyph-name="Oslash" unicode="&#xd8;" horiz-adv-x="755" 
d="M62 -39l99 114c-39 47 -60 112 -60 192c0 220 162 428 402 428c65 0 120 -14 164 -40l56 64h101l-99 -113c40 -47 62 -113 62 -193c0 -220 -162 -428 -403 -428c-65 0 -121 14 -165 40l-56 -64h-101zM240 274c0 -35 5 -65 16 -91l327 375c-24 16 -54 25 -91 25
c-154 0 -252 -161 -252 -309zM395 97c155 0 252 161 252 309c0 35 -5 66 -16 92l-327 -376c24 -16 54 -25 91 -25z" />
    <glyph glyph-name="Eth" unicode="&#xd0;" horiz-adv-x="705" 
d="M67 0l57 294h-56l22 111h56l53 275h240c185 0 296 -103 296 -272c0 -219 -157 -408 -415 -408h-253zM333 109c162 0 263 133 263 296c0 106 -61 166 -171 166h-112l-32 -166h158l-21 -111h-159l-36 -185h110z" />
    <glyph glyph-name="Thorn" unicode="&#xde;" horiz-adv-x="618" 
d="M67 0l132 680h135l-20 -102h116c140 0 228 -69 228 -192c0 -141 -117 -256 -307 -256h-124l-25 -130h-135zM410 470h-117l-45 -233h113c101 0 156 62 156 145c0 54 -37 88 -107 88z" />
    <glyph glyph-name="a" unicode="a" 
d="M247 360h-129c34 123 133 191 267 191c141 0 203 -72 203 -168c0 -15 -2 -32 -5 -48l-39 -204c-9 -45 -13 -76 -13 -99c0 -12 2 -22 3 -32h-133c-1 6 -2 12 -2 20c0 12 1 27 4 43c-53 -54 -119 -78 -180 -78c-97 0 -164 49 -164 141c0 74 48 137 139 167
c82 29 145 33 254 33l3 13c2 12 3 23 3 32c0 49 -28 74 -89 74c-63 0 -104 -34 -122 -85zM192 140c0 -41 27 -60 72 -60c77 0 148 58 167 135l6 32c-189 -2 -245 -46 -245 -107z" />
    <glyph glyph-name="b" unicode="b" horiz-adv-x="588" 
d="M187 0h-128l140 720h128l-47 -240c45 44 100 71 156 71c112 0 180 -82 180 -209c0 -184 -119 -357 -289 -357c-59 0 -103 25 -129 70zM393 445c-101 0 -160 -138 -160 -244c0 -71 32 -110 90 -110c89 0 159 120 159 244c0 71 -30 110 -89 110z" />
    <glyph glyph-name="c" unicode="c" horiz-adv-x="557" 
d="M590 346h-127c0 68 -36 99 -91 99c-97 0 -161 -118 -161 -240c0 -73 36 -114 97 -114c55 0 101 30 126 91h128c-46 -133 -154 -197 -268 -197c-132 0 -215 81 -215 219c0 179 122 347 304 347c129 0 206 -76 207 -205z" />
    <glyph glyph-name="d" unicode="d" horiz-adv-x="588" 
d="M256 -15c-112 0 -179 82 -179 209c0 184 118 357 289 357c59 0 102 -25 128 -70l47 239h128l-140 -720h-128l11 56c-45 -44 -99 -71 -156 -71zM299 91c101 0 160 138 160 244c0 71 -31 110 -90 110c-89 0 -159 -120 -159 -244c0 -71 31 -110 89 -110z" />
    <glyph glyph-name="e" unicode="e" 
d="M582 175c-51 -129 -161 -190 -281 -190c-137 0 -222 80 -222 219c0 183 125 347 308 347c139 0 215 -84 215 -213c0 -22 -2 -45 -6 -69l-5 -27h-379c-1 -10 -1 -21 -1 -31c0 -81 35 -121 102 -121c60 0 110 26 135 85h134zM377 446c-69 0 -120 -53 -147 -124h244v12
c0 73 -34 112 -97 112z" />
    <glyph glyph-name="f" unicode="f" horiz-adv-x="302" 
d="M90 437l19 99h69l4 23c24 124 82 176 189 176c34 0 58 -7 69 -13l-16 -83h-11c-72 0 -91 -23 -104 -91l-2 -12h97l-19 -99h-98l-85 -437h-128l84 437h-68z" />
    <glyph glyph-name="g" unicode="g" horiz-adv-x="588" 
d="M258 -2c-111 0 -178 79 -178 202c0 181 118 351 288 351c58 0 101 -23 127 -67l10 52h128l-109 -562c-30 -150 -133 -210 -266 -210c-136 0 -218 80 -218 188h128c6 -59 39 -87 100 -87c64 0 112 31 129 116l17 87c-45 -44 -99 -70 -156 -70zM301 104
c101 0 159 134 159 237c0 67 -31 104 -89 104c-89 0 -158 -116 -158 -238c0 -67 30 -103 88 -103z" />
    <glyph glyph-name="h" unicode="h" horiz-adv-x="585" 
d="M59 0l140 720h128l-48 -246c46 52 104 77 169 77c91 0 152 -48 152 -145c0 -19 -2 -38 -6 -58l-68 -348h-128l65 331c3 14 4 26 4 37c0 50 -25 77 -78 77c-68 0 -121 -55 -139 -121l-63 -324h-128z" />
    <glyph glyph-name="i" unicode="i" horiz-adv-x="245" 
d="M174 596l25 124h128l-24 -124h-129zM59 0l104 536h128l-104 -536h-128z" />
    <glyph glyph-name="j" unicode="j" horiz-adv-x="245" 
d="M174 596l25 124h128l-24 -124h-129zM176 -60c-26 -130 -84 -176 -191 -176c-30 0 -51 7 -62 13l19 94h14c63 0 81 21 94 84l113 581h128z" />
    <glyph glyph-name="k" unicode="k" horiz-adv-x="555" 
d="M59 0l140 720h128l-79 -405l234 221h156l-270 -247l177 -289h-146l-161 260l-51 -260h-128z" />
    <glyph glyph-name="l" unicode="l" horiz-adv-x="245" 
d="M59 0l140 720h128l-140 -720h-128z" />
    <glyph glyph-name="m" unicode="m" horiz-adv-x="878" 
d="M59 0l104 536h128l-10 -54c41 46 92 69 150 69c65 0 112 -31 133 -85c47 57 108 85 177 85c92 0 150 -58 150 -156c0 -18 -2 -37 -6 -58l-66 -337h-128l65 331c3 15 4 29 4 41c0 47 -23 73 -67 73c-60 0 -107 -53 -126 -117l-64 -328h-128l65 331c3 15 4 29 4 41
c0 47 -23 73 -67 73c-62 0 -111 -55 -127 -122l-63 -323h-128z" />
    <glyph glyph-name="n" unicode="n" horiz-adv-x="585" 
d="M59 0l104 536h128l-11 -58c44 49 100 73 163 73c97 0 155 -58 155 -156c0 -18 -2 -38 -6 -58l-66 -337h-128l65 331c3 14 4 26 4 37c0 50 -25 77 -78 77c-68 0 -122 -56 -140 -123l-62 -322h-128z" />
    <glyph glyph-name="o" unicode="o" 
d="M297 -15c-135 0 -218 82 -218 219c0 182 122 347 310 347c133 0 217 -81 217 -219c0 -182 -122 -347 -309 -347zM310 91c98 0 163 122 163 240c0 74 -33 114 -98 114c-98 0 -164 -122 -164 -239c0 -75 34 -115 99 -115z" />
    <glyph glyph-name="p" unicode="p" horiz-adv-x="588" 
d="M144 -220h-128l147 756h129l-11 -56c45 45 99 71 155 71c112 0 180 -82 180 -209c0 -184 -119 -357 -289 -357c-59 0 -103 25 -129 70zM393 445c-101 0 -160 -138 -160 -244c0 -71 32 -110 90 -110c89 0 159 120 159 244c0 71 -30 110 -89 110z" />
    <glyph glyph-name="q" unicode="q" horiz-adv-x="588" 
d="M256 -15c-112 0 -179 82 -179 209c0 184 118 357 289 357c59 0 102 -25 128 -70l11 55h128l-147 -756h-128l54 276c-45 -45 -99 -71 -156 -71zM299 91c101 0 160 138 160 244c0 71 -31 110 -90 110c-89 0 -159 -120 -159 -244c0 -71 31 -110 89 -110z" />
    <glyph glyph-name="r" unicode="r" horiz-adv-x="395" 
d="M59 0l104 536h128l-12 -62c44 52 98 77 154 77c30 0 49 -6 57 -15l-21 -111c-16 5 -35 7 -58 7c-99 0 -152 -55 -168 -147h-1l-55 -285h-128z" />
    <glyph glyph-name="s" unicode="s" horiz-adv-x="532" 
d="M249 385c0 -102 286 -23 286 -215c0 -94 -89 -185 -249 -185c-141 0 -222 73 -225 190h129c0 -49 30 -91 103 -91c74 0 111 32 111 73c0 104 -282 21 -282 217c0 93 85 177 228 177c127 0 207 -66 212 -191h-126c-1 61 -31 91 -96 91c-58 0 -91 -29 -91 -66z" />
    <glyph glyph-name="t" unicode="t" horiz-adv-x="333" 
d="M109 169l52 268h-69l19 99h69l24 123h128l-24 -123h113l-19 -99h-113l-50 -257c-2 -14 -4 -26 -4 -36c0 -36 19 -52 68 -52h30l-18 -94c-16 -7 -46 -13 -81 -13c-91 0 -133 35 -133 116c0 20 3 42 8 68z" />
    <glyph glyph-name="u" unicode="u" horiz-adv-x="579" 
d="M624 536l-104 -536h-128l11 57c-46 -49 -102 -72 -158 -72c-94 0 -154 52 -154 153c0 20 2 41 7 63l65 335h128l-64 -332c-3 -14 -5 -27 -5 -39c0 -48 25 -74 75 -74c66 0 120 57 137 125l62 320h128z" />
    <glyph glyph-name="v" unicode="v" horiz-adv-x="550" 
d="M196 0l-89 536h136l50 -378l3 -55l23 55l197 378h136l-298 -536h-158z" />
    <glyph glyph-name="w" unicode="w" horiz-adv-x="853" 
d="M535 0l-27 359l2 63l-24 -63l-166 -359h-165l-41 536h137l13 -378v-64l27 64l177 378h133l30 -378l1 -61l23 61l160 378h132l-250 -536h-162z" />
    <glyph glyph-name="x" unicode="x" horiz-adv-x="547" 
d="M395 0l-70 150l-16 48l-35 -48l-126 -150h-143l245 277l-127 259h146l60 -131l17 -49l35 49l109 131h142l-227 -259l137 -277h-147z" />
    <glyph glyph-name="y" unicode="y" horiz-adv-x="555" 
d="M70 -235c-29 0 -55 7 -67 12l20 98h30c58 0 79 11 137 108l26 42l-107 511h135l58 -311l8 -69l33 69l174 311h137l-355 -599c-80 -136 -132 -172 -229 -172z" />
    <glyph glyph-name="z" unicode="z" horiz-adv-x="520" 
d="M30 0l19 98l351 339h-274l19 99h432l-19 -99l-352 -339h302l-18 -98h-460z" />
    <glyph glyph-name="ae" unicode="&#xe6;" horiz-adv-x="934" 
d="M248 360h-128c34 123 133 191 267 191c87 0 145 -27 176 -70c49 44 110 70 180 70c137 0 212 -84 212 -213c0 -22 -2 -45 -6 -69l-5 -27h-373c-1 -10 -1 -21 -1 -31c0 -81 34 -121 99 -121c58 0 106 26 132 85h134c-52 -129 -160 -190 -278 -190c-95 0 -163 43 -193 122
c-59 -85 -147 -122 -235 -122c-102 0 -170 49 -170 141c0 72 48 132 137 162c86 28 150 34 261 34l3 17c2 11 3 23 3 32c0 49 -29 74 -93 74c-62 0 -103 -34 -122 -85zM733 446c-67 0 -118 -53 -144 -124h238v12c0 73 -33 112 -94 112zM192 140c0 -41 28 -60 73 -60
c77 0 149 56 170 131l6 31c-193 -2 -249 -43 -249 -102z" />
    <glyph glyph-name="oe" unicode="&#x153;" horiz-adv-x="962" 
d="M297 -15c-135 0 -218 82 -218 219c0 182 120 347 306 347c84 0 146 -34 179 -98c50 60 121 98 204 98c139 0 216 -84 216 -213c0 -22 -3 -45 -7 -69l-5 -27h-379c-1 -10 -1 -21 -1 -31c0 -81 35 -121 102 -121c60 0 110 26 136 85h133c-51 -129 -161 -190 -281 -190
c-83 0 -146 35 -179 98c-50 -60 -121 -98 -206 -98zM758 446c-69 0 -120 -53 -147 -124h244v12c0 73 -33 112 -97 112zM310 91c98 0 163 122 163 240c0 74 -33 114 -98 114c-98 0 -164 -122 -164 -239c0 -75 34 -115 99 -115z" />
    <glyph glyph-name="lslash" unicode="&#x142;" horiz-adv-x="245" 
d="M59 0l57 291l-58 -24l16 79l57 24l68 350h128l-57 -292l57 24l-15 -79l-57 -24l-68 -349h-128z" />
    <glyph glyph-name="oslash" unicode="&#xf8;" horiz-adv-x="594" 
d="M87 -53l61 88c-44 38 -69 95 -69 169c0 182 124 347 317 347c38 0 72 -6 101 -18l38 55h76l-60 -86c44 -38 69 -96 69 -170c0 -182 -125 -347 -316 -347c-38 0 -72 6 -102 18l-39 -56h-76zM210 206c0 -26 4 -47 13 -65l207 296c-14 5 -30 8 -48 8
c-104 0 -172 -122 -172 -239zM317 91c103 0 172 122 172 240c0 26 -4 47 -13 64l-207 -296c14 -5 30 -8 48 -8z" />
    <glyph glyph-name="eth" unicode="&#xf0;" 
d="M302 -15c-152 0 -226 88 -226 210c0 172 112 323 301 323c25 0 48 -3 70 -9c-13 31 -29 60 -49 87l-142 -44l13 64l90 28c-25 27 -54 52 -87 76h160c15 -13 29 -26 42 -41l131 41l-12 -64l-81 -25c60 -84 93 -189 93 -313c0 -182 -130 -333 -303 -333zM308 91
c97 0 162 103 162 213c0 70 -35 108 -100 108c-102 0 -161 -112 -161 -215c0 -68 34 -106 99 -106z" />
    <glyph glyph-name="thorn" unicode="&#xfe;" horiz-adv-x="588" 
d="M144 -220h-128l183 940h128l-47 -240c45 44 100 71 156 71c112 0 180 -82 180 -209c0 -184 -119 -357 -289 -357c-59 0 -103 25 -129 70zM393 445c-101 0 -160 -138 -160 -244c0 -71 32 -110 90 -110c89 0 159 120 159 244c0 71 -30 110 -89 110z" />
    <glyph glyph-name="germandbls" unicode="&#xdf;" horiz-adv-x="626" 
d="M346 -15c-42 0 -79 5 -107 15l18 91h78c116 0 177 60 177 140c0 50 -34 89 -133 89h-33l19 95h12c104 0 145 66 145 129c0 49 -31 82 -95 82c-76 0 -127 -46 -145 -136l-95 -490h-128l95 494c31 156 127 238 282 238c149 0 218 -81 218 -181c0 -68 -36 -134 -107 -172
c66 -29 94 -88 94 -145c0 -135 -104 -249 -295 -249z" />
    <glyph glyph-name="dotlessi" unicode="&#x131;" horiz-adv-x="245" 
d="M59 0l104 536h128l-104 -536h-128z" />
    <glyph glyph-name="dotlessj" unicode="&#x237;" horiz-adv-x="245" 
d="M176 -60c-26 -130 -84 -176 -191 -176c-30 0 -51 7 -62 13l19 94h14c63 0 81 21 94 84l113 581h128z" />
    <glyph glyph-name="Aacute" unicode="&#xc1;" horiz-adv-x="695" 
d="M434 740l102 124h149l-136 -124h-115zM544 0l-25 141h-290l-79 -141h-138l388 680h159l124 -680h-139zM419 478l-131 -233h213l-41 233l-7 71z" />
    <glyph glyph-name="Acircumflex" unicode="&#xc2;" horiz-adv-x="695" 
d="M558 740l-49 70l-76 -70h-113l117 124h159l75 -124h-113zM544 0l-25 141h-290l-79 -141h-138l388 680h159l124 -680h-139zM419 478l-131 -233h213l-41 233l-7 71z" />
    <glyph glyph-name="Adieresis" unicode="&#xc4;" horiz-adv-x="695" 
d="M372 740l24 124h102l-24 -124h-102zM517 740l24 124h102l-24 -124h-102zM544 0l-25 141h-290l-79 -141h-138l388 680h159l124 -680h-139zM419 478l-131 -233h213l-41 233l-7 71z" />
    <glyph glyph-name="Agrave" unicode="&#xc0;" horiz-adv-x="695" 
d="M557 740h-116l-84 124h143zM544 0l-25 141h-290l-79 -141h-138l388 680h159l124 -680h-139zM419 478l-131 -233h213l-41 233l-7 71z" />
    <glyph glyph-name="Aring" unicode="&#xc5;" horiz-adv-x="695" 
d="M498 740c-61 0 -101 42 -96 99c6 63 60 122 134 122c61 0 101 -43 95 -100c-5 -63 -60 -121 -133 -121zM506 799c31 0 55 27 57 59c2 26 -13 43 -36 43c-30 0 -53 -27 -56 -58c-2 -27 12 -44 35 -44zM544 0l-25 141h-290l-79 -141h-138l388 680h159l124 -680h-139z
M419 478l-131 -233h213l-41 233l-7 71z" />
    <glyph glyph-name="Atilde" unicode="&#xc3;" horiz-adv-x="695" 
d="M404 740h-73c20 100 77 124 115 124c62 0 87 -50 122 -50c15 0 32 10 43 50h73c-20 -101 -77 -124 -115 -124c-61 0 -86 49 -122 49c-16 0 -32 -10 -43 -49zM544 0l-25 141h-290l-79 -141h-138l388 680h159l124 -680h-139zM419 478l-131 -233h213l-41 233l-7 71z" />
    <glyph glyph-name="Abreve" unicode="&#x102;" horiz-adv-x="695" 
d="M357 864h93c0 -38 24 -54 59 -54c36 0 69 16 80 54h93c-33 -93 -103 -124 -181 -124c-76 0 -144 40 -144 124zM544 0l-25 141h-290l-79 -141h-138l388 680h159l124 -680h-139zM419 478l-131 -233h213l-41 233l-7 71z" />
    <glyph glyph-name="Amacron" unicode="&#x100;" horiz-adv-x="695" 
d="M361 759l17 86h276l-17 -86h-276zM544 0l-25 141h-290l-79 -141h-138l388 680h159l124 -680h-139zM419 478l-131 -233h213l-41 233l-7 71z" />
    <glyph glyph-name="Aogonek" unicode="&#x104;" horiz-adv-x="695" 
d="M613 -221c-28 -11 -48 -15 -80 -15c-67 0 -119 32 -119 90c0 60 53 120 128 159l-23 128h-290l-79 -141h-138l388 680h159l124 -680h-91c-53 -42 -70 -85 -70 -111c0 -29 21 -49 60 -49c20 0 33 4 45 9zM419 478l-131 -233h213l-41 233l-7 71z" />
    <glyph glyph-name="Ccedilla" unicode="&#xc7;" horiz-adv-x="691" 
d="M214 -170c85 2 121 21 121 47c0 18 -19 27 -67 31l58 80c-140 16 -226 113 -226 266c0 228 148 441 389 441c161 0 253 -89 259 -225h-138c-9 73 -59 113 -134 113c-145 0 -237 -158 -237 -326c0 -101 49 -160 142 -160c72 0 135 32 174 108h141
c-58 -140 -177 -213 -306 -219l-29 -39c51 -5 78 -29 78 -62c0 -67 -76 -104 -235 -106z" />
    <glyph glyph-name="Cacute" unicode="&#x106;" horiz-adv-x="691" 
d="M427 740l102 124h149l-136 -124h-115zM748 470h-138c-9 73 -59 113 -134 113c-145 0 -237 -158 -237 -326c0 -101 49 -160 142 -160c72 0 135 32 174 108h141c-61 -147 -189 -220 -326 -220c-166 0 -270 100 -270 269c0 228 148 441 389 441c161 0 253 -89 259 -225z" />
    <glyph glyph-name="Ccaron" unicode="&#x10c;" horiz-adv-x="691" 
d="M575 864h114l-118 -124h-159l-75 124h113l49 -71zM748 470h-138c-9 73 -59 113 -134 113c-145 0 -237 -158 -237 -326c0 -101 49 -160 142 -160c72 0 135 32 174 108h141c-61 -147 -189 -220 -326 -220c-166 0 -270 100 -270 269c0 228 148 441 389 441
c161 0 253 -89 259 -225z" />
    <glyph glyph-name="Ccircumflex" unicode="&#x108;" horiz-adv-x="691" 
d="M551 740l-49 70l-76 -70h-113l117 124h159l75 -124h-113zM748 470h-138c-9 73 -59 113 -134 113c-145 0 -237 -158 -237 -326c0 -101 49 -160 142 -160c72 0 135 32 174 108h141c-61 -147 -189 -220 -326 -220c-166 0 -270 100 -270 269c0 228 148 441 389 441
c161 0 253 -89 259 -225z" />
    <glyph glyph-name="Cdotaccent" unicode="&#x10a;" horiz-adv-x="691" 
d="M424 740l24 124h129l-24 -124h-129zM748 470h-138c-9 73 -59 113 -134 113c-145 0 -237 -158 -237 -326c0 -101 49 -160 142 -160c72 0 135 32 174 108h141c-61 -147 -189 -220 -326 -220c-166 0 -270 100 -270 269c0 228 148 441 389 441c161 0 253 -89 259 -225z" />
    <glyph glyph-name="Dcaron" unicode="&#x10e;" horiz-adv-x="705" 
d="M517 864h114l-118 -124h-159l-75 124h113l49 -71zM67 0l132 680h240c185 0 296 -103 296 -272c0 -219 -157 -408 -415 -408h-253zM333 109c162 0 263 133 263 296c0 106 -61 166 -171 166h-112l-90 -462h110z" />
    <glyph glyph-name="Dcroat" unicode="&#x110;" horiz-adv-x="705" 
d="M67 0l57 294h-56l22 111h56l53 275h240c185 0 296 -103 296 -272c0 -219 -157 -408 -415 -408h-253zM333 109c162 0 263 133 263 296c0 106 -61 166 -171 166h-112l-32 -166h158l-21 -111h-159l-36 -185h110z" />
    <glyph glyph-name="Eacute" unicode="&#xc9;" horiz-adv-x="586" 
d="M375 740l102 124h149l-136 -124h-115zM67 0l132 680h478l-20 -107h-344l-33 -170h305l-20 -106h-305l-37 -190h343l-21 -107h-478z" />
    <glyph glyph-name="Ecircumflex" unicode="&#xca;" horiz-adv-x="586" 
d="M499 740l-49 70l-76 -70h-113l117 124h159l75 -124h-113zM67 0l132 680h478l-20 -107h-344l-33 -170h305l-20 -106h-305l-37 -190h343l-21 -107h-478z" />
    <glyph glyph-name="Edieresis" unicode="&#xcb;" horiz-adv-x="586" 
d="M313 740l24 124h102l-24 -124h-102zM458 740l24 124h102l-24 -124h-102zM67 0l132 680h478l-20 -107h-344l-33 -170h305l-20 -106h-305l-37 -190h343l-21 -107h-478z" />
    <glyph glyph-name="Egrave" unicode="&#xc8;" horiz-adv-x="586" 
d="M498 740h-116l-84 124h143zM67 0l132 680h478l-20 -107h-344l-33 -170h305l-20 -106h-305l-37 -190h343l-21 -107h-478z" />
    <glyph glyph-name="Ebreve" unicode="&#x114;" horiz-adv-x="586" 
d="M298 864h93c0 -38 24 -54 59 -54c36 0 69 16 80 54h93c-33 -93 -103 -124 -181 -124c-76 0 -144 40 -144 124zM67 0l132 680h478l-20 -107h-344l-33 -170h305l-20 -106h-305l-37 -190h343l-21 -107h-478z" />
    <glyph glyph-name="Ecaron" unicode="&#x11a;" horiz-adv-x="586" 
d="M523 864h114l-118 -124h-159l-75 124h113l49 -71zM67 0l132 680h478l-20 -107h-344l-33 -170h305l-20 -106h-305l-37 -190h343l-21 -107h-478z" />
    <glyph glyph-name="Edotaccent" unicode="&#x116;" horiz-adv-x="586" 
d="M372 740l24 124h129l-24 -124h-129zM67 0l132 680h478l-20 -107h-344l-33 -170h305l-20 -106h-305l-37 -190h343l-21 -107h-478z" />
    <glyph glyph-name="Emacron" unicode="&#x112;" horiz-adv-x="586" 
d="M302 759l17 86h276l-17 -86h-276zM67 0l132 680h478l-20 -107h-344l-33 -170h305l-20 -106h-305l-37 -190h343l-21 -107h-478z" />
    <glyph glyph-name="Eogonek" unicode="&#x118;" horiz-adv-x="586" 
d="M67 0l132 680h478l-20 -107h-344l-33 -170h305l-20 -106h-305l-37 -190h343l-21 -107h-77c-53 -42 -70 -85 -70 -111c0 -29 21 -49 60 -49c20 0 33 4 45 9l-14 -70c-28 -11 -48 -15 -80 -15c-67 0 -119 32 -119 90c0 54 42 107 104 146h-327z" />
    <glyph glyph-name="Gbreve" unicode="&#x11e;" horiz-adv-x="711" 
d="M360 864h93c0 -38 24 -54 59 -54c36 0 69 16 80 54h93c-33 -93 -103 -124 -181 -124c-76 0 -144 40 -144 124zM656 0h-94l5 82c-54 -66 -128 -97 -204 -97c-155 0 -263 97 -263 276c0 221 149 434 387 434c153 0 254 -83 261 -225h-137c-7 73 -60 113 -135 113
c-141 0 -236 -157 -236 -321c0 -105 51 -165 146 -165c84 0 161 48 192 161h-147l21 102h274z" />
    <glyph glyph-name="Gcircumflex" unicode="&#x11c;" horiz-adv-x="711" 
d="M561 740l-49 70l-76 -70h-113l117 124h159l75 -124h-113zM656 0h-94l5 82c-54 -66 -128 -97 -204 -97c-155 0 -263 97 -263 276c0 221 149 434 387 434c153 0 254 -83 261 -225h-137c-7 73 -60 113 -135 113c-141 0 -236 -157 -236 -321c0 -105 51 -165 146 -165
c84 0 161 48 192 161h-147l21 102h274z" />
    <glyph glyph-name="Gcommaaccent" unicode="&#x122;" horiz-adv-x="711" 
d="M656 0h-94l5 82c-54 -66 -128 -97 -204 -97c-155 0 -263 97 -263 276c0 221 149 434 387 434c153 0 254 -83 261 -225h-137c-7 73 -60 113 -135 113c-141 0 -236 -157 -236 -321c0 -105 51 -165 146 -165c84 0 161 48 192 161h-147l21 102h274zM286 -154l16 82h136
l-7 -33c-11 -55 -38 -93 -78 -128h-66c26 24 47 50 52 79h-53z" />
    <glyph glyph-name="Gdotaccent" unicode="&#x120;" horiz-adv-x="711" 
d="M434 740l24 124h129l-24 -124h-129zM656 0h-94l5 82c-54 -66 -128 -97 -204 -97c-155 0 -263 97 -263 276c0 221 149 434 387 434c153 0 254 -83 261 -225h-137c-7 73 -60 113 -135 113c-141 0 -236 -157 -236 -321c0 -105 51 -165 146 -165c84 0 161 48 192 161h-147
l21 102h274z" />
    <glyph glyph-name="Hbar" unicode="&#x126;" horiz-adv-x="705" 
d="M67 0l99 511h-52l15 84h54l16 85h135l-16 -85h301l16 85h134l-16 -85h55l-15 -84h-57l-99 -511h-134l57 294h-301l-57 -294h-135zM280 404h301l21 107h-301z" />
    <glyph glyph-name="Hcircumflex" unicode="&#x124;" horiz-adv-x="705" 
d="M558 740l-49 70l-76 -70h-113l117 124h159l75 -124h-113zM67 0l132 680h135l-54 -276h301l54 276h134l-132 -680h-134l57 294h-301l-57 -294h-135z" />
    <glyph glyph-name="Iacute" unicode="&#xcd;" horiz-adv-x="269" 
d="M216 740l102 124h149l-136 -124h-115zM67 0l132 680h135l-132 -680h-135z" />
    <glyph glyph-name="Icircumflex" unicode="&#xce;" horiz-adv-x="269" 
d="M340 740l-49 70l-76 -70h-113l117 124h159l75 -124h-113zM67 0l132 680h135l-132 -680h-135z" />
    <glyph glyph-name="Idieresis" unicode="&#xcf;" horiz-adv-x="269" 
d="M154 740l24 124h102l-24 -124h-102zM299 740l24 124h102l-24 -124h-102zM67 0l132 680h135l-132 -680h-135z" />
    <glyph glyph-name="Igrave" unicode="&#xcc;" horiz-adv-x="269" 
d="M339 740h-116l-84 124h143zM67 0l132 680h135l-132 -680h-135z" />
    <glyph glyph-name="Ibreve" unicode="&#x12c;" horiz-adv-x="269" 
d="M139 864h93c0 -38 24 -54 59 -54c36 0 69 16 80 54h93c-33 -93 -103 -124 -181 -124c-76 0 -144 40 -144 124zM67 0l132 680h135l-132 -680h-135z" />
    <glyph glyph-name="Idotaccent" unicode="&#x130;" horiz-adv-x="269" 
d="M213 740l24 124h129l-24 -124h-129zM67 0l132 680h135l-132 -680h-135z" />
    <glyph glyph-name="Imacron" unicode="&#x12a;" horiz-adv-x="269" 
d="M143 759l17 86h276l-17 -86h-276zM67 0l132 680h135l-132 -680h-135z" />
    <glyph glyph-name="Iogonek" unicode="&#x12e;" horiz-adv-x="269" 
d="M150 -221c-28 -11 -48 -15 -80 -15c-67 0 -118 32 -118 90s47 115 117 154l130 672h135l-132 -680h-73c-53 -42 -70 -85 -70 -111c0 -29 21 -49 60 -49c20 0 33 4 45 9z" />
    <glyph glyph-name="Itilde" unicode="&#x128;" horiz-adv-x="269" 
d="M186 740h-73c20 100 77 124 115 124c62 0 87 -50 122 -50c15 0 32 10 43 50h73c-20 -101 -77 -124 -115 -124c-61 0 -86 49 -122 49c-16 0 -32 -10 -43 -49zM67 0l132 680h135l-132 -680h-135z" />
    <glyph glyph-name="Jcircumflex" unicode="&#x134;" horiz-adv-x="553" 
d="M626 740l-49 70l-76 -70h-113l117 124h159l75 -124h-113zM68 210h131c-1 -8 -1 -14 -1 -21c0 -58 29 -92 84 -92c64 0 104 48 120 131l88 452h134l-86 -444c-32 -164 -121 -251 -265 -251c-132 0 -206 80 -206 195c0 10 0 20 1 30z" />
    <glyph glyph-name="IJ" unicode="&#x132;" horiz-adv-x="822" 
d="M67 0l132 680h135l-132 -680h-135zM337 210h131c-1 -8 -1 -14 -1 -21c0 -58 29 -92 84 -92c64 0 104 48 120 131l88 452h134l-86 -444c-32 -164 -121 -251 -265 -251c-132 0 -206 80 -206 195c0 10 0 20 1 30z" />
    <glyph glyph-name="Kcommaaccent" unicode="&#x136;" horiz-adv-x="657" 
d="M67 0l132 680h135l-62 -320l329 320h158l-354 -339l244 -341h-159l-227 316l-61 -316h-135zM253 -154l16 82h136l-7 -33c-11 -55 -38 -93 -78 -128h-66c26 24 47 50 52 79h-53z" />
    <glyph glyph-name="Lacute" unicode="&#x139;" horiz-adv-x="544" 
d="M214 740l102 124h149l-136 -124h-115zM67 0l132 680h135l-111 -571h315l-21 -109h-450z" />
    <glyph glyph-name="Lcaron" unicode="&#x13d;" horiz-adv-x="544" 
d="M67 0l132 680h135l-111 -571h315l-21 -109h-450zM379 597l17 83h128l-6 -33c-11 -55 -38 -94 -77 -129h-66c29 27 45 50 51 79h-47z" />
    <glyph glyph-name="Lcommaaccent" unicode="&#x13b;" horiz-adv-x="544" 
d="M67 0l132 680h135l-111 -571h315l-21 -109h-450zM203 -154l16 82h136l-7 -33c-11 -55 -38 -93 -78 -128h-66c26 24 47 50 52 79h-53z" />
    <glyph glyph-name="Ldot" unicode="&#x13f;" horiz-adv-x="544" 
d="M67 0l132 680h135l-111 -571h315l-21 -109h-450zM379 245l24 124h128l-23 -124h-129z" />
    <glyph glyph-name="Ntilde" unicode="&#xd1;" horiz-adv-x="705" 
d="M404 740h-73c20 100 77 124 115 124c62 0 87 -50 122 -50c15 0 32 10 43 50h73c-20 -101 -77 -124 -115 -124c-61 0 -86 49 -122 49c-16 0 -32 -10 -43 -49zM67 0l132 680h141l175 -404l29 -92l91 496h134l-132 -680h-140l-174 403l-30 96l-91 -499h-135z" />
    <glyph glyph-name="Nacute" unicode="&#x143;" horiz-adv-x="705" 
d="M434 740l102 124h149l-136 -124h-115zM67 0l132 680h141l175 -404l29 -92l91 496h134l-132 -680h-140l-174 403l-30 96l-91 -499h-135z" />
    <glyph glyph-name="Ncaron" unicode="&#x147;" horiz-adv-x="705" 
d="M582 864h114l-118 -124h-159l-75 124h113l49 -71zM67 0l132 680h141l175 -404l29 -92l91 496h134l-132 -680h-140l-174 403l-30 96l-91 -499h-135z" />
    <glyph glyph-name="Ncommaaccent" unicode="&#x145;" horiz-adv-x="705" 
d="M67 0l132 680h141l175 -404l29 -92l91 496h134l-132 -680h-140l-174 403l-30 96l-91 -499h-135zM271 -154l16 82h136l-7 -33c-11 -55 -38 -93 -78 -128h-66c26 24 47 50 52 79h-53z" />
    <glyph glyph-name="Oacute" unicode="&#xd3;" horiz-adv-x="755" 
d="M459 740l102 124h149l-136 -124h-115zM384 -15c-177 0 -283 103 -283 282c0 220 162 428 402 428c178 0 283 -103 284 -282c0 -220 -162 -428 -403 -428zM395 97c155 0 252 161 252 309c1 110 -52 177 -155 177c-154 0 -252 -161 -252 -309c0 -110 53 -177 155 -177z" />
    <glyph glyph-name="Ocircumflex" unicode="&#xd4;" horiz-adv-x="755" 
d="M583 740l-49 70l-76 -70h-113l117 124h159l75 -124h-113zM384 -15c-177 0 -283 103 -283 282c0 220 162 428 402 428c178 0 283 -103 284 -282c0 -220 -162 -428 -403 -428zM395 97c155 0 252 161 252 309c1 110 -52 177 -155 177c-154 0 -252 -161 -252 -309
c0 -110 53 -177 155 -177z" />
    <glyph glyph-name="Odieresis" unicode="&#xd6;" horiz-adv-x="755" 
d="M397 740l24 124h102l-24 -124h-102zM542 740l24 124h102l-24 -124h-102zM384 -15c-177 0 -283 103 -283 282c0 220 162 428 402 428c178 0 283 -103 284 -282c0 -220 -162 -428 -403 -428zM395 97c155 0 252 161 252 309c1 110 -52 177 -155 177
c-154 0 -252 -161 -252 -309c0 -110 53 -177 155 -177z" />
    <glyph glyph-name="Ograve" unicode="&#xd2;" horiz-adv-x="755" 
d="M582 740h-116l-84 124h143zM384 -15c-177 0 -283 103 -283 282c0 220 162 428 402 428c178 0 283 -103 284 -282c0 -220 -162 -428 -403 -428zM395 97c155 0 252 161 252 309c1 110 -52 177 -155 177c-154 0 -252 -161 -252 -309c0 -110 53 -177 155 -177z" />
    <glyph glyph-name="Otilde" unicode="&#xd5;" horiz-adv-x="755" 
d="M429 740h-73c20 100 77 124 115 124c62 0 87 -50 122 -50c15 0 32 10 43 50h73c-20 -101 -77 -124 -115 -124c-61 0 -86 49 -122 49c-16 0 -32 -10 -43 -49zM384 -15c-177 0 -283 103 -283 282c0 220 162 428 402 428c178 0 283 -103 284 -282
c0 -220 -162 -428 -403 -428zM395 97c155 0 252 161 252 309c1 110 -52 177 -155 177c-154 0 -252 -161 -252 -309c0 -110 53 -177 155 -177z" />
    <glyph glyph-name="Obreve" unicode="&#x14e;" horiz-adv-x="755" 
d="M382 864h93c0 -38 24 -54 59 -54c36 0 69 16 80 54h93c-33 -93 -103 -124 -181 -124c-76 0 -144 40 -144 124zM384 -15c-177 0 -283 103 -283 282c0 220 162 428 402 428c178 0 283 -103 284 -282c0 -220 -162 -428 -403 -428zM395 97c155 0 252 161 252 309
c1 110 -52 177 -155 177c-154 0 -252 -161 -252 -309c0 -110 53 -177 155 -177z" />
    <glyph glyph-name="Ohungarumlaut" unicode="&#x150;" horiz-adv-x="755" 
d="M392 740l107 124h120l-141 -124h-86zM552 740l107 124h119l-141 -124h-85zM384 -15c-177 0 -283 103 -283 282c0 220 162 428 402 428c178 0 283 -103 284 -282c0 -220 -162 -428 -403 -428zM395 97c155 0 252 161 252 309c1 110 -52 177 -155 177
c-154 0 -252 -161 -252 -309c0 -110 53 -177 155 -177z" />
    <glyph glyph-name="Omacron" unicode="&#x14c;" horiz-adv-x="755" 
d="M386 759l17 86h276l-17 -86h-276zM384 -15c-177 0 -283 103 -283 282c0 220 162 428 402 428c178 0 283 -103 284 -282c0 -220 -162 -428 -403 -428zM395 97c155 0 252 161 252 309c1 110 -52 177 -155 177c-154 0 -252 -161 -252 -309c0 -110 53 -177 155 -177z" />
    <glyph glyph-name="Racute" unicode="&#x154;" horiz-adv-x="638" 
d="M369 740l102 124h149l-136 -124h-115zM67 0l132 680h264c134 0 215 -64 215 -178c0 -81 -46 -147 -125 -183c30 -22 44 -59 47 -114l12 -205h-141l-4 180c-2 70 -25 84 -93 84h-121l-51 -264h-135zM442 573h-129l-39 -203h125c86 0 138 51 138 126c0 47 -33 77 -95 77z
" />
    <glyph glyph-name="Rcaron" unicode="&#x158;" horiz-adv-x="638" 
d="M517 864h114l-118 -124h-159l-75 124h113l49 -71zM67 0l132 680h264c134 0 215 -64 215 -178c0 -81 -46 -147 -125 -183c30 -22 44 -59 47 -114l12 -205h-141l-4 180c-2 70 -25 84 -93 84h-121l-51 -264h-135zM442 573h-129l-39 -203h125c86 0 138 51 138 126
c0 47 -33 77 -95 77z" />
    <glyph glyph-name="Rcommaaccent" unicode="&#x156;" horiz-adv-x="638" 
d="M67 0l132 680h264c134 0 215 -64 215 -178c0 -81 -46 -147 -125 -183c30 -22 44 -59 47 -114l12 -205h-141l-4 180c-2 70 -25 84 -93 84h-121l-51 -264h-135zM442 573h-129l-39 -203h125c86 0 138 51 138 126c0 47 -33 77 -95 77zM240 -154l16 82h136l-7 -33
c-11 -55 -38 -93 -78 -128h-66c26 24 47 50 52 79h-53z" />
    <glyph glyph-name="Scaron" unicode="&#x160;" horiz-adv-x="619" 
d="M528 864h114l-118 -124h-159l-75 124h113l49 -71zM401 587c-81 0 -117 -43 -117 -92c0 -126 346 -40 346 -280c0 -128 -112 -230 -292 -230c-166 0 -262 81 -269 220h140c5 -72 51 -112 133 -112c92 0 145 48 145 109c0 136 -346 47 -346 283c0 107 89 210 273 210
c159 0 253 -83 253 -219h-140c-5 73 -45 111 -126 111z" />
    <glyph glyph-name="Sacute" unicode="&#x15a;" horiz-adv-x="619" 
d="M380 740l102 124h149l-136 -124h-115zM401 587c-81 0 -117 -43 -117 -92c0 -126 346 -40 346 -280c0 -128 -112 -230 -292 -230c-166 0 -262 81 -269 220h140c5 -72 51 -112 133 -112c92 0 145 48 145 109c0 136 -346 47 -346 283c0 107 89 210 273 210
c159 0 253 -83 253 -219h-140c-5 73 -45 111 -126 111z" />
    <glyph glyph-name="Scedilla" unicode="&#x15e;" horiz-adv-x="619" 
d="M183 -170c85 2 121 21 121 47c0 18 -19 27 -67 31l58 79c-140 13 -220 92 -226 218h140c5 -72 51 -112 133 -112c92 0 145 48 145 109c0 136 -346 47 -346 283c0 107 89 210 273 210c159 0 253 -83 253 -219h-140c-5 73 -45 111 -126 111s-117 -43 -117 -92
c0 -126 346 -40 346 -280c0 -123 -103 -222 -271 -230l-29 -38c51 -5 77 -29 77 -62c0 -67 -75 -104 -234 -106z" />
    <glyph glyph-name="Scircumflex" unicode="&#x15c;" horiz-adv-x="619" 
d="M504 740l-49 70l-76 -70h-113l117 124h159l75 -124h-113zM401 587c-81 0 -117 -43 -117 -92c0 -126 346 -40 346 -280c0 -128 -112 -230 -292 -230c-166 0 -262 81 -269 220h140c5 -72 51 -112 133 -112c92 0 145 48 145 109c0 136 -346 47 -346 283
c0 107 89 210 273 210c159 0 253 -83 253 -219h-140c-5 73 -45 111 -126 111z" />
    <glyph glyph-name="Scommaaccent" unicode="&#x218;" horiz-adv-x="619" 
d="M401 587c-81 0 -117 -43 -117 -92c0 -126 346 -40 346 -280c0 -128 -112 -230 -292 -230c-166 0 -262 81 -269 220h140c5 -72 51 -112 133 -112c92 0 145 48 145 109c0 136 -346 47 -346 283c0 107 89 210 273 210c159 0 253 -83 253 -219h-140c-5 73 -45 111 -126 111z
M240 -154l16 82h136l-7 -33c-11 -55 -38 -93 -78 -128h-66c26 24 47 50 52 79h-53z" />
    <glyph glyph-name="Tbar" unicode="&#x166;" horiz-adv-x="627" 
d="M246 0l57 296h-96l16 83h97l36 190h-219l22 111h573l-21 -111h-220l-36 -190h97l-16 -83h-98l-57 -296h-135z" />
    <glyph glyph-name="Tcaron" unicode="&#x164;" horiz-adv-x="627" 
d="M543 864h114l-118 -124h-159l-75 124h113l49 -71zM246 0l110 569h-219l22 111h573l-21 -111h-220l-110 -569h-135z" />
    <glyph glyph-name="Tcedilla" unicode="&#x162;" horiz-adv-x="627" 
d="M246 0l110 569h-219l22 111h573l-21 -111h-220l-110 -569h-135zM218 -154l16 82h136l-7 -33c-11 -55 -38 -93 -78 -128h-66c26 24 47 50 52 79h-53z" />
    <glyph glyph-name="Tcommaaccent" unicode="&#x21a;" horiz-adv-x="627" 
d="M246 0l110 569h-219l22 111h573l-21 -111h-220l-110 -569h-135zM218 -154l16 82h136l-7 -33c-11 -55 -38 -93 -78 -128h-66c26 24 47 50 52 79h-53z" />
    <glyph glyph-name="Uacute" unicode="&#xda;" horiz-adv-x="688" 
d="M426 740l102 124h149l-136 -124h-115zM677 259c-34 -176 -147 -274 -324 -274c-159 0 -248 89 -248 216c0 19 2 38 6 58l82 421h135l-82 -421c-4 -17 -5 -32 -5 -47c0 -75 42 -118 121 -118c94 0 162 62 181 165l82 421h134z" />
    <glyph glyph-name="Ucircumflex" unicode="&#xdb;" horiz-adv-x="688" 
d="M550 740l-49 70l-76 -70h-113l117 124h159l75 -124h-113zM677 259c-34 -176 -147 -274 -324 -274c-159 0 -248 89 -248 216c0 19 2 38 6 58l82 421h135l-82 -421c-4 -17 -5 -32 -5 -47c0 -75 42 -118 121 -118c94 0 162 62 181 165l82 421h134z" />
    <glyph glyph-name="Udieresis" unicode="&#xdc;" horiz-adv-x="688" 
d="M364 740l24 124h102l-24 -124h-102zM509 740l24 124h102l-24 -124h-102zM677 259c-34 -176 -147 -274 -324 -274c-159 0 -248 89 -248 216c0 19 2 38 6 58l82 421h135l-82 -421c-4 -17 -5 -32 -5 -47c0 -75 42 -118 121 -118c94 0 162 62 181 165l82 421h134z" />
    <glyph glyph-name="Ugrave" unicode="&#xd9;" horiz-adv-x="688" 
d="M549 740h-116l-84 124h143zM677 259c-34 -176 -147 -274 -324 -274c-159 0 -248 89 -248 216c0 19 2 38 6 58l82 421h135l-82 -421c-4 -17 -5 -32 -5 -47c0 -75 42 -118 121 -118c94 0 162 62 181 165l82 421h134z" />
    <glyph glyph-name="Ubreve" unicode="&#x16c;" horiz-adv-x="688" 
d="M349 864h93c0 -38 24 -54 59 -54c36 0 69 16 80 54h93c-33 -93 -103 -124 -181 -124c-76 0 -144 40 -144 124zM677 259c-34 -176 -147 -274 -324 -274c-159 0 -248 89 -248 216c0 19 2 38 6 58l82 421h135l-82 -421c-4 -17 -5 -32 -5 -47c0 -75 42 -118 121 -118
c94 0 162 62 181 165l82 421h134z" />
    <glyph glyph-name="Uhungarumlaut" unicode="&#x170;" horiz-adv-x="688" 
d="M359 740l107 124h120l-141 -124h-86zM519 740l107 124h119l-141 -124h-85zM677 259c-34 -176 -147 -274 -324 -274c-159 0 -248 89 -248 216c0 19 2 38 6 58l82 421h135l-82 -421c-4 -17 -5 -32 -5 -47c0 -75 42 -118 121 -118c94 0 162 62 181 165l82 421h134z" />
    <glyph glyph-name="Umacron" unicode="&#x16a;" horiz-adv-x="688" 
d="M353 759l17 86h276l-17 -86h-276zM677 259c-34 -176 -147 -274 -324 -274c-159 0 -248 89 -248 216c0 19 2 38 6 58l82 421h135l-82 -421c-4 -17 -5 -32 -5 -47c0 -75 42 -118 121 -118c94 0 162 62 181 165l82 421h134z" />
    <glyph glyph-name="Uogonek" unicode="&#x172;" horiz-adv-x="688" 
d="M677 259c-28 -143 -107 -234 -230 -264c-55 -40 -71 -81 -71 -106c0 -29 20 -49 59 -49c20 0 33 4 45 9l-14 -70c-27 -11 -48 -15 -79 -15c-68 0 -119 32 -119 90c0 48 33 95 86 131h-1c-159 0 -248 89 -248 216c0 19 2 38 6 58l82 421h135l-82 -421
c-4 -17 -5 -32 -5 -47c0 -75 42 -118 121 -118c94 0 162 62 181 165l82 421h134z" />
    <glyph glyph-name="Uring" unicode="&#x16e;" horiz-adv-x="688" 
d="M490 740c-61 0 -101 42 -96 99c6 63 60 122 134 122c61 0 101 -43 95 -100c-5 -63 -60 -121 -133 -121zM498 799c31 0 55 27 57 59c2 26 -13 43 -36 43c-30 0 -53 -27 -56 -58c-2 -27 12 -44 35 -44zM677 259c-34 -176 -147 -274 -324 -274c-159 0 -248 89 -248 216
c0 19 2 38 6 58l82 421h135l-82 -421c-4 -17 -5 -32 -5 -47c0 -75 42 -118 121 -118c94 0 162 62 181 165l82 421h134z" />
    <glyph glyph-name="Utilde" unicode="&#x168;" horiz-adv-x="688" 
d="M396 740h-73c20 100 77 124 115 124c62 0 87 -50 122 -50c15 0 32 10 43 50h73c-20 -101 -77 -124 -115 -124c-61 0 -86 49 -122 49c-16 0 -32 -10 -43 -49zM677 259c-34 -176 -147 -274 -324 -274c-159 0 -248 89 -248 216c0 19 2 38 6 58l82 421h135l-82 -421
c-4 -17 -5 -32 -5 -47c0 -75 42 -118 121 -118c94 0 162 62 181 165l82 421h134z" />
    <glyph glyph-name="Wacute" unicode="&#x1e82;" horiz-adv-x="1054" 
d="M619 740l102 124h149l-136 -124h-115zM666 0l-39 433l-4 61l-26 -61l-207 -433h-163l-68 680h140l37 -479l2 -76l34 76l229 479h120l43 -479l4 -75l30 75l223 479h137l-331 -680h-161z" />
    <glyph glyph-name="Wcircumflex" unicode="&#x174;" horiz-adv-x="1054" 
d="M743 740l-49 70l-76 -70h-113l117 124h159l75 -124h-113zM666 0l-39 433l-4 61l-26 -61l-207 -433h-163l-68 680h140l37 -479l2 -76l34 76l229 479h120l43 -479l4 -75l30 75l223 479h137l-331 -680h-161z" />
    <glyph glyph-name="Wdieresis" unicode="&#x1e84;" horiz-adv-x="1054" 
d="M557 740l24 124h102l-24 -124h-102zM702 740l24 124h102l-24 -124h-102zM666 0l-39 433l-4 61l-26 -61l-207 -433h-163l-68 680h140l37 -479l2 -76l34 76l229 479h120l43 -479l4 -75l30 75l223 479h137l-331 -680h-161z" />
    <glyph glyph-name="Wgrave" unicode="&#x1e80;" horiz-adv-x="1054" 
d="M742 740h-116l-84 124h143zM666 0l-39 433l-4 61l-26 -61l-207 -433h-163l-68 680h140l37 -479l2 -76l34 76l229 479h120l43 -479l4 -75l30 75l223 479h137l-331 -680h-161z" />
    <glyph glyph-name="Yacute" unicode="&#xdd;" horiz-adv-x="628" 
d="M403 740l102 124h149l-136 -124h-115zM247 0l47 242l-153 438h143l82 -248l16 -73l42 73l179 248h148l-323 -438l-47 -242h-134z" />
    <glyph glyph-name="Ydieresis" unicode="&#x178;" horiz-adv-x="628" 
d="M341 740l24 124h102l-24 -124h-102zM486 740l24 124h102l-24 -124h-102zM247 0l47 242l-153 438h143l82 -248l16 -73l42 73l179 248h148l-323 -438l-47 -242h-134z" />
    <glyph glyph-name="Ycircumflex" unicode="&#x176;" horiz-adv-x="628" 
d="M527 740l-49 70l-76 -70h-113l117 124h159l75 -124h-113zM247 0l47 242l-153 438h143l82 -248l16 -73l42 73l179 248h148l-323 -438l-47 -242h-134z" />
    <glyph glyph-name="Ygrave" unicode="&#x1ef2;" horiz-adv-x="628" 
d="M526 740h-116l-84 124h143zM247 0l47 242l-153 438h143l82 -248l16 -73l42 73l179 248h148l-323 -438l-47 -242h-134z" />
    <glyph glyph-name="Zcaron" unicode="&#x17d;" horiz-adv-x="621" 
d="M540 864h114l-118 -124h-159l-75 124h113l49 -71zM47 0l21 111l453 458h-364l22 111h526l-21 -111l-453 -458h364l-22 -111h-526z" />
    <glyph glyph-name="Zacute" unicode="&#x179;" horiz-adv-x="621" 
d="M392 740l102 124h149l-136 -124h-115zM47 0l21 111l453 458h-364l22 111h526l-21 -111l-453 -458h364l-22 -111h-526z" />
    <glyph glyph-name="Zdotaccent" unicode="&#x17b;" horiz-adv-x="621" 
d="M389 740l24 124h129l-24 -124h-129zM47 0l21 111l453 458h-364l22 111h526l-21 -111l-453 -458h364l-22 -111h-526z" />
    <glyph glyph-name="aacute" unicode="&#xe1;" 
d="M339 596l102 124h149l-136 -124h-115zM247 360h-129c34 123 133 191 267 191c141 0 203 -72 203 -168c0 -15 -2 -32 -5 -48l-39 -204c-9 -45 -13 -76 -13 -99c0 -12 2 -22 3 -32h-133c-1 6 -2 12 -2 20c0 12 1 27 4 43c-53 -54 -119 -78 -180 -78c-97 0 -164 49 -164 141
c0 74 48 137 139 167c82 29 145 33 254 33l3 13c2 12 3 23 3 32c0 49 -28 74 -89 74c-63 0 -104 -34 -122 -85zM192 140c0 -41 27 -60 72 -60c77 0 148 58 167 135l6 32c-189 -2 -245 -46 -245 -107z" />
    <glyph glyph-name="acircumflex" unicode="&#xe2;" 
d="M463 596l-49 70l-76 -70h-113l117 124h159l75 -124h-113zM247 360h-129c34 123 133 191 267 191c141 0 203 -72 203 -168c0 -15 -2 -32 -5 -48l-39 -204c-9 -45 -13 -76 -13 -99c0 -12 2 -22 3 -32h-133c-1 6 -2 12 -2 20c0 12 1 27 4 43c-53 -54 -119 -78 -180 -78
c-97 0 -164 49 -164 141c0 74 48 137 139 167c82 29 145 33 254 33l3 13c2 12 3 23 3 32c0 49 -28 74 -89 74c-63 0 -104 -34 -122 -85zM192 140c0 -41 27 -60 72 -60c77 0 148 58 167 135l6 32c-189 -2 -245 -46 -245 -107z" />
    <glyph glyph-name="adieresis" unicode="&#xe4;" 
d="M277 596l24 124h102l-24 -124h-102zM422 596l24 124h102l-24 -124h-102zM247 360h-129c34 123 133 191 267 191c141 0 203 -72 203 -168c0 -15 -2 -32 -5 -48l-39 -204c-9 -45 -13 -76 -13 -99c0 -12 2 -22 3 -32h-133c-1 6 -2 12 -2 20c0 12 1 27 4 43
c-53 -54 -119 -78 -180 -78c-97 0 -164 49 -164 141c0 74 48 137 139 167c82 29 145 33 254 33l3 13c2 12 3 23 3 32c0 49 -28 74 -89 74c-63 0 -104 -34 -122 -85zM192 140c0 -41 27 -60 72 -60c77 0 148 58 167 135l6 32c-189 -2 -245 -46 -245 -107z" />
    <glyph glyph-name="agrave" unicode="&#xe0;" 
d="M462 596h-116l-84 124h143zM247 360h-129c34 123 133 191 267 191c141 0 203 -72 203 -168c0 -15 -2 -32 -5 -48l-39 -204c-9 -45 -13 -76 -13 -99c0 -12 2 -22 3 -32h-133c-1 6 -2 12 -2 20c0 12 1 27 4 43c-53 -54 -119 -78 -180 -78c-97 0 -164 49 -164 141
c0 74 48 137 139 167c82 29 145 33 254 33l3 13c2 12 3 23 3 32c0 49 -28 74 -89 74c-63 0 -104 -34 -122 -85zM192 140c0 -41 27 -60 72 -60c77 0 148 58 167 135l6 32c-189 -2 -245 -46 -245 -107z" />
    <glyph glyph-name="aring" unicode="&#xe5;" 
d="M403 596c-61 0 -101 42 -96 99c6 63 60 122 134 122c61 0 101 -43 95 -100c-5 -63 -60 -121 -133 -121zM411 655c31 0 55 27 57 59c2 26 -13 43 -36 43c-30 0 -53 -27 -56 -58c-2 -27 12 -44 35 -44zM247 360h-129c34 123 133 191 267 191c141 0 203 -72 203 -168
c0 -15 -2 -32 -5 -48l-39 -204c-9 -45 -13 -76 -13 -99c0 -12 2 -22 3 -32h-133c-1 6 -2 12 -2 20c0 12 1 27 4 43c-53 -54 -119 -78 -180 -78c-97 0 -164 49 -164 141c0 74 48 137 139 167c82 29 145 33 254 33l3 13c2 12 3 23 3 32c0 49 -28 74 -89 74
c-63 0 -104 -34 -122 -85zM192 140c0 -41 27 -60 72 -60c77 0 148 58 167 135l6 32c-189 -2 -245 -46 -245 -107z" />
    <glyph glyph-name="atilde" unicode="&#xe3;" 
d="M309 596h-73c20 100 77 124 115 124c62 0 87 -50 122 -50c15 0 32 10 43 50h73c-20 -101 -77 -124 -115 -124c-61 0 -86 49 -122 49c-16 0 -32 -10 -43 -49zM247 360h-129c34 123 133 191 267 191c141 0 203 -72 203 -168c0 -15 -2 -32 -5 -48l-39 -204
c-9 -45 -13 -76 -13 -99c0 -12 2 -22 3 -32h-133c-1 6 -2 12 -2 20c0 12 1 27 4 43c-53 -54 -119 -78 -180 -78c-97 0 -164 49 -164 141c0 74 48 137 139 167c82 29 145 33 254 33l3 13c2 12 3 23 3 32c0 49 -28 74 -89 74c-63 0 -104 -34 -122 -85zM192 140
c0 -41 27 -60 72 -60c77 0 148 58 167 135l6 32c-189 -2 -245 -46 -245 -107z" />
    <glyph glyph-name="abreve" unicode="&#x103;" 
d="M262 720h93c0 -38 24 -54 59 -54c36 0 69 16 80 54h93c-33 -93 -103 -124 -181 -124c-76 0 -144 40 -144 124zM247 360h-129c34 123 133 191 267 191c141 0 203 -72 203 -168c0 -15 -2 -32 -5 -48l-39 -204c-9 -45 -13 -76 -13 -99c0 -12 2 -22 3 -32h-133
c-1 6 -2 12 -2 20c0 12 1 27 4 43c-53 -54 -119 -78 -180 -78c-97 0 -164 49 -164 141c0 74 48 137 139 167c82 29 145 33 254 33l3 13c2 12 3 23 3 32c0 49 -28 74 -89 74c-63 0 -104 -34 -122 -85zM192 140c0 -41 27 -60 72 -60c77 0 148 58 167 135l6 32
c-189 -2 -245 -46 -245 -107z" />
    <glyph glyph-name="amacron" unicode="&#x101;" 
d="M266 615l17 86h276l-17 -86h-276zM247 360h-129c34 123 133 191 267 191c141 0 203 -72 203 -168c0 -15 -2 -32 -5 -48l-39 -204c-9 -45 -13 -76 -13 -99c0 -12 2 -22 3 -32h-133c-1 6 -2 12 -2 20c0 12 1 27 4 43c-53 -54 -119 -78 -180 -78c-97 0 -164 49 -164 141
c0 74 48 137 139 167c82 29 145 33 254 33l3 13c2 12 3 23 3 32c0 49 -28 74 -89 74c-63 0 -104 -34 -122 -85zM192 140c0 -41 27 -60 72 -60c77 0 148 58 167 135l6 32c-189 -2 -245 -46 -245 -107z" />
    <glyph glyph-name="aogonek" unicode="&#x105;" 
d="M247 360h-129c34 123 133 191 267 191c141 0 203 -72 203 -168c0 -15 -2 -32 -5 -48l-39 -204c-9 -45 -13 -76 -13 -99c0 -12 2 -22 3 -32h-73c-54 -42 -71 -85 -71 -111c0 -29 21 -49 60 -49c20 0 33 4 45 9l-14 -70c-27 -11 -48 -15 -79 -15c-68 0 -119 32 -119 90
s47 115 117 154c-1 3 -1 7 -1 12c0 17 3 38 6 60c-53 -62 -123 -95 -184 -95c-95 0 -162 49 -162 141c0 74 48 137 139 167c82 29 145 33 254 33l3 13c2 12 3 23 3 32c0 49 -28 74 -89 74c-63 0 -104 -34 -122 -85zM192 140c0 -41 27 -60 72 -60c77 0 148 58 167 135l6 32
c-189 -2 -245 -46 -245 -107z" />
    <glyph glyph-name="ccedilla" unicode="&#xe7;" horiz-adv-x="557" 
d="M138 -170c85 2 121 21 121 47c0 18 -20 27 -67 31l58 80c-106 16 -171 94 -171 216c0 179 122 347 304 347c129 0 206 -76 207 -205h-127c0 68 -36 99 -91 99c-97 0 -161 -118 -161 -240c0 -73 36 -114 97 -114c55 0 101 30 126 91h128c-43 -125 -141 -189 -248 -196
l-29 -39c51 -5 77 -29 77 -62c0 -67 -76 -104 -234 -106z" />
    <glyph glyph-name="cacute" unicode="&#x107;" horiz-adv-x="557" 
d="M333 596l102 124h149l-136 -124h-115zM590 346h-127c0 68 -36 99 -91 99c-97 0 -161 -118 -161 -240c0 -73 36 -114 97 -114c55 0 101 30 126 91h128c-46 -133 -154 -197 -268 -197c-132 0 -215 81 -215 219c0 179 122 347 304 347c129 0 206 -76 207 -205z" />
    <glyph glyph-name="ccaron" unicode="&#x10d;" horiz-adv-x="557" 
d="M481 720h114l-118 -124h-159l-75 124h113l49 -71zM590 346h-127c0 68 -36 99 -91 99c-97 0 -161 -118 -161 -240c0 -73 36 -114 97 -114c55 0 101 30 126 91h128c-46 -133 -154 -197 -268 -197c-132 0 -215 81 -215 219c0 179 122 347 304 347c129 0 206 -76 207 -205z
" />
    <glyph glyph-name="ccircumflex" unicode="&#x109;" horiz-adv-x="557" 
d="M457 596l-49 70l-76 -70h-113l117 124h159l75 -124h-113zM590 346h-127c0 68 -36 99 -91 99c-97 0 -161 -118 -161 -240c0 -73 36 -114 97 -114c55 0 101 30 126 91h128c-46 -133 -154 -197 -268 -197c-132 0 -215 81 -215 219c0 179 122 347 304 347
c129 0 206 -76 207 -205z" />
    <glyph glyph-name="cdotaccent" unicode="&#x10b;" horiz-adv-x="557" 
d="M330 596l24 124h129l-24 -124h-129zM590 346h-127c0 68 -36 99 -91 99c-97 0 -161 -118 -161 -240c0 -73 36 -114 97 -114c55 0 101 30 126 91h128c-46 -133 -154 -197 -268 -197c-132 0 -215 81 -215 219c0 179 122 347 304 347c129 0 206 -76 207 -205z" />
    <glyph glyph-name="dcaron" unicode="&#x10f;" horiz-adv-x="667" 
d="M256 -15c-112 0 -179 82 -179 209c0 184 118 357 289 357c59 0 102 -25 128 -70l47 239h128l-140 -720h-128l11 56c-45 -44 -99 -71 -156 -71zM691 637l17 83h128l-6 -33c-11 -55 -38 -94 -77 -129h-66c29 27 45 50 51 79h-47zM299 91c101 0 160 138 160 244
c0 71 -31 110 -90 110c-89 0 -159 -120 -159 -244c0 -71 31 -110 89 -110z" />
    <glyph glyph-name="dcroat" unicode="&#x111;" horiz-adv-x="588" 
d="M256 -15c-112 0 -179 82 -179 209c0 184 118 357 289 357c59 0 102 -25 128 -70l23 116h-98l16 84h98l8 39h128l-8 -39h50l-17 -84h-49l-116 -597h-128l11 56c-45 -44 -99 -71 -156 -71zM299 91c101 0 160 138 160 244c0 71 -31 110 -90 110c-89 0 -159 -120 -159 -244
c0 -71 31 -110 89 -110z" />
    <glyph glyph-name="eacute" unicode="&#xe9;" 
d="M345 596l102 124h149l-136 -124h-115zM582 175c-51 -129 -161 -190 -281 -190c-137 0 -222 80 -222 219c0 183 125 347 308 347c139 0 215 -84 215 -213c0 -22 -2 -45 -6 -69l-5 -27h-379c-1 -10 -1 -21 -1 -31c0 -81 35 -121 102 -121c60 0 110 26 135 85h134zM377 446
c-69 0 -120 -53 -147 -124h244v12c0 73 -34 112 -97 112z" />
    <glyph glyph-name="ecircumflex" unicode="&#xea;" 
d="M469 596l-49 70l-76 -70h-113l117 124h159l75 -124h-113zM582 175c-51 -129 -161 -190 -281 -190c-137 0 -222 80 -222 219c0 183 125 347 308 347c139 0 215 -84 215 -213c0 -22 -2 -45 -6 -69l-5 -27h-379c-1 -10 -1 -21 -1 -31c0 -81 35 -121 102 -121
c60 0 110 26 135 85h134zM377 446c-69 0 -120 -53 -147 -124h244v12c0 73 -34 112 -97 112z" />
    <glyph glyph-name="edieresis" unicode="&#xeb;" 
d="M283 596l24 124h102l-24 -124h-102zM428 596l24 124h102l-24 -124h-102zM582 175c-51 -129 -161 -190 -281 -190c-137 0 -222 80 -222 219c0 183 125 347 308 347c139 0 215 -84 215 -213c0 -22 -2 -45 -6 -69l-5 -27h-379c-1 -10 -1 -21 -1 -31c0 -81 35 -121 102 -121
c60 0 110 26 135 85h134zM377 446c-69 0 -120 -53 -147 -124h244v12c0 73 -34 112 -97 112z" />
    <glyph glyph-name="egrave" unicode="&#xe8;" 
d="M468 596h-116l-84 124h143zM582 175c-51 -129 -161 -190 -281 -190c-137 0 -222 80 -222 219c0 183 125 347 308 347c139 0 215 -84 215 -213c0 -22 -2 -45 -6 -69l-5 -27h-379c-1 -10 -1 -21 -1 -31c0 -81 35 -121 102 -121c60 0 110 26 135 85h134zM377 446
c-69 0 -120 -53 -147 -124h244v12c0 73 -34 112 -97 112z" />
    <glyph glyph-name="ebreve" unicode="&#x115;" 
d="M268 720h93c0 -38 24 -54 59 -54c36 0 69 16 80 54h93c-33 -93 -103 -124 -181 -124c-76 0 -144 40 -144 124zM582 175c-51 -129 -161 -190 -281 -190c-137 0 -222 80 -222 219c0 183 125 347 308 347c139 0 215 -84 215 -213c0 -22 -2 -45 -6 -69l-5 -27h-379
c-1 -10 -1 -21 -1 -31c0 -81 35 -121 102 -121c60 0 110 26 135 85h134zM377 446c-69 0 -120 -53 -147 -124h244v12c0 73 -34 112 -97 112z" />
    <glyph glyph-name="ecaron" unicode="&#x11b;" 
d="M493 720h114l-118 -124h-159l-75 124h113l49 -71zM582 175c-51 -129 -161 -190 -281 -190c-137 0 -222 80 -222 219c0 183 125 347 308 347c139 0 215 -84 215 -213c0 -22 -2 -45 -6 -69l-5 -27h-379c-1 -10 -1 -21 -1 -31c0 -81 35 -121 102 -121c60 0 110 26 135 85
h134zM377 446c-69 0 -120 -53 -147 -124h244v12c0 73 -34 112 -97 112z" />
    <glyph glyph-name="edotaccent" unicode="&#x117;" 
d="M342 596l24 124h129l-24 -124h-129zM582 175c-51 -129 -161 -190 -281 -190c-137 0 -222 80 -222 219c0 183 125 347 308 347c139 0 215 -84 215 -213c0 -22 -2 -45 -6 -69l-5 -27h-379c-1 -10 -1 -21 -1 -31c0 -81 35 -121 102 -121c60 0 110 26 135 85h134zM377 446
c-69 0 -120 -53 -147 -124h244v12c0 73 -34 112 -97 112z" />
    <glyph glyph-name="emacron" unicode="&#x113;" 
d="M272 615l17 86h276l-17 -86h-276zM582 175c-51 -129 -161 -190 -281 -190c-137 0 -222 80 -222 219c0 183 125 347 308 347c139 0 215 -84 215 -213c0 -22 -2 -45 -6 -69l-5 -27h-379c-1 -10 -1 -21 -1 -31c0 -81 35 -121 102 -121c60 0 110 26 135 85h134zM377 446
c-69 0 -120 -53 -147 -124h244v12c0 73 -34 112 -97 112z" />
    <glyph glyph-name="eogonek" unicode="&#x119;" 
d="M438 -221c-28 -11 -48 -15 -80 -15c-67 0 -119 32 -119 90c0 49 34 93 87 132c-9 -1 -17 -1 -25 -1c-137 0 -222 80 -222 219c0 183 125 347 308 347c139 0 215 -84 215 -213c0 -22 -2 -45 -6 -69l-5 -27h-379c-1 -10 -1 -21 -1 -31c0 -81 35 -121 102 -121
c60 0 110 26 135 85h134c-28 -71 -74 -121 -129 -152c-78 -57 -106 -103 -106 -134c0 -29 21 -49 60 -49c20 0 33 4 45 9zM377 446c-69 0 -120 -53 -147 -124h244v12c0 73 -34 112 -97 112z" />
    <glyph glyph-name="gbreve" unicode="&#x11f;" horiz-adv-x="588" 
d="M266 720h93c0 -38 24 -54 59 -54c36 0 69 16 80 54h93c-33 -93 -103 -124 -181 -124c-76 0 -144 40 -144 124zM258 -2c-111 0 -178 79 -178 202c0 181 118 351 288 351c58 0 101 -23 127 -67l10 52h128l-109 -562c-30 -150 -133 -210 -266 -210c-136 0 -218 80 -218 188
h128c6 -59 39 -87 100 -87c64 0 112 31 129 116l17 87c-45 -44 -99 -70 -156 -70zM301 104c101 0 159 134 159 237c0 67 -31 104 -89 104c-89 0 -158 -116 -158 -238c0 -67 30 -103 88 -103z" />
    <glyph glyph-name="gcircumflex" unicode="&#x11d;" horiz-adv-x="588" 
d="M467 596l-49 70l-76 -70h-113l117 124h159l75 -124h-113zM258 -2c-111 0 -178 79 -178 202c0 181 118 351 288 351c58 0 101 -23 127 -67l10 52h128l-109 -562c-30 -150 -133 -210 -266 -210c-136 0 -218 80 -218 188h128c6 -59 39 -87 100 -87c64 0 112 31 129 116
l17 87c-45 -44 -99 -70 -156 -70zM301 104c101 0 159 134 159 237c0 67 -31 104 -89 104c-89 0 -158 -116 -158 -238c0 -67 30 -103 88 -103z" />
    <glyph glyph-name="gcommaaccent" unicode="&#x123;" horiz-adv-x="588" 
d="M490 678l-17 -82h-135l6 33c11 55 39 93 78 128h66c-26 -25 -46 -50 -51 -79h53zM258 -2c-111 0 -178 79 -178 202c0 181 118 351 288 351c58 0 101 -23 127 -67l10 52h128l-109 -562c-30 -150 -133 -210 -266 -210c-136 0 -218 80 -218 188h128c6 -59 39 -87 100 -87
c64 0 112 31 129 116l17 87c-45 -44 -99 -70 -156 -70zM301 104c101 0 159 134 159 237c0 67 -31 104 -89 104c-89 0 -158 -116 -158 -238c0 -67 30 -103 88 -103z" />
    <glyph glyph-name="gdotaccent" unicode="&#x121;" horiz-adv-x="588" 
d="M340 596l24 124h129l-24 -124h-129zM258 -2c-111 0 -178 79 -178 202c0 181 118 351 288 351c58 0 101 -23 127 -67l10 52h128l-109 -562c-30 -150 -133 -210 -266 -210c-136 0 -218 80 -218 188h128c6 -59 39 -87 100 -87c64 0 112 31 129 116l17 87
c-45 -44 -99 -70 -156 -70zM301 104c101 0 159 134 159 237c0 67 -31 104 -89 104c-89 0 -158 -116 -158 -238c0 -67 30 -103 88 -103z" />
    <glyph glyph-name="hbar" unicode="&#x127;" horiz-adv-x="585" 
d="M59 0l116 597h-47l18 84h45l8 39h128l-8 -39h102l-17 -84h-101l-24 -123c46 52 104 77 169 77c91 0 152 -48 152 -145c0 -19 -2 -38 -6 -58l-68 -348h-128l65 331c3 14 4 26 4 37c0 50 -25 77 -78 77c-68 0 -121 -55 -139 -121l-63 -324h-128z" />
    <glyph glyph-name="hcircumflex" unicode="&#x125;" horiz-adv-x="585" 
d="M445 760l-49 70l-76 -70h-113l117 124h159l75 -124h-113zM59 0l140 720h128l-48 -246c46 52 104 77 169 77c91 0 152 -48 152 -145c0 -19 -2 -38 -6 -58l-68 -348h-128l65 331c3 14 4 26 4 37c0 50 -25 77 -78 77c-68 0 -121 -55 -139 -121l-63 -324h-128z" />
    <glyph glyph-name="iacute" unicode="&#xed;" horiz-adv-x="245" 
d="M177 596l102 124h149l-136 -124h-115zM59 0l104 536h128l-104 -536h-128z" />
    <glyph glyph-name="icircumflex" unicode="&#xee;" horiz-adv-x="245" 
d="M301 596l-49 70l-76 -70h-113l117 124h159l75 -124h-113zM59 0l104 536h128l-104 -536h-128z" />
    <glyph glyph-name="idieresis" unicode="&#xef;" horiz-adv-x="245" 
d="M115 596l24 124h102l-24 -124h-102zM260 596l24 124h102l-24 -124h-102zM59 0l104 536h128l-104 -536h-128z" />
    <glyph glyph-name="igrave" unicode="&#xec;" horiz-adv-x="245" 
d="M300 596h-116l-84 124h143zM59 0l104 536h128l-104 -536h-128z" />
    <glyph glyph-name="ibreve" unicode="&#x12d;" horiz-adv-x="245" 
d="M100 720h93c0 -38 24 -54 59 -54c36 0 69 16 80 54h93c-33 -93 -103 -124 -181 -124c-76 0 -144 40 -144 124zM59 0l104 536h128l-104 -536h-128z" />
    <glyph glyph-name="i.dot" unicode="&#xe166;" horiz-adv-x="245" 
d="M174 596l25 124h128l-24 -124h-129zM59 0l104 536h128l-104 -536h-128z" />
    <glyph glyph-name="imacron" unicode="&#x12b;" horiz-adv-x="245" 
d="M104 615l17 86h276l-17 -86h-276zM59 0l104 536h128l-104 -536h-128z" />
    <glyph glyph-name="iogonek" unicode="&#x12f;" horiz-adv-x="245" 
d="M174 596l25 124h128l-24 -124h-129zM133 -221c-27 -11 -47 -15 -79 -15c-67 0 -119 32 -119 90c0 60 52 120 126 159l102 523h128l-104 -536h-74c-53 -42 -70 -85 -70 -111c0 -29 20 -49 60 -49c19 0 33 4 45 9z" />
    <glyph glyph-name="itilde" unicode="&#x129;" horiz-adv-x="245" 
d="M147 596h-73c20 100 77 124 115 124c62 0 87 -50 122 -50c15 0 32 10 43 50h73c-20 -101 -77 -124 -115 -124c-61 0 -86 49 -122 49c-16 0 -32 -10 -43 -49zM59 0l104 536h128l-104 -536h-128z" />
    <glyph glyph-name="jcircumflex" unicode="&#x135;" horiz-adv-x="245" 
d="M301 596l-49 70l-76 -70h-113l117 124h159l75 -124h-113zM176 -60c-26 -130 -84 -176 -191 -176c-30 0 -51 7 -62 13l19 94h14c63 0 81 21 94 84l113 581h128z" />
    <glyph glyph-name="ij" unicode="&#x133;" horiz-adv-x="491" 
d="M174 596l25 124h128l-24 -124h-129zM419 596l25 124h128l-24 -124h-129zM59 0l104 536h128l-104 -536h-128zM421 -60c-26 -130 -84 -176 -191 -176c-30 0 -51 7 -62 13l19 94h14c63 0 81 21 94 84l113 581h128z" />
    <glyph glyph-name="kcommaaccent" unicode="&#x137;" horiz-adv-x="555" 
d="M59 0l140 720h128l-79 -405l234 221h156l-270 -247l177 -289h-146l-161 260l-51 -260h-128zM181 -154l16 82h136l-7 -33c-11 -55 -38 -93 -78 -128h-66c26 24 47 50 52 79h-53z" />
    <glyph glyph-name="lacute" unicode="&#x13a;" horiz-adv-x="245" 
d="M210 760l102 124h149l-136 -124h-115zM59 0l140 720h128l-140 -720h-128z" />
    <glyph glyph-name="lcaron" unicode="&#x13e;" horiz-adv-x="320" 
d="M59 0l140 720h128l-140 -720h-128zM345 637l17 83h128l-6 -33c-11 -55 -38 -94 -77 -129h-66c29 27 45 50 51 79h-47z" />
    <glyph glyph-name="lcommaaccent" unicode="&#x13c;" horiz-adv-x="245" 
d="M59 0l140 720h128l-140 -720h-128zM26 -154l16 82h136l-7 -33c-11 -55 -38 -93 -78 -128h-66c26 24 47 50 52 79h-53z" />
    <glyph glyph-name="ldot" unicode="&#x140;" horiz-adv-x="329" 
d="M59 0l140 720h128l-140 -720h-128zM271 245l24 124h128l-23 -124h-129z" />
    <glyph glyph-name="ntilde" unicode="&#xf1;" horiz-adv-x="585" 
d="M317 596h-73c20 100 77 124 115 124c62 0 87 -50 122 -50c15 0 32 10 43 50h73c-20 -101 -77 -124 -115 -124c-61 0 -86 49 -122 49c-16 0 -32 -10 -43 -49zM59 0l104 536h128l-11 -58c44 49 100 73 163 73c97 0 155 -58 155 -156c0 -18 -2 -38 -6 -58l-66 -337h-128
l65 331c3 14 4 26 4 37c0 50 -25 77 -78 77c-68 0 -122 -56 -140 -123l-62 -322h-128z" />
    <glyph glyph-name="nacute" unicode="&#x144;" horiz-adv-x="585" 
d="M347 596l102 124h149l-136 -124h-115zM59 0l104 536h128l-11 -58c44 49 100 73 163 73c97 0 155 -58 155 -156c0 -18 -2 -38 -6 -58l-66 -337h-128l65 331c3 14 4 26 4 37c0 50 -25 77 -78 77c-68 0 -122 -56 -140 -123l-62 -322h-128z" />
    <glyph glyph-name="ncaron" unicode="&#x148;" horiz-adv-x="585" 
d="M495 720h114l-118 -124h-159l-75 124h113l49 -71zM59 0l104 536h128l-11 -58c44 49 100 73 163 73c97 0 155 -58 155 -156c0 -18 -2 -38 -6 -58l-66 -337h-128l65 331c3 14 4 26 4 37c0 50 -25 77 -78 77c-68 0 -122 -56 -140 -123l-62 -322h-128z" />
    <glyph glyph-name="ncommaaccent" unicode="&#x146;" horiz-adv-x="585" 
d="M59 0l104 536h128l-11 -58c44 49 100 73 163 73c97 0 155 -58 155 -156c0 -18 -2 -38 -6 -58l-66 -337h-128l65 331c3 14 4 26 4 37c0 50 -25 77 -78 77c-68 0 -122 -56 -140 -123l-62 -322h-128zM196 -154l16 82h136l-7 -33c-11 -55 -38 -93 -78 -128h-66
c26 24 47 50 52 79h-53z" />
    <glyph glyph-name="oacute" unicode="&#xf3;" 
d="M345 596l102 124h149l-136 -124h-115zM297 -15c-135 0 -218 82 -218 219c0 182 122 347 310 347c133 0 217 -81 217 -219c0 -182 -122 -347 -309 -347zM310 91c98 0 163 122 163 240c0 74 -33 114 -98 114c-98 0 -164 -122 -164 -239c0 -75 34 -115 99 -115z" />
    <glyph glyph-name="ocircumflex" unicode="&#xf4;" 
d="M469 596l-49 70l-76 -70h-113l117 124h159l75 -124h-113zM297 -15c-135 0 -218 82 -218 219c0 182 122 347 310 347c133 0 217 -81 217 -219c0 -182 -122 -347 -309 -347zM310 91c98 0 163 122 163 240c0 74 -33 114 -98 114c-98 0 -164 -122 -164 -239
c0 -75 34 -115 99 -115z" />
    <glyph glyph-name="odieresis" unicode="&#xf6;" 
d="M283 596l24 124h102l-24 -124h-102zM428 596l24 124h102l-24 -124h-102zM297 -15c-135 0 -218 82 -218 219c0 182 122 347 310 347c133 0 217 -81 217 -219c0 -182 -122 -347 -309 -347zM310 91c98 0 163 122 163 240c0 74 -33 114 -98 114c-98 0 -164 -122 -164 -239
c0 -75 34 -115 99 -115z" />
    <glyph glyph-name="ograve" unicode="&#xf2;" 
d="M468 596h-116l-84 124h143zM297 -15c-135 0 -218 82 -218 219c0 182 122 347 310 347c133 0 217 -81 217 -219c0 -182 -122 -347 -309 -347zM310 91c98 0 163 122 163 240c0 74 -33 114 -98 114c-98 0 -164 -122 -164 -239c0 -75 34 -115 99 -115z" />
    <glyph glyph-name="otilde" unicode="&#xf5;" 
d="M315 596h-73c20 100 77 124 115 124c62 0 87 -50 122 -50c15 0 32 10 43 50h73c-20 -101 -77 -124 -115 -124c-61 0 -86 49 -122 49c-16 0 -32 -10 -43 -49zM297 -15c-135 0 -218 82 -218 219c0 182 122 347 310 347c133 0 217 -81 217 -219c0 -182 -122 -347 -309 -347z
M310 91c98 0 163 122 163 240c0 74 -33 114 -98 114c-98 0 -164 -122 -164 -239c0 -75 34 -115 99 -115z" />
    <glyph glyph-name="obreve" unicode="&#x14f;" 
d="M268 720h93c0 -38 24 -54 59 -54c36 0 69 16 80 54h93c-33 -93 -103 -124 -181 -124c-76 0 -144 40 -144 124zM297 -15c-135 0 -218 82 -218 219c0 182 122 347 310 347c133 0 217 -81 217 -219c0 -182 -122 -347 -309 -347zM310 91c98 0 163 122 163 240
c0 74 -33 114 -98 114c-98 0 -164 -122 -164 -239c0 -75 34 -115 99 -115z" />
    <glyph glyph-name="ohungarumlaut" unicode="&#x151;" 
d="M278 596l107 124h120l-141 -124h-86zM438 596l107 124h119l-141 -124h-85zM297 -15c-135 0 -218 82 -218 219c0 182 122 347 310 347c133 0 217 -81 217 -219c0 -182 -122 -347 -309 -347zM310 91c98 0 163 122 163 240c0 74 -33 114 -98 114c-98 0 -164 -122 -164 -239
c0 -75 34 -115 99 -115z" />
    <glyph glyph-name="omacron" unicode="&#x14d;" 
d="M272 615l17 86h276l-17 -86h-276zM297 -15c-135 0 -218 82 -218 219c0 182 122 347 310 347c133 0 217 -81 217 -219c0 -182 -122 -347 -309 -347zM310 91c98 0 163 122 163 240c0 74 -33 114 -98 114c-98 0 -164 -122 -164 -239c0 -75 34 -115 99 -115z" />
    <glyph glyph-name="racute" unicode="&#x155;" horiz-adv-x="395" 
d="M254 596l102 124h149l-136 -124h-115zM59 0l104 536h128l-12 -62c44 52 98 77 154 77c30 0 49 -6 57 -15l-21 -111c-16 5 -35 7 -58 7c-99 0 -152 -55 -168 -147h-1l-55 -285h-128z" />
    <glyph glyph-name="rcaron" unicode="&#x159;" horiz-adv-x="395" 
d="M402 720h114l-118 -124h-159l-75 124h113l49 -71zM59 0l104 536h128l-12 -62c44 52 98 77 154 77c30 0 49 -6 57 -15l-21 -111c-16 5 -35 7 -58 7c-99 0 -152 -55 -168 -147h-1l-55 -285h-128z" />
    <glyph glyph-name="rcommaaccent" unicode="&#x157;" horiz-adv-x="395" 
d="M59 0l104 536h128l-12 -62c44 52 98 77 154 77c30 0 49 -6 57 -15l-21 -111c-16 5 -35 7 -58 7c-99 0 -152 -55 -168 -147h-1l-55 -285h-128zM39 -154l16 82h136l-7 -33c-11 -55 -38 -93 -78 -128h-66c26 24 47 50 52 79h-53z" />
    <glyph glyph-name="scaron" unicode="&#x161;" horiz-adv-x="532" 
d="M468 720h114l-118 -124h-159l-75 124h113l49 -71zM249 385c0 -102 286 -23 286 -215c0 -94 -89 -185 -249 -185c-141 0 -222 73 -225 190h129c0 -49 30 -91 103 -91c74 0 111 32 111 73c0 104 -282 21 -282 217c0 93 85 177 228 177c127 0 207 -66 212 -191h-126
c-1 61 -31 91 -96 91c-58 0 -91 -29 -91 -66z" />
    <glyph glyph-name="sacute" unicode="&#x15b;" horiz-adv-x="532" 
d="M320 596l102 124h149l-136 -124h-115zM249 385c0 -102 286 -23 286 -215c0 -94 -89 -185 -249 -185c-141 0 -222 73 -225 190h129c0 -49 30 -91 103 -91c74 0 111 32 111 73c0 104 -282 21 -282 217c0 93 85 177 228 177c127 0 207 -66 212 -191h-126
c-1 61 -31 91 -96 91c-58 0 -91 -29 -91 -66z" />
    <glyph glyph-name="scedilla" unicode="&#x15f;" horiz-adv-x="532" 
d="M140 -170c85 2 121 21 121 47c0 18 -19 27 -67 31l57 79c-119 11 -187 81 -190 188h129c0 -49 30 -91 103 -91c74 0 111 32 111 73c0 104 -282 21 -282 217c0 93 85 177 228 177c127 0 207 -66 212 -191h-126c-1 61 -31 91 -96 91c-58 0 -91 -29 -91 -66
c0 -102 286 -23 286 -215c0 -88 -78 -173 -218 -184l-30 -39c51 -5 77 -29 77 -62c0 -67 -75 -104 -234 -106z" />
    <glyph glyph-name="scircumflex" unicode="&#x15d;" horiz-adv-x="532" 
d="M444 596l-49 70l-76 -70h-113l117 124h159l75 -124h-113zM249 385c0 -102 286 -23 286 -215c0 -94 -89 -185 -249 -185c-141 0 -222 73 -225 190h129c0 -49 30 -91 103 -91c74 0 111 32 111 73c0 104 -282 21 -282 217c0 93 85 177 228 177c127 0 207 -66 212 -191h-126
c-1 61 -31 91 -96 91c-58 0 -91 -29 -91 -66z" />
    <glyph glyph-name="scommaaccent" unicode="&#x219;" horiz-adv-x="532" 
d="M249 385c0 -102 286 -23 286 -215c0 -94 -89 -185 -249 -185c-141 0 -222 73 -225 190h129c0 -49 30 -91 103 -91c74 0 111 32 111 73c0 104 -282 21 -282 217c0 93 85 177 228 177c127 0 207 -66 212 -191h-126c-1 61 -31 91 -96 91c-58 0 -91 -29 -91 -66zM178 -154
l16 82h136l-7 -33c-11 -55 -38 -93 -78 -128h-66c26 24 47 50 52 79h-53z" />
    <glyph glyph-name="tbar" unicode="&#x167;" horiz-adv-x="333" 
d="M109 169l13 65h-64l17 84h63l23 119h-69l19 99h69l24 123h128l-24 -123h113l-19 -99h-113l-23 -119h111l-16 -84h-112l-10 -54c-2 -14 -4 -26 -4 -36c0 -36 19 -52 68 -52h30l-18 -94c-16 -7 -46 -13 -81 -13c-91 0 -133 35 -133 116c0 20 3 42 8 68z" />
    <glyph glyph-name="tcaron" unicode="&#x165;" horiz-adv-x="355" 
d="M357 648l17 83h128l-6 -33c-11 -55 -38 -94 -77 -129h-66c29 27 45 50 51 79h-47zM109 169l52 268h-69l19 99h69l24 123h128l-24 -123h113l-19 -99h-113l-50 -257c-2 -14 -4 -26 -4 -36c0 -36 19 -52 68 -52h30l-18 -94c-16 -7 -46 -13 -81 -13c-91 0 -133 35 -133 116
c0 20 3 42 8 68z" />
    <glyph glyph-name="tcedilla" unicode="&#x163;" horiz-adv-x="333" 
d="M109 169l52 268h-69l19 99h69l24 123h128l-24 -123h113l-19 -99h-113l-50 -257c-2 -14 -4 -26 -4 -36c0 -36 19 -52 68 -52h30l-18 -94c-16 -7 -46 -13 -81 -13c-91 0 -133 35 -133 116c0 20 3 42 8 68zM79 -154l16 82h136l-7 -33c-11 -55 -38 -93 -78 -128h-66
c26 24 47 50 52 79h-53z" />
    <glyph glyph-name="tcommaaccent" unicode="&#x21b;" horiz-adv-x="333" 
d="M109 169l52 268h-69l19 99h69l24 123h128l-24 -123h113l-19 -99h-113l-50 -257c-2 -14 -4 -26 -4 -36c0 -36 19 -52 68 -52h30l-18 -94c-16 -7 -46 -13 -81 -13c-91 0 -133 35 -133 116c0 20 3 42 8 68zM79 -154l16 82h136l-7 -33c-11 -55 -38 -93 -78 -128h-66
c26 24 47 50 52 79h-53z" />
    <glyph glyph-name="uacute" unicode="&#xfa;" horiz-adv-x="579" 
d="M344 596l102 124h149l-136 -124h-115zM624 536l-104 -536h-128l11 57c-46 -49 -102 -72 -158 -72c-94 0 -154 52 -154 153c0 20 2 41 7 63l65 335h128l-64 -332c-3 -14 -5 -27 -5 -39c0 -48 25 -74 75 -74c66 0 120 57 137 125l62 320h128z" />
    <glyph glyph-name="ucircumflex" unicode="&#xfb;" horiz-adv-x="579" 
d="M468 596l-49 70l-76 -70h-113l117 124h159l75 -124h-113zM624 536l-104 -536h-128l11 57c-46 -49 -102 -72 -158 -72c-94 0 -154 52 -154 153c0 20 2 41 7 63l65 335h128l-64 -332c-3 -14 -5 -27 -5 -39c0 -48 25 -74 75 -74c66 0 120 57 137 125l62 320h128z" />
    <glyph glyph-name="udieresis" unicode="&#xfc;" horiz-adv-x="579" 
d="M282 596l24 124h102l-24 -124h-102zM427 596l24 124h102l-24 -124h-102zM624 536l-104 -536h-128l11 57c-46 -49 -102 -72 -158 -72c-94 0 -154 52 -154 153c0 20 2 41 7 63l65 335h128l-64 -332c-3 -14 -5 -27 -5 -39c0 -48 25 -74 75 -74c66 0 120 57 137 125l62 320
h128z" />
    <glyph glyph-name="ugrave" unicode="&#xf9;" horiz-adv-x="579" 
d="M467 596h-116l-84 124h143zM624 536l-104 -536h-128l11 57c-46 -49 -102 -72 -158 -72c-94 0 -154 52 -154 153c0 20 2 41 7 63l65 335h128l-64 -332c-3 -14 -5 -27 -5 -39c0 -48 25 -74 75 -74c66 0 120 57 137 125l62 320h128z" />
    <glyph glyph-name="ubreve" unicode="&#x16d;" horiz-adv-x="579" 
d="M267 720h93c0 -38 24 -54 59 -54c36 0 69 16 80 54h93c-33 -93 -103 -124 -181 -124c-76 0 -144 40 -144 124zM624 536l-104 -536h-128l11 57c-46 -49 -102 -72 -158 -72c-94 0 -154 52 -154 153c0 20 2 41 7 63l65 335h128l-64 -332c-3 -14 -5 -27 -5 -39
c0 -48 25 -74 75 -74c66 0 120 57 137 125l62 320h128z" />
    <glyph glyph-name="uhungarumlaut" unicode="&#x171;" horiz-adv-x="579" 
d="M277 596l107 124h120l-141 -124h-86zM437 596l107 124h119l-141 -124h-85zM624 536l-104 -536h-128l11 57c-46 -49 -102 -72 -158 -72c-94 0 -154 52 -154 153c0 20 2 41 7 63l65 335h128l-64 -332c-3 -14 -5 -27 -5 -39c0 -48 25 -74 75 -74c66 0 120 57 137 125l62 320
h128z" />
    <glyph glyph-name="umacron" unicode="&#x16b;" horiz-adv-x="579" 
d="M271 615l17 86h276l-17 -86h-276zM624 536l-104 -536h-128l11 57c-46 -49 -102 -72 -158 -72c-94 0 -154 52 -154 153c0 20 2 41 7 63l65 335h128l-64 -332c-3 -14 -5 -27 -5 -39c0 -48 25 -74 75 -74c66 0 120 57 137 125l62 320h128z" />
    <glyph glyph-name="uogonek" unicode="&#x173;" horiz-adv-x="579" 
d="M624 536l-104 -536h-58c-54 -42 -70 -85 -70 -111c0 -29 20 -49 60 -49c19 0 33 4 44 9l-14 -70c-27 -11 -48 -15 -79 -15c-68 0 -119 32 -119 90c0 55 44 110 109 149l14 72c-47 -60 -106 -90 -162 -90c-94 0 -154 52 -154 153c0 20 2 41 7 63l65 335h128l-64 -332
c-3 -14 -5 -27 -5 -39c0 -48 25 -74 75 -74c66 0 120 57 137 125l62 320h128z" />
    <glyph glyph-name="uring" unicode="&#x16f;" horiz-adv-x="579" 
d="M408 596c-61 0 -101 42 -96 99c6 63 60 122 134 122c61 0 101 -43 95 -100c-5 -63 -60 -121 -133 -121zM416 655c31 0 55 27 57 59c2 26 -13 43 -36 43c-30 0 -53 -27 -56 -58c-2 -27 12 -44 35 -44zM624 536l-104 -536h-128l11 57c-46 -49 -102 -72 -158 -72
c-94 0 -154 52 -154 153c0 20 2 41 7 63l65 335h128l-64 -332c-3 -14 -5 -27 -5 -39c0 -48 25 -74 75 -74c66 0 120 57 137 125l62 320h128z" />
    <glyph glyph-name="utilde" unicode="&#x169;" horiz-adv-x="579" 
d="M314 596h-73c20 100 77 124 115 124c62 0 87 -50 122 -50c15 0 32 10 43 50h73c-20 -101 -77 -124 -115 -124c-61 0 -86 49 -122 49c-16 0 -32 -10 -43 -49zM624 536l-104 -536h-128l11 57c-46 -49 -102 -72 -158 -72c-94 0 -154 52 -154 153c0 20 2 41 7 63l65 335h128
l-64 -332c-3 -14 -5 -27 -5 -39c0 -48 25 -74 75 -74c66 0 120 57 137 125l62 320h128z" />
    <glyph glyph-name="wacute" unicode="&#x1e83;" horiz-adv-x="853" 
d="M481 596l102 124h149l-136 -124h-115zM535 0l-27 359l2 63l-24 -63l-166 -359h-165l-41 536h137l13 -378v-64l27 64l177 378h133l30 -378l1 -61l23 61l160 378h132l-250 -536h-162z" />
    <glyph glyph-name="wcircumflex" unicode="&#x175;" horiz-adv-x="853" 
d="M605 596l-49 70l-76 -70h-113l117 124h159l75 -124h-113zM535 0l-27 359l2 63l-24 -63l-166 -359h-165l-41 536h137l13 -378v-64l27 64l177 378h133l30 -378l1 -61l23 61l160 378h132l-250 -536h-162z" />
    <glyph glyph-name="wdieresis" unicode="&#x1e85;" horiz-adv-x="853" 
d="M419 596l24 124h102l-24 -124h-102zM564 596l24 124h102l-24 -124h-102zM535 0l-27 359l2 63l-24 -63l-166 -359h-165l-41 536h137l13 -378v-64l27 64l177 378h133l30 -378l1 -61l23 61l160 378h132l-250 -536h-162z" />
    <glyph glyph-name="wgrave" unicode="&#x1e81;" horiz-adv-x="853" 
d="M604 596h-116l-84 124h143zM535 0l-27 359l2 63l-24 -63l-166 -359h-165l-41 536h137l13 -378v-64l27 64l177 378h133l30 -378l1 -61l23 61l160 378h132l-250 -536h-162z" />
    <glyph glyph-name="yacute" unicode="&#xfd;" horiz-adv-x="555" 
d="M329 596l102 124h149l-136 -124h-115zM70 -235c-29 0 -55 7 -67 12l20 98h30c58 0 79 11 137 108l26 42l-107 511h135l58 -311l8 -69l33 69l174 311h137l-355 -599c-80 -136 -132 -172 -229 -172z" />
    <glyph glyph-name="ydieresis" unicode="&#xff;" horiz-adv-x="555" 
d="M267 596l24 124h102l-24 -124h-102zM412 596l24 124h102l-24 -124h-102zM70 -235c-29 0 -55 7 -67 12l20 98h30c58 0 79 11 137 108l26 42l-107 511h135l58 -311l8 -69l33 69l174 311h137l-355 -599c-80 -136 -132 -172 -229 -172z" />
    <glyph glyph-name="ycircumflex" unicode="&#x177;" horiz-adv-x="555" 
d="M453 596l-49 70l-76 -70h-113l117 124h159l75 -124h-113zM70 -235c-29 0 -55 7 -67 12l20 98h30c58 0 79 11 137 108l26 42l-107 511h135l58 -311l8 -69l33 69l174 311h137l-355 -599c-80 -136 -132 -172 -229 -172z" />
    <glyph glyph-name="ygrave" unicode="&#x1ef3;" horiz-adv-x="555" 
d="M452 596h-116l-84 124h143zM70 -235c-29 0 -55 7 -67 12l20 98h30c58 0 79 11 137 108l26 42l-107 511h135l58 -311l8 -69l33 69l174 311h137l-355 -599c-80 -136 -132 -172 -229 -172z" />
    <glyph glyph-name="zcaron" unicode="&#x17e;" horiz-adv-x="520" 
d="M462 720h114l-118 -124h-159l-75 124h113l49 -71zM30 0l19 98l351 339h-274l19 99h432l-19 -99l-352 -339h302l-18 -98h-460z" />
    <glyph glyph-name="zacute" unicode="&#x17a;" horiz-adv-x="520" 
d="M314 596l102 124h149l-136 -124h-115zM30 0l19 98l351 339h-274l19 99h432l-19 -99l-352 -339h302l-18 -98h-460z" />
    <glyph glyph-name="zdotaccent" unicode="&#x17c;" horiz-adv-x="520" 
d="M311 596l24 124h129l-24 -124h-129zM30 0l19 98l351 339h-274l19 99h432l-19 -99l-352 -339h302l-18 -98h-460z" />
    <glyph glyph-name="acute" unicode="&#xb4;" 
d="M345 596l102 124h149l-136 -124h-115z" />
    <glyph glyph-name="grave" unicode="`" 
d="M468 596h-116l-84 124h143z" />
    <glyph glyph-name="circumflex" unicode="&#x2c6;" 
d="M469 596l-49 70l-76 -70h-113l117 124h159l75 -124h-113z" />
    <glyph glyph-name="caron" unicode="&#x2c7;" 
d="M493 720h114l-118 -124h-159l-75 124h113l49 -71z" />
    <glyph glyph-name="tilde" unicode="&#x2dc;" 
d="M315 596h-73c20 100 77 124 115 124c62 0 87 -50 122 -50c15 0 32 10 43 50h73c-20 -101 -77 -124 -115 -124c-61 0 -86 49 -122 49c-16 0 -32 -10 -43 -49z" />
    <glyph glyph-name="dieresis" unicode="&#xa8;" 
d="M283 596l24 124h102l-24 -124h-102zM428 596l24 124h102l-24 -124h-102z" />
    <glyph glyph-name="ring" unicode="&#x2da;" 
d="M409 596c-61 0 -101 42 -96 99c6 63 60 122 134 122c61 0 101 -43 95 -100c-5 -63 -60 -121 -133 -121zM417 655c31 0 55 27 57 59c2 26 -13 43 -36 43c-30 0 -53 -27 -56 -58c-2 -27 12 -44 35 -44z" />
    <glyph glyph-name="cedilla" unicode="&#xb8;" 
d="M125 -170c86 2 121 21 121 47c0 18 -19 27 -67 31l67 92h66l-39 -53c50 -5 77 -29 77 -62c0 -67 -76 -104 -235 -106z" />
    <glyph glyph-name="hungarumlaut" unicode="&#x2dd;" 
d="M278 596l107 124h120l-141 -124h-86zM438 596l107 124h119l-141 -124h-85z" />
    <glyph glyph-name="breve" unicode="&#x2d8;" 
d="M268 720h93c0 -38 24 -54 59 -54c36 0 69 16 80 54h93c-33 -93 -103 -124 -181 -124c-76 0 -144 40 -144 124z" />
    <glyph glyph-name="macron" unicode="&#xaf;" 
d="M272 615l17 86h276l-17 -86h-276z" />
    <glyph glyph-name="dotaccent" unicode="&#x2d9;" 
d="M342 596l24 124h129l-24 -124h-129z" />
    <glyph glyph-name="periodcentered" unicode="&#xb7;" 
d="M274 245l24 124h128l-23 -124h-129z" />
    <glyph glyph-name="ogonek" unicode="&#x2db;" 
d="M355 26c-83 -49 -108 -106 -108 -137c0 -29 21 -49 60 -49c20 0 33 4 45 9l-14 -70c-28 -11 -48 -15 -80 -15c-67 0 -119 32 -119 90c0 73 77 145 177 181z" />
    <glyph glyph-name="commaaccentcomb" unicode="&#x326;" 
d="M194 -154l16 82h136l-7 -33c-11 -55 -38 -93 -78 -128h-66c26 24 47 50 52 79h-53z" />
    <glyph glyph-name="caron.alt" unicode="&#xe189;" 
d="M361 637l17 83h128l-6 -33c-11 -55 -38 -94 -77 -129h-66c29 27 45 50 51 79h-47z" />
    <glyph glyph-name="revcommaaccent" unicode="&#xe18a;" 
d="M492 678l-17 -82h-135l6 33c11 55 39 93 78 128h66c-26 -25 -46 -50 -51 -79h53z" />
    <glyph glyph-name="period" unicode="." horiz-adv-x="245" 
d="M52 0l28 141h141l-28 -141h-141z" />
    <glyph glyph-name="comma" unicode="," horiz-adv-x="245" 
d="M52 0l28 141h141l-15 -76c-20 -100 -51 -162 -107 -236h-69c38 60 65 109 77 171h-55z" />
    <glyph glyph-name="colon" unicode=":" horiz-adv-x="245" 
d="M122 354l27 141h141l-27 -141h-141zM52 0l27 141h141l-28 -141h-140z" />
    <glyph glyph-name="semicolon" unicode=";" horiz-adv-x="245" 
d="M122 354l27 141h141l-27 -141h-141zM52 0l28 141h141l-15 -76c-20 -100 -51 -162 -107 -236h-69c38 60 65 109 77 171h-55z" />
    <glyph glyph-name="ellipsis" unicode="&#x2026;" horiz-adv-x="774" 
d="M52 0l27 141h141l-28 -141h-140zM316 0l27 141h141l-28 -141h-140zM580 0l27 141h142l-28 -141h-141z" />
    <glyph glyph-name="question" unicode="?" horiz-adv-x="535" 
d="M595 529c0 -188 -223 -166 -257 -342h-128c46 239 255 201 255 336c0 43 -27 69 -81 69c-69 0 -112 -37 -135 -108h-128c39 138 139 211 272 211c134 0 202 -72 202 -166zM167 0l24 125h141l-25 -125h-140z" />
    <glyph glyph-name="exclam" unicode="!" horiz-adv-x="330" 
d="M137 187l96 493h128l-96 -493h-128zM94 0l24 125h141l-24 -125h-141z" />
    <glyph glyph-name="questiondown" unicode="&#xbf;" horiz-adv-x="535" 
d="M464 495l-24 -125h-141l25 125h140zM36 -34c0 188 222 166 257 342h128c-46 -238 -255 -201 -255 -336c0 -43 27 -69 81 -69c69 0 112 37 135 108h128c-39 -138 -139 -211 -272 -211c-134 0 -202 72 -202 166z" />
    <glyph glyph-name="exclamdown" unicode="&#xa1;" horiz-adv-x="330" 
d="M332 495l-24 -125h-141l24 125h141zM289 308l-96 -493h-128l96 493h128z" />
    <glyph glyph-name="parenleft" unicode="(" horiz-adv-x="348" 
d="M168 -181c-49 110 -74 217 -74 324c0 196 85 381 249 577h128c-160 -204 -240 -394 -240 -586c0 -103 22 -207 65 -315h-128z" />
    <glyph glyph-name="parenright" unicode=")" horiz-adv-x="348" 
d="M109 -181h-127c160 204 239 395 239 588c0 102 -22 205 -64 313h127c48 -109 73 -215 73 -321c0 -192 -83 -383 -248 -580z" />
    <glyph glyph-name="braceleft" unicode="{" horiz-adv-x="381" 
d="M209 270c51 -12 73 -39 73 -90c0 -15 -2 -33 -6 -52l-27 -141c-2 -11 -3 -21 -3 -29c0 -35 18 -49 62 -49h36l-18 -90h-96c-80 0 -119 34 -119 100c0 13 2 29 5 45l31 160c4 19 6 34 6 47c0 43 -24 53 -87 53l19 91c81 0 102 17 119 101l31 159c19 96 73 145 170 145h96
l-17 -90h-35c-56 0 -80 -22 -91 -78l-27 -140c-16 -84 -49 -128 -122 -142z" />
    <glyph glyph-name="braceright" unicode="}" horiz-adv-x="381" 
d="M276 270c-51 11 -72 38 -72 89c0 15 2 32 6 53l27 140c2 11 3 21 3 30c0 34 -18 48 -63 48h-34l17 90h96c80 0 119 -34 119 -99c0 -14 -2 -29 -6 -46l-30 -159c-4 -19 -6 -35 -6 -48c0 -43 24 -53 86 -53l-18 -91c-81 0 -103 -17 -119 -100l-32 -160
c-18 -96 -72 -145 -169 -145h-96l17 90h35c56 0 80 22 90 78l28 141c16 84 49 127 121 142z" />
    <glyph glyph-name="bracketleft" unicode="[" horiz-adv-x="366" 
d="M62 -181l175 901h249l-18 -90h-119l-141 -721h120l-17 -90h-249z" />
    <glyph glyph-name="bracketright" unicode="]" horiz-adv-x="366" 
d="M233 -181h-248l17 90h120l141 721h-120l17 90h248z" />
    <glyph glyph-name="slash" unicode="/" horiz-adv-x="365" 
d="M0 0l367 680h130l-367 -680h-130z" />
    <glyph glyph-name="backslash" unicode="\" horiz-adv-x="365" 
d="M365 0h-130l-103 680h130z" />
    <glyph glyph-name="underscore" unicode="_" horiz-adv-x="439" 
d="M5 -111l19 96h386l-19 -96h-386z" />
    <glyph glyph-name="hyphen" unicode="-" horiz-adv-x="389" 
d="M100 218l21 109h273l-21 -109h-273z" />
    <glyph glyph-name="softhyphen" unicode="&#xad;" horiz-adv-x="389" 
 />
    <glyph glyph-name="endash" unicode="&#x2013;" horiz-adv-x="500" 
d="M100 218l21 109h384l-20 -109h-385z" />
    <glyph glyph-name="emdash" unicode="&#x2014;" horiz-adv-x="1000" 
d="M100 218l21 109h884l-20 -109h-885z" />
    <glyph glyph-name="brokenbar" unicode="&#xa6;" horiz-adv-x="264" 
d="M136 353l71 367h129l-72 -367h-128zM24 -221l72 367h128l-71 -367h-129z" />
    <glyph glyph-name="bar" unicode="|" horiz-adv-x="264" 
d="M24 -221l183 941h129l-183 -941h-129z" />
    <glyph glyph-name="guillemotleft" unicode="&#xab;" horiz-adv-x="689" 
d="M325 26l-226 188l22 113l299 188l-27 -134l-179 -115l135 -113zM626 26l-226 188l22 113l299 188l-26 -134l-179 -115l135 -113z" />
    <glyph glyph-name="guillemotright" unicode="&#xbb;" horiz-adv-x="689" 
d="M74 26l26 135l179 114l-135 113l25 127l225 -188l-22 -113zM375 26l26 135l179 114l-135 113l25 127l225 -188l-21 -113z" />
    <glyph glyph-name="guilsinglleft" unicode="&#x2039;" horiz-adv-x="389" 
d="M325 26l-226 188l22 113l299 188l-27 -134l-179 -115l135 -113z" />
    <glyph glyph-name="guilsinglright" unicode="&#x203a;" horiz-adv-x="389" 
d="M74 26l26 135l179 114l-135 113l25 127l225 -188l-22 -113z" />
    <glyph glyph-name="quotesinglbase" unicode="&#x201a;" horiz-adv-x="245" 
d="M52 -6l25 129h140l-17 -84c-14 -78 -41 -124 -86 -181h-69c30 48 52 87 62 136h-55z" />
    <glyph glyph-name="quotedblbase" unicode="&#x201e;" horiz-adv-x="452" 
d="M52 -6l25 129h140l-17 -84c-14 -78 -41 -124 -86 -181h-69c30 48 52 87 62 136h-55zM258 -6l24 129h141l-16 -84c-14 -78 -42 -124 -87 -181h-69c31 48 52 87 62 136h-55z" />
    <glyph glyph-name="quoteleft" unicode="&#x2018;" horiz-adv-x="245" 
d="M298 543l-24 -129h-141l16 84c15 77 42 123 87 182h68c-29 -49 -51 -88 -61 -137h55z" />
    <glyph glyph-name="quotedblleft" unicode="&#x201c;" horiz-adv-x="452" 
d="M505 543l-25 -129h-141l16 84c15 77 42 123 88 182h68c-30 -49 -52 -88 -62 -137h56zM298 543l-24 -129h-141l16 84c15 77 42 123 87 182h68c-29 -49 -51 -88 -61 -137h55z" />
    <glyph glyph-name="quoteright" unicode="&#x2019;" horiz-adv-x="245" 
d="M160 550l25 130h140l-16 -84c-15 -78 -41 -125 -87 -182h-68c30 48 51 87 61 136h-55z" />
    <glyph glyph-name="quotedblright" unicode="&#x201d;" horiz-adv-x="452" 
d="M160 550l25 130h140l-16 -84c-15 -78 -41 -124 -87 -182h-68c29 48 51 87 61 136h-55zM367 550l23 130h142l-16 -84c-15 -78 -42 -124 -88 -182h-68c30 48 52 87 62 136h-55z" />
    <glyph glyph-name="quotesingle" unicode="'" horiz-adv-x="239" 
d="M157 414l29 266h133l-75 -266h-87z" />
    <glyph glyph-name="quotedbl" unicode="&#x22;" horiz-adv-x="430" 
d="M157 414l29 266h133l-75 -266h-87zM348 414l28 266h134l-75 -266h-87z" />
    <glyph glyph-name="bullet" unicode="&#x2022;" horiz-adv-x="451" 
d="M249 121c-77 0 -131 55 -131 128c0 103 86 187 192 187c77 0 131 -54 131 -127c0 -103 -86 -188 -192 -188z" />
    <glyph glyph-name="ampersand" unicode="&#x26;" horiz-adv-x="757" 
d="M618 550c0 -102 -84 -150 -175 -190l114 -135c23 36 40 80 50 130h122c-15 -77 -49 -153 -100 -215l118 -140h-164l-46 53c-62 -42 -135 -68 -216 -68c-153 0 -234 72 -234 178c0 117 84 174 175 216c-28 43 -40 80 -40 126c0 101 86 190 219 190c122 0 177 -70 177 -145
zM349 509c0 -25 12 -48 35 -78c62 27 109 58 109 109c0 28 -20 52 -59 52c-52 0 -85 -36 -85 -83zM220 178c0 -51 37 -87 115 -87c46 0 92 14 133 41l-140 163c-3 3 -6 7 -9 10c-57 -30 -99 -67 -99 -127z" />
    <glyph glyph-name="paragraph" unicode="&#xb6;" horiz-adv-x="656" 
d="M382 -181h-112l77 398h-6c-136 0 -223 69 -223 191c0 157 123 272 314 272h297l-167 -861h-112l147 759h-68z" />
    <glyph glyph-name="dagger" unicode="&#x2020;" horiz-adv-x="512" 
d="M152 -206l113 581h-165l21 109h165l43 221h128l-43 -221h165l-20 -109h-166l-113 -581h-128z" />
    <glyph glyph-name="daggerdbl" unicode="&#x2021;" horiz-adv-x="512" 
d="M28 5l21 109h165l51 261h-165l21 109h165l43 221h128l-43 -221h165l-20 -109h-166l-51 -261h166l-22 -109h-165l-41 -211h-128l41 211h-165z" />
    <glyph glyph-name="section" unicode="&#xa7;" horiz-adv-x="628" 
d="M550 -1c0 -100 -89 -195 -254 -195c-137 0 -217 75 -223 191h128c4 -59 34 -95 104 -95c74 0 111 41 111 89c0 128 -324 52 -324 264c0 67 40 125 124 164c-19 23 -30 55 -30 97c0 96 84 181 229 181c141 0 213 -73 213 -192h-128c0 69 -33 96 -87 96
c-72 0 -100 -41 -100 -80c0 -118 323 -47 323 -257c0 -76 -45 -128 -119 -167c20 -24 33 -55 33 -96zM214 269c0 -77 129 -81 227 -123c47 27 72 57 72 102c0 79 -131 74 -227 117c-44 -22 -72 -53 -72 -96z" />
    <glyph glyph-name="asterisk" unicode="*" horiz-adv-x="384" 
d="M410 419l-94 -60l-37 91l-70 -91l-71 60l84 78l-98 22l51 98l88 -42l10 105h102l-31 -106l105 43l13 -98l-107 -22z" />
    <glyph glyph-name="trademark" unicode="&#x2122;" horiz-adv-x="916" 
d="M190 272l62 321h-123l16 87h353l-17 -87h-124l-62 -321h-105zM464 272l79 408h139l36 -228l6 -67l30 67l125 228h135l-79 -408h-105l62 289l-52 -105l-102 -184h-77l-31 186l-11 102l-49 -288h-106z" />
    <glyph glyph-name="registered" unicode="&#xae;" horiz-adv-x="570" 
d="M417 695c128 0 212 -85 212 -201c0 -151 -127 -286 -300 -286c-128 0 -212 85 -212 201c0 151 127 286 300 286zM335 254c137 0 239 114 239 239c0 92 -64 156 -163 156c-137 0 -239 -114 -239 -239c0 -92 64 -156 163 -156zM241 320l53 272h116c58 0 93 -28 93 -75
c0 -30 -18 -57 -48 -73c11 -10 16 -24 17 -44l3 -80h-78v69c-1 24 -8 29 -29 29h-32l-19 -98h-76zM396 533h-37l-13 -63h36c31 0 46 17 46 38c0 16 -12 25 -32 25z" />
    <glyph glyph-name="copyright" unicode="&#xa9;" horiz-adv-x="845" 
d="M551 695c196 0 320 -127 320 -299c0 -231 -189 -442 -452 -442c-196 0 -320 127 -320 299c0 231 190 442 452 442zM549 649c-227 0 -394 -188 -394 -395c0 -150 104 -254 267 -254c227 0 394 188 394 394c0 151 -104 255 -267 255zM699 399h-116c-4 39 -28 62 -69 62
c-77 0 -126 -97 -126 -188c0 -53 27 -83 73 -83c39 0 73 22 92 57h116c-39 -99 -126 -149 -216 -149c-111 0 -182 69 -182 175c0 147 103 279 258 279c100 0 167 -58 170 -153z" />
    <glyph glyph-name="at" unicode="@" horiz-adv-x="986" 
d="M701 -124c-74 -29 -150 -40 -227 -40c-239 0 -388 145 -388 358c0 303 234 541 547 541c234 0 380 -145 380 -350c0 -209 -111 -369 -266 -369c-80 0 -122 33 -129 86c-54 -60 -124 -87 -188 -87c-96 0 -164 49 -164 141c0 74 49 137 139 167c83 28 145 33 254 33l3 13
c3 12 4 23 4 32c0 49 -29 74 -89 74c-62 0 -103 -34 -121 -85h-129c34 123 133 191 266 191c140 0 202 -72 202 -168c0 -15 -2 -32 -5 -48l-38 -195c-1 -11 -3 -20 -3 -29c0 -32 15 -52 49 -52c77 0 156 133 156 291c0 180 -122 306 -325 306c-276 0 -484 -215 -484 -489
c0 -190 125 -312 333 -312c75 0 142 10 209 36zM399 170c0 -41 28 -60 72 -60c77 0 147 58 167 135l6 32c-189 -3 -245 -46 -245 -107z" />
    <glyph glyph-name="ordfeminine" unicode="&#xaa;" horiz-adv-x="353" 
d="M232 540h-100c21 77 83 118 168 118c86 0 128 -45 128 -106c0 -9 -1 -18 -3 -28l-23 -120c-7 -33 -8 -52 -8 -67c0 -6 0 -10 1 -14h-104v7c0 7 1 15 2 25c-31 -29 -68 -41 -102 -41c-56 0 -97 28 -97 86c0 43 30 82 85 101c49 17 80 20 145 20l1 5c1 7 2 13 2 17
c0 22 -13 33 -40 33c-28 0 -46 -15 -55 -36zM197 410c0 -20 13 -29 34 -29c35 0 69 26 79 66l3 18c-90 -2 -116 -26 -116 -55z" />
    <glyph glyph-name="ordmasculine" unicode="&#xba;" horiz-adv-x="365" 
d="M248 314c-84 0 -137 50 -137 135c0 109 76 209 194 209c85 0 138 -52 137 -136c1 -110 -75 -208 -194 -208zM259 394c48 0 80 67 80 127c0 36 -16 55 -45 55c-48 0 -80 -67 -80 -127c0 -36 16 -55 45 -55z" />
    <glyph glyph-name="numbersign" unicode="#" horiz-adv-x="742" 
d="M111 0l60 151h-87l18 95h107l75 187h-78l18 95h98l61 152h112l-61 -152h156l61 152h111l-61 -152h88l-18 -95h-108l-75 -187h80l-19 -95h-99l-60 -151h-111l60 151h-156l-60 -151h-112zM321 246h156l75 187h-156z" />
    <glyph glyph-name="Euro" unicode="&#x20ac;" horiz-adv-x="576" 
d="M44 220l31 72h54c2 19 5 38 9 57h-44l31 72h34c50 136 154 237 290 237c116 0 195 -78 198 -201h-125c-5 60 -35 93 -84 93c-59 0 -110 -55 -142 -129h189l-31 -72h-182c-5 -19 -9 -38 -11 -57h174l-31 -72h-147c4 -84 36 -127 93 -127c46 0 88 28 116 88h127
c-59 -129 -156 -196 -258 -196c-132 0 -207 89 -210 235h-81z" />
    <glyph glyph-name="dollar" unicode="$" horiz-adv-x="576" 
d="M209 -107l20 101c-97 25 -153 98 -153 198h129c0 -61 41 -101 117 -101c75 0 120 42 120 93c0 127 -303 62 -303 275c0 92 74 185 219 198l18 93h114l-20 -103c85 -25 137 -94 137 -190h-131c0 61 -33 95 -99 95c-68 0 -105 -43 -105 -84c0 -120 305 -71 305 -266
c0 -111 -89 -203 -236 -216l-18 -93h-114z" />
    <glyph glyph-name="yen" unicode="&#xa5;" horiz-adv-x="576" 
d="M111 110l14 72h131l11 58h-131l14 72h103l-119 331h139l68 -213l17 -73l42 73l150 213h141l-247 -331h102l-13 -72h-131l-11 -58h130l-13 -72h-132l-21 -110h-135l21 110h-130z" />
    <glyph glyph-name="sterling" unicode="&#xa3;" horiz-adv-x="576" 
d="M50 0l21 109h69c64 35 93 86 93 128c0 5 0 11 -1 16h-116l14 72h72c-19 34 -38 72 -38 121c0 113 92 212 249 212c132 0 211 -72 211 -201h-128c0 62 -30 95 -89 95c-73 0 -111 -44 -111 -98c0 -44 29 -84 50 -129h167l-14 -72h-133v-7c0 -53 -29 -100 -80 -137h270
l-20 -109h-486z" />
    <glyph glyph-name="cent" unicode="&#xa2;" horiz-adv-x="576" 
d="M225 -60l20 100c-92 24 -147 98 -147 211c0 162 101 315 254 343l19 96h115l-19 -99c90 -22 142 -92 143 -198h-128c0 68 -36 99 -91 99c-97 0 -161 -118 -161 -240c0 -73 37 -114 97 -114c56 0 102 30 127 90h127c-40 -115 -126 -178 -222 -193l-19 -95h-115z" />
    <glyph glyph-name="florin" unicode="&#x192;" horiz-adv-x="576" 
d="M341 -54c-25 -131 -87 -182 -192 -182c-33 0 -57 6 -68 13l17 83h10c71 0 92 23 104 86l81 417h-64l18 96h65l3 17c25 131 88 182 192 182c33 0 56 -7 67 -13l-17 -83h-10c-72 0 -92 -26 -104 -86l-3 -17h100l-19 -96h-100z" />
    <glyph glyph-name="currency" unicode="&#xa4;" horiz-adv-x="576" 
d="M182 123l-55 68l69 57c-5 14 -7 29 -7 45c0 38 11 74 31 104l-42 53l82 69l43 -53c22 9 47 14 73 14c29 0 55 -6 76 -18l66 56l55 -69l-66 -55c5 -13 7 -29 7 -45c0 -39 -12 -76 -32 -106l41 -52l-82 -68l-42 53c-22 -9 -47 -14 -73 -14c-29 0 -55 6 -76 18zM427 342
c0 36 -23 60 -60 60c-57 0 -91 -54 -91 -102c0 -37 23 -62 60 -62c57 1 91 55 91 104z" />
    <glyph glyph-name="zero" unicode="0" horiz-adv-x="576" 
d="M296 -15c-136 0 -214 87 -214 244c0 213 120 429 323 429c136 0 214 -87 214 -244c0 -213 -120 -429 -323 -429zM395 550c-107 0 -181 -164 -181 -323c0 -87 31 -134 92 -134c107 0 181 164 181 323c0 87 -31 134 -92 134z" />
    <glyph glyph-name="one" unicode="1" horiz-adv-x="576" 
d="M119 0l19 98h120l76 390h-120l18 96h57c66 0 86 16 95 49l2 10h113l-106 -545h120l-19 -98h-375z" />
    <glyph glyph-name="two" unicode="2" horiz-adv-x="576" 
d="M51 0l7 32c61 319 425 293 425 449c0 45 -28 71 -82 71c-70 0 -115 -37 -135 -99h-130c37 130 135 205 279 205c129 0 199 -72 199 -169c0 -212 -318 -218 -404 -391h333l-20 -98h-472z" />
    <glyph glyph-name="three" unicode="3" horiz-adv-x="576" 
d="M308 -15c-152 0 -238 83 -240 209h129c2 -64 37 -103 117 -103c93 0 138 55 138 110c0 47 -28 81 -133 81h-38l19 95h30c136 0 158 58 158 102c0 48 -31 73 -89 73c-71 0 -116 -37 -139 -99h-129c37 133 142 205 277 205c139 0 211 -73 211 -176
c0 -58 -30 -118 -107 -150c52 -27 70 -75 70 -128c0 -108 -98 -219 -274 -219z" />
    <glyph glyph-name="four" unicode="4" horiz-adv-x="576" 
d="M466 0h-130l27 137h-298l22 114l388 392h116l-79 -408h83l-19 -98h-83zM187 235h195l50 254z" />
    <glyph glyph-name="five" unicode="5" horiz-adv-x="576" 
d="M591 250c0 -136 -109 -265 -284 -265c-141 0 -231 74 -231 202h129c0 -58 35 -96 108 -96c90 0 147 64 147 154c0 55 -27 95 -100 95c-60 0 -99 -26 -125 -57l-114 11l89 349h425l-20 -99h-319l-33 -128c35 18 73 28 119 28c143 0 209 -82 209 -194z" />
    <glyph glyph-name="six" unicode="6" horiz-adv-x="576" 
d="M316 -15h-2c-133 1 -226 83 -226 251c0 235 138 422 328 422c137 0 214 -81 222 -202h-129c-7 63 -44 94 -102 94c-88 0 -153 -90 -182 -192c43 39 100 62 169 62c115 0 203 -66 203 -183c0 -133 -116 -252 -281 -252zM321 91c82 0 142 58 142 136c0 57 -37 89 -98 89
c-83 0 -143 -65 -143 -137c0 -55 37 -88 99 -88z" />
    <glyph glyph-name="seven" unicode="7" horiz-adv-x="576" 
d="M296 0h-136c68 209 178 391 333 544h-333l19 99h470l-16 -81c-175 -174 -281 -365 -337 -562z" />
    <glyph glyph-name="eight" unicode="8" horiz-adv-x="576" 
d="M303 -15c-144 0 -231 72 -231 177c0 74 45 141 132 177c-34 26 -52 63 -52 112c0 113 103 207 253 207c131 0 211 -66 211 -166c0 -66 -42 -125 -111 -159c49 -28 75 -73 75 -127c0 -126 -119 -221 -277 -221zM399 554c-78 0 -122 -55 -122 -108c0 -44 32 -70 87 -70
c67 0 123 49 123 110c0 44 -33 68 -88 68zM308 89c78 0 144 53 144 122c0 50 -40 79 -104 79c-85 0 -144 -58 -144 -122c0 -50 40 -79 104 -79z" />
    <glyph glyph-name="nine" unicode="9" horiz-adv-x="576" 
d="M118 402c0 142 109 256 279 256c138 0 222 -84 222 -243c0 -254 -130 -430 -325 -430c-120 0 -216 71 -224 195h131c4 -59 43 -87 99 -87c90 0 154 79 183 191c-40 -41 -93 -67 -151 -67c-138 0 -214 76 -214 185zM394 555c-84 0 -143 -67 -143 -147c0 -55 36 -87 97 -87
c80 0 141 63 141 147c0 55 -35 87 -95 87z" />
    <glyph glyph-name="degree" unicode="&#xb0;" horiz-adv-x="353" 
d="M248 334c-85 0 -140 57 -140 135c0 104 78 189 190 189c84 0 139 -58 140 -135c-1 -105 -78 -189 -190 -189zM289 576c-54 0 -84 -54 -84 -101c0 -36 20 -59 52 -59c53 0 84 54 84 101c0 35 -21 59 -52 59z" />
    <glyph glyph-name="percent" unicode="%" horiz-adv-x="812" 
d="M237 293c-87 0 -135 52 -135 150c0 107 70 215 190 215c86 0 134 -55 134 -152c0 -107 -70 -213 -189 -213zM132 0l559 643h114l-558 -643h-115zM285 574c-46 0 -82 -67 -82 -134c0 -42 14 -65 41 -65c45 0 81 67 81 134c0 43 -14 65 -40 65zM648 -10
c-87 0 -135 53 -135 150c0 108 70 216 190 216c86 0 134 -55 134 -152c0 -107 -70 -214 -189 -214zM696 272c-46 0 -82 -67 -82 -134c0 -43 14 -65 41 -65c45 0 81 67 81 134c0 43 -14 65 -40 65z" />
    <glyph glyph-name="perthousand" unicode="&#x2030;" horiz-adv-x="1160" 
d="M237 293c-87 0 -135 52 -135 150c0 107 70 215 190 215c86 0 134 -55 134 -152c0 -107 -70 -213 -189 -213zM132 0l559 643h114l-558 -643h-115zM285 574c-46 0 -82 -67 -82 -134c0 -42 14 -65 41 -65c45 0 81 67 81 134c0 43 -14 65 -40 65zM648 -10
c-87 0 -135 53 -135 150c0 108 70 216 190 216c86 0 134 -55 134 -152c0 -107 -70 -214 -189 -214zM996 -10c-87 0 -136 53 -136 150c0 108 71 216 191 216c86 0 134 -55 134 -152c0 -107 -70 -214 -189 -214zM696 272c-46 0 -82 -67 -82 -134c0 -43 14 -65 41 -65
c45 0 81 67 81 134c0 43 -14 65 -40 65zM1044 272c-46 0 -82 -67 -82 -134c0 -43 14 -65 41 -65c45 0 81 67 81 134c0 43 -14 65 -40 65z" />
    <glyph glyph-name="fraction" unicode="&#x2044;" horiz-adv-x="122" 
d="M-213 0l559 643h114l-558 -643h-115z" />
    <glyph glyph-name="divisionslash" unicode="&#x2215;" horiz-adv-x="122" 
d="M-213 0l559 643h114l-558 -643h-115z" />
    <glyph glyph-name="zero.superior" unicode="&#x2070;" horiz-adv-x="345" 
d="M230 253c-86 0 -134 52 -134 150c0 127 73 255 197 255c85 0 133 -55 133 -152c0 -127 -72 -253 -196 -253zM285 574c-50 0 -88 -87 -88 -174c0 -42 14 -65 41 -65c48 0 87 87 87 174c0 43 -14 65 -40 65z" />
    <glyph glyph-name="onesuperior" unicode="&#xb9;" horiz-adv-x="345" 
d="M113 262l14 76h71l39 198h-71l14 72h24c49 0 64 12 71 34l1 5h88l-60 -309h70l-14 -76h-247z" />
    <glyph glyph-name="twosuperior" unicode="&#xb2;" horiz-adv-x="345" 
d="M77 262l5 24c36 188 244 182 244 258c0 21 -13 32 -37 32c-31 0 -51 -17 -62 -47h-101c24 84 89 129 173 129s129 -49 129 -108c0 -115 -167 -130 -223 -212h181l-15 -76h-294z" />
    <glyph glyph-name="threesuperior" unicode="&#xb3;" horiz-adv-x="345" 
d="M237 253c-98 0 -151 51 -152 130h99c1 -32 18 -51 57 -51c41 0 64 25 64 52c0 25 -16 41 -65 41h-29l14 68h23c65 0 77 27 77 50c0 22 -14 33 -40 33c-33 0 -54 -17 -65 -47h-99c24 84 89 129 172 129c90 0 135 -48 135 -110c0 -35 -17 -68 -59 -88c26 -16 37 -44 37 -73
c0 -68 -62 -134 -169 -134z" />
    <glyph glyph-name="four.superior" unicode="&#x2074;" horiz-adv-x="345" 
d="M341 262h-101l14 73h-170l18 89l224 223h90l-46 -236h44l-14 -76h-45zM172 411h97l25 124z" />
    <glyph glyph-name="onehalf" unicode="&#xbd;" horiz-adv-x="812" 
d="M113 262l14 76h71l39 198h-71l14 72h24c49 0 64 12 71 34l1 5h88l-60 -309h70l-14 -76h-247zM150 0l559 643h114l-558 -643h-115zM494 0l5 24c36 188 244 182 244 258c0 21 -13 32 -37 32c-31 0 -51 -17 -62 -47h-101c24 84 89 129 173 129s129 -49 129 -108
c0 -115 -167 -130 -223 -212h181l-15 -76h-294z" />
    <glyph glyph-name="onequarter" unicode="&#xbc;" horiz-adv-x="812" 
d="M113 262l14 76h71l39 198h-71l14 72h24c49 0 64 12 71 34l1 5h88l-60 -309h70l-14 -76h-247zM180 0l559 643h114l-558 -643h-115zM758 0h-101l14 73h-170l18 89l224 223h90l-46 -236h44l-14 -76h-45zM589 149h97l25 124z" />
    <glyph glyph-name="threequarters" unicode="&#xbe;" horiz-adv-x="812" 
d="M237 253c-98 0 -151 51 -152 130h99c1 -32 18 -51 57 -51c41 0 64 25 64 52c0 25 -16 41 -65 41h-29l14 68h23c65 0 77 27 77 50c0 22 -14 33 -40 33c-33 0 -54 -17 -65 -47h-99c24 84 89 129 172 129c90 0 135 -48 135 -110c0 -35 -17 -68 -59 -88c26 -16 37 -44 37 -73
c0 -68 -62 -134 -169 -134zM175 0l559 643h114l-558 -643h-115zM758 0h-101l14 73h-170l18 89l224 223h90l-46 -236h44l-14 -76h-45zM589 149h97l25 124z" />
    <glyph glyph-name="plus" unicode="+" horiz-adv-x="576" 
d="M137 271l19 99h151l30 153h106l-30 -153h150l-19 -99h-150l-30 -154h-106l30 154h-151z" />
    <glyph glyph-name="minus" unicode="&#x2212;" horiz-adv-x="576" 
d="M137 271l19 99h407l-19 -99h-407z" />
    <glyph glyph-name="multiply" unicode="&#xd7;" horiz-adv-x="576" 
d="M192 122l-62 72l151 129l-102 126l79 67l102 -125l148 127l62 -72l-150 -129l102 -125l-80 -68l-101 125z" />
    <glyph glyph-name="divide" unicode="&#xf7;" horiz-adv-x="576" 
d="M323 460l20 103h109l-20 -103h-109zM137 272l19 96h407l-19 -96h-407zM247 70l20 103h109l-20 -103h-109z" />
    <glyph glyph-name="equal" unicode="=" horiz-adv-x="576" 
d="M158 378l19 99h407l-20 -99h-406zM116 163l19 99h407l-19 -99h-407z" />
    <glyph glyph-name="logicalnot" unicode="&#xac;" horiz-adv-x="576" 
d="M137 271l19 99h407l-9 -47l-2 -9l-8 -43l-30 -154h-106l30 154h-301z" />
    <glyph glyph-name="asciitilde" unicode="~" horiz-adv-x="576" 
d="M137 272l19 96c41 25 75 35 104 35c78 0 127 -68 198 -68c29 0 64 10 105 33l-19 -96c-41 -24 -75 -34 -104 -34c-78 0 -127 68 -198 68c-29 0 -63 -10 -105 -34z" />
    <glyph glyph-name="less" unicode="&#x3c;" horiz-adv-x="576" 
d="M505 72l-368 200l19 97l446 200l-23 -116l-309 -135l256 -136z" />
    <glyph glyph-name="greater" unicode="&#x3e;" horiz-adv-x="576" 
d="M99 72l22 116l310 136l-258 135l22 110l368 -200l-19 -97z" />
    <glyph glyph-name="plusminus" unicode="&#xb1;" horiz-adv-x="576" 
d="M148 326l19 99h150l30 154h106l-30 -154h151l-20 -99h-150l-30 -154h-105l30 154h-151zM84 0l20 99h406l-19 -99h-407z" />
    <glyph glyph-name="asciicircum" unicode="^" horiz-adv-x="576" 
d="M162 373l209 307h97l90 -307h-104l-54 202l-134 -202h-104z" />
    <glyph glyph-name="notequal" unicode="&#x2260;" horiz-adv-x="576" 
d="M116 163l19 99h126l73 116h-176l19 99h221l43 68h105l-43 -68h81l-20 -99h-125l-73 -116h176l-19 -99h-221l-43 -68h-105l43 68h-81z" />
    <glyph glyph-name="approxequal" unicode="&#x2248;" horiz-adv-x="576" 
d="M158 380l19 96c41 24 75 34 104 34c77 0 127 -68 198 -68c29 0 64 10 105 34l-19 -96c-42 -25 -76 -35 -105 -35c-77 0 -126 68 -198 68c-29 0 -63 -10 -104 -33zM116 164l19 97c41 24 75 34 104 34c78 0 127 -68 198 -68c29 0 63 10 105 34l-19 -97
c-41 -24 -75 -34 -104 -34c-78 0 -128 68 -199 68c-29 0 -63 -10 -104 -34z" />
    <glyph glyph-name="lessequal" unicode="&#x2264;" horiz-adv-x="576" 
d="M518 135l-371 188l19 97l444 189l-23 -117l-305 -123l257 -124zM84 0l20 99h406l-19 -99h-407z" />
    <glyph glyph-name="greaterequal" unicode="&#x2265;" horiz-adv-x="576" 
d="M111 135l22 117l306 124l-258 123l22 110l370 -189l-19 -97zM491 0h-407l20 99h406z" />
    <glyph glyph-name="infinity" unicode="&#x221e;" horiz-adv-x="740" 
d="M324 517c59 0 104 -22 131 -59c38 36 89 59 148 59c110 0 174 -62 174 -160c0 -118 -90 -231 -236 -231c-59 0 -104 22 -131 59c-38 -36 -89 -59 -147 -59c-111 0 -174 62 -174 161c0 118 89 230 235 230zM204 297c0 -44 26 -71 75 -71c64 0 107 59 107 120
c0 44 -25 71 -69 71c-70 0 -113 -58 -113 -120zM662 347c0 43 -27 70 -75 70c-65 0 -108 -58 -108 -120c0 -44 25 -71 70 -71c69 0 113 58 113 121z" />
    <glyph glyph-name="lozenge" unicode="&#x25ca;" horiz-adv-x="562" 
d="M361 0h-161l-104 321l229 322h161l104 -322zM452 321l-58 202l-7 39l-22 -39l-140 -202l61 -202l7 -38l22 38z" />
    <glyph glyph-name="radical" unicode="&#x221a;" horiz-adv-x="649" 
d="M613 643h131l-367 -643h-169l-97 414h137l55 -295l6 -37l20 37z" />
    <glyph glyph-name="integral" unicode="&#x222b;" horiz-adv-x="376" 
d="M242 -54c-24 -121 -90 -182 -192 -182c-33 0 -56 6 -67 13l16 83h11c70 0 92 29 104 86l102 530c24 121 90 182 192 182c33 0 57 -7 68 -13l-17 -83h-10c-71 0 -93 -29 -104 -86z" />
    <glyph glyph-name="partialdiff" unicode="&#x2202;" 
d="M298 -15c-147 0 -228 77 -228 191c0 145 117 264 296 264c27 0 51 -2 74 -7c-35 77 -98 145 -186 210h163c117 -99 179 -225 179 -371c0 -165 -124 -287 -298 -287zM308 91c92 0 152 75 152 154c0 58 -37 89 -105 89c-95 0 -152 -75 -152 -154c0 -57 36 -89 105 -89z" />
    <glyph glyph-name="product" unicode="&#x220f;" horiz-adv-x="665" 
d="M32 -181l160 824h530l-160 -824h-134l139 714h-261l-139 -714h-135z" />
    <glyph glyph-name="pi" unicode="&#x3c0;" horiz-adv-x="654" 
d="M94 0l85 440h-83l18 96h630l-18 -96h-113l-50 -259c-3 -13 -4 -24 -4 -34c0 -37 19 -52 73 -52h25l-18 -95c-16 -7 -47 -12 -79 -12c-87 0 -133 45 -133 130c0 18 2 38 7 60l50 262h-177l-85 -440h-128z" />
    <glyph glyph-name="mu" unicode="&#x3bc;" horiz-adv-x="579" 
d="M143 -220h-128l147 756h129l-64 -332c-3 -14 -5 -27 -5 -39c0 -48 25 -75 75 -75c66 0 120 58 137 126l62 320h128l-104 -536h-128l11 57c-46 -49 -102 -72 -158 -72c-22 0 -42 3 -60 9z" />
    <glyph glyph-name="summation" unicode="&#x2211;" horiz-adv-x="605" 
d="M-14 -205l328 438l-163 410h519l-21 -108h-319l122 -311l-238 -322h312l-21 -107h-519z" />
    <glyph glyph-name="Ohm" unicode="&#x2126;" horiz-adv-x="760" 
d="M338 0h-304l21 109h123c-41 42 -64 101 -64 172c0 202 148 377 384 377c181 0 283 -104 283 -254c0 -119 -65 -229 -159 -295h124l-21 -109h-304l19 95c113 50 206 159 206 299c0 94 -58 156 -159 156c-157 0 -243 -137 -243 -266c0 -90 46 -153 113 -189z" />
    <glyph glyph-name="Omega" unicode="&#x3a9;" horiz-adv-x="760" 
d="M338 0h-304l21 109h123c-41 42 -64 101 -64 172c0 202 148 377 384 377c181 0 283 -104 283 -254c0 -119 -65 -229 -159 -295h124l-21 -109h-304l19 95c113 50 206 159 206 299c0 94 -58 156 -159 156c-157 0 -243 -137 -243 -266c0 -90 46 -153 113 -189z" />
    <glyph glyph-name="increment" unicode="&#x2206;" horiz-adv-x="673" 
d="M541 643l111 -643h-631l361 643h159zM404 441l-185 -337h279l-53 337l-7 71z" />
    <glyph glyph-name="Delta" unicode="&#x394;" horiz-adv-x="673" 
d="M541 643l111 -643h-631l361 643h159zM404 441l-185 -337h279l-53 337l-7 71z" />
    <glyph glyph-name="litre" unicode="&#x2113;" horiz-adv-x="536" 
d="M64 207c18 3 36 6 53 10c5 239 125 441 301 441c107 0 159 -69 159 -156c0 -147 -151 -273 -329 -341c7 -46 29 -71 64 -71c42 0 78 27 101 85h115c-44 -127 -130 -190 -227 -190c-95 0 -154 54 -175 140c-27 -6 -54 -11 -81 -14zM397 553c-68 0 -136 -138 -150 -295
c129 55 202 139 202 229c0 37 -16 66 -52 66z" />
    <glyph glyph-name="estimated" unicode="&#x212e;" horiz-adv-x="753" 
d="M139 244c0 150 138 259 286 259c159 0 287 -122 287 -259v-7h-465c-2 0 -3 0 -3 -2v-141c0 -6 1 -11 6 -17c43 -47 106 -74 176 -74c71 0 137 29 185 83h41c-52 -59 -135 -99 -227 -99c-153 0 -286 109 -286 257zM600 414c-48 45 -108 73 -174 73c-31 0 -60 -6 -88 -17
c-33 -14 -94 -49 -94 -77v-138c0 -3 1 -4 3 -4h357c2 0 3 1 3 4v141c0 6 -3 11 -7 18z" />
    <glyph glyph-name="ITF" unicode="&#xf8ff;" horiz-adv-x="1739" 
d="M110 0v700h216v-700h-216zM371 496v204h216v-204h-216zM631 0v700h217v-700h-217zM892 496v204h216v-204h-216zM1152 0v700h217v-700h-217zM1413 496v204h216v-204h-216zM1413 247v205h216v-205h-216z" />
    </font>
</defs>
</svg>
