<?xml version="1.0" standalone="no"?>
<!DOCTYPE svg PUBLIC "-//W3C//DTD SVG 1.1//EN" "http://www.w3.org/Graphics/SVG/1.1/DTD/svg11.dtd" >
<svg xmlns="http://www.w3.org/2000/svg" xmlns:xlink="http://www.w3.org/1999/xlink" version="1.1">
<metadata>
Created by FontForge 20191125 at Tue Apr 20 16:47:26 2021
 By convertio
Copyright 2015-2021 Indian Type Foundry. All rights reserved.
</metadata>
<defs>
<font id="Switzer-Regular" horiz-adv-x="572" >
  <font-face 
    font-family="Switzer"
    font-weight="400"
    font-stretch="normal"
    units-per-em="1000"
    panose-1="0 0 0 0 0 0 0 0 0 0"
    ascent="800"
    descent="-200"
    x-height="531"
    cap-height="680"
    bbox="-230 -233 1629 952"
    underline-thickness="50"
    underline-position="-100"
    stemh="70"
    stemv="89"
    unicode-range="U+000D-FB02"
  />
<missing-glyph horiz-adv-x="200" 
 />
    <glyph glyph-name="fi" unicode="fi" horiz-adv-x="500" 
d="M5 461v70h74v36c0 112 46 165 144 165c22 0 40 -4 49 -8v-63h-9c-77 0 -96 -30 -96 -94v-36h105v-70h-105v-461h-88v461h-74zM342 602v118h88v-118h-88zM342 0v531h88v-531h-88z" />
    <glyph glyph-name="fl" unicode="fl" horiz-adv-x="500" 
d="M5 461v70h74v36c0 112 46 165 144 165c22 0 40 -4 49 -8v-63h-9c-77 0 -96 -30 -96 -94v-36h105v-70h-105v-461h-88v461h-74zM342 0v720h88v-720h-88z" />
    <glyph glyph-name=".notdef" horiz-adv-x="200" 
 />
    <glyph glyph-name=".null" horiz-adv-x="0" 
 />
    <glyph glyph-name=".null" horiz-adv-x="0" 
 />
    <glyph glyph-name="CR" unicode="&#xd;" horiz-adv-x="0" 
 />
    <glyph glyph-name="space" unicode=" " horiz-adv-x="200" 
 />
    <glyph glyph-name="nbspace" unicode="&#xa0;" horiz-adv-x="200" 
 />
    <glyph glyph-name="A" unicode="A" horiz-adv-x="681" 
d="M565 0l-64 163h-326l-64 -163h-91l267 680h106l268 -680h-96zM318 531l-115 -294h270l-115 294l-20 60z" />
    <glyph glyph-name="B" unicode="B" horiz-adv-x="627" 
d="M78 0v680h239c140 0 230 -70 230 -181c0 -65 -35 -117 -100 -142c89 -23 137 -85 137 -166c0 -121 -88 -191 -233 -191h-273zM315 606h-145v-221h143c88 0 139 44 139 109c0 69 -52 112 -137 112zM335 311h-165v-237h179c87 0 141 47 141 119s-59 118 -155 118z" />
    <glyph glyph-name="C" unicode="C" horiz-adv-x="681" 
d="M638 484h-96c-25 83 -96 129 -183 129c-133 0 -212 -104 -212 -274s78 -272 212 -272c84 0 152 43 181 125h97c-38 -129 -149 -204 -279 -204c-190 0 -305 133 -305 351c0 217 117 353 309 353c131 0 243 -72 276 -208z" />
    <glyph glyph-name="D" unicode="D" horiz-adv-x="697" 
d="M78 0v680h222c211 0 343 -128 343 -341s-132 -339 -343 -339h-222zM300 75c156 0 249 98 249 264c0 168 -93 266 -249 266h-130v-530h130z" />
    <glyph glyph-name="E" unicode="E" horiz-adv-x="583" 
d="M78 0v680h461v-75h-369v-215h332v-75h-332v-240h369v-75h-461z" />
    <glyph glyph-name="F" unicode="F" horiz-adv-x="574" 
d="M78 0v680h461v-75h-369v-233h332v-75h-332v-297h-92z" />
    <glyph glyph-name="G" unicode="G" horiz-adv-x="701" 
d="M637 0h-69l-7 107c-42 -81 -117 -119 -207 -119c-184 0 -301 133 -301 351c0 217 117 353 309 353c131 0 243 -72 276 -208h-96c-25 83 -96 129 -183 129c-133 0 -212 -104 -212 -274s80 -272 215 -272c101 0 181 62 187 208h-174v73h262v-348z" />
    <glyph glyph-name="H" unicode="H" horiz-adv-x="696" 
d="M78 0v680h92v-292h356v292h92v-680h-92v313h-356v-313h-92z" />
    <glyph glyph-name="I" unicode="I" horiz-adv-x="248" 
d="M78 0v680h92v-680h-92z" />
    <glyph glyph-name="J" unicode="J" horiz-adv-x="529" 
d="M31 205h92c8 -86 46 -138 122 -138c77 0 122 58 122 155v458h92v-448c0 -151 -82 -244 -214 -244c-127 0 -206 85 -214 217z" />
    <glyph glyph-name="K" unicode="K" horiz-adv-x="622" 
d="M78 0v680h92v-328l311 328h116l-320 -334l328 -346h-124l-311 326v-326h-92z" />
    <glyph glyph-name="L" unicode="L" horiz-adv-x="544" 
d="M78 0v680h92v-605h342v-75h-434z" />
    <glyph glyph-name="M" unicode="M" horiz-adv-x="864" 
d="M78 0v680h127l209 -499l20 -61l21 61l208 499h123v-680h-92v569l-48 -134l-182 -435h-65l-182 436l-47 130v-566h-92z" />
    <glyph glyph-name="N" unicode="N" horiz-adv-x="696" 
d="M78 0v680h96l313 -480l39 -67v547h92v-680h-96l-312 477l-40 70v-547h-92z" />
    <glyph glyph-name="O" unicode="O" horiz-adv-x="748" 
d="M374 -12c-199 0 -321 134 -321 351s122 353 321 353c198 0 321 -136 321 -353s-123 -351 -321 -351zM374 67c142 0 227 103 227 272c0 170 -85 274 -227 274s-227 -104 -227 -274c0 -169 85 -272 227 -272z" />
    <glyph glyph-name="P" unicode="P" horiz-adv-x="602" 
d="M78 0v680h233c154 0 251 -82 251 -215c0 -137 -98 -217 -250 -217h-142v-248h-92zM310 605h-140v-282h137c101 0 160 54 160 141c0 86 -60 141 -157 141z" />
    <glyph glyph-name="Q" unicode="Q" horiz-adv-x="748" 
d="M374 -12c-199 0 -321 134 -321 351s122 353 321 353c198 0 321 -136 321 -353c0 -115 -34 -206 -96 -267l96 -80l-52 -63l-112 94c-45 -23 -98 -35 -157 -35zM374 67c32 0 60 5 86 15l-109 91l52 63l128 -107c45 47 70 119 70 210c0 170 -85 274 -227 274
s-227 -104 -227 -274c0 -169 85 -272 227 -272z" />
    <glyph glyph-name="R" unicode="R" horiz-adv-x="622" 
d="M78 0v680h245c143 0 234 -74 234 -192c0 -78 -38 -133 -102 -162c44 -20 67 -57 84 -124l51 -202h-97l-43 184c-20 85 -54 101 -136 101h-144v-285h-92zM321 605h-151v-245h149c90 0 143 48 143 123s-53 122 -141 122z" />
    <glyph glyph-name="S" unicode="S" horiz-adv-x="603" 
d="M148 514c0 -192 417 -43 417 -322c0 -131 -106 -204 -251 -204c-146 0 -246 67 -276 204h96c22 -81 83 -125 181 -125c102 0 156 45 156 113c0 208 -417 53 -417 328c0 98 82 184 232 184c131 0 236 -63 261 -208h-97c-21 90 -79 129 -166 129c-86 0 -136 -39 -136 -99z
" />
    <glyph glyph-name="T" unicode="T" horiz-adv-x="620" 
d="M264 0v602h-233v78h558v-78h-233v-602h-92z" />
    <glyph glyph-name="U" unicode="U" horiz-adv-x="683" 
d="M613 259c0 -168 -104 -271 -271 -271c-168 0 -272 103 -272 271v421h93v-421c0 -123 67 -197 179 -197s179 75 179 197v421h92v-421z" />
    <glyph glyph-name="V" unicode="V" horiz-adv-x="681" 
d="M116 680l207 -531l20 -60l20 60l207 531h91l-267 -680h-106l-268 680h96z" />
    <glyph glyph-name="W" unicode="W" horiz-adv-x="1050" 
d="M688 0l-147 502l-15 55l-16 -55l-147 -502h-109l-216 680h98l161 -532l14 -51l13 51l155 532h99l154 -532l13 -51l13 51l160 532h94l-216 -680h-108z" />
    <glyph glyph-name="X" unicode="X" horiz-adv-x="645" 
d="M516 0l-170 236l-28 43l-28 -43l-169 -236h-99l248 351l-230 329h107l150 -206l31 -49l31 49l147 206h99l-229 -327l247 -353h-107z" />
    <glyph glyph-name="Y" unicode="Y" horiz-adv-x="610" 
d="M259 0v251l-244 429h103l159 -283l31 -65l30 65l159 283h98l-244 -429v-251h-92z" />
    <glyph glyph-name="Z" unicode="Z" horiz-adv-x="616" 
d="M51 0v78l406 524h-406v78h513v-78l-406 -524h406v-78h-513z" />
    <glyph glyph-name="AE" unicode="&#xc6;" horiz-adv-x="958" 
d="M468 0v179h-273l-81 -179h-94l310 680h584v-75h-354v-218h317v-75h-317v-237h354v-75h-446zM228 254h240v351h-81z" />
    <glyph glyph-name="OE" unicode="&#x152;" horiz-adv-x="1077" 
d="M364 -12c-193 0 -311 134 -311 351s118 353 309 353c94 0 169 -36 219 -102v90h452v-75h-362v-218h325v-75h-325v-237h362v-75h-452v88c-50 -64 -125 -100 -217 -100zM364 62c136 0 217 105 217 277s-81 278 -217 278s-217 -106 -217 -278s81 -277 217 -277z" />
    <glyph glyph-name="Lslash" unicode="&#x141;" horiz-adv-x="544" 
d="M78 0v280l-63 -25v68l63 25v332h92v-295l138 56v-68l-138 -56v-242h342v-75h-434z" />
    <glyph glyph-name="Oslash" unicode="&#xd8;" horiz-adv-x="748" 
d="M79 -32l71 103c-63 61 -97 153 -97 268c0 217 122 353 321 353c66 0 123 -15 171 -43l43 63h81l-71 -104c62 -61 97 -154 97 -269c0 -217 -123 -351 -321 -351c-66 0 -124 15 -171 43l-43 -63h-81zM147 339c0 -80 19 -146 54 -192l296 432c-34 22 -75 34 -123 34
c-142 0 -227 -104 -227 -274zM374 67c142 0 227 103 227 272c0 81 -19 147 -55 194l-295 -432c34 -22 75 -34 123 -34z" />
    <glyph glyph-name="Eth" unicode="&#xd0;" horiz-adv-x="697" 
d="M78 0v313h-63v78h63v289h222c211 0 343 -128 343 -341s-132 -339 -343 -339h-222zM300 75c156 0 249 98 249 264c0 168 -93 266 -249 266h-130v-214h189v-78h-189v-238h130z" />
    <glyph glyph-name="Thorn" unicode="&#xde;" horiz-adv-x="602" 
d="M78 0v680h92v-108h141c154 0 251 -82 251 -215c0 -137 -98 -217 -250 -217h-142v-140h-92zM310 497h-140v-282h137c101 0 160 54 160 141c0 86 -60 141 -157 141z" />
    <glyph glyph-name="a" unicode="a" 
d="M151 358h-88c17 117 94 186 224 186c142 0 211 -83 211 -207v-209c0 -61 5 -99 19 -128h-93c-10 21 -13 52 -14 84c-45 -67 -117 -96 -181 -96c-110 0 -184 51 -184 152c0 73 40 126 118 152c72 24 145 30 247 31v12c0 86 -40 133 -131 133c-76 0 -117 -42 -128 -110z
M135 142c0 -49 41 -78 103 -78c98 0 172 77 172 168v25c-226 -2 -275 -50 -275 -115z" />
    <glyph glyph-name="b" unicode="b" horiz-adv-x="576" 
d="M158 0h-88v720h88v-255c35 50 86 79 149 79c141 0 226 -104 226 -277c0 -180 -87 -279 -226 -279c-63 0 -114 26 -149 75v-63zM301 468c-93 0 -143 -71 -143 -201c0 -129 52 -203 143 -203c92 0 142 72 142 203c0 128 -52 201 -142 201z" />
    <glyph glyph-name="c" unicode="c" horiz-adv-x="552" 
d="M509 348h-88c-14 81 -68 120 -138 120c-98 0 -150 -72 -150 -203c0 -129 55 -202 153 -202c71 0 122 38 139 114h88c-24 -132 -113 -189 -229 -189c-151 0 -241 105 -241 277c0 180 92 279 240 279c117 0 209 -66 226 -196z" />
    <glyph glyph-name="d" unicode="d" horiz-adv-x="576" 
d="M269 -12c-141 0 -226 104 -226 277c0 180 87 279 226 279c63 0 114 -26 149 -75v251h88v-720h-88v67c-35 -50 -86 -79 -149 -79zM275 64c93 0 143 71 143 201c0 129 -52 203 -143 203c-92 0 -142 -72 -142 -203c0 -128 52 -201 142 -201z" />
    <glyph glyph-name="e" unicode="e" 
d="M529 173c-29 -124 -118 -185 -239 -185c-154 0 -247 104 -247 277c0 180 93 279 242 279c150 0 240 -103 240 -272v-22h-392c5 -119 61 -186 157 -186c75 0 128 36 147 109h92zM285 468c-85 0 -136 -53 -149 -152h297c-12 98 -65 152 -148 152z" />
    <glyph glyph-name="f" unicode="f" horiz-adv-x="272" 
d="M5 461v70h74v36c0 112 46 165 144 165c22 0 40 -4 49 -8v-63h-9c-77 0 -96 -30 -96 -94v-36h105v-70h-105v-461h-88v461h-74z" />
    <glyph glyph-name="g" unicode="g" horiz-adv-x="577" 
d="M259 -4c-135 0 -216 103 -216 273c0 178 83 275 216 275c71 0 124 -25 159 -71v58h88v-547c0 -148 -95 -217 -217 -217c-125 0 -213 60 -232 181h88c11 -70 66 -108 143 -108c78 0 130 42 130 141v91c-37 -50 -91 -76 -159 -76zM275 72c93 0 143 70 143 198
c0 125 -52 198 -143 198c-92 0 -142 -70 -142 -199c0 -125 51 -197 142 -197z" />
    <glyph glyph-name="h" unicode="h" 
d="M70 0v720h88v-261c36 56 94 85 164 85c113 0 180 -66 180 -189v-355h-88v337c0 80 -36 132 -116 132c-88 0 -140 -79 -140 -155v-314h-88z" />
    <glyph glyph-name="i" unicode="i" horiz-adv-x="228" 
d="M70 602v118h88v-118h-88zM70 0v531h88v-531h-88z" />
    <glyph glyph-name="j" unicode="j" horiz-adv-x="228" 
d="M70 602v118h88v-118h-88zM158 -68c0 -112 -46 -165 -144 -165c-22 0 -40 4 -49 8v63h9c77 0 96 30 96 94v599h88v-599z" />
    <glyph glyph-name="k" unicode="k" horiz-adv-x="524" 
d="M70 0v720h88v-417l229 228h108l-242 -237l256 -294h-112l-239 271v-271h-88z" />
    <glyph glyph-name="l" unicode="l" horiz-adv-x="228" 
d="M70 0v720h88v-720h-88z" />
    <glyph glyph-name="m" unicode="m" horiz-adv-x="868" 
d="M70 0v531h88v-68c34 54 87 81 152 81c73 0 126 -32 151 -94c35 62 93 94 164 94c108 0 173 -66 173 -189v-355h-88v337c0 80 -32 132 -104 132c-80 0 -128 -79 -128 -155v-314h-88v337c0 80 -32 132 -104 132c-80 0 -128 -79 -128 -155v-314h-88z" />
    <glyph glyph-name="n" unicode="n" 
d="M70 0v531h88v-72c36 56 94 85 164 85c113 0 180 -66 180 -189v-355h-88v337c0 80 -36 132 -116 132c-88 0 -140 -79 -140 -155v-314h-88z" />
    <glyph glyph-name="o" unicode="o" 
d="M286 -12c-152 0 -243 104 -243 277c0 180 94 279 243 279c152 0 243 -106 243 -279c0 -179 -94 -277 -243 -277zM286 64c99 0 153 71 153 201c0 129 -55 203 -153 203c-99 0 -153 -72 -153 -203c0 -128 55 -201 153 -201z" />
    <glyph glyph-name="p" unicode="p" horiz-adv-x="577" 
d="M159 -220h-88v751h88v-66c35 50 86 79 149 79c141 0 226 -104 226 -277c0 -180 -87 -279 -226 -279c-63 0 -114 26 -149 75v-283zM302 468c-93 0 -143 -71 -143 -201c0 -129 52 -203 143 -203c92 0 142 72 142 203c0 128 -52 201 -142 201z" />
    <glyph glyph-name="q" unicode="q" horiz-adv-x="577" 
d="M269 -12c-141 0 -226 104 -226 277c0 180 87 279 226 279c63 0 114 -26 149 -75v62h88v-751h-88v287c-35 -50 -86 -79 -149 -79zM275 64c93 0 143 71 143 201c0 129 -52 203 -143 203c-92 0 -142 -72 -142 -203c0 -128 52 -201 142 -201z" />
    <glyph glyph-name="r" unicode="r" horiz-adv-x="373" 
d="M70 0v531h88v-82c36 65 93 95 157 95c21 0 40 -5 50 -13v-79c-15 5 -34 7 -55 7c-106 0 -152 -66 -152 -162v-297h-88z" />
    <glyph glyph-name="s" unicode="s" horiz-adv-x="515" 
d="M135 395c0 -148 345 -26 345 -245c0 -99 -88 -162 -213 -162c-126 0 -214 60 -234 185h88c12 -74 67 -115 149 -115c80 0 122 36 122 86c0 145 -341 25 -341 245c0 81 63 155 193 155c115 0 200 -54 217 -186h-88c-13 83 -59 114 -134 114c-66 0 -104 -33 -104 -77z" />
    <glyph glyph-name="t" unicode="t" horiz-adv-x="301" 
d="M82 153v308h-74v70h74v122h88v-122h117v-70h-117v-308c0 -64 19 -94 97 -94h18v-63c-10 -5 -32 -8 -57 -8c-99 0 -146 53 -146 165z" />
    <glyph glyph-name="u" unicode="u" horiz-adv-x="566" 
d="M408 217v314h88v-531h-88v72c-36 -56 -92 -84 -161 -84c-111 0 -177 65 -177 188v355h88v-337c0 -80 35 -131 113 -131c86 0 137 78 137 154z" />
    <glyph glyph-name="v" unicode="v" horiz-adv-x="514" 
d="M203 0l-198 531h95l147 -412l13 -46l13 46l147 412h89l-198 -531h-108z" />
    <glyph glyph-name="w" unicode="w" horiz-adv-x="810" 
d="M530 0l-115 397l-12 60l-12 -60l-114 -397h-109l-158 531h95l109 -412l13 -54l13 54l121 412h95l121 -412l12 -52l11 52l109 412h91l-159 -531h-111z" />
    <glyph glyph-name="x" unicode="x" horiz-adv-x="523" 
d="M408 0l-127 177l-26 41l-26 -41l-124 -177h-100l202 276l-186 255h110l110 -156l27 -43l26 43l108 156h100l-186 -255l202 -276h-110z" />
    <glyph glyph-name="y" unicode="y" horiz-adv-x="527" 
d="M94 -232c-20 0 -41 5 -52 8v68h27c65 0 83 13 135 132l18 41l-217 514h95l144 -351l24 -71l24 71l140 351h90l-248 -601c-53 -128 -88 -162 -180 -162z" />
    <glyph glyph-name="z" unicode="z" horiz-adv-x="498" 
d="M30 0v69l315 392h-303v70h408v-70l-315 -392h333v-69h-438z" />
    <glyph glyph-name="ae" unicode="&#xe6;" horiz-adv-x="937" 
d="M154 357h-88c16 116 95 187 227 187c86 0 145 -31 178 -83c40 54 102 83 180 83c150 0 240 -100 240 -266v-27h-389c5 -120 61 -187 154 -187c75 0 127 36 147 109h91c-28 -124 -117 -185 -238 -185c-100 0 -173 47 -210 129c-44 -90 -136 -129 -225 -129
c-105 0 -176 59 -176 152c0 69 40 122 118 148c70 23 147 29 251 29v18c0 86 -39 133 -125 133c-83 0 -124 -44 -135 -111zM651 468c-84 0 -134 -53 -146 -151h296c-11 96 -64 151 -150 151zM239 64c99 0 175 70 175 153v34c-232 -2 -281 -47 -281 -108
c0 -49 42 -79 106 -79z" />
    <glyph glyph-name="oe" unicode="&#x153;" horiz-adv-x="968" 
d="M286 -12c-152 0 -243 104 -243 277c0 180 94 279 243 279c92 0 160 -43 198 -120c37 79 107 120 198 120c150 0 240 -103 240 -272v-31h-393c7 -113 64 -177 158 -177c75 0 127 36 147 109h91c-28 -124 -118 -185 -238 -185c-94 0 -164 43 -202 119
c-38 -78 -107 -119 -199 -119zM286 64c99 0 153 71 153 201c0 129 -55 203 -153 203c-99 0 -153 -72 -153 -203c0 -128 55 -201 153 -201zM682 468c-89 0 -141 -57 -152 -161h302c-10 103 -64 161 -150 161z" />
    <glyph glyph-name="lslash" unicode="&#x142;" horiz-adv-x="228" 
d="M70 0v306l-60 -31v68l60 31v346h88v-302l60 31v-68l-60 -31v-350h-88z" />
    <glyph glyph-name="oslash" unicode="&#xf8;" horiz-adv-x="581" 
d="M290 -12c-37 0 -71 6 -101 18l-28 -54h-65l43 82c-62 47 -96 127 -96 231c0 180 96 279 247 279c38 0 72 -6 102 -18l28 53h64l-42 -81c62 -47 96 -127 96 -233c0 -179 -96 -277 -248 -277zM130 265c0 -68 17 -121 48 -155l178 345c-19 9 -41 13 -66 13
c-103 0 -160 -72 -160 -203zM290 64c104 0 160 71 160 201c0 69 -16 122 -47 156l-178 -345c19 -8 41 -12 65 -12z" />
    <glyph glyph-name="eth" unicode="&#xf0;" 
d="M286 -12c-152 0 -243 99 -243 263c0 171 94 264 243 264c32 0 62 -4 89 -13c-24 37 -53 72 -87 105l-125 -48v57l81 31c-31 26 -65 50 -102 73h121c21 -14 40 -28 59 -43l110 43v-57l-65 -25c106 -104 162 -232 162 -378c0 -175 -94 -272 -243 -272zM286 64
c99 0 153 66 153 187c0 119 -55 188 -153 188c-99 0 -153 -66 -153 -188c0 -119 55 -187 153 -187z" />
    <glyph glyph-name="thorn" unicode="&#xfe;" horiz-adv-x="576" 
d="M158 -220h-88v940h88v-255c35 50 86 79 149 79c141 0 226 -104 226 -277c0 -180 -87 -279 -226 -279c-63 0 -114 26 -149 75v-283zM301 468c-93 0 -143 -71 -143 -201c0 -129 52 -203 143 -203c92 0 142 72 142 203c0 128 -52 201 -142 201z" />
    <glyph glyph-name="germandbls" unicode="&#xdf;" horiz-adv-x="604" 
d="M566 195c0 -122 -81 -207 -246 -207c-36 0 -75 3 -105 12v64h88c120 0 176 51 176 133c0 69 -34 139 -182 139h-23v70h9c112 0 148 55 148 119c0 75 -45 127 -135 127s-138 -51 -138 -152v-500h-88v495c0 151 82 233 224 233c154 0 225 -85 225 -199
c0 -63 -26 -116 -86 -148c99 -34 133 -105 133 -186z" />
    <glyph glyph-name="dotlessi" unicode="&#x131;" horiz-adv-x="228" 
d="M70 0v531h88v-531h-88z" />
    <glyph glyph-name="dotlessj" unicode="&#x237;" horiz-adv-x="228" 
d="M158 -68c0 -112 -46 -165 -144 -165c-22 0 -40 4 -49 8v63h9c77 0 96 30 96 94v599h88v-599z" />
    <glyph glyph-name="Aacute" unicode="&#xc1;" horiz-adv-x="681" 
d="M301 750l94 118h112l-120 -118h-86zM565 0l-64 163h-326l-64 -163h-91l267 680h106l268 -680h-96zM318 531l-115 -294h270l-115 294l-20 60z" />
    <glyph glyph-name="Acircumflex" unicode="&#xc2;" horiz-adv-x="681" 
d="M421 750l-71 74l-72 -74h-82l99 118h108l100 -118h-82zM565 0l-64 163h-326l-64 -163h-91l267 680h106l268 -680h-96zM318 531l-115 -294h270l-115 294l-20 60z" />
    <glyph glyph-name="Adieresis" unicode="&#xc4;" horiz-adv-x="681" 
d="M252 750v118h77v-118h-77zM369 750v118h77v-118h-77zM565 0l-64 163h-326l-64 -163h-91l267 680h106l268 -680h-96zM318 531l-115 -294h270l-115 294l-20 60z" />
    <glyph glyph-name="Agrave" unicode="&#xc0;" horiz-adv-x="681" 
d="M397 750h-86l-120 118h112zM565 0l-64 163h-326l-64 -163h-91l267 680h106l268 -680h-96zM318 531l-115 -294h270l-115 294l-20 60z" />
    <glyph glyph-name="Aring" unicode="&#xc5;" horiz-adv-x="681" 
d="M349 750c-58 0 -101 42 -101 100c0 59 43 102 101 102s101 -44 101 -102s-43 -100 -101 -100zM349 799c28 0 48 21 48 51s-20 52 -48 52s-48 -21 -48 -52c0 -30 20 -51 48 -51zM565 0l-64 163h-326l-64 -163h-91l267 680h106l268 -680h-96zM318 531l-115 -294h270
l-115 294l-20 60z" />
    <glyph glyph-name="Atilde" unicode="&#xc3;" horiz-adv-x="681" 
d="M249 750h-53c0 94 46 118 83 118c72 0 99 -61 136 -61c15 0 32 11 34 61h53c0 -95 -46 -118 -83 -118c-71 0 -98 60 -136 60c-16 0 -32 -11 -34 -60zM565 0l-64 163h-326l-64 -163h-91l267 680h106l268 -680h-96zM318 531l-115 -294h270l-115 294l-20 60z" />
    <glyph glyph-name="Abreve" unicode="&#x102;" horiz-adv-x="681" 
d="M204 868h66c4 -43 40 -60 80 -60c39 0 74 17 79 60h65c-14 -88 -78 -118 -144 -118c-67 0 -132 30 -146 118zM565 0l-64 163h-326l-64 -163h-91l267 680h106l268 -680h-96zM318 531l-115 -294h270l-115 294l-20 60z" />
    <glyph glyph-name="Amacron" unicode="&#x100;" horiz-adv-x="681" 
d="M229 775v69h240v-69h-240zM565 0l-64 163h-326l-64 -163h-91l267 680h106l268 -680h-96zM318 531l-115 -294h270l-115 294l-20 60z" />
    <glyph glyph-name="Aogonek" unicode="&#x104;" horiz-adv-x="681" 
d="M530 -110c0 -40 27 -68 76 -68c28 0 43 5 55 11v-54c-25 -9 -44 -12 -72 -12c-73 0 -130 39 -130 105c0 47 37 96 101 140l-59 151h-326l-64 -163h-91l267 680h106l268 -680h-56c-59 -44 -75 -77 -75 -110zM318 531l-115 -294h270l-115 294l-20 60z" />
    <glyph glyph-name="Ccedilla" unicode="&#xc7;" horiz-adv-x="681" 
d="M363 -133c0 25 -23 34 -85 40l44 83c-168 15 -269 145 -269 349c0 217 117 353 309 353c131 0 243 -72 276 -208h-96c-25 83 -96 129 -183 129c-133 0 -212 -104 -212 -274s78 -272 212 -272c84 0 152 43 181 125h97c-36 -123 -138 -197 -260 -203l-25 -45
c55 -7 83 -32 83 -72c0 -62 -66 -90 -195 -93v45c81 2 123 16 123 43z" />
    <glyph glyph-name="Cacute" unicode="&#x106;" horiz-adv-x="681" 
d="M308 750l94 118h112l-120 -118h-86zM638 484h-96c-25 83 -96 129 -183 129c-133 0 -212 -104 -212 -274s78 -272 212 -272c84 0 152 43 181 125h97c-38 -129 -149 -204 -279 -204c-190 0 -305 133 -305 351c0 217 117 353 309 353c131 0 243 -72 276 -208z" />
    <glyph glyph-name="Ccaron" unicode="&#x10c;" horiz-adv-x="681" 
d="M428 868h82l-100 -118h-108l-99 118h82l72 -75zM638 484h-96c-25 83 -96 129 -183 129c-133 0 -212 -104 -212 -274s78 -272 212 -272c84 0 152 43 181 125h97c-38 -129 -149 -204 -279 -204c-190 0 -305 133 -305 351c0 217 117 353 309 353c131 0 243 -72 276 -208z
" />
    <glyph glyph-name="Ccircumflex" unicode="&#x108;" horiz-adv-x="681" 
d="M428 750l-71 74l-72 -74h-82l99 118h108l100 -118h-82zM638 484h-96c-25 83 -96 129 -183 129c-133 0 -212 -104 -212 -274s78 -272 212 -272c84 0 152 43 181 125h97c-38 -129 -149 -204 -279 -204c-190 0 -305 133 -305 351c0 217 117 353 309 353
c131 0 243 -72 276 -208z" />
    <glyph glyph-name="Cdotaccent" unicode="&#x10a;" horiz-adv-x="681" 
d="M312 750v118h88v-118h-88zM638 484h-96c-25 83 -96 129 -183 129c-133 0 -212 -104 -212 -274s78 -272 212 -272c84 0 152 43 181 125h97c-38 -129 -149 -204 -279 -204c-190 0 -305 133 -305 351c0 217 117 353 309 353c131 0 243 -72 276 -208z" />
    <glyph glyph-name="Dcaron" unicode="&#x10e;" horiz-adv-x="697" 
d="M381 868h82l-100 -118h-108l-99 118h82l72 -75zM78 0v680h222c211 0 343 -128 343 -341s-132 -339 -343 -339h-222zM300 75c156 0 249 98 249 264c0 168 -93 266 -249 266h-130v-530h130z" />
    <glyph glyph-name="Dcroat" unicode="&#x110;" horiz-adv-x="697" 
d="M78 0v313h-63v78h63v289h222c211 0 343 -128 343 -341s-132 -339 -343 -339h-222zM300 75c156 0 249 98 249 264c0 168 -93 266 -249 266h-130v-214h189v-78h-189v-238h130z" />
    <glyph glyph-name="Eacute" unicode="&#xc9;" horiz-adv-x="583" 
d="M264 750l94 118h112l-120 -118h-86zM78 0v680h461v-75h-369v-215h332v-75h-332v-240h369v-75h-461z" />
    <glyph glyph-name="Ecircumflex" unicode="&#xca;" horiz-adv-x="583" 
d="M384 750l-71 74l-72 -74h-82l99 118h108l100 -118h-82zM78 0v680h461v-75h-369v-215h332v-75h-332v-240h369v-75h-461z" />
    <glyph glyph-name="Edieresis" unicode="&#xcb;" horiz-adv-x="583" 
d="M215 750v118h77v-118h-77zM332 750v118h77v-118h-77zM78 0v680h461v-75h-369v-215h332v-75h-332v-240h369v-75h-461z" />
    <glyph glyph-name="Egrave" unicode="&#xc8;" horiz-adv-x="583" 
d="M360 750h-86l-120 118h112zM78 0v680h461v-75h-369v-215h332v-75h-332v-240h369v-75h-461z" />
    <glyph glyph-name="Ebreve" unicode="&#x114;" horiz-adv-x="583" 
d="M167 868h66c5 -43 40 -60 80 -60s74 17 79 60h65c-14 -88 -78 -118 -144 -118c-67 0 -132 30 -146 118zM78 0v680h461v-75h-369v-215h332v-75h-332v-240h369v-75h-461z" />
    <glyph glyph-name="Ecaron" unicode="&#x11a;" horiz-adv-x="583" 
d="M384 868h82l-100 -118h-108l-99 118h82l72 -75zM78 0v680h461v-75h-369v-215h332v-75h-332v-240h369v-75h-461z" />
    <glyph glyph-name="Edotaccent" unicode="&#x116;" horiz-adv-x="583" 
d="M268 750v118h88v-118h-88zM78 0v680h461v-75h-369v-215h332v-75h-332v-240h369v-75h-461z" />
    <glyph glyph-name="Emacron" unicode="&#x112;" horiz-adv-x="583" 
d="M192 775v69h240v-69h-240zM78 0v680h461v-75h-369v-215h332v-75h-332v-240h369v-75h-461z" />
    <glyph glyph-name="Eogonek" unicode="&#x118;" horiz-adv-x="583" 
d="M78 0v680h461v-75h-369v-215h332v-75h-332v-240h369v-75h-58c-59 -44 -75 -77 -75 -110c0 -40 27 -68 76 -68c28 0 43 5 55 11v-54c-25 -9 -44 -12 -72 -12c-73 0 -130 39 -130 105c0 42 30 87 84 128h-341z" />
    <glyph glyph-name="Gbreve" unicode="&#x11e;" horiz-adv-x="701" 
d="M206 868h66c4 -43 40 -60 80 -60c39 0 74 17 79 60h65c-14 -88 -78 -118 -144 -118c-67 0 -132 30 -146 118zM637 0h-69l-7 107c-42 -81 -117 -119 -207 -119c-184 0 -301 133 -301 351c0 217 117 353 309 353c131 0 243 -72 276 -208h-96c-25 83 -96 129 -183 129
c-133 0 -212 -104 -212 -274s80 -272 215 -272c101 0 181 62 187 208h-174v73h262v-348z" />
    <glyph glyph-name="Gcircumflex" unicode="&#x11c;" horiz-adv-x="701" 
d="M423 750l-71 74l-72 -74h-82l99 118h108l100 -118h-82zM637 0h-69l-7 107c-42 -81 -117 -119 -207 -119c-184 0 -301 133 -301 351c0 217 117 353 309 353c131 0 243 -72 276 -208h-96c-25 83 -96 129 -183 129c-133 0 -212 -104 -212 -274s80 -272 215 -272
c101 0 181 62 187 208h-174v73h262v-348z" />
    <glyph glyph-name="Gcommaaccent" unicode="&#x122;" horiz-adv-x="701" 
d="M637 0h-69l-7 107c-42 -81 -117 -119 -207 -119c-184 0 -301 133 -301 351c0 217 117 353 309 353c131 0 243 -72 276 -208h-96c-25 83 -96 129 -183 129c-133 0 -212 -104 -212 -274s80 -272 215 -272c101 0 181 62 187 208h-174v73h262v-348zM303 -148v70h99v-27
c0 -54 -16 -90 -42 -124h-46c18 25 30 50 30 81h-41z" />
    <glyph glyph-name="Gdotaccent" unicode="&#x120;" horiz-adv-x="701" 
d="M307 750v118h88v-118h-88zM637 0h-69l-7 107c-42 -81 -117 -119 -207 -119c-184 0 -301 133 -301 351c0 217 117 353 309 353c131 0 243 -72 276 -208h-96c-25 83 -96 129 -183 129c-133 0 -212 -104 -212 -274s80 -272 215 -272c101 0 181 62 187 208h-174v73h262v-348z
" />
    <glyph glyph-name="Hbar" unicode="&#x126;" horiz-adv-x="696" 
d="M78 0v517h-40v64h40v99h92v-99h356v99h92v-99h40v-64h-40v-517h-92v313h-356v-313h-92zM170 388h356v129h-356v-129z" />
    <glyph glyph-name="Hcircumflex" unicode="&#x124;" horiz-adv-x="696" 
d="M420 750l-71 74l-72 -74h-82l99 118h108l100 -118h-82zM78 0v680h92v-292h356v292h92v-680h-92v313h-356v-313h-92z" />
    <glyph glyph-name="Iacute" unicode="&#xcd;" horiz-adv-x="248" 
d="M76 750l94 118h112l-120 -118h-86zM78 0v680h92v-680h-92z" />
    <glyph glyph-name="Icircumflex" unicode="&#xce;" horiz-adv-x="248" 
d="M196 750l-71 74l-72 -74h-82l99 118h108l100 -118h-82zM78 0v680h92v-680h-92z" />
    <glyph glyph-name="Idieresis" unicode="&#xcf;" horiz-adv-x="248" 
d="M27 750v118h77v-118h-77zM144 750v118h77v-118h-77zM78 0v680h92v-680h-92z" />
    <glyph glyph-name="Igrave" unicode="&#xcc;" horiz-adv-x="248" 
d="M172 750h-86l-120 118h112zM78 0v680h92v-680h-92z" />
    <glyph glyph-name="Ibreve" unicode="&#x12c;" horiz-adv-x="248" 
d="M-21 868h66c5 -43 40 -60 80 -60s74 17 79 60h65c-14 -88 -78 -118 -144 -118c-67 0 -132 30 -146 118zM78 0v680h92v-680h-92z" />
    <glyph glyph-name="Idotaccent" unicode="&#x130;" horiz-adv-x="248" 
d="M80 750v118h88v-118h-88zM78 0v680h92v-680h-92z" />
    <glyph glyph-name="Imacron" unicode="&#x12a;" horiz-adv-x="248" 
d="M4 775v69h240v-69h-240zM78 0v680h92v-680h-92z" />
    <glyph glyph-name="Iogonek" unicode="&#x12e;" horiz-adv-x="248" 
d="M39 -110c0 -40 27 -68 76 -68c28 0 43 5 55 11v-54c-25 -9 -44 -12 -72 -12c-73 0 -130 39 -130 105c0 49 40 101 110 146v662h92v-680h-56c-59 -44 -75 -77 -75 -110z" />
    <glyph glyph-name="Itilde" unicode="&#x128;" horiz-adv-x="248" 
d="M24 750h-53c0 94 46 118 83 118c72 0 99 -61 136 -61c16 0 32 11 34 61h53c0 -95 -46 -118 -83 -118c-71 0 -98 60 -136 60c-16 0 -32 -11 -34 -60zM78 0v680h92v-680h-92z" />
    <glyph glyph-name="Jcircumflex" unicode="&#x134;" horiz-adv-x="529" 
d="M478 750l-71 74l-72 -74h-82l99 118h108l100 -118h-82zM31 205h92c8 -86 46 -138 122 -138c77 0 122 58 122 155v458h92v-448c0 -151 -82 -244 -214 -244c-127 0 -206 85 -214 217z" />
    <glyph glyph-name="IJ" unicode="&#x132;" horiz-adv-x="777" 
d="M78 0v680h92v-680h-92zM279 205h92c8 -86 46 -138 122 -138c77 0 122 58 122 155v458h92v-448c0 -151 -82 -244 -214 -244c-127 0 -206 85 -214 217z" />
    <glyph glyph-name="Kcommaaccent" unicode="&#x136;" horiz-adv-x="622" 
d="M78 0v680h92v-328l311 328h116l-320 -334l328 -346h-124l-311 326v-326h-92zM263 -148v70h99v-27c0 -54 -16 -90 -42 -124h-46c18 25 30 50 30 81h-41z" />
    <glyph glyph-name="Lacute" unicode="&#x139;" horiz-adv-x="544" 
d="M91 750l94 118h112l-120 -118h-86zM78 0v680h92v-605h342v-75h-434z" />
    <glyph glyph-name="Lcaron" unicode="&#x13d;" horiz-adv-x="544" 
d="M78 0v680h92v-605h342v-75h-434zM233 610v70h98v-27c0 -54 -16 -90 -41 -124h-46c22 29 29 50 29 81h-40z" />
    <glyph glyph-name="Lcommaaccent" unicode="&#x13b;" horiz-adv-x="544" 
d="M78 0v680h92v-605h342v-75h-434zM244 -148v70h99v-27c0 -54 -16 -90 -42 -124h-46c18 25 30 50 30 81h-41z" />
    <glyph glyph-name="Ldot" unicode="&#x13f;" horiz-adv-x="544" 
d="M78 0v680h92v-605h342v-75h-434zM338 245v117h88v-117h-88z" />
    <glyph glyph-name="Ntilde" unicode="&#xd1;" horiz-adv-x="696" 
d="M249 750h-53c0 94 46 118 83 118c72 0 99 -61 136 -61c15 0 32 11 34 61h53c0 -95 -46 -118 -83 -118c-71 0 -98 60 -136 60c-16 0 -32 -11 -34 -60zM78 0v680h96l313 -480l39 -67v547h92v-680h-96l-312 477l-40 70v-547h-92z" />
    <glyph glyph-name="Nacute" unicode="&#x143;" horiz-adv-x="696" 
d="M301 750l94 118h112l-120 -118h-86zM78 0v680h96l313 -480l39 -67v547h92v-680h-96l-312 477l-40 70v-547h-92z" />
    <glyph glyph-name="Ncaron" unicode="&#x147;" horiz-adv-x="696" 
d="M421 868h82l-100 -118h-108l-99 118h82l72 -75zM78 0v680h96l313 -480l39 -67v547h92v-680h-96l-312 477l-40 70v-547h-92z" />
    <glyph glyph-name="Ncommaaccent" unicode="&#x145;" horiz-adv-x="696" 
d="M78 0v680h96l313 -480l39 -67v547h92v-680h-96l-312 477l-40 70v-547h-92zM301 -148v70h99v-27c0 -54 -16 -90 -42 -124h-46c18 25 30 50 30 81h-41z" />
    <glyph glyph-name="Oacute" unicode="&#xd3;" horiz-adv-x="748" 
d="M326 750l94 118h112l-120 -118h-86zM374 -12c-199 0 -321 134 -321 351s122 353 321 353c198 0 321 -136 321 -353s-123 -351 -321 -351zM374 67c142 0 227 103 227 272c0 170 -85 274 -227 274s-227 -104 -227 -274c0 -169 85 -272 227 -272z" />
    <glyph glyph-name="Ocircumflex" unicode="&#xd4;" horiz-adv-x="748" 
d="M446 750l-71 74l-72 -74h-82l99 118h108l100 -118h-82zM374 -12c-199 0 -321 134 -321 351s122 353 321 353c198 0 321 -136 321 -353s-123 -351 -321 -351zM374 67c142 0 227 103 227 272c0 170 -85 274 -227 274s-227 -104 -227 -274c0 -169 85 -272 227 -272z" />
    <glyph glyph-name="Odieresis" unicode="&#xd6;" horiz-adv-x="748" 
d="M277 750v118h77v-118h-77zM394 750v118h77v-118h-77zM374 -12c-199 0 -321 134 -321 351s122 353 321 353c198 0 321 -136 321 -353s-123 -351 -321 -351zM374 67c142 0 227 103 227 272c0 170 -85 274 -227 274s-227 -104 -227 -274c0 -169 85 -272 227 -272z" />
    <glyph glyph-name="Ograve" unicode="&#xd2;" horiz-adv-x="748" 
d="M422 750h-86l-120 118h112zM374 -12c-199 0 -321 134 -321 351s122 353 321 353c198 0 321 -136 321 -353s-123 -351 -321 -351zM374 67c142 0 227 103 227 272c0 170 -85 274 -227 274s-227 -104 -227 -274c0 -169 85 -272 227 -272z" />
    <glyph glyph-name="Otilde" unicode="&#xd5;" horiz-adv-x="748" 
d="M274 750h-53c0 94 46 118 83 118c72 0 99 -61 136 -61c16 0 32 11 34 61h53c0 -95 -46 -118 -83 -118c-71 0 -98 60 -136 60c-16 0 -32 -11 -34 -60zM374 -12c-199 0 -321 134 -321 351s122 353 321 353c198 0 321 -136 321 -353s-123 -351 -321 -351zM374 67
c142 0 227 103 227 272c0 170 -85 274 -227 274s-227 -104 -227 -274c0 -169 85 -272 227 -272z" />
    <glyph glyph-name="Obreve" unicode="&#x14e;" horiz-adv-x="748" 
d="M229 868h66c5 -43 40 -60 80 -60s74 17 79 60h65c-14 -88 -78 -118 -144 -118c-67 0 -132 30 -146 118zM374 -12c-199 0 -321 134 -321 351s122 353 321 353c198 0 321 -136 321 -353s-123 -351 -321 -351zM374 67c142 0 227 103 227 272c0 170 -85 274 -227 274
s-227 -104 -227 -274c0 -169 85 -272 227 -272z" />
    <glyph glyph-name="Ohungarumlaut" unicode="&#x150;" horiz-adv-x="748" 
d="M268 750l72 118h85l-90 -118h-67zM409 750l72 118h85l-91 -118h-66zM374 -12c-199 0 -321 134 -321 351s122 353 321 353c198 0 321 -136 321 -353s-123 -351 -321 -351zM374 67c142 0 227 103 227 272c0 170 -85 274 -227 274s-227 -104 -227 -274
c0 -169 85 -272 227 -272z" />
    <glyph glyph-name="Omacron" unicode="&#x14c;" horiz-adv-x="748" 
d="M254 775v69h240v-69h-240zM374 -12c-199 0 -321 134 -321 351s122 353 321 353c198 0 321 -136 321 -353s-123 -351 -321 -351zM374 67c142 0 227 103 227 272c0 170 -85 274 -227 274s-227 -104 -227 -274c0 -169 85 -272 227 -272z" />
    <glyph glyph-name="Racute" unicode="&#x154;" horiz-adv-x="622" 
d="M263 750l94 118h112l-120 -118h-86zM78 0v680h245c143 0 234 -74 234 -192c0 -78 -38 -133 -102 -162c44 -20 67 -57 84 -124l51 -202h-97l-43 184c-20 85 -54 101 -136 101h-144v-285h-92zM321 605h-151v-245h149c90 0 143 48 143 123s-53 122 -141 122z" />
    <glyph glyph-name="Rcaron" unicode="&#x158;" horiz-adv-x="622" 
d="M383 868h82l-100 -118h-108l-99 118h82l72 -75zM78 0v680h245c143 0 234 -74 234 -192c0 -78 -38 -133 -102 -162c44 -20 67 -57 84 -124l51 -202h-97l-43 184c-20 85 -54 101 -136 101h-144v-285h-92zM321 605h-151v-245h149c90 0 143 48 143 123s-53 122 -141 122z" />
    <glyph glyph-name="Rcommaaccent" unicode="&#x156;" horiz-adv-x="622" 
d="M78 0v680h245c143 0 234 -74 234 -192c0 -78 -38 -133 -102 -162c44 -20 67 -57 84 -124l51 -202h-97l-43 184c-20 85 -54 101 -136 101h-144v-285h-92zM321 605h-151v-245h149c90 0 143 48 143 123s-53 122 -141 122zM263 -148v70h99v-27c0 -54 -16 -90 -42 -124h-46
c18 25 30 50 30 81h-41z" />
    <glyph glyph-name="Scaron" unicode="&#x160;" horiz-adv-x="603" 
d="M374 868h82l-100 -118h-108l-99 118h82l72 -75zM148 514c0 -192 417 -43 417 -322c0 -131 -106 -204 -251 -204c-146 0 -246 67 -276 204h96c22 -81 83 -125 181 -125c102 0 156 45 156 113c0 208 -417 53 -417 328c0 98 82 184 232 184c131 0 236 -63 261 -208h-97
c-21 90 -79 129 -166 129c-86 0 -136 -39 -136 -99z" />
    <glyph glyph-name="Sacute" unicode="&#x15a;" horiz-adv-x="603" 
d="M254 750l94 118h112l-120 -118h-86zM148 514c0 -192 417 -43 417 -322c0 -131 -106 -204 -251 -204c-146 0 -246 67 -276 204h96c22 -81 83 -125 181 -125c102 0 156 45 156 113c0 208 -417 53 -417 328c0 98 82 184 232 184c131 0 236 -63 261 -208h-97
c-21 90 -79 129 -166 129c-86 0 -136 -39 -136 -99z" />
    <glyph glyph-name="Scedilla" unicode="&#x15e;" horiz-adv-x="603" 
d="M306 -133c0 25 -23 34 -85 40l45 84c-120 13 -201 80 -228 201h96c22 -81 83 -125 181 -125c102 0 156 45 156 113c0 208 -417 53 -417 328c0 98 82 184 232 184c131 0 236 -63 261 -208h-97c-21 90 -79 129 -166 129c-86 0 -136 -39 -136 -99c0 -192 417 -43 417 -322
c0 -131 -106 -204 -246 -204l-24 -44c55 -7 83 -32 83 -72c0 -62 -66 -90 -195 -93v45c81 2 123 16 123 43z" />
    <glyph glyph-name="Scircumflex" unicode="&#x15c;" horiz-adv-x="603" 
d="M374 750l-71 74l-72 -74h-82l99 118h108l100 -118h-82zM148 514c0 -192 417 -43 417 -322c0 -131 -106 -204 -251 -204c-146 0 -246 67 -276 204h96c22 -81 83 -125 181 -125c102 0 156 45 156 113c0 208 -417 53 -417 328c0 98 82 184 232 184c131 0 236 -63 261 -208
h-97c-21 90 -79 129 -166 129c-86 0 -136 -39 -136 -99z" />
    <glyph glyph-name="Scommaaccent" unicode="&#x218;" horiz-adv-x="603" 
d="M148 514c0 -192 417 -43 417 -322c0 -131 -106 -204 -251 -204c-146 0 -246 67 -276 204h96c22 -81 83 -125 181 -125c102 0 156 45 156 113c0 208 -417 53 -417 328c0 98 82 184 232 184c131 0 236 -63 261 -208h-97c-21 90 -79 129 -166 129c-86 0 -136 -39 -136 -99z
M254 -148v70h99v-27c0 -54 -16 -90 -42 -124h-46c18 25 30 50 30 81h-41z" />
    <glyph glyph-name="Tbar" unicode="&#x166;" horiz-adv-x="620" 
d="M264 0v317h-104v64h104v221h-233v78h558v-78h-233v-221h104v-64h-104v-317h-92z" />
    <glyph glyph-name="Tcaron" unicode="&#x164;" horiz-adv-x="620" 
d="M382 868h82l-100 -118h-108l-99 118h82l72 -75zM264 0v602h-233v78h558v-78h-233v-602h-92z" />
    <glyph glyph-name="Tcedilla" unicode="&#x162;" horiz-adv-x="620" 
d="M264 0v602h-233v78h558v-78h-233v-602h-92zM262 -148v70h99v-27c0 -54 -16 -90 -42 -124h-46c18 25 30 50 30 81h-41z" />
    <glyph glyph-name="Tcommaaccent" unicode="&#x21a;" horiz-adv-x="620" 
d="M264 0v602h-233v78h558v-78h-233v-602h-92zM262 -148v70h99v-27c0 -54 -16 -90 -42 -124h-46c18 25 30 50 30 81h-41z" />
    <glyph glyph-name="Uacute" unicode="&#xda;" horiz-adv-x="683" 
d="M294 750l94 118h112l-120 -118h-86zM613 259c0 -168 -104 -271 -271 -271c-168 0 -272 103 -272 271v421h93v-421c0 -123 67 -197 179 -197s179 75 179 197v421h92v-421z" />
    <glyph glyph-name="Ucircumflex" unicode="&#xdb;" horiz-adv-x="683" 
d="M414 750l-71 74l-72 -74h-82l99 118h108l100 -118h-82zM613 259c0 -168 -104 -271 -271 -271c-168 0 -272 103 -272 271v421h93v-421c0 -123 67 -197 179 -197s179 75 179 197v421h92v-421z" />
    <glyph glyph-name="Udieresis" unicode="&#xdc;" horiz-adv-x="683" 
d="M245 750v118h77v-118h-77zM362 750v118h77v-118h-77zM613 259c0 -168 -104 -271 -271 -271c-168 0 -272 103 -272 271v421h93v-421c0 -123 67 -197 179 -197s179 75 179 197v421h92v-421z" />
    <glyph glyph-name="Ugrave" unicode="&#xd9;" horiz-adv-x="683" 
d="M390 750h-86l-120 118h112zM613 259c0 -168 -104 -271 -271 -271c-168 0 -272 103 -272 271v421h93v-421c0 -123 67 -197 179 -197s179 75 179 197v421h92v-421z" />
    <glyph glyph-name="Ubreve" unicode="&#x16c;" horiz-adv-x="683" 
d="M197 868h66c4 -43 40 -60 80 -60c39 0 74 17 79 60h65c-14 -88 -78 -118 -144 -118c-67 0 -132 30 -146 118zM613 259c0 -168 -104 -271 -271 -271c-168 0 -272 103 -272 271v421h93v-421c0 -123 67 -197 179 -197s179 75 179 197v421h92v-421z" />
    <glyph glyph-name="Uhungarumlaut" unicode="&#x170;" horiz-adv-x="683" 
d="M236 750l72 118h85l-90 -118h-67zM377 750l72 118h85l-91 -118h-66zM613 259c0 -168 -104 -271 -271 -271c-168 0 -272 103 -272 271v421h93v-421c0 -123 67 -197 179 -197s179 75 179 197v421h92v-421z" />
    <glyph glyph-name="Umacron" unicode="&#x16a;" horiz-adv-x="683" 
d="M222 775v69h240v-69h-240zM613 259c0 -168 -104 -271 -271 -271c-168 0 -272 103 -272 271v421h93v-421c0 -123 67 -197 179 -197s179 75 179 197v421h92v-421z" />
    <glyph glyph-name="Uogonek" unicode="&#x172;" horiz-adv-x="683" 
d="M341 -110c0 -40 27 -68 76 -68c28 0 43 5 55 11v-54c-25 -9 -44 -12 -72 -12c-73 0 -130 39 -130 105c0 38 25 79 69 116c-166 1 -269 104 -269 271v421h93v-421c0 -123 67 -197 179 -197s179 75 179 197v421h92v-421c0 -145 -77 -241 -205 -265
c-52 -41 -67 -72 -67 -104z" />
    <glyph glyph-name="Uring" unicode="&#x16e;" horiz-adv-x="683" 
d="M342 750c-58 0 -101 42 -101 100c0 59 43 102 101 102s101 -44 101 -102s-43 -100 -101 -100zM342 799c28 0 48 21 48 51s-20 52 -48 52s-48 -21 -48 -52c0 -30 20 -51 48 -51zM613 259c0 -168 -104 -271 -271 -271c-168 0 -272 103 -272 271v421h93v-421
c0 -123 67 -197 179 -197s179 75 179 197v421h92v-421z" />
    <glyph glyph-name="Utilde" unicode="&#x168;" horiz-adv-x="683" 
d="M242 750h-53c0 94 46 118 83 118c72 0 99 -61 136 -61c15 0 32 11 34 61h53c0 -95 -46 -118 -83 -118c-71 0 -98 60 -136 60c-16 0 -32 -11 -34 -60zM613 259c0 -168 -104 -271 -271 -271c-168 0 -272 103 -272 271v421h93v-421c0 -123 67 -197 179 -197s179 75 179 197
v421h92v-421z" />
    <glyph glyph-name="Wacute" unicode="&#x1e82;" horiz-adv-x="1050" 
d="M487 750l94 118h112l-120 -118h-86zM688 0l-147 502l-15 55l-16 -55l-147 -502h-109l-216 680h98l161 -532l14 -51l13 51l155 532h99l154 -532l13 -51l13 51l160 532h94l-216 -680h-108z" />
    <glyph glyph-name="Wcircumflex" unicode="&#x174;" horiz-adv-x="1050" 
d="M607 750l-71 74l-72 -74h-82l99 118h108l100 -118h-82zM688 0l-147 502l-15 55l-16 -55l-147 -502h-109l-216 680h98l161 -532l14 -51l13 51l155 532h99l154 -532l13 -51l13 51l160 532h94l-216 -680h-108z" />
    <glyph glyph-name="Wdieresis" unicode="&#x1e84;" horiz-adv-x="1050" 
d="M438 750v118h77v-118h-77zM555 750v118h77v-118h-77zM688 0l-147 502l-15 55l-16 -55l-147 -502h-109l-216 680h98l161 -532l14 -51l13 51l155 532h99l154 -532l13 -51l13 51l160 532h94l-216 -680h-108z" />
    <glyph glyph-name="Wgrave" unicode="&#x1e80;" horiz-adv-x="1050" 
d="M583 750h-86l-120 118h112zM688 0l-147 502l-15 55l-16 -55l-147 -502h-109l-216 680h98l161 -532l14 -51l13 51l155 532h99l154 -532l13 -51l13 51l160 532h94l-216 -680h-108z" />
    <glyph glyph-name="Yacute" unicode="&#xdd;" horiz-adv-x="610" 
d="M263 750l94 118h112l-120 -118h-86zM259 0v251l-244 429h103l159 -283l31 -65l30 65l159 283h98l-244 -429v-251h-92z" />
    <glyph glyph-name="Ydieresis" unicode="&#x178;" horiz-adv-x="610" 
d="M214 750v118h77v-118h-77zM331 750v118h77v-118h-77zM259 0v251l-244 429h103l159 -283l31 -65l30 65l159 283h98l-244 -429v-251h-92z" />
    <glyph glyph-name="Ycircumflex" unicode="&#x176;" horiz-adv-x="610" 
d="M383 750l-71 74l-72 -74h-82l99 118h108l100 -118h-82zM259 0v251l-244 429h103l159 -283l31 -65l30 65l159 283h98l-244 -429v-251h-92z" />
    <glyph glyph-name="Ygrave" unicode="&#x1ef2;" horiz-adv-x="610" 
d="M359 750h-86l-120 118h112zM259 0v251l-244 429h103l159 -283l31 -65l30 65l159 283h98l-244 -429v-251h-92z" />
    <glyph glyph-name="Zcaron" unicode="&#x17d;" horiz-adv-x="616" 
d="M380 868h82l-100 -118h-108l-99 118h82l72 -75zM51 0v78l406 524h-406v78h513v-78l-406 -524h406v-78h-513z" />
    <glyph glyph-name="Zacute" unicode="&#x179;" horiz-adv-x="616" 
d="M260 750l94 118h112l-120 -118h-86zM51 0v78l406 524h-406v78h513v-78l-406 -524h406v-78h-513z" />
    <glyph glyph-name="Zdotaccent" unicode="&#x17b;" horiz-adv-x="616" 
d="M264 750v118h88v-118h-88zM51 0v78l406 524h-406v78h513v-78l-406 -524h406v-78h-513z" />
    <glyph glyph-name="aacute" unicode="&#xe1;" 
d="M238 602l94 118h112l-120 -118h-86zM151 358h-88c17 117 94 186 224 186c142 0 211 -83 211 -207v-209c0 -61 5 -99 19 -128h-93c-10 21 -13 52 -14 84c-45 -67 -117 -96 -181 -96c-110 0 -184 51 -184 152c0 73 40 126 118 152c72 24 145 30 247 31v12
c0 86 -40 133 -131 133c-76 0 -117 -42 -128 -110zM135 142c0 -49 41 -78 103 -78c98 0 172 77 172 168v25c-226 -2 -275 -50 -275 -115z" />
    <glyph glyph-name="acircumflex" unicode="&#xe2;" 
d="M358 602l-71 74l-72 -74h-82l99 118h108l100 -118h-82zM151 358h-88c17 117 94 186 224 186c142 0 211 -83 211 -207v-209c0 -61 5 -99 19 -128h-93c-10 21 -13 52 -14 84c-45 -67 -117 -96 -181 -96c-110 0 -184 51 -184 152c0 73 40 126 118 152c72 24 145 30 247 31
v12c0 86 -40 133 -131 133c-76 0 -117 -42 -128 -110zM135 142c0 -49 41 -78 103 -78c98 0 172 77 172 168v25c-226 -2 -275 -50 -275 -115z" />
    <glyph glyph-name="adieresis" unicode="&#xe4;" 
d="M189 602v118h77v-118h-77zM306 602v118h77v-118h-77zM151 358h-88c17 117 94 186 224 186c142 0 211 -83 211 -207v-209c0 -61 5 -99 19 -128h-93c-10 21 -13 52 -14 84c-45 -67 -117 -96 -181 -96c-110 0 -184 51 -184 152c0 73 40 126 118 152c72 24 145 30 247 31v12
c0 86 -40 133 -131 133c-76 0 -117 -42 -128 -110zM135 142c0 -49 41 -78 103 -78c98 0 172 77 172 168v25c-226 -2 -275 -50 -275 -115z" />
    <glyph glyph-name="agrave" unicode="&#xe0;" 
d="M334 602h-86l-120 118h112zM151 358h-88c17 117 94 186 224 186c142 0 211 -83 211 -207v-209c0 -61 5 -99 19 -128h-93c-10 21 -13 52 -14 84c-45 -67 -117 -96 -181 -96c-110 0 -184 51 -184 152c0 73 40 126 118 152c72 24 145 30 247 31v12c0 86 -40 133 -131 133
c-76 0 -117 -42 -128 -110zM135 142c0 -49 41 -78 103 -78c98 0 172 77 172 168v25c-226 -2 -275 -50 -275 -115z" />
    <glyph glyph-name="aring" unicode="&#xe5;" 
d="M286 602c-58 0 -101 42 -101 100c0 59 43 102 101 102s101 -44 101 -102s-43 -100 -101 -100zM286 651c28 0 48 21 48 51s-20 52 -48 52s-48 -21 -48 -52c0 -30 20 -51 48 -51zM151 358h-88c17 117 94 186 224 186c142 0 211 -83 211 -207v-209c0 -61 5 -99 19 -128h-93
c-10 21 -13 52 -14 84c-45 -67 -117 -96 -181 -96c-110 0 -184 51 -184 152c0 73 40 126 118 152c72 24 145 30 247 31v12c0 86 -40 133 -131 133c-76 0 -117 -42 -128 -110zM135 142c0 -49 41 -78 103 -78c98 0 172 77 172 168v25c-226 -2 -275 -50 -275 -115z" />
    <glyph glyph-name="atilde" unicode="&#xe3;" 
d="M186 602h-53c0 94 46 118 83 118c72 0 99 -61 136 -61c16 0 32 11 34 61h53c0 -95 -46 -118 -83 -118c-71 0 -98 60 -136 60c-16 0 -32 -11 -34 -60zM151 358h-88c17 117 94 186 224 186c142 0 211 -83 211 -207v-209c0 -61 5 -99 19 -128h-93c-10 21 -13 52 -14 84
c-45 -67 -117 -96 -181 -96c-110 0 -184 51 -184 152c0 73 40 126 118 152c72 24 145 30 247 31v12c0 86 -40 133 -131 133c-76 0 -117 -42 -128 -110zM135 142c0 -49 41 -78 103 -78c98 0 172 77 172 168v25c-226 -2 -275 -50 -275 -115z" />
    <glyph glyph-name="abreve" unicode="&#x103;" 
d="M141 720h66c5 -43 40 -60 80 -60s74 17 79 60h65c-14 -88 -78 -118 -144 -118c-67 0 -132 30 -146 118zM151 358h-88c17 117 94 186 224 186c142 0 211 -83 211 -207v-209c0 -61 5 -99 19 -128h-93c-10 21 -13 52 -14 84c-45 -67 -117 -96 -181 -96
c-110 0 -184 51 -184 152c0 73 40 126 118 152c72 24 145 30 247 31v12c0 86 -40 133 -131 133c-76 0 -117 -42 -128 -110zM135 142c0 -49 41 -78 103 -78c98 0 172 77 172 168v25c-226 -2 -275 -50 -275 -115z" />
    <glyph glyph-name="amacron" unicode="&#x101;" 
d="M166 627v69h240v-69h-240zM151 358h-88c17 117 94 186 224 186c142 0 211 -83 211 -207v-209c0 -61 5 -99 19 -128h-93c-10 21 -13 52 -14 84c-45 -67 -117 -96 -181 -96c-110 0 -184 51 -184 152c0 73 40 126 118 152c72 24 145 30 247 31v12c0 86 -40 133 -131 133
c-76 0 -117 -42 -128 -110zM135 142c0 -49 41 -78 103 -78c98 0 172 77 172 168v25c-226 -2 -275 -50 -275 -115z" />
    <glyph glyph-name="aogonek" unicode="&#x105;" 
d="M151 358h-88c17 117 94 186 224 186c142 0 211 -83 211 -207v-209c0 -61 5 -99 19 -128h-56c-59 -44 -75 -77 -75 -110c0 -40 27 -68 76 -68c28 0 43 5 55 11v-54c-25 -9 -44 -12 -72 -12c-73 0 -130 39 -130 105c0 47 38 98 104 142c-7 23 -9 54 -9 83
c-44 -73 -115 -109 -181 -109c-110 0 -184 51 -184 152c0 73 40 126 118 152c72 24 145 30 247 31v12c0 86 -40 133 -131 133c-76 0 -117 -42 -128 -110zM135 142c0 -49 41 -78 103 -78c98 0 172 77 172 168v25c-226 -2 -275 -50 -275 -115z" />
    <glyph glyph-name="ccedilla" unicode="&#xe7;" horiz-adv-x="552" 
d="M292 -133c0 25 -23 34 -85 40l44 83c-131 14 -208 116 -208 275c0 180 92 279 240 279c117 0 209 -66 226 -196h-88c-14 81 -68 120 -138 120c-98 0 -150 -72 -150 -203c0 -129 55 -202 153 -202c71 0 122 38 139 114h88c-22 -124 -102 -181 -207 -188l-25 -45
c55 -7 83 -32 83 -72c0 -62 -66 -90 -195 -93v45c81 2 123 16 123 43z" />
    <glyph glyph-name="cacute" unicode="&#x107;" horiz-adv-x="552" 
d="M228 602l94 118h112l-120 -118h-86zM509 348h-88c-14 81 -68 120 -138 120c-98 0 -150 -72 -150 -203c0 -129 55 -202 153 -202c71 0 122 38 139 114h88c-24 -132 -113 -189 -229 -189c-151 0 -241 105 -241 277c0 180 92 279 240 279c117 0 209 -66 226 -196z" />
    <glyph glyph-name="ccaron" unicode="&#x10d;" horiz-adv-x="552" 
d="M348 720h82l-100 -118h-108l-99 118h82l72 -75zM509 348h-88c-14 81 -68 120 -138 120c-98 0 -150 -72 -150 -203c0 -129 55 -202 153 -202c71 0 122 38 139 114h88c-24 -132 -113 -189 -229 -189c-151 0 -241 105 -241 277c0 180 92 279 240 279c117 0 209 -66 226 -196
z" />
    <glyph glyph-name="ccircumflex" unicode="&#x109;" horiz-adv-x="552" 
d="M348 602l-71 74l-72 -74h-82l99 118h108l100 -118h-82zM509 348h-88c-14 81 -68 120 -138 120c-98 0 -150 -72 -150 -203c0 -129 55 -202 153 -202c71 0 122 38 139 114h88c-24 -132 -113 -189 -229 -189c-151 0 -241 105 -241 277c0 180 92 279 240 279
c117 0 209 -66 226 -196z" />
    <glyph glyph-name="cdotaccent" unicode="&#x10b;" horiz-adv-x="552" 
d="M232 602v118h88v-118h-88zM509 348h-88c-14 81 -68 120 -138 120c-98 0 -150 -72 -150 -203c0 -129 55 -202 153 -202c71 0 122 38 139 114h88c-24 -132 -113 -189 -229 -189c-151 0 -241 105 -241 277c0 180 92 279 240 279c117 0 209 -66 226 -196z" />
    <glyph glyph-name="dcaron" unicode="&#x10f;" horiz-adv-x="598" 
d="M269 -12c-141 0 -226 104 -226 277c0 180 87 279 226 279c63 0 114 -26 149 -75v251h88v-720h-88v67c-35 -50 -86 -79 -149 -79zM539 650v70h98v-27c0 -54 -16 -90 -41 -124h-46c22 29 29 50 29 81h-40zM275 64c93 0 143 71 143 201c0 129 -52 203 -143 203
c-92 0 -142 -72 -142 -203c0 -128 52 -201 142 -201z" />
    <glyph glyph-name="dcroat" unicode="&#x111;" horiz-adv-x="576" 
d="M269 -12c-141 0 -226 104 -226 277c0 180 87 279 226 279c63 0 114 -26 149 -75v140h-99v64h99v47h88v-47h53v-64h-53v-609h-88v67c-35 -50 -86 -79 -149 -79zM275 64c93 0 143 71 143 201c0 129 -52 203 -143 203c-92 0 -142 -72 -142 -203c0 -128 52 -201 142 -201z
" />
    <glyph glyph-name="eacute" unicode="&#xe9;" 
d="M238 602l94 118h112l-120 -118h-86zM529 173c-29 -124 -118 -185 -239 -185c-154 0 -247 104 -247 277c0 180 93 279 242 279c150 0 240 -103 240 -272v-22h-392c5 -119 61 -186 157 -186c75 0 128 36 147 109h92zM285 468c-85 0 -136 -53 -149 -152h297
c-12 98 -65 152 -148 152z" />
    <glyph glyph-name="ecircumflex" unicode="&#xea;" 
d="M358 602l-71 74l-72 -74h-82l99 118h108l100 -118h-82zM529 173c-29 -124 -118 -185 -239 -185c-154 0 -247 104 -247 277c0 180 93 279 242 279c150 0 240 -103 240 -272v-22h-392c5 -119 61 -186 157 -186c75 0 128 36 147 109h92zM285 468c-85 0 -136 -53 -149 -152
h297c-12 98 -65 152 -148 152z" />
    <glyph glyph-name="edieresis" unicode="&#xeb;" 
d="M189 602v118h77v-118h-77zM306 602v118h77v-118h-77zM529 173c-29 -124 -118 -185 -239 -185c-154 0 -247 104 -247 277c0 180 93 279 242 279c150 0 240 -103 240 -272v-22h-392c5 -119 61 -186 157 -186c75 0 128 36 147 109h92zM285 468c-85 0 -136 -53 -149 -152h297
c-12 98 -65 152 -148 152z" />
    <glyph glyph-name="egrave" unicode="&#xe8;" 
d="M334 602h-86l-120 118h112zM529 173c-29 -124 -118 -185 -239 -185c-154 0 -247 104 -247 277c0 180 93 279 242 279c150 0 240 -103 240 -272v-22h-392c5 -119 61 -186 157 -186c75 0 128 36 147 109h92zM285 468c-85 0 -136 -53 -149 -152h297c-12 98 -65 152 -148 152
z" />
    <glyph glyph-name="ebreve" unicode="&#x115;" 
d="M141 720h66c5 -43 40 -60 80 -60s74 17 79 60h65c-14 -88 -78 -118 -144 -118c-67 0 -132 30 -146 118zM529 173c-29 -124 -118 -185 -239 -185c-154 0 -247 104 -247 277c0 180 93 279 242 279c150 0 240 -103 240 -272v-22h-392c5 -119 61 -186 157 -186
c75 0 128 36 147 109h92zM285 468c-85 0 -136 -53 -149 -152h297c-12 98 -65 152 -148 152z" />
    <glyph glyph-name="ecaron" unicode="&#x11b;" 
d="M358 720h82l-100 -118h-108l-99 118h82l72 -75zM529 173c-29 -124 -118 -185 -239 -185c-154 0 -247 104 -247 277c0 180 93 279 242 279c150 0 240 -103 240 -272v-22h-392c5 -119 61 -186 157 -186c75 0 128 36 147 109h92zM285 468c-85 0 -136 -53 -149 -152h297
c-12 98 -65 152 -148 152z" />
    <glyph glyph-name="edotaccent" unicode="&#x117;" 
d="M242 602v118h88v-118h-88zM529 173c-29 -124 -118 -185 -239 -185c-154 0 -247 104 -247 277c0 180 93 279 242 279c150 0 240 -103 240 -272v-22h-392c5 -119 61 -186 157 -186c75 0 128 36 147 109h92zM285 468c-85 0 -136 -53 -149 -152h297c-12 98 -65 152 -148 152z
" />
    <glyph glyph-name="emacron" unicode="&#x113;" 
d="M166 627v69h240v-69h-240zM529 173c-29 -124 -118 -185 -239 -185c-154 0 -247 104 -247 277c0 180 93 279 242 279c150 0 240 -103 240 -272v-22h-392c5 -119 61 -186 157 -186c75 0 128 36 147 109h92zM285 468c-85 0 -136 -53 -149 -152h297c-12 98 -65 152 -148 152z
" />
    <glyph glyph-name="eogonek" unicode="&#x119;" 
d="M342 -110c0 -40 27 -68 76 -68c28 0 43 5 55 11v-54c-25 -9 -44 -12 -72 -12c-73 0 -130 39 -130 105c0 40 27 82 75 121c-18 -3 -36 -5 -56 -5c-154 0 -247 104 -247 277c0 180 93 279 242 279c150 0 240 -103 240 -272v-22h-392c5 -119 61 -186 157 -186
c75 0 128 36 147 109h92c-14 -60 -42 -106 -81 -136c-86 -79 -106 -108 -106 -147zM285 468c-85 0 -136 -53 -149 -152h297c-12 98 -65 152 -148 152z" />
    <glyph glyph-name="gbreve" unicode="&#x11f;" horiz-adv-x="577" 
d="M134 720h66c5 -43 40 -60 80 -60s74 17 79 60h65c-14 -88 -78 -118 -144 -118c-67 0 -132 30 -146 118zM259 -4c-135 0 -216 103 -216 273c0 178 83 275 216 275c71 0 124 -25 159 -71v58h88v-547c0 -148 -95 -217 -217 -217c-125 0 -213 60 -232 181h88
c11 -70 66 -108 143 -108c78 0 130 42 130 141v91c-37 -50 -91 -76 -159 -76zM275 72c93 0 143 70 143 198c0 125 -52 198 -143 198c-92 0 -142 -70 -142 -199c0 -125 51 -197 142 -197z" />
    <glyph glyph-name="gcircumflex" unicode="&#x11d;" horiz-adv-x="577" 
d="M351 602l-71 74l-72 -74h-82l99 118h108l100 -118h-82zM259 -4c-135 0 -216 103 -216 273c0 178 83 275 216 275c71 0 124 -25 159 -71v58h88v-547c0 -148 -95 -217 -217 -217c-125 0 -213 60 -232 181h88c11 -70 66 -108 143 -108c78 0 130 42 130 141v91
c-37 -50 -91 -76 -159 -76zM275 72c93 0 143 70 143 198c0 125 -52 198 -143 198c-92 0 -142 -70 -142 -199c0 -125 51 -197 142 -197z" />
    <glyph glyph-name="gcommaaccent" unicode="&#x123;" horiz-adv-x="577" 
d="M330 672v-70h-99v27c0 54 16 89 42 123h46c-18 -25 -29 -50 -29 -80h40zM259 -4c-135 0 -216 103 -216 273c0 178 83 275 216 275c71 0 124 -25 159 -71v58h88v-547c0 -148 -95 -217 -217 -217c-125 0 -213 60 -232 181h88c11 -70 66 -108 143 -108c78 0 130 42 130 141
v91c-37 -50 -91 -76 -159 -76zM275 72c93 0 143 70 143 198c0 125 -52 198 -143 198c-92 0 -142 -70 -142 -199c0 -125 51 -197 142 -197z" />
    <glyph glyph-name="gdotaccent" unicode="&#x121;" horiz-adv-x="577" 
d="M235 602v118h88v-118h-88zM259 -4c-135 0 -216 103 -216 273c0 178 83 275 216 275c71 0 124 -25 159 -71v58h88v-547c0 -148 -95 -217 -217 -217c-125 0 -213 60 -232 181h88c11 -70 66 -108 143 -108c78 0 130 42 130 141v91c-37 -50 -91 -76 -159 -76zM275 72
c93 0 143 70 143 198c0 125 -52 198 -143 198c-92 0 -142 -70 -142 -199c0 -125 51 -197 142 -197z" />
    <glyph glyph-name="hbar" unicode="&#x127;" 
d="M70 0v609h-44v64h44v47h88v-47h118v-64h-118v-150c36 56 94 85 164 85c113 0 180 -66 180 -189v-355h-88v337c0 80 -36 132 -116 132c-88 0 -140 -79 -140 -155v-314h-88z" />
    <glyph glyph-name="hcircumflex" unicode="&#x125;" 
d="M301 762l-71 74l-72 -74h-82l99 118h108l100 -118h-82zM70 0v720h88v-261c36 56 94 85 164 85c113 0 180 -66 180 -189v-355h-88v337c0 80 -36 132 -116 132c-88 0 -140 -79 -140 -155v-314h-88z" />
    <glyph glyph-name="iacute" unicode="&#xed;" horiz-adv-x="228" 
d="M66 602l94 118h112l-120 -118h-86zM70 0v531h88v-531h-88z" />
    <glyph glyph-name="icircumflex" unicode="&#xee;" horiz-adv-x="228" 
d="M186 602l-71 74l-72 -74h-82l99 118h108l100 -118h-82zM70 0v531h88v-531h-88z" />
    <glyph glyph-name="idieresis" unicode="&#xef;" horiz-adv-x="228" 
d="M17 602v118h77v-118h-77zM134 602v118h77v-118h-77zM70 0v531h88v-531h-88z" />
    <glyph glyph-name="igrave" unicode="&#xec;" horiz-adv-x="228" 
d="M162 602h-86l-120 118h112zM70 0v531h88v-531h-88z" />
    <glyph glyph-name="ibreve" unicode="&#x12d;" horiz-adv-x="228" 
d="M-31 720h66c5 -43 40 -60 80 -60s74 17 79 60h65c-14 -88 -78 -118 -144 -118c-67 0 -132 30 -146 118zM70 0v531h88v-531h-88z" />
    <glyph glyph-name="i.dot" unicode="&#xe166;" horiz-adv-x="228" 
d="M70 602v118h88v-118h-88zM70 0v531h88v-531h-88z" />
    <glyph glyph-name="imacron" unicode="&#x12b;" horiz-adv-x="228" 
d="M-6 627v69h240v-69h-240zM70 0v531h88v-531h-88z" />
    <glyph glyph-name="iogonek" unicode="&#x12f;" horiz-adv-x="228" 
d="M70 602v118h88v-118h-88zM27 -110c0 -40 27 -68 76 -68c28 0 43 5 55 11v-54c-25 -9 -44 -12 -72 -12c-73 0 -130 39 -130 105c0 50 42 103 114 149v510h88v-531h-56c-59 -44 -75 -77 -75 -110z" />
    <glyph glyph-name="itilde" unicode="&#x129;" horiz-adv-x="228" 
d="M14 602h-53c0 94 46 118 83 118c72 0 99 -61 136 -61c16 0 32 11 34 61h53c0 -95 -46 -118 -83 -118c-71 0 -98 60 -136 60c-16 0 -32 -11 -34 -60zM70 0v531h88v-531h-88z" />
    <glyph glyph-name="jcircumflex" unicode="&#x135;" horiz-adv-x="228" 
d="M186 602l-71 74l-72 -74h-82l99 118h108l100 -118h-82zM158 -68c0 -112 -46 -165 -144 -165c-22 0 -40 4 -49 8v63h9c77 0 96 30 96 94v599h88v-599z" />
    <glyph glyph-name="ij" unicode="&#x133;" horiz-adv-x="456" 
d="M70 602v118h88v-118h-88zM298 602v118h88v-118h-88zM70 0v531h88v-531h-88zM386 -68c0 -112 -46 -165 -144 -165c-22 0 -40 4 -49 8v63h9c77 0 96 30 96 94v599h88v-599z" />
    <glyph glyph-name="kcommaaccent" unicode="&#x137;" horiz-adv-x="524" 
d="M70 0v720h88v-417l229 228h108l-242 -237l256 -294h-112l-239 271v-271h-88zM214 -148v70h99v-27c0 -54 -16 -90 -42 -124h-46c18 25 30 50 30 81h-41z" />
    <glyph glyph-name="lacute" unicode="&#x13a;" horiz-adv-x="228" 
d="M69 762l94 118h112l-120 -118h-86zM70 0v720h88v-720h-88z" />
    <glyph glyph-name="lcaron" unicode="&#x13e;" horiz-adv-x="254" 
d="M70 0v720h88v-720h-88zM195 650v70h98v-27c0 -54 -16 -90 -41 -124h-46c22 29 29 50 29 81h-40z" />
    <glyph glyph-name="lcommaaccent" unicode="&#x13c;" horiz-adv-x="228" 
d="M70 0v720h88v-720h-88zM66 -148v70h99v-27c0 -54 -16 -90 -42 -124h-46c18 25 30 50 30 81h-41z" />
    <glyph glyph-name="ldot" unicode="&#x140;" horiz-adv-x="236" 
d="M70 0v720h88v-720h-88zM190 245v117h88v-117h-88z" />
    <glyph glyph-name="ntilde" unicode="&#xf1;" 
d="M186 602h-53c0 94 46 118 83 118c72 0 99 -61 136 -61c16 0 32 11 34 61h53c0 -95 -46 -118 -83 -118c-71 0 -98 60 -136 60c-16 0 -32 -11 -34 -60zM70 0v531h88v-72c36 56 94 85 164 85c113 0 180 -66 180 -189v-355h-88v337c0 80 -36 132 -116 132
c-88 0 -140 -79 -140 -155v-314h-88z" />
    <glyph glyph-name="nacute" unicode="&#x144;" 
d="M238 602l94 118h112l-120 -118h-86zM70 0v531h88v-72c36 56 94 85 164 85c113 0 180 -66 180 -189v-355h-88v337c0 80 -36 132 -116 132c-88 0 -140 -79 -140 -155v-314h-88z" />
    <glyph glyph-name="ncaron" unicode="&#x148;" 
d="M358 720h82l-100 -118h-108l-99 118h82l72 -75zM70 0v531h88v-72c36 56 94 85 164 85c113 0 180 -66 180 -189v-355h-88v337c0 80 -36 132 -116 132c-88 0 -140 -79 -140 -155v-314h-88z" />
    <glyph glyph-name="ncommaaccent" unicode="&#x146;" 
d="M70 0v531h88v-72c36 56 94 85 164 85c113 0 180 -66 180 -189v-355h-88v337c0 80 -36 132 -116 132c-88 0 -140 -79 -140 -155v-314h-88zM238 -148v70h99v-27c0 -54 -16 -90 -42 -124h-46c18 25 30 50 30 81h-41z" />
    <glyph glyph-name="oacute" unicode="&#xf3;" 
d="M238 602l94 118h112l-120 -118h-86zM286 -12c-152 0 -243 104 -243 277c0 180 94 279 243 279c152 0 243 -106 243 -279c0 -179 -94 -277 -243 -277zM286 64c99 0 153 71 153 201c0 129 -55 203 -153 203c-99 0 -153 -72 -153 -203c0 -128 55 -201 153 -201z" />
    <glyph glyph-name="ocircumflex" unicode="&#xf4;" 
d="M358 602l-71 74l-72 -74h-82l99 118h108l100 -118h-82zM286 -12c-152 0 -243 104 -243 277c0 180 94 279 243 279c152 0 243 -106 243 -279c0 -179 -94 -277 -243 -277zM286 64c99 0 153 71 153 201c0 129 -55 203 -153 203c-99 0 -153 -72 -153 -203
c0 -128 55 -201 153 -201z" />
    <glyph glyph-name="odieresis" unicode="&#xf6;" 
d="M189 602v118h77v-118h-77zM306 602v118h77v-118h-77zM286 -12c-152 0 -243 104 -243 277c0 180 94 279 243 279c152 0 243 -106 243 -279c0 -179 -94 -277 -243 -277zM286 64c99 0 153 71 153 201c0 129 -55 203 -153 203c-99 0 -153 -72 -153 -203
c0 -128 55 -201 153 -201z" />
    <glyph glyph-name="ograve" unicode="&#xf2;" 
d="M334 602h-86l-120 118h112zM286 -12c-152 0 -243 104 -243 277c0 180 94 279 243 279c152 0 243 -106 243 -279c0 -179 -94 -277 -243 -277zM286 64c99 0 153 71 153 201c0 129 -55 203 -153 203c-99 0 -153 -72 -153 -203c0 -128 55 -201 153 -201z" />
    <glyph glyph-name="otilde" unicode="&#xf5;" 
d="M186 602h-53c0 94 46 118 83 118c72 0 99 -61 136 -61c16 0 32 11 34 61h53c0 -95 -46 -118 -83 -118c-71 0 -98 60 -136 60c-16 0 -32 -11 -34 -60zM286 -12c-152 0 -243 104 -243 277c0 180 94 279 243 279c152 0 243 -106 243 -279c0 -179 -94 -277 -243 -277zM286 64
c99 0 153 71 153 201c0 129 -55 203 -153 203c-99 0 -153 -72 -153 -203c0 -128 55 -201 153 -201z" />
    <glyph glyph-name="obreve" unicode="&#x14f;" 
d="M141 720h66c5 -43 40 -60 80 -60s74 17 79 60h65c-14 -88 -78 -118 -144 -118c-67 0 -132 30 -146 118zM286 -12c-152 0 -243 104 -243 277c0 180 94 279 243 279c152 0 243 -106 243 -279c0 -179 -94 -277 -243 -277zM286 64c99 0 153 71 153 201
c0 129 -55 203 -153 203c-99 0 -153 -72 -153 -203c0 -128 55 -201 153 -201z" />
    <glyph glyph-name="ohungarumlaut" unicode="&#x151;" 
d="M180 602l72 118h85l-90 -118h-67zM321 602l72 118h85l-91 -118h-66zM286 -12c-152 0 -243 104 -243 277c0 180 94 279 243 279c152 0 243 -106 243 -279c0 -179 -94 -277 -243 -277zM286 64c99 0 153 71 153 201c0 129 -55 203 -153 203c-99 0 -153 -72 -153 -203
c0 -128 55 -201 153 -201z" />
    <glyph glyph-name="omacron" unicode="&#x14d;" 
d="M166 627v69h240v-69h-240zM286 -12c-152 0 -243 104 -243 277c0 180 94 279 243 279c152 0 243 -106 243 -279c0 -179 -94 -277 -243 -277zM286 64c99 0 153 71 153 201c0 129 -55 203 -153 203c-99 0 -153 -72 -153 -203c0 -128 55 -201 153 -201z" />
    <glyph glyph-name="racute" unicode="&#x155;" horiz-adv-x="373" 
d="M143 602l94 118h112l-120 -118h-86zM70 0v531h88v-82c36 65 93 95 157 95c21 0 40 -5 50 -13v-79c-15 5 -34 7 -55 7c-106 0 -152 -66 -152 -162v-297h-88z" />
    <glyph glyph-name="rcaron" unicode="&#x159;" horiz-adv-x="373" 
d="M263 720h82l-100 -118h-108l-99 118h82l72 -75zM70 0v531h88v-82c36 65 93 95 157 95c21 0 40 -5 50 -13v-79c-15 5 -34 7 -55 7c-106 0 -152 -66 -152 -162v-297h-88z" />
    <glyph glyph-name="rcommaaccent" unicode="&#x157;" horiz-adv-x="373" 
d="M70 0v531h88v-82c36 65 93 95 157 95c21 0 40 -5 50 -13v-79c-15 5 -34 7 -55 7c-106 0 -152 -66 -152 -162v-297h-88zM72 -148v70h99v-27c0 -54 -16 -90 -42 -124h-46c18 25 30 50 30 81h-41z" />
    <glyph glyph-name="scaron" unicode="&#x161;" horiz-adv-x="515" 
d="M330 720h82l-100 -118h-108l-99 118h82l72 -75zM135 395c0 -148 345 -26 345 -245c0 -99 -88 -162 -213 -162c-126 0 -214 60 -234 185h88c12 -74 67 -115 149 -115c80 0 122 36 122 86c0 145 -341 25 -341 245c0 81 63 155 193 155c115 0 200 -54 217 -186h-88
c-13 83 -59 114 -134 114c-66 0 -104 -33 -104 -77z" />
    <glyph glyph-name="sacute" unicode="&#x15b;" horiz-adv-x="515" 
d="M210 602l94 118h112l-120 -118h-86zM135 395c0 -148 345 -26 345 -245c0 -99 -88 -162 -213 -162c-126 0 -214 60 -234 185h88c12 -74 67 -115 149 -115c80 0 122 36 122 86c0 145 -341 25 -341 245c0 81 63 155 193 155c115 0 200 -54 217 -186h-88
c-13 83 -59 114 -134 114c-66 0 -104 -33 -104 -77z" />
    <glyph glyph-name="scedilla" unicode="&#x15f;" horiz-adv-x="515" 
d="M281 -133c0 25 -23 34 -85 40l44 82c-111 8 -188 68 -207 184h88c12 -74 67 -115 149 -115c80 0 122 36 122 86c0 145 -341 25 -341 245c0 81 63 155 193 155c115 0 200 -54 217 -186h-88c-13 83 -59 114 -134 114c-66 0 -104 -33 -104 -77c0 -148 345 -26 345 -245
c0 -91 -75 -152 -185 -161l-25 -45c55 -7 83 -32 83 -72c0 -62 -66 -90 -195 -93v45c81 2 123 16 123 43z" />
    <glyph glyph-name="scircumflex" unicode="&#x15d;" horiz-adv-x="515" 
d="M330 602l-71 74l-72 -74h-82l99 118h108l100 -118h-82zM135 395c0 -148 345 -26 345 -245c0 -99 -88 -162 -213 -162c-126 0 -214 60 -234 185h88c12 -74 67 -115 149 -115c80 0 122 36 122 86c0 145 -341 25 -341 245c0 81 63 155 193 155c115 0 200 -54 217 -186h-88
c-13 83 -59 114 -134 114c-66 0 -104 -33 -104 -77z" />
    <glyph glyph-name="scommaaccent" unicode="&#x219;" horiz-adv-x="515" 
d="M135 395c0 -148 345 -26 345 -245c0 -99 -88 -162 -213 -162c-126 0 -214 60 -234 185h88c12 -74 67 -115 149 -115c80 0 122 36 122 86c0 145 -341 25 -341 245c0 81 63 155 193 155c115 0 200 -54 217 -186h-88c-13 83 -59 114 -134 114c-66 0 -104 -33 -104 -77z
M210 -148v70h99v-27c0 -54 -16 -90 -42 -124h-46c18 25 30 50 30 81h-41z" />
    <glyph glyph-name="tbar" unicode="&#x167;" horiz-adv-x="301" 
d="M82 153v86h-60v64h60v158h-74v70h74v122h88v-122h117v-70h-117v-158h92v-64h-92v-86c0 -64 19 -94 97 -94h18v-63c-10 -5 -32 -8 -57 -8c-99 0 -146 53 -146 165z" />
    <glyph glyph-name="tcaron" unicode="&#x165;" horiz-adv-x="301" 
d="M200 650v70h98v-27c0 -54 -16 -90 -41 -124h-46c22 29 29 50 29 81h-40zM82 153v308h-74v70h74v122h88v-122h117v-70h-117v-308c0 -64 19 -94 97 -94h18v-63c-10 -5 -32 -8 -57 -8c-99 0 -146 53 -146 165z" />
    <glyph glyph-name="tcedilla" unicode="&#x163;" horiz-adv-x="301" 
d="M82 153v308h-74v70h74v122h88v-122h117v-70h-117v-308c0 -64 19 -94 97 -94h18v-63c-10 -5 -32 -8 -57 -8c-99 0 -146 53 -146 165zM116 -148v70h99v-27c0 -54 -16 -90 -42 -124h-46c18 25 30 50 30 81h-41z" />
    <glyph glyph-name="tcommaaccent" unicode="&#x21b;" horiz-adv-x="301" 
d="M82 153v308h-74v70h74v122h88v-122h117v-70h-117v-308c0 -64 19 -94 97 -94h18v-63c-10 -5 -32 -8 -57 -8c-99 0 -146 53 -146 165zM116 -148v70h99v-27c0 -54 -16 -90 -42 -124h-46c18 25 30 50 30 81h-41z" />
    <glyph glyph-name="uacute" unicode="&#xfa;" horiz-adv-x="566" 
d="M235 602l94 118h112l-120 -118h-86zM408 217v314h88v-531h-88v72c-36 -56 -92 -84 -161 -84c-111 0 -177 65 -177 188v355h88v-337c0 -80 35 -131 113 -131c86 0 137 78 137 154z" />
    <glyph glyph-name="ucircumflex" unicode="&#xfb;" horiz-adv-x="566" 
d="M355 602l-71 74l-72 -74h-82l99 118h108l100 -118h-82zM408 217v314h88v-531h-88v72c-36 -56 -92 -84 -161 -84c-111 0 -177 65 -177 188v355h88v-337c0 -80 35 -131 113 -131c86 0 137 78 137 154z" />
    <glyph glyph-name="udieresis" unicode="&#xfc;" horiz-adv-x="566" 
d="M186 602v118h77v-118h-77zM303 602v118h77v-118h-77zM408 217v314h88v-531h-88v72c-36 -56 -92 -84 -161 -84c-111 0 -177 65 -177 188v355h88v-337c0 -80 35 -131 113 -131c86 0 137 78 137 154z" />
    <glyph glyph-name="ugrave" unicode="&#xf9;" horiz-adv-x="566" 
d="M331 602h-86l-120 118h112zM408 217v314h88v-531h-88v72c-36 -56 -92 -84 -161 -84c-111 0 -177 65 -177 188v355h88v-337c0 -80 35 -131 113 -131c86 0 137 78 137 154z" />
    <glyph glyph-name="ubreve" unicode="&#x16d;" horiz-adv-x="566" 
d="M138 720h66c5 -43 40 -60 80 -60s74 17 79 60h65c-14 -88 -78 -118 -144 -118c-67 0 -132 30 -146 118zM408 217v314h88v-531h-88v72c-36 -56 -92 -84 -161 -84c-111 0 -177 65 -177 188v355h88v-337c0 -80 35 -131 113 -131c86 0 137 78 137 154z" />
    <glyph glyph-name="uhungarumlaut" unicode="&#x171;" horiz-adv-x="566" 
d="M177 602l72 118h85l-90 -118h-67zM318 602l72 118h85l-91 -118h-66zM408 217v314h88v-531h-88v72c-36 -56 -92 -84 -161 -84c-111 0 -177 65 -177 188v355h88v-337c0 -80 35 -131 113 -131c86 0 137 78 137 154z" />
    <glyph glyph-name="umacron" unicode="&#x16b;" horiz-adv-x="566" 
d="M163 627v69h240v-69h-240zM408 217v314h88v-531h-88v72c-36 -56 -92 -84 -161 -84c-111 0 -177 65 -177 188v355h88v-337c0 -80 35 -131 113 -131c86 0 137 78 137 154z" />
    <glyph glyph-name="uogonek" unicode="&#x173;" horiz-adv-x="566" 
d="M386 -110c0 -40 27 -68 76 -68c28 0 43 5 55 11v-54c-25 -9 -44 -12 -72 -12c-73 0 -130 39 -130 105c0 45 34 92 93 134v76c-35 -61 -91 -94 -161 -94c-111 0 -177 65 -177 188v355h88v-337c0 -80 35 -131 113 -131c86 0 137 78 137 154v314h88v-531h-35
c-59 -44 -75 -77 -75 -110z" />
    <glyph glyph-name="uring" unicode="&#x16f;" horiz-adv-x="566" 
d="M283 602c-58 0 -101 42 -101 100c0 59 43 102 101 102s101 -44 101 -102s-43 -100 -101 -100zM283 651c28 0 48 21 48 51s-20 52 -48 52s-48 -21 -48 -52c0 -30 20 -51 48 -51zM408 217v314h88v-531h-88v72c-36 -56 -92 -84 -161 -84c-111 0 -177 65 -177 188v355h88
v-337c0 -80 35 -131 113 -131c86 0 137 78 137 154z" />
    <glyph glyph-name="utilde" unicode="&#x169;" horiz-adv-x="566" 
d="M183 602h-53c0 94 46 118 83 118c72 0 99 -61 136 -61c16 0 32 11 34 61h53c0 -95 -46 -118 -83 -118c-71 0 -98 60 -136 60c-16 0 -32 -11 -34 -60zM408 217v314h88v-531h-88v72c-36 -56 -92 -84 -161 -84c-111 0 -177 65 -177 188v355h88v-337c0 -80 35 -131 113 -131
c86 0 137 78 137 154z" />
    <glyph glyph-name="wacute" unicode="&#x1e83;" horiz-adv-x="810" 
d="M357 602l94 118h112l-120 -118h-86zM530 0l-115 397l-12 60l-12 -60l-114 -397h-109l-158 531h95l109 -412l13 -54l13 54l121 412h95l121 -412l12 -52l11 52l109 412h91l-159 -531h-111z" />
    <glyph glyph-name="wcircumflex" unicode="&#x175;" horiz-adv-x="810" 
d="M477 602l-71 74l-72 -74h-82l99 118h108l100 -118h-82zM530 0l-115 397l-12 60l-12 -60l-114 -397h-109l-158 531h95l109 -412l13 -54l13 54l121 412h95l121 -412l12 -52l11 52l109 412h91l-159 -531h-111z" />
    <glyph glyph-name="wdieresis" unicode="&#x1e85;" horiz-adv-x="810" 
d="M308 602v118h77v-118h-77zM425 602v118h77v-118h-77zM530 0l-115 397l-12 60l-12 -60l-114 -397h-109l-158 531h95l109 -412l13 -54l13 54l121 412h95l121 -412l12 -52l11 52l109 412h91l-159 -531h-111z" />
    <glyph glyph-name="wgrave" unicode="&#x1e81;" horiz-adv-x="810" 
d="M453 602h-86l-120 118h112zM530 0l-115 397l-12 60l-12 -60l-114 -397h-109l-158 531h95l109 -412l13 -54l13 54l121 412h95l121 -412l12 -52l11 52l109 412h91l-159 -531h-111z" />
    <glyph glyph-name="yacute" unicode="&#xfd;" horiz-adv-x="527" 
d="M211 602l94 118h112l-120 -118h-86zM94 -232c-20 0 -41 5 -52 8v68h27c65 0 83 13 135 132l18 41l-217 514h95l144 -351l24 -71l24 71l140 351h90l-248 -601c-53 -128 -88 -162 -180 -162z" />
    <glyph glyph-name="ydieresis" unicode="&#xff;" horiz-adv-x="527" 
d="M162 602v118h77v-118h-77zM279 602v118h77v-118h-77zM94 -232c-20 0 -41 5 -52 8v68h27c65 0 83 13 135 132l18 41l-217 514h95l144 -351l24 -71l24 71l140 351h90l-248 -601c-53 -128 -88 -162 -180 -162z" />
    <glyph glyph-name="ycircumflex" unicode="&#x177;" horiz-adv-x="527" 
d="M331 602l-71 74l-72 -74h-82l99 118h108l100 -118h-82zM94 -232c-20 0 -41 5 -52 8v68h27c65 0 83 13 135 132l18 41l-217 514h95l144 -351l24 -71l24 71l140 351h90l-248 -601c-53 -128 -88 -162 -180 -162z" />
    <glyph glyph-name="ygrave" unicode="&#x1ef3;" horiz-adv-x="527" 
d="M307 602h-86l-120 118h112zM94 -232c-20 0 -41 5 -52 8v68h27c65 0 83 13 135 132l18 41l-217 514h95l144 -351l24 -71l24 71l140 351h90l-248 -601c-53 -128 -88 -162 -180 -162z" />
    <glyph glyph-name="zcaron" unicode="&#x17e;" horiz-adv-x="498" 
d="M321 720h82l-100 -118h-108l-99 118h82l72 -75zM30 0v69l315 392h-303v70h408v-70l-315 -392h333v-69h-438z" />
    <glyph glyph-name="zacute" unicode="&#x17a;" horiz-adv-x="498" 
d="M201 602l94 118h112l-120 -118h-86zM30 0v69l315 392h-303v70h408v-70l-315 -392h333v-69h-438z" />
    <glyph glyph-name="zdotaccent" unicode="&#x17c;" horiz-adv-x="498" 
d="M205 602v118h88v-118h-88zM30 0v69l315 392h-303v70h408v-70l-315 -392h333v-69h-438z" />
    <glyph glyph-name="acute" unicode="&#xb4;" 
d="M238 602l94 118h112l-120 -118h-86z" />
    <glyph glyph-name="grave" unicode="`" 
d="M334 602h-86l-120 118h112z" />
    <glyph glyph-name="circumflex" unicode="&#x2c6;" 
d="M358 602l-71 74l-72 -74h-82l99 118h108l100 -118h-82z" />
    <glyph glyph-name="caron" unicode="&#x2c7;" 
d="M358 720h82l-100 -118h-108l-99 118h82l72 -75z" />
    <glyph glyph-name="tilde" unicode="&#x2dc;" 
d="M186 602h-53c0 94 46 118 83 118c72 0 99 -61 136 -61c16 0 32 11 34 61h53c0 -95 -46 -118 -83 -118c-71 0 -98 60 -136 60c-16 0 -32 -11 -34 -60z" />
    <glyph glyph-name="dieresis" unicode="&#xa8;" 
d="M189 602v118h77v-118h-77zM306 602v118h77v-118h-77z" />
    <glyph glyph-name="ring" unicode="&#x2da;" 
d="M286 602c-58 0 -101 42 -101 100c0 59 43 102 101 102s101 -44 101 -102s-43 -100 -101 -100zM286 651c28 0 48 21 48 51s-20 52 -48 52s-48 -21 -48 -52c0 -30 20 -51 48 -51z" />
    <glyph glyph-name="cedilla" unicode="&#xb8;" 
d="M290 -133c0 25 -23 34 -85 40l50 93h55l-31 -56c55 -7 83 -32 83 -72c0 -62 -66 -90 -195 -93v45c81 2 123 16 123 43z" />
    <glyph glyph-name="hungarumlaut" unicode="&#x2dd;" 
d="M180 602l72 118h85l-90 -118h-67zM321 602l72 118h85l-91 -118h-66z" />
    <glyph glyph-name="breve" unicode="&#x2d8;" 
d="M141 720h66c5 -43 40 -60 80 -60s74 17 79 60h65c-14 -88 -78 -118 -144 -118c-67 0 -132 30 -146 118z" />
    <glyph glyph-name="macron" unicode="&#xaf;" 
d="M166 627v69h240v-69h-240z" />
    <glyph glyph-name="dotaccent" unicode="&#x2d9;" 
d="M242 602v118h88v-118h-88z" />
    <glyph glyph-name="periodcentered" unicode="&#xb7;" 
d="M242 245v117h88v-117h-88z" />
    <glyph glyph-name="ogonek" unicode="&#x2db;" 
d="M226 -110c0 -40 27 -68 76 -68c28 0 43 5 55 11v-54c-25 -9 -44 -12 -72 -12c-73 0 -130 39 -130 105c0 55 51 114 138 163l23 -24c-71 -50 -90 -85 -90 -121z" />
    <glyph glyph-name="commaaccentcomb" unicode="&#x326;" 
d="M238 -148v70h99v-27c0 -54 -16 -90 -42 -124h-46c18 25 30 50 30 81h-41z" />
    <glyph glyph-name="caron.alt" unicode="&#xe189;" 
d="M247 650v70h98v-27c0 -54 -16 -90 -41 -124h-46c22 29 29 50 29 81h-40z" />
    <glyph glyph-name="revcommaaccent" unicode="&#xe18a;" 
d="M337 672v-70h-99v27c0 54 16 89 42 123h46c-18 -25 -29 -50 -29 -80h40z" />
    <glyph glyph-name="period" unicode="." horiz-adv-x="228" 
d="M60 0v108h108v-108h-108z" />
    <glyph glyph-name="comma" unicode="," horiz-adv-x="228" 
d="M60 0v108h108v-58c0 -93 -15 -150 -50 -215h-50c23 60 36 103 36 165h-44z" />
    <glyph glyph-name="colon" unicode=":" horiz-adv-x="228" 
d="M60 375v109h108v-109h-108zM60 0v108h108v-108h-108z" />
    <glyph glyph-name="semicolon" unicode=";" horiz-adv-x="228" 
d="M60 375v109h108v-109h-108zM60 0v108h108v-58c0 -93 -15 -150 -50 -215h-50c23 60 36 103 36 165h-44z" />
    <glyph glyph-name="ellipsis" unicode="&#x2026;" horiz-adv-x="713" 
d="M60 0v108h108v-108h-108zM302 0v108h108v-108h-108zM544 0v108h109v-108h-109z" />
    <glyph glyph-name="question" unicode="?" horiz-adv-x="522" 
d="M474 509c0 -178 -199 -139 -199 -342h-88c0 232 199 204 199 341c0 70 -42 113 -124 113c-88 0 -132 -46 -143 -128h-88c17 123 96 199 232 199c140 0 211 -80 211 -183zM177 0v108h108v-108h-108z" />
    <glyph glyph-name="exclam" unicode="!" horiz-adv-x="315" 
d="M114 167v513h87v-513h-87zM103 0v108h109v-108h-109z" />
    <glyph glyph-name="questiondown" unicode="&#xbf;" horiz-adv-x="522" 
d="M345 484v-108h-108v108h108zM48 -25c0 178 199 139 199 342h88c0 -232 -199 -204 -199 -341c0 -70 42 -113 124 -113c88 0 132 46 143 128h88c-17 -123 -96 -199 -232 -199c-140 0 -211 80 -211 183z" />
    <glyph glyph-name="exclamdown" unicode="&#xa1;" horiz-adv-x="315" 
d="M212 484v-108h-109v108h109zM201 317v-513h-87v513h87z" />
    <glyph glyph-name="parenleft" unicode="(" horiz-adv-x="320" 
d="M212 -181c-98 153 -149 302 -149 451s51 297 149 450h87c-94 -157 -142 -303 -142 -450c0 -148 48 -294 142 -451h-87z" />
    <glyph glyph-name="parenright" unicode=")" horiz-adv-x="320" 
d="M108 -181h-87c94 157 142 303 142 451c0 147 -48 293 -142 450h87c98 -153 149 -301 149 -450s-51 -298 -149 -451z" />
    <glyph glyph-name="braceleft" unicode="{" horiz-adv-x="343" 
d="M122 270c67 -10 91 -46 91 -132v-177c0 -56 19 -79 74 -79h36v-63h-76c-85 0 -122 43 -122 126v189c0 85 -17 104 -100 104v63c83 0 100 19 100 104v189c0 83 37 126 122 126h76v-63h-36c-55 0 -74 -23 -74 -79v-177c0 -86 -24 -122 -91 -131z" />
    <glyph glyph-name="braceright" unicode="}" horiz-adv-x="343" 
d="M221 270c-68 9 -91 45 -91 131v177c0 56 -19 79 -75 79h-35v63h75c85 0 122 -43 122 -126v-189c0 -85 17 -104 100 -104v-63c-83 0 -100 -19 -100 -104v-189c0 -83 -37 -126 -122 -126h-75v63h35c56 0 75 23 75 79v177c0 86 23 122 91 132z" />
    <glyph glyph-name="bracketleft" unicode="[" horiz-adv-x="336" 
d="M108 -181v901h208v-63h-120v-775h120v-63h-208z" />
    <glyph glyph-name="bracketright" unicode="]" horiz-adv-x="336" 
d="M227 -181h-207v63h120v775h-120v63h207v-901z" />
    <glyph glyph-name="slash" unicode="/" horiz-adv-x="338" 
d="M0 0l250 680h88l-250 -680h-88z" />
    <glyph glyph-name="backslash" unicode="\" horiz-adv-x="338" 
d="M338 0h-88l-250 680h88z" />
    <glyph glyph-name="underscore" unicode="_" horiz-adv-x="436" 
d="M31 -79v67h374v-67h-374z" />
    <glyph glyph-name="hyphen" unicode="-" horiz-adv-x="403" 
d="M68 235v75h266v-75h-266z" />
    <glyph glyph-name="softhyphen" unicode="&#xad;" horiz-adv-x="403" 
 />
    <glyph glyph-name="endash" unicode="&#x2013;" horiz-adv-x="500" 
d="M68 235v75h363v-75h-363z" />
    <glyph glyph-name="emdash" unicode="&#x2014;" horiz-adv-x="1000" 
d="M68 235v75h863v-75h-863z" />
    <glyph glyph-name="brokenbar" unicode="&#xa6;" horiz-adv-x="245" 
d="M78 355v365h88v-365h-88zM78 -221v365h88v-365h-88z" />
    <glyph glyph-name="bar" unicode="|" horiz-adv-x="245" 
d="M78 -221v941h88v-941h-88z" />
    <glyph glyph-name="guillemotleft" unicode="&#xab;" horiz-adv-x="686" 
d="M316 39l-248 192v79l248 192v-100l-168 -131l168 -132v-100zM600 39l-248 192v79l248 192v-100l-168 -131l168 -132v-100z" />
    <glyph glyph-name="guillemotright" unicode="&#xbb;" horiz-adv-x="686" 
d="M370 39v100l168 132l-168 131v100l248 -192v-79zM86 39v100l168 132l-168 131v100l248 -192v-79z" />
    <glyph glyph-name="guilsinglleft" unicode="&#x2039;" horiz-adv-x="403" 
d="M316 39l-248 192v79l248 192v-100l-168 -131l168 -132v-100z" />
    <glyph glyph-name="guilsinglright" unicode="&#x203a;" horiz-adv-x="403" 
d="M86 39v100l168 132l-168 131v100l248 -192v-79z" />
    <glyph glyph-name="quotesinglbase" unicode="&#x201a;" horiz-adv-x="228" 
d="M60 0v105h108v-68c0 -72 -15 -114 -43 -164h-51c18 47 30 80 30 127h-44z" />
    <glyph glyph-name="quotedblbase" unicode="&#x201e;" horiz-adv-x="402" 
d="M60 0v105h108v-68c0 -72 -15 -114 -43 -164h-51c18 47 30 80 30 127h-44zM233 0v105h109v-68c0 -72 -17 -114 -44 -164h-51c19 47 30 80 30 127h-44z" />
    <glyph glyph-name="quoteleft" unicode="&#x2018;" horiz-adv-x="228" 
d="M168 551v-105h-108v69c0 71 16 113 43 165h51c-18 -48 -30 -81 -30 -129h44z" />
    <glyph glyph-name="quotedblleft" unicode="&#x201c;" horiz-adv-x="402" 
d="M342 551v-105h-109v69c0 71 15 113 44 165h51c-19 -48 -31 -81 -31 -129h45zM168 551v-105h-108v69c0 71 16 113 43 165h51c-18 -48 -30 -81 -30 -129h44z" />
    <glyph glyph-name="quoteright" unicode="&#x2019;" horiz-adv-x="228" 
d="M60 574v106h108v-69c0 -72 -15 -115 -43 -165h-51c19 47 30 80 30 128h-44z" />
    <glyph glyph-name="quotedblright" unicode="&#x201d;" horiz-adv-x="402" 
d="M60 574v106h108v-69c0 -72 -15 -114 -43 -165h-51c18 47 30 80 30 128h-44zM233 574v106h109v-69c0 -72 -17 -114 -44 -165h-51c19 47 30 80 30 128h-44z" />
    <glyph glyph-name="quotesingle" unicode="'" horiz-adv-x="218" 
d="M77 446l-16 234h96l-17 -234h-63z" />
    <glyph glyph-name="quotedbl" unicode="&#x22;" horiz-adv-x="385" 
d="M77 446l-16 234h96l-17 -234h-63zM244 446l-17 234h96l-16 -234h-63z" />
    <glyph glyph-name="bullet" unicode="&#x2022;" horiz-adv-x="430" 
d="M215 142c-75 0 -137 61 -137 137c0 75 62 136 137 136s137 -61 137 -136c0 -76 -62 -137 -137 -137z" />
    <glyph glyph-name="ampersand" unicode="&#x26;" horiz-adv-x="743" 
d="M487 541c0 -98 -71 -135 -148 -167l1 -1l177 -171c18 42 28 94 28 153h91c0 -77 -19 -153 -55 -214l145 -141h-121l-77 73c-54 -52 -129 -85 -224 -85c-151 0 -242 89 -242 202c0 109 67 160 142 197c-51 56 -70 96 -70 151c0 92 75 154 182 154c113 0 171 -73 171 -151z
M222 538c0 -41 21 -70 66 -114c61 27 112 55 112 112c0 40 -32 80 -85 80c-56 0 -93 -36 -93 -78zM152 191c0 -74 56 -127 157 -127c65 0 120 23 161 65l-187 178c-11 10 -21 20 -30 29c-57 -29 -101 -68 -101 -145z" />
    <glyph glyph-name="paragraph" unicode="&#xb6;" horiz-adv-x="609" 
d="M392 -181h-92v429h-9c-151 0 -250 80 -250 216c0 134 98 216 251 216h252v-861h-92v776h-60v-776z" />
    <glyph glyph-name="dagger" unicode="&#x2020;" horiz-adv-x="487" 
d="M199 -197v587h-168v75h168v231h88v-231h169v-75h-169v-587h-88z" />
    <glyph glyph-name="daggerdbl" unicode="&#x2021;" horiz-adv-x="487" 
d="M31 18v75h168v297h-168v75h168v231h88v-231h169v-75h-169v-297h169v-75h-169v-215h-88v215h-168z" />
    <glyph glyph-name="section" unicode="&#xa7;" horiz-adv-x="625" 
d="M531 -14c0 -114 -90 -179 -214 -179c-128 0 -219 65 -238 186h88c12 -78 67 -120 149 -120c83 0 127 41 127 102c0 186 -390 53 -390 305c0 54 32 107 89 141c-24 23 -39 56 -39 104c0 92 69 167 197 167c119 0 203 -59 219 -187h-87c-12 84 -60 121 -133 121
c-72 0 -112 -38 -112 -94c0 -174 385 -40 385 -294c0 -60 -34 -109 -86 -143c28 -25 45 -59 45 -109zM135 281c0 -116 175 -103 293 -151c39 27 62 58 62 102c0 127 -179 105 -294 154c-40 -25 -61 -60 -61 -105z" />
    <glyph glyph-name="asterisk" unicode="*" horiz-adv-x="345" 
d="M286 441l-57 -42l-56 90l-56 -90l-57 42l68 80l-103 25l22 68l98 -40l-8 106h71l-7 -106l97 40l22 -68l-102 -25z" />
    <glyph glyph-name="trademark" unicode="&#x2122;" horiz-adv-x="898" 
d="M147 272v341h-131v67h343v-67h-131v-341h-81zM410 272v408h108l103 -263l15 -52l15 52l102 263h105v-408h-80l3 315l-30 -93l-88 -222h-58l-88 223l-30 92l4 -315h-81z" />
    <glyph glyph-name="registered" unicode="&#xae;" horiz-adv-x="554" 
d="M277 227c-138 0 -237 99 -237 233s99 232 237 232c137 0 237 -98 237 -231c0 -134 -100 -234 -237 -234zM277 266c110 0 192 83 192 195c0 109 -82 192 -192 192c-111 0 -192 -83 -192 -193c0 -112 81 -194 192 -194zM178 328v272h108c61 0 99 -32 99 -82
c0 -30 -13 -51 -36 -63c14 -9 22 -23 27 -44l21 -83h-56l-15 71c-7 31 -19 37 -48 37h-45v-108h-55zM283 558h-50v-85h49c32 0 51 16 51 42s-19 43 -50 43z" />
    <glyph glyph-name="copyright" unicode="&#xa9;" horiz-adv-x="851" 
d="M425 -42c-216 0 -372 155 -372 367c0 213 156 367 372 367s372 -155 372 -367c0 -211 -156 -367 -372 -367zM425 -3c189 0 327 138 327 328c0 187 -138 328 -327 328s-327 -141 -327 -328c0 -190 138 -328 327 -328zM617 414h-80c-16 51 -57 80 -110 80
c-80 0 -126 -64 -126 -170s46 -169 126 -169c51 0 91 29 109 78h80c-24 -95 -97 -140 -186 -140c-129 0 -209 87 -209 231s79 234 208 234c90 0 167 -50 188 -144z" />
    <glyph glyph-name="at" unicode="@" horiz-adv-x="980" 
d="M741 17c-77 0 -113 37 -124 98c-46 -69 -123 -99 -194 -99c-99 0 -175 56 -175 150c0 75 40 126 118 152c72 23 145 30 247 31v15c0 87 -38 135 -121 135c-84 0 -124 -45 -135 -113h-88c16 116 95 187 226 187c138 0 205 -82 205 -207v-201c0 -55 20 -91 70 -91
c69 0 113 81 113 222c0 224 -164 392 -390 392c-229 0 -396 -175 -396 -407c0 -235 165 -402 396 -402c75 0 140 9 203 35l15 -42c-67 -27 -138 -38 -218 -38c-261 0 -446 188 -446 447c0 261 187 451 446 451c256 0 440 -184 440 -435c0 -176 -73 -280 -192 -280zM336 176
c0 -52 38 -86 105 -86c93 0 172 72 172 157v40c-226 -2 -277 -47 -277 -111z" />
    <glyph glyph-name="ordfeminine" unicode="&#xaa;" horiz-adv-x="348" 
d="M110 540h-77c10 72 62 115 143 115c89 0 134 -53 134 -127v-125c0 -37 3 -60 12 -78h-77c-6 12 -9 29 -10 46c-25 -38 -66 -54 -106 -54c-63 0 -108 30 -108 91c0 44 25 77 74 94c43 14 85 18 140 18v8c0 41 -20 63 -64 63c-36 0 -56 -20 -61 -51zM98 412
c0 -24 20 -39 51 -39c48 0 86 38 86 86v13c-111 -1 -137 -26 -137 -60z" />
    <glyph glyph-name="ordmasculine" unicode="&#xba;" horiz-adv-x="348" 
d="M174 317c-95 0 -154 63 -154 168c0 109 60 170 154 170c95 0 154 -65 154 -170c0 -109 -61 -168 -154 -168zM174 379c49 0 75 37 75 106c0 68 -27 106 -75 106c-49 0 -75 -37 -75 -106c0 -68 26 -106 75 -106z" />
    <glyph glyph-name="numbersign" unicode="#" horiz-adv-x="699" 
d="M108 0l33 162h-90v70h105l44 215h-82v70h96l34 163h83l-34 -163h177l34 163h82l-34 -163h91v-70h-105l-44 -215h82v-70h-97l-33 -162h-82l33 162h-177l-33 -162h-83zM239 232h177l44 215h-177z" />
    <glyph glyph-name="Euro" unicode="&#x20ac;" horiz-adv-x="576" 
d="M6 215l15 70h63c-1 11 -1 23 -1 35s0 24 1 35h-51l15 70h44c27 144 113 230 240 230c102 0 186 -65 216 -188h-90c-21 71 -70 112 -129 112c-74 0 -126 -56 -146 -154h203l-15 -70h-197c-1 -11 -1 -23 -1 -35s0 -24 1 -35h185l-15 -70h-161c21 -96 72 -151 146 -151
c57 0 103 38 127 108h91c-35 -116 -117 -184 -219 -184c-125 0 -209 84 -236 227h-86z" />
    <glyph glyph-name="dollar" unicode="$" horiz-adv-x="576" 
d="M241 -107v99c-107 17 -178 80 -195 192h89c11 -78 75 -120 166 -120c90 0 138 45 138 108c0 179 -376 53 -376 306c0 83 61 161 178 175v97h90v-99c95 -16 166 -75 179 -188h-89c-12 81 -66 116 -147 116c-79 0 -121 -42 -121 -104c0 -163 376 -46 376 -295
c0 -113 -83 -181 -198 -191v-96h-90z" />
    <glyph glyph-name="yen" unicode="&#xa5;" horiz-adv-x="576" 
d="M104 106v70h137v70h-137v70h106l-195 327h99l146 -254l30 -64l31 64l146 254h93l-195 -327h106v-70h-137v-70h137v-70h-137v-106h-93v106h-137z" />
    <glyph glyph-name="sterling" unicode="&#xa3;" horiz-adv-x="576" 
d="M61 0v74h68c53 31 78 75 78 126c0 16 -3 32 -9 46h-122v70h79c-34 46 -73 93 -73 161c0 95 74 178 215 178c119 0 213 -59 228 -192h-89c-12 81 -64 116 -139 116c-82 0 -125 -42 -125 -104c0 -58 46 -106 83 -159h188v-70h-153c5 -14 7 -29 7 -44
c0 -50 -24 -94 -67 -128h295v-74h-464z" />
    <glyph glyph-name="cent" unicode="&#xa2;" horiz-adv-x="576" 
d="M249 -55v97c-123 20 -194 121 -194 274c0 161 74 257 194 276v98h90v-98c96 -15 165 -81 182 -192h-87c-16 83 -69 124 -139 124c-97 0 -150 -73 -150 -208c0 -131 55 -207 153 -207c71 0 121 41 139 120h88c-24 -114 -92 -175 -186 -188v-96h-90z" />
    <glyph glyph-name="florin" unicode="&#x192;" horiz-adv-x="576" 
d="M330 -68c0 -112 -46 -165 -144 -165c-22 0 -40 4 -49 8v63h9c77 0 96 30 96 94v452h-74v70h74v36c0 112 46 165 144 165c22 0 40 -4 49 -8v-63h-9c-77 0 -96 -30 -96 -94v-36h108v-70h-108v-452z" />
    <glyph glyph-name="currency" unicode="&#xa4;" horiz-adv-x="576" 
d="M151 134l-47 48l56 56c-14 22 -21 49 -21 79c0 31 8 58 22 81l-57 57l47 48l57 -57c23 14 50 22 81 22c30 0 57 -8 80 -22l55 56l48 -48l-56 -55c14 -23 22 -51 22 -82c0 -30 -8 -57 -21 -80l55 -55l-48 -47l-55 55c-23 -14 -50 -22 -80 -22c-31 0 -59 8 -82 22zM289 225
c50 0 86 39 86 92c0 54 -36 94 -86 94c-51 0 -87 -40 -87 -94c0 -53 36 -92 87 -92z" />
    <glyph glyph-name="zero" unicode="0" horiz-adv-x="576" 
d="M288 -12c-159 0 -251 124 -251 333c0 215 94 334 251 334c158 0 250 -124 250 -334c0 -215 -94 -333 -250 -333zM288 64c103 0 160 92 160 257c0 164 -58 258 -160 258c-104 0 -161 -91 -161 -258c0 -162 58 -257 161 -257z" />
    <glyph glyph-name="one" unicode="1" horiz-adv-x="576" 
d="M138 0v70h123v450h-123v70h73c52 0 65 12 65 41v12h77v-573h123v-70h-338z" />
    <glyph glyph-name="two" unicode="2" horiz-adv-x="576" 
d="M62 0v24c0 289 356 265 356 438c0 73 -43 117 -123 117c-88 0 -131 -45 -143 -119h-91c17 121 98 195 235 195c140 0 212 -83 212 -192c0 -208 -318 -206 -355 -393h362v-70h-453z" />
    <glyph glyph-name="three" unicode="3" horiz-adv-x="576" 
d="M532 179c0 -109 -82 -191 -241 -191c-143 0 -232 74 -250 197h90c12 -74 62 -121 159 -121c100 0 152 44 152 119c0 55 -29 114 -180 114h-26v70h21c143 0 166 59 166 104c0 68 -45 108 -131 108c-90 0 -136 -45 -148 -119h-89c17 121 100 195 238 195
c145 0 220 -78 220 -183c0 -60 -26 -107 -93 -135c83 -31 112 -89 112 -158z" />
    <glyph glyph-name="four" unicode="4" horiz-adv-x="576" 
d="M447 0h-90v151h-313v80l322 412h81v-422h94v-70h-94v-151zM127 221h230v303z" />
    <glyph glyph-name="five" unicode="5" horiz-adv-x="576" 
d="M536 214c0 -132 -82 -226 -239 -226c-144 0 -230 72 -247 193h88c11 -72 63 -117 158 -117c101 0 152 56 152 149c0 75 -36 153 -152 153c-76 0 -118 -32 -142 -68l-79 8l20 337h411v-70h-341l-11 -182c37 30 83 51 149 51c170 0 233 -108 233 -228z" />
    <glyph glyph-name="six" unicode="6" horiz-adv-x="576" 
d="M542 207c0 -137 -100 -219 -236 -219h-2h-1c-152 1 -256 103 -256 333c0 215 96 334 258 334c120 0 204 -69 235 -193h-90c-23 77 -76 117 -148 117c-112 0 -173 -91 -173 -255c37 63 104 98 183 98c137 0 230 -80 230 -215zM304 64c89 0 148 50 148 140
c0 89 -61 142 -148 142c-90 0 -149 -52 -149 -143c0 -87 60 -139 149 -139z" />
    <glyph glyph-name="seven" unicode="7" horiz-adv-x="576" 
d="M268 0h-92c34 213 117 404 240 573h-359v70h454v-56c-135 -185 -216 -382 -243 -587z" />
    <glyph glyph-name="eight" unicode="8" horiz-adv-x="576" 
d="M293 -12c-144 0 -239 72 -239 188c0 76 41 130 109 160c-54 28 -86 77 -86 142c0 107 88 177 216 177c129 0 217 -66 217 -177c0 -64 -33 -114 -88 -143c69 -30 110 -87 110 -158c0 -119 -96 -189 -239 -189zM293 581c-77 0 -130 -40 -130 -106c0 -70 52 -108 130 -108
c77 0 131 40 131 107c0 69 -52 107 -131 107zM293 62c91 0 151 43 151 119s-62 120 -151 120c-90 0 -151 -43 -151 -121c0 -73 61 -118 151 -118z" />
    <glyph glyph-name="nine" unicode="9" horiz-adv-x="576" 
d="M46 439c0 136 96 216 233 216h2c155 -1 251 -104 251 -331c0 -218 -98 -336 -255 -336c-117 0 -203 66 -233 188h90c21 -75 75 -112 146 -112c109 0 168 88 168 249c-35 -61 -98 -96 -172 -96c-137 0 -230 81 -230 222zM282 579c-88 0 -146 -50 -146 -140
c0 -92 58 -146 146 -146c87 0 145 53 145 146c0 88 -58 140 -145 140z" />
    <glyph glyph-name="degree" unicode="&#xb0;" horiz-adv-x="348" 
d="M174 347c-89 0 -154 65 -154 153c0 89 65 155 154 155s154 -66 154 -155c0 -88 -65 -153 -154 -153zM174 409c43 0 75 38 75 91s-32 91 -75 91s-75 -38 -75 -91s32 -91 75 -91z" />
    <glyph glyph-name="percent" unicode="%" horiz-adv-x="782" 
d="M172 293c-97 0 -154 66 -154 180c0 116 58 182 154 182c97 0 154 -68 154 -182c0 -115 -57 -180 -154 -180zM115 0l464 643h88l-464 -643h-88zM172 357c49 0 76 41 76 116s-27 117 -76 117s-75 -41 -75 -117c0 -74 27 -116 75 -116zM609 -8c-97 0 -154 67 -154 180
c0 116 58 182 154 182c97 0 154 -67 154 -182s-57 -180 -154 -180zM609 56c49 0 76 41 76 116s-27 117 -76 117s-75 -41 -75 -117c0 -74 27 -116 75 -116z" />
    <glyph glyph-name="perthousand" unicode="&#x2030;" horiz-adv-x="1127" 
d="M172 293c-97 0 -154 66 -154 180c0 116 58 182 154 182c97 0 154 -68 154 -182c0 -115 -57 -180 -154 -180zM115 0l464 643h88l-464 -643h-88zM172 357c49 0 76 41 76 116s-27 117 -76 117s-75 -41 -75 -117c0 -74 27 -116 75 -116zM609 -8c-97 0 -154 67 -154 180
c0 116 58 182 154 182c97 0 154 -67 154 -182s-57 -180 -154 -180zM954 -8c-97 0 -154 67 -154 180c0 116 58 182 154 182c97 0 154 -67 154 -182s-57 -180 -154 -180zM609 56c49 0 76 41 76 116s-27 117 -76 117s-75 -41 -75 -117c0 -74 27 -116 75 -116zM954 56
c49 0 76 41 76 116s-27 117 -76 117s-75 -41 -75 -117c0 -74 27 -116 75 -116z" />
    <glyph glyph-name="fraction" unicode="&#x2044;" horiz-adv-x="92" 
d="M-230 0l464 643h88l-464 -643h-88z" />
    <glyph glyph-name="divisionslash" unicode="&#x2215;" horiz-adv-x="92" 
d="M-230 0l464 643h88l-464 -643h-88z" />
    <glyph glyph-name="zero.superior" unicode="&#x2070;" horiz-adv-x="345" 
d="M172 253c-97 0 -154 74 -154 200c0 129 58 202 154 202c97 0 154 -75 154 -202c0 -128 -57 -200 -154 -200zM172 317c49 0 76 48 76 136s-27 137 -76 137s-75 -48 -75 -137c0 -87 27 -136 75 -136z" />
    <glyph glyph-name="onesuperior" unicode="&#xb9;" horiz-adv-x="345" 
d="M71 261v59h72v233h-72v58h34c40 0 51 9 51 30v5h68v-326h72v-59h-225z" />
    <glyph glyph-name="twosuperior" unicode="&#xb2;" horiz-adv-x="345" 
d="M30 261v19c0 172 205 163 205 254c0 36 -22 57 -59 57c-42 0 -63 -22 -69 -59h-78c10 76 63 123 147 123c90 0 136 -53 136 -120c0 -116 -169 -126 -202 -215h203v-59h-283z" />
    <glyph glyph-name="threesuperior" unicode="&#xb3;" horiz-adv-x="345" 
d="M325 371c0 -66 -52 -118 -151 -118c-87 0 -145 46 -156 124h77c7 -38 32 -62 79 -62s74 22 74 59c0 28 -17 56 -90 56h-22v57h17c71 0 84 29 84 52c0 33 -23 52 -63 52c-42 0 -65 -22 -71 -59h-77c10 76 65 123 149 123c91 0 139 -52 139 -115c0 -36 -15 -61 -49 -77
c43 -20 60 -52 60 -92z" />
    <glyph glyph-name="four.superior" unicode="&#x2074;" horiz-adv-x="345" 
d="M279 261h-78v81h-178v69l186 235h70v-244h50v-60h-50v-81zM84 402h117v152z" />
    <glyph glyph-name="onehalf" unicode="&#xbd;" horiz-adv-x="782" 
d="M71 261v59h72v233h-72v58h34c40 0 51 9 51 30v5h68v-326h72v-59h-225zM131 0l464 643h88l-464 -643h-88zM467 0v19c0 172 205 163 205 254c0 36 -22 57 -59 57c-42 0 -63 -22 -69 -59h-78c10 76 63 123 147 123c90 0 136 -53 136 -120c0 -116 -169 -126 -202 -215h203
v-59h-283z" />
    <glyph glyph-name="onequarter" unicode="&#xbc;" horiz-adv-x="782" 
d="M71 261v59h72v233h-72v58h34c40 0 51 9 51 30v5h68v-326h72v-59h-225zM163 0l464 643h88l-464 -643h-88zM716 0h-78v81h-178v69l186 235h70v-244h50v-60h-50v-81zM521 141h117v152z" />
    <glyph glyph-name="threequarters" unicode="&#xbe;" horiz-adv-x="782" 
d="M325 371c0 -66 -52 -118 -151 -118c-87 0 -145 46 -156 124h77c7 -38 32 -62 79 -62s74 22 74 59c0 28 -17 56 -90 56h-22v57h17c71 0 84 29 84 52c0 33 -23 52 -63 52c-42 0 -65 -22 -71 -59h-77c10 76 65 123 149 123c91 0 139 -52 139 -115c0 -36 -15 -61 -49 -77
c43 -20 60 -52 60 -92zM159 0l464 643h88l-464 -643h-88zM716 0h-78v81h-178v69l186 235h70v-244h50v-60h-50v-81zM521 141h117v152z" />
    <glyph glyph-name="plus" unicode="+" horiz-adv-x="576" 
d="M93 283v70h160v159h70v-159h159v-70h-159v-160h-70v160h-160z" />
    <glyph glyph-name="minus" unicode="&#x2212;" horiz-adv-x="576" 
d="M93 283v70h389v-70h-389z" />
    <glyph glyph-name="multiply" unicode="&#xd7;" horiz-adv-x="576" 
d="M161 141l-50 50l128 127l-127 127l49 49l127 -127l127 127l49 -49l-127 -127l128 -127l-50 -50l-127 127z" />
    <glyph glyph-name="divide" unicode="&#xf7;" horiz-adv-x="576" 
d="M247 456v77h81v-77h-81zM93 285v66h389v-66h-389zM247 91v77h81v-77h-81z" />
    <glyph glyph-name="equal" unicode="=" horiz-adv-x="576" 
d="M93 383v70h389v-70h-389zM93 183v70h389v-70h-389z" />
    <glyph glyph-name="logicalnot" unicode="&#xac;" horiz-adv-x="576" 
d="M93 283v70h389v-230h-70v160h-319z" />
    <glyph glyph-name="asciitilde" unicode="~" horiz-adv-x="576" 
d="M93 285v66c35 24 66 34 94 34c74 0 137 -67 201 -67c28 0 59 10 94 33v-66c-35 -24 -66 -34 -94 -34c-74 0 -137 67 -201 67c-28 0 -59 -10 -94 -33z" />
    <glyph glyph-name="less" unicode="&#x3c;" horiz-adv-x="576" 
d="M482 85l-389 200v67l389 200v-82l-303 -152l303 -151v-82z" />
    <glyph glyph-name="greater" unicode="&#x3e;" horiz-adv-x="576" 
d="M93 85v82l303 151l-303 152v82l389 -200v-67z" />
    <glyph glyph-name="plusminus" unicode="&#xb1;" horiz-adv-x="576" 
d="M93 323v70h160v159h70v-159h159v-70h-159v-160h-70v160h-160zM93 0v70h389v-70h-389z" />
    <glyph glyph-name="asciicircum" unicode="^" horiz-adv-x="576" 
d="M111 390l143 290h67l143 -290h-72l-104 218l-105 -218h-72z" />
    <glyph glyph-name="notequal" unicode="&#x2260;" horiz-adv-x="576" 
d="M93 183v70h128l64 130h-192v70h226l34 69h70l-34 -69h93v-70h-127l-64 -130h191v-70h-225l-34 -70h-70l34 70h-94z" />
    <glyph glyph-name="approxequal" unicode="&#x2248;" horiz-adv-x="576" 
d="M93 385v66c35 24 66 34 94 34c74 0 137 -67 201 -67c28 0 59 10 94 33v-66c-35 -24 -66 -34 -94 -34c-74 0 -137 67 -201 67c-28 0 -59 -10 -94 -33zM93 185v66c35 24 66 34 94 34c74 0 137 -67 201 -67c28 0 59 10 94 33v-66c-35 -24 -66 -34 -94 -34
c-74 0 -137 67 -201 67c-28 0 -59 -10 -94 -33z" />
    <glyph glyph-name="lessequal" unicode="&#x2264;" horiz-adv-x="576" 
d="M482 125l-389 200v67l389 200v-82l-303 -152l303 -152v-81zM93 0v70h389v-70h-389z" />
    <glyph glyph-name="greaterequal" unicode="&#x2265;" horiz-adv-x="576" 
d="M93 125v81l303 152l-303 152v82l389 -200v-67zM482 0h-389v70h389v-70z" />
    <glyph glyph-name="infinity" unicode="&#x221e;" horiz-adv-x="736" 
d="M37 322c0 111 69 187 186 187c64 0 114 -26 145 -69c30 43 81 69 145 69c116 0 185 -76 185 -187c0 -112 -73 -188 -185 -188c-65 0 -115 25 -145 68c-31 -43 -81 -68 -146 -68c-112 0 -185 76 -185 188zM114 322c0 -72 43 -119 112 -119s107 47 107 119
c0 70 -40 118 -107 118c-71 0 -112 -47 -112 -118zM621 322c0 71 -41 118 -112 118c-67 0 -107 -48 -107 -118c0 -72 38 -119 107 -119c70 0 112 47 112 119z" />
    <glyph glyph-name="lozenge" unicode="&#x25ca;" horiz-adv-x="527" 
d="M318 0h-110l-165 321l165 322h110l166 -322zM390 321l-112 227l-17 40l-17 -40l-113 -227l113 -227l17 -40l17 40z" />
    <glyph glyph-name="radical" unicode="&#x221a;" horiz-adv-x="612" 
d="M485 643h90l-243 -643h-116l-179 409h93l130 -315l14 -38l14 38z" />
    <glyph glyph-name="integral" unicode="&#x222b;" horiz-adv-x="358" 
d="M223 -68c0 -112 -46 -165 -144 -165c-22 0 -40 4 -49 8v63h9c77 0 96 30 96 94v558c0 112 46 165 144 165c22 0 40 -4 49 -8v-63h-9c-77 0 -96 -30 -96 -94v-558z" />
    <glyph glyph-name="partialdiff" unicode="&#x2202;" 
d="M286 -12c-152 0 -243 84 -243 224c0 145 94 225 243 225c37 0 70 -5 99 -14c-52 80 -134 152 -243 220h121c171 -113 266 -250 266 -422c0 -150 -94 -233 -243 -233zM286 64c99 0 153 52 153 148c0 95 -55 149 -153 149c-99 0 -153 -53 -153 -149c0 -94 55 -148 153 -148
z" />
    <glyph glyph-name="product" unicode="&#x220f;" horiz-adv-x="656" 
d="M78 -181v824h500v-824h-92v749h-316v-749h-92z" />
    <glyph glyph-name="pi" unicode="&#x3c0;" horiz-adv-x="619" 
d="M102 0v461h-92v70h599v-70h-117v-304c0 -64 19 -94 97 -94h18v-63c-10 -5 -32 -8 -57 -8c-99 0 -146 53 -146 165v304h-214v-461h-88z" />
    <glyph glyph-name="mu" unicode="&#x3bc;" horiz-adv-x="566" 
d="M159 -220h-88v751h88v-337c0 -80 35 -132 112 -132c86 0 137 79 137 155v314h88v-531h-88v71c-36 -56 -92 -84 -161 -84c-34 0 -63 6 -88 18v-225z" />
    <glyph glyph-name="summation" unicode="&#x2211;" horiz-adv-x="581" 
d="M30 -220l250 444l-250 419h491v-75h-342l205 -344l-208 -369h345v-75h-491z" />
    <glyph glyph-name="Ohm" unicode="&#x2126;" horiz-adv-x="757" 
d="M334 0h-291v74h151c-83 56 -133 156 -133 273c0 183 121 308 317 308s317 -125 317 -308c0 -117 -50 -217 -133 -273h151v-74h-290v65c106 41 182 137 182 276c0 137 -84 238 -227 238s-227 -101 -227 -238c0 -139 76 -235 183 -276v-65z" />
    <glyph glyph-name="Omega" unicode="&#x3a9;" horiz-adv-x="757" 
d="M334 0h-291v74h151c-83 56 -133 156 -133 273c0 183 121 308 317 308s317 -125 317 -308c0 -117 -50 -217 -133 -273h151v-74h-290v65c106 41 182 137 182 276c0 137 -84 238 -227 238s-227 -101 -227 -238c0 -139 76 -235 183 -276v-65z" />
    <glyph glyph-name="increment" unicode="&#x2206;" horiz-adv-x="657" 
d="M381 643l248 -643h-601l247 643h106zM306 494l-159 -420h358l-159 420l-20 60z" />
    <glyph glyph-name="Delta" unicode="&#x394;" horiz-adv-x="657" 
d="M381 643l248 -643h-601l247 643h106zM306 494l-159 -420h358l-159 420l-20 60z" />
    <glyph glyph-name="litre" unicode="&#x2113;" horiz-adv-x="517" 
d="M25 186c21 4 42 8 63 13c-7 37 -11 78 -11 122c0 217 80 334 210 334c108 0 170 -83 170 -184c0 -146 -123 -252 -271 -311c20 -62 54 -96 101 -96c52 0 91 35 103 109h82c-23 -124 -92 -185 -187 -185c-84 0 -146 53 -180 146c-27 -7 -53 -13 -80 -17v69zM166 321
c0 -35 2 -66 6 -94c116 48 196 127 196 240c0 59 -30 112 -84 112c-76 0 -118 -92 -118 -258z" />
    <glyph glyph-name="estimated" unicode="&#x212e;" horiz-adv-x="753" 
d="M90 244c0 150 138 259 286 259c159 0 287 -122 287 -259v-7h-465c-2 0 -3 0 -3 -2v-141c0 -6 1 -11 6 -17c43 -47 106 -74 176 -74c71 0 137 29 185 83h41c-52 -59 -135 -99 -227 -99c-153 0 -286 109 -286 257zM551 414c-48 45 -108 73 -174 73c-31 0 -60 -6 -88 -17
c-33 -14 -94 -49 -94 -77v-138c0 -3 1 -4 3 -4h357c2 0 3 1 3 4v141c0 6 -3 11 -7 18z" />
    <glyph glyph-name="ITF" unicode="&#xf8ff;" horiz-adv-x="1739" 
d="M110 0v700h216v-700h-216zM371 496v204h216v-204h-216zM631 0v700h217v-700h-217zM892 496v204h216v-204h-216zM1152 0v700h217v-700h-217zM1413 496v204h216v-204h-216zM1413 247v205h216v-205h-216z" />
    </font>
</defs>
</svg>
