<?xml version="1.0" standalone="no"?>
<!DOCTYPE svg PUBLIC "-//W3C//DTD SVG 1.1//EN" "http://www.w3.org/Graphics/SVG/1.1/DTD/svg11.dtd" >
<svg xmlns="http://www.w3.org/2000/svg" xmlns:xlink="http://www.w3.org/1999/xlink" version="1.1">
<metadata>
Created by FontForge 20200306 at Tue Apr 20 16:47:15 2021
 By convertio
Copyright 2015-2021 Indian Type Foundry. All rights reserved.
</metadata>
<defs>
<font id="Switzer-Thin" horiz-adv-x="556" >
  <font-face 
    font-family="Switzer"
    font-weight="100"
    font-stretch="normal"
    units-per-em="1000"
    panose-1="0 0 0 0 0 0 0 0 0 0"
    ascent="800"
    descent="-200"
    x-height="523"
    cap-height="680"
    bbox="-200 -229 1629 936"
    underline-thickness="50"
    underline-position="-100"
    stemh="9"
    stemv="10"
    unicode-range="U+000D-FB02"
  />
<missing-glyph horiz-adv-x="220" 
 />
    <glyph glyph-name="fi" unicode="fi" horiz-adv-x="427" 
d="M5 514v9h93v72c0 90 30 125 120 125h13v-9h-11c-86 0 -112 -33 -112 -116v-72h123v-9h-123v-514h-10v514h-93zM324 615v105h10v-105h-10zM324 0v523h10v-523h-10z" />
    <glyph glyph-name="fl" unicode="fl" horiz-adv-x="427" 
d="M5 514v9h93v72c0 90 30 125 120 125h13v-9h-11c-86 0 -112 -33 -112 -116v-72h123v-9h-123v-514h-10v514h-93zM324 0v720h10v-720h-10z" />
    <glyph glyph-name=".notdef" horiz-adv-x="220" 
 />
    <glyph glyph-name=".null" horiz-adv-x="0" 
 />
    <glyph glyph-name=".null" horiz-adv-x="0" 
 />
    <glyph glyph-name="CR" unicode="&#xd;" horiz-adv-x="0" 
 />
    <glyph glyph-name="space" unicode=" " horiz-adv-x="220" 
 />
    <glyph glyph-name="nbspace" unicode="&#xa0;" horiz-adv-x="220" 
 />
    <glyph glyph-name="A" unicode="A" horiz-adv-x="651" 
d="M605 0l-89 213h-382l-89 -213h-10l284 680h12l285 -680h-11zM310 633l-172 -411h374l-172 412l-15 35z" />
    <glyph glyph-name="B" unicode="B" horiz-adv-x="596" 
d="M100 0v680h194c124 0 207 -63 207 -165c0 -78 -49 -140 -151 -159c123 -15 186 -86 186 -176c0 -112 -83 -180 -207 -180h-229zM294 671h-184v-312h184c119 0 197 61 197 156c0 97 -78 156 -197 156zM304 350h-194v-341h219c119 0 197 67 197 171c0 106 -88 170 -222 170
z" />
    <glyph glyph-name="C" unicode="C" horiz-adv-x="663" 
d="M603 512h-10c-35 105 -130 167 -239 167c-171 0 -274 -130 -274 -340c0 -209 103 -338 274 -338c106 0 195 59 237 167h10c-44 -115 -136 -176 -247 -176c-176 0 -284 133 -284 347c0 215 108 349 284 349c113 0 212 -64 249 -176z" />
    <glyph glyph-name="D" unicode="D" horiz-adv-x="681" 
d="M100 0v680h174c207 0 337 -126 337 -340s-130 -340 -337 -340h-174zM274 9c203 0 327 122 327 331s-124 331 -327 331h-164v-662h164z" />
    <glyph glyph-name="E" unicode="E" horiz-adv-x="589" 
d="M100 0v680h429v-9h-419v-313h384v-9h-384v-340h419v-9h-429z" />
    <glyph glyph-name="F" unicode="F" horiz-adv-x="579" 
d="M100 0v680h429v-9h-419v-328h384v-9h-384v-334h-10z" />
    <glyph glyph-name="G" unicode="G" horiz-adv-x="693" 
d="M601 0h-10v211c-27 -153 -122 -219 -237 -219c-176 0 -284 133 -284 347c0 215 108 349 284 349c113 0 212 -64 249 -176h-10c-35 105 -130 167 -239 167c-171 0 -274 -130 -274 -340c0 -209 103 -338 274 -338c133 0 237 92 237 308h-228v9h238v-318z" />
    <glyph glyph-name="H" unicode="H" horiz-adv-x="681" 
d="M100 0v680h10v-322h461v322h10v-680h-10v349h-461v-349h-10z" />
    <glyph glyph-name="I" unicode="I" horiz-adv-x="210" 
d="M100 0v680h10v-680h-10z" />
    <glyph glyph-name="J" unicode="J" horiz-adv-x="506" 
d="M40 199h10c13 -124 70 -198 184 -198c107 0 172 84 172 219v460h10v-460c0 -140 -70 -228 -182 -228c-120 0 -181 78 -194 207z" />
    <glyph glyph-name="K" unicode="K" 
d="M100 0v680h10v-331l401 331h14l-402 -332l403 -348h-15l-401 345v-345h-10z" />
    <glyph glyph-name="L" unicode="L" horiz-adv-x="544" 
d="M100 0v680h10v-671h394v-9h-404z" />
    <glyph glyph-name="M" unicode="M" horiz-adv-x="830" 
d="M100 0v680h16l278 -620l21 -47l21 47l278 620h16v-680h-10v669l-49 -110l-251 -559h-10l-250 558l-50 111v-669h-10z" />
    <glyph glyph-name="N" unicode="N" horiz-adv-x="681" 
d="M100 0v680h13l430 -626l28 -41v667h10v-680h-13l-428 622l-30 45v-667h-10z" />
    <glyph glyph-name="O" unicode="O" horiz-adv-x="736" 
d="M368 -8c-184 0 -298 133 -298 347c0 215 114 349 298 349s298 -134 298 -348s-114 -348 -298 -348zM368 1c179 0 288 130 288 339s-109 339 -288 339s-288 -130 -288 -340c0 -209 109 -338 288 -338z" />
    <glyph glyph-name="P" unicode="P" horiz-adv-x="571" 
d="M100 0v680h194c136 0 227 -77 227 -200c0 -125 -91 -200 -227 -200h-184v-280h-10zM294 671h-184v-382h184c131 0 217 72 217 191c0 118 -86 191 -217 191z" />
    <glyph glyph-name="Q" unicode="Q" horiz-adv-x="736" 
d="M368 -8c-184 0 -298 133 -298 347c0 215 114 349 298 349s298 -134 298 -348c0 -137 -47 -242 -129 -299l129 -108l-5 -7l-132 110c-44 -29 -99 -44 -161 -44zM368 1c60 0 111 14 154 41l-145 122l5 7l148 -124c80 56 126 158 126 293c0 209 -109 339 -288 339
s-288 -130 -288 -340c0 -209 109 -338 288 -338z" />
    <glyph glyph-name="R" unicode="R" horiz-adv-x="601" 
d="M100 0v680h204c124 0 207 -67 207 -175c0 -91 -60 -153 -153 -169c77 -9 115 -41 141 -139l52 -197h-10l-50 192c-30 117 -79 138 -192 138h-189v-330h-10zM304 671h-194v-332h194c119 0 197 63 197 166s-78 166 -197 166z" />
    <glyph glyph-name="S" unicode="S" horiz-adv-x="570" 
d="M83 521c0 -284 437 -42 437 -349c0 -118 -94 -180 -222 -180c-136 0 -228 61 -248 177h10c18 -109 108 -168 238 -168c138 0 212 69 212 171c0 296 -437 55 -437 349c0 93 67 167 206 167c121 0 209 -55 224 -176h-10c-16 116 -98 167 -214 167
c-128 0 -196 -64 -196 -158z" />
    <glyph glyph-name="T" unicode="T" horiz-adv-x="598" 
d="M294 0v671h-259v9h528v-9h-259v-671h-10z" />
    <glyph glyph-name="U" unicode="U" horiz-adv-x="676" 
d="M586 260c0 -165 -95 -268 -248 -268s-248 102 -248 267v421h10v-421c0 -160 90 -258 238 -258s238 99 238 259v420h10v-420z" />
    <glyph glyph-name="V" unicode="V" horiz-adv-x="651" 
d="M46 680l265 -634l15 -35l15 36l265 633h10l-284 -680h-12l-285 680h11z" />
    <glyph glyph-name="W" unicode="W" horiz-adv-x="1080" 
d="M788 0l-237 635l-11 30l-11 -30l-237 -635h-12l-225 680h12l207 -634l12 -38l14 38l235 634h11l234 -634l14 -38l12 38l208 634h11l-225 -680h-12z" />
    <glyph glyph-name="X" unicode="X" horiz-adv-x="623" 
d="M571 0l-232 309l-27 36l-27 -36l-233 -309h-12l266 353l-246 327h12l209 -277l31 -42l31 42l208 277h12l-245 -327l265 -353h-12z" />
    <glyph glyph-name="Y" unicode="Y" horiz-adv-x="582" 
d="M286 0v270l-256 410h12l216 -347l33 -52l33 52l217 347h11l-256 -410v-270h-10z" />
    <glyph glyph-name="Z" unicode="Z" horiz-adv-x="578" 
d="M45 0v9l477 662h-477v9h488v-9l-477 -662h477v-9h-488z" />
    <glyph glyph-name="AE" unicode="&#xc6;" horiz-adv-x="944" 
d="M475 0v213h-321l-108 -213h-11l344 680h505v-9h-399v-313h364v-9h-364v-340h399v-9h-409zM158 222h317v449h-89z" />
    <glyph glyph-name="OE" unicode="&#x152;" horiz-adv-x="1105" 
d="M358 -8c-178 0 -288 133 -288 347c0 215 110 349 288 349c147 0 247 -91 278 -243v235h409v-9h-399v-313h364v-9h-364v-340h399v-9h-409v235c-31 -152 -131 -243 -278 -243zM358 1c173 0 278 130 278 339s-105 339 -278 339s-278 -130 -278 -340
c0 -209 105 -338 278 -338z" />
    <glyph glyph-name="Lslash" unicode="&#x141;" horiz-adv-x="544" 
d="M100 0v306l-77 -36v10l77 36v364h10v-360l164 76v-10l-164 -76v-301h394v-9h-404z" />
    <glyph glyph-name="Oslash" unicode="&#xd8;" horiz-adv-x="736" 
d="M100 -20l65 89c-61 60 -95 153 -95 270c0 215 114 349 298 349c80 0 146 -25 196 -71l61 83h11l-65 -89c61 -61 95 -154 95 -271c0 -214 -114 -348 -298 -348c-80 0 -147 25 -196 71l-61 -83h-11zM80 339c0 -114 32 -204 91 -262l388 532c-48 45 -113 70 -191 70
c-179 0 -288 -130 -288 -340zM368 1c179 0 288 130 288 339c0 114 -32 204 -91 263l-388 -532c48 -45 113 -70 191 -70z" />
    <glyph glyph-name="Eth" unicode="&#xd0;" horiz-adv-x="681" 
d="M100 0v349h-77v9h77v322h174c207 0 337 -126 337 -340s-130 -340 -337 -340h-174zM274 9c203 0 327 122 327 331s-124 331 -327 331h-164v-313h171v-9h-171v-340h164z" />
    <glyph glyph-name="Thorn" unicode="&#xde;" horiz-adv-x="571" 
d="M100 0v680h10v-130h184c136 0 227 -77 227 -200c0 -125 -91 -200 -227 -200h-184v-150h-10zM294 541h-184v-382h184c131 0 217 72 217 191c0 118 -86 191 -217 191z" />
    <glyph glyph-name="a" unicode="a" 
d="M92 354h-10c17 111 78 177 203 177c122 0 175 -73 175 -197v-220c0 -51 6 -87 24 -114h-12c-18 27 -22 70 -22 104v62c-32 -121 -138 -174 -214 -174c-107 0 -171 53 -171 144c0 70 38 108 107 130c75 24 154 31 278 31v31c0 124 -50 194 -166 194
c-119 0 -176 -65 -192 -168zM75 138c0 -85 59 -137 161 -137c117 0 214 106 214 222v65c-310 -1 -375 -61 -375 -150z" />
    <glyph glyph-name="b" unicode="b" 
d="M103 0h-10v720h10v-363c24 114 92 174 191 174c129 0 202 -101 202 -269c0 -177 -76 -270 -202 -270c-102 0 -168 63 -191 174v-166zM294 522c-123 0 -191 -93 -191 -261c0 -163 71 -260 191 -260c124 0 192 93 192 261c0 163 -71 260 -192 260z" />
    <glyph glyph-name="c" unicode="c" horiz-adv-x="542" 
d="M483 354h-10c-22 106 -96 168 -197 168c-133 0 -206 -93 -206 -261c0 -163 77 -260 208 -260c102 0 174 57 199 168h10c-30 -124 -105 -177 -209 -177c-139 0 -218 101 -218 269c0 177 81 270 216 270c109 0 185 -66 207 -177z" />
    <glyph glyph-name="d" unicode="d" 
d="M262 -8c-129 0 -202 101 -202 269c0 177 76 270 202 270c102 0 168 -63 191 -174v363h10v-720h-10v166c-24 -114 -92 -174 -191 -174zM262 1c123 0 191 93 191 261c0 163 -71 260 -191 260c-124 0 -192 -93 -192 -261c0 -163 71 -260 192 -260z" />
    <glyph glyph-name="e" unicode="e" 
d="M493 169c-30 -124 -106 -177 -212 -177c-141 0 -221 101 -221 269c0 177 81 270 216 270c136 0 214 -97 214 -259v-7h-420v-4c0 -163 78 -260 211 -260c103 0 177 57 202 168h10zM276 522c-129 0 -202 -88 -206 -248h410c-2 156 -78 248 -204 248z" />
    <glyph glyph-name="f" unicode="f" horiz-adv-x="241" 
d="M5 514v9h93v72c0 90 30 125 120 125h13v-9h-11c-86 0 -112 -33 -112 -116v-72h123v-9h-123v-514h-10v514h-93z" />
    <glyph glyph-name="g" unicode="g" 
d="M262 -8c-129 0 -202 101 -202 269c0 177 76 270 202 270c102 0 168 -63 191 -174v166h10v-549c0 -147 -78 -203 -186 -203c-112 0 -185 58 -204 167h10c17 -103 88 -158 194 -158c114 0 176 64 176 194v192c-24 -114 -92 -174 -191 -174zM262 1c123 0 191 93 191 261
c0 163 -71 260 -191 260c-124 0 -192 -93 -192 -261c0 -163 71 -260 192 -260z" />
    <glyph glyph-name="h" unicode="h" 
d="M93 0v720h10v-345c26 95 101 156 193 156c110 0 167 -69 167 -179v-352h-10v348c0 98 -46 174 -159 174c-122 0 -191 -113 -191 -201v-321h-10z" />
    <glyph glyph-name="i" unicode="i" horiz-adv-x="196" 
d="M93 615v105h10v-105h-10zM93 0v523h10v-523h-10z" />
    <glyph glyph-name="j" unicode="j" horiz-adv-x="196" 
d="M93 615v105h10v-105h-10zM103 -96c0 -90 -30 -125 -120 -125h-13v9h11c87 0 112 34 112 116v619h10v-619z" />
    <glyph glyph-name="k" unicode="k" horiz-adv-x="476" 
d="M93 0v720h10v-429l319 232h16l-322 -233l325 -290h-16l-322 288v-288h-10z" />
    <glyph glyph-name="l" unicode="l" horiz-adv-x="196" 
d="M93 0v720h10v-720h-10z" />
    <glyph glyph-name="m" unicode="m" horiz-adv-x="836" 
d="M93 0v523h10v-146c24 94 91 154 173 154c90 0 140 -60 146 -157c24 96 91 157 174 157c97 0 147 -69 147 -179v-352h-10v348c0 98 -41 174 -139 174c-109 0 -171 -113 -171 -201v-321h-10v348c0 98 -41 174 -139 174c-109 0 -171 -113 -171 -201v-321h-10z" />
    <glyph glyph-name="n" unicode="n" 
d="M93 0v523h10v-148c26 95 101 156 193 156c110 0 167 -69 167 -179v-352h-10v348c0 98 -46 174 -159 174c-122 0 -191 -113 -191 -201v-321h-10z" />
    <glyph glyph-name="o" unicode="o" 
d="M278 -8c-139 0 -218 101 -218 269c0 177 82 270 218 270c139 0 218 -100 218 -269c0 -176 -82 -270 -218 -270zM278 1c134 0 208 93 208 261c0 163 -77 260 -208 260c-134 0 -208 -93 -208 -261c0 -163 77 -260 208 -260z" />
    <glyph glyph-name="p" unicode="p" 
d="M103 -221h-10v744h10v-166c24 114 92 174 191 174c129 0 202 -101 202 -269c0 -177 -76 -270 -202 -270c-102 0 -168 63 -191 174v-387zM294 522c-123 0 -191 -93 -191 -261c0 -163 71 -260 191 -260c124 0 192 93 192 261c0 163 -71 260 -192 260z" />
    <glyph glyph-name="q" unicode="q" 
d="M262 -8c-129 0 -202 101 -202 269c0 177 76 270 202 270c102 0 168 -63 191 -174v166h10v-744h-10v387c-24 -114 -92 -174 -191 -174zM262 1c123 0 191 93 191 261c0 163 -71 260 -191 260c-124 0 -192 -93 -192 -261c0 -163 71 -260 192 -260z" />
    <glyph glyph-name="r" unicode="r" horiz-adv-x="346" 
d="M93 0v523h10v-147c25 95 93 155 177 155c19 0 36 -3 46 -8v-10c-12 6 -31 9 -48 9c-112 0 -175 -113 -175 -201v-321h-10z" />
    <glyph glyph-name="s" unicode="s" horiz-adv-x="480" 
d="M75 394c0 -205 357 -30 357 -252c0 -98 -76 -150 -180 -150c-115 0 -190 61 -210 177h10c18 -109 90 -168 200 -168c111 0 170 57 170 141c0 210 -357 38 -357 252c0 76 53 137 164 137c101 0 171 -55 186 -177h-10c-16 117 -81 168 -176 168c-101 0 -154 -52 -154 -128z
" />
    <glyph glyph-name="t" unicode="t" horiz-adv-x="246" 
d="M98 125v389h-93v9h93v122h10v-122h123v-9h-123v-389c0 -82 25 -116 112 -116h11v-9h-13c-90 0 -120 35 -120 125z" />
    <glyph glyph-name="u" unicode="u" horiz-adv-x="552" 
d="M449 202v321h10v-523h-10v148c-26 -95 -100 -156 -191 -156c-108 0 -165 69 -165 179v352h10v-348c0 -98 46 -174 157 -174c121 0 189 113 189 201z" />
    <glyph glyph-name="v" unicode="v" horiz-adv-x="478" 
d="M235 0l-210 523h12l191 -478l12 -31l12 31l190 478h11l-210 -523h-8z" />
    <glyph glyph-name="w" unicode="w" horiz-adv-x="781" 
d="M564 0l-160 470l-13 40l-14 -40l-160 -470h-10l-179 523h11l162 -478l11 -34l11 34l162 478h11l163 -478l10 -33l11 33l162 478h11l-179 -523h-10z" />
    <glyph glyph-name="x" unicode="x" horiz-adv-x="488" 
d="M450 0l-179 231l-27 36l-28 -36l-179 -231h-12l212 274l-192 249h13l158 -206l28 -36l27 36l160 206h12l-193 -249l213 -274h-13z" />
    <glyph glyph-name="y" unicode="y" horiz-adv-x="470" 
d="M63 -221h-13v9h11c73 0 85 5 142 147l29 72l-212 516h12l175 -429l30 -74l31 74l170 429h12l-240 -596c-53 -133 -67 -148 -147 -148z" />
    <glyph glyph-name="z" unicode="z" horiz-adv-x="475" 
d="M30 0v9l383 505h-368v9h380v-9l-383 -505h403v-9h-415z" />
    <glyph glyph-name="ae" unicode="&#xe6;" horiz-adv-x="946" 
d="M92 354h-10c17 111 78 177 203 177c118 0 174 -64 180 -174c25 115 96 174 201 174c136 0 214 -94 214 -250v-7h-414v-13c0 -163 76 -260 205 -260c103 0 177 57 202 168h10c-30 -124 -106 -177 -212 -177c-117 0 -190 73 -210 198c-24 -138 -141 -198 -224 -198
c-108 0 -172 51 -172 137c0 68 38 104 107 125c71 22 157 29 284 29v45c0 124 -52 194 -172 194c-119 0 -176 -65 -192 -168zM666 522c-123 0 -194 -85 -200 -239h404c-2 150 -78 239 -204 239zM236 1c120 0 220 106 220 222v51c-321 -1 -381 -60 -381 -145
c0 -79 59 -128 161 -128z" />
    <glyph glyph-name="oe" unicode="&#x153;" horiz-adv-x="982" 
d="M278 -8c-139 0 -218 101 -218 269c0 177 82 270 218 270c118 0 193 -73 213 -199c19 131 95 199 211 199c136 0 214 -97 214 -259v-7h-420v-3c0 -164 78 -261 211 -261c103 0 177 57 202 168h10c-30 -124 -106 -177 -212 -177c-120 0 -196 74 -216 200
c-19 -131 -96 -200 -213 -200zM278 1c134 0 208 93 208 261c0 163 -77 260 -208 260c-134 0 -208 -93 -208 -261c0 -163 77 -260 208 -260zM702 522c-130 0 -202 -88 -206 -248h410c-2 156 -78 248 -204 248z" />
    <glyph glyph-name="lslash" unicode="&#x142;" horiz-adv-x="196" 
d="M93 0v355l-70 -46v10l70 46v355h10v-348l70 46v-10l-70 -46v-362h-10z" />
    <glyph glyph-name="oslash" unicode="&#xf8;" 
d="M278 -8c-52 0 -96 14 -130 41l-44 -73h-11l47 79c-52 46 -80 122 -80 222c0 177 82 270 218 270c52 0 96 -14 131 -41l43 73h11l-47 -79c52 -45 80 -121 80 -222c0 -176 -82 -270 -218 -270zM70 261c0 -96 27 -169 75 -213l258 433c-33 27 -75 41 -125 41
c-134 0 -208 -93 -208 -261zM278 1c134 0 208 93 208 261c0 96 -27 169 -75 213l-258 -433c33 -27 75 -41 125 -41z" />
    <glyph glyph-name="eth" unicode="&#xf0;" 
d="M278 -8c-139 0 -218 97 -218 259c0 171 82 260 218 260c85 0 148 -36 184 -102c-31 92 -90 175 -180 249l-86 -52v10l79 47c-24 20 -51 39 -79 57h16c26 -17 49 -34 71 -52l86 52v-10l-79 -47c142 -116 206 -248 206 -411c0 -169 -82 -260 -218 -260zM278 1
c134 0 208 89 208 251v3c-1 154 -78 247 -208 247c-134 0 -208 -90 -208 -251c0 -157 77 -250 208 -250z" />
    <glyph glyph-name="thorn" unicode="&#xfe;" 
d="M103 -221h-10v941h10v-363c24 114 92 174 191 174c129 0 202 -101 202 -269c0 -177 -76 -270 -202 -270c-102 0 -168 63 -191 174v-387zM294 522c-123 0 -191 -93 -191 -261c0 -163 71 -260 191 -260c124 0 192 93 192 261c0 163 -71 260 -192 260z" />
    <glyph glyph-name="germandbls" unicode="&#xdf;" horiz-adv-x="562" 
d="M507 186c0 -112 -73 -186 -232 -186h-86v9h85c153 0 223 68 223 177c0 85 -31 187 -238 187h-4v9h4c154 0 197 78 197 156c0 105 -57 173 -177 173c-116 0 -176 -65 -176 -191v-520h-10v520c0 133 65 200 186 200c127 0 187 -72 187 -182c0 -70 -33 -140 -145 -160
c156 -19 186 -107 186 -192z" />
    <glyph glyph-name="dotlessi" unicode="&#x131;" horiz-adv-x="196" 
d="M93 0v523h10v-523h-10z" />
    <glyph glyph-name="dotlessj" unicode="&#x237;" horiz-adv-x="196" 
d="M103 -96c0 -90 -30 -125 -120 -125h-13v9h11c87 0 112 34 112 116v619h10v-619z" />
    <glyph glyph-name="Aacute" unicode="&#xc1;" horiz-adv-x="651" 
d="M328 772l119 105h13l-120 -105h-12zM605 0l-89 213h-382l-89 -213h-10l284 680h12l285 -680h-11zM310 633l-172 -411h374l-172 412l-15 35z" />
    <glyph glyph-name="Acircumflex" unicode="&#xc2;" horiz-adv-x="651" 
d="M435 772l-93 98l-94 -98h-12l99 105h13l99 -105h-12zM605 0l-89 213h-382l-89 -213h-10l284 680h12l285 -680h-11zM310 633l-172 -411h374l-172 412l-15 35z" />
    <glyph glyph-name="Adieresis" unicode="&#xc4;" horiz-adv-x="651" 
d="M296 772v105h10v-105h-10zM376 772v105h10v-105h-10zM605 0l-89 213h-382l-89 -213h-10l284 680h12l285 -680h-11zM310 633l-172 -411h374l-172 412l-15 35z" />
    <glyph glyph-name="Agrave" unicode="&#xc0;" horiz-adv-x="651" 
d="M354 772h-12l-120 105h13zM605 0l-89 213h-382l-89 -213h-10l284 680h12l285 -680h-11zM310 633l-172 -411h374l-172 412l-15 35z" />
    <glyph glyph-name="Aring" unicode="&#xc5;" horiz-adv-x="651" 
d="M341 772c-47 0 -82 34 -82 81c0 48 34 83 82 83c47 0 82 -36 82 -82c0 -47 -35 -82 -82 -82zM341 781c41 0 72 31 72 73c0 41 -31 73 -72 73c-42 0 -72 -31 -72 -74c0 -41 31 -72 72 -72zM605 0l-89 213h-382l-89 -213h-10l284 680h12l285 -680h-11zM310 633l-172 -411
h374l-172 412l-15 35z" />
    <glyph glyph-name="Atilde" unicode="&#xc3;" horiz-adv-x="651" 
d="M219 772h-10c0 83 35 105 68 105c64 0 75 -96 128 -96c27 0 58 16 58 96h10c0 -83 -35 -105 -68 -105c-63 0 -73 96 -128 96c-27 0 -58 -16 -58 -96zM605 0l-89 213h-382l-89 -213h-10l284 680h12l285 -680h-11zM310 633l-172 -411h374l-172 412l-15 35z" />
    <glyph glyph-name="Abreve" unicode="&#x102;" horiz-adv-x="651" 
d="M238 877h10c8 -70 49 -96 94 -96s85 26 93 96h10c-8 -75 -53 -105 -103 -105s-96 30 -104 105zM605 0l-89 213h-382l-89 -213h-10l284 680h12l285 -680h-11zM310 633l-172 -411h374l-172 412l-15 35z" />
    <glyph glyph-name="Amacron" unicode="&#x100;" horiz-adv-x="651" 
d="M256 820v9h170v-9h-170zM605 0l-89 213h-382l-89 -213h-10l284 680h12l285 -680h-11zM310 633l-172 -411h374l-172 412l-15 35z" />
    <glyph glyph-name="Aogonek" unicode="&#x104;" horiz-adv-x="651" 
d="M475 -133c0 -53 43 -87 107 -87c31 0 46 6 58 12v-9c-15 -8 -35 -12 -59 -12c-68 0 -116 38 -116 96c0 50 32 96 139 136l-88 210h-382l-89 -213h-10l284 680h12l285 -680c-111 -42 -141 -86 -141 -133zM310 633l-172 -411h374l-172 412l-15 35z" />
    <glyph glyph-name="Ccedilla" unicode="&#xc7;" horiz-adv-x="663" 
d="M403 -136c0 38 -29 54 -108 60l46 68c-168 7 -271 138 -271 347c0 215 108 349 284 349c113 0 212 -64 249 -176h-10c-35 105 -130 167 -239 167c-171 0 -274 -130 -274 -340c0 -209 103 -338 274 -338c106 0 195 59 237 167h10c-44 -115 -136 -176 -247 -176h-3l-40 -60
c70 -7 102 -26 102 -68c0 -54 -49 -80 -155 -85v9c96 3 145 27 145 76z" />
    <glyph glyph-name="Cacute" unicode="&#x106;" horiz-adv-x="663" 
d="M339 772l119 105h13l-120 -105h-12zM603 512h-10c-35 105 -130 167 -239 167c-171 0 -274 -130 -274 -340c0 -209 103 -338 274 -338c106 0 195 59 237 167h10c-44 -115 -136 -176 -247 -176c-176 0 -284 133 -284 347c0 215 108 349 284 349c113 0 212 -64 249 -176z
" />
    <glyph glyph-name="Ccaron" unicode="&#x10c;" horiz-adv-x="663" 
d="M446 877h12l-99 -105h-13l-99 105h12l94 -98zM603 512h-10c-35 105 -130 167 -239 167c-171 0 -274 -130 -274 -340c0 -209 103 -338 274 -338c106 0 195 59 237 167h10c-44 -115 -136 -176 -247 -176c-176 0 -284 133 -284 347c0 215 108 349 284 349
c113 0 212 -64 249 -176z" />
    <glyph glyph-name="Ccircumflex" unicode="&#x108;" horiz-adv-x="663" 
d="M446 772l-93 98l-94 -98h-12l99 105h13l99 -105h-12zM603 512h-10c-35 105 -130 167 -239 167c-171 0 -274 -130 -274 -340c0 -209 103 -338 274 -338c106 0 195 59 237 167h10c-44 -115 -136 -176 -247 -176c-176 0 -284 133 -284 347c0 215 108 349 284 349
c113 0 212 -64 249 -176z" />
    <glyph glyph-name="Cdotaccent" unicode="&#x10a;" horiz-adv-x="663" 
d="M347 772v105h10v-105h-10zM603 512h-10c-35 105 -130 167 -239 167c-171 0 -274 -130 -274 -340c0 -209 103 -338 274 -338c106 0 195 59 237 167h10c-44 -115 -136 -176 -247 -176c-176 0 -284 133 -284 347c0 215 108 349 284 349c113 0 212 -64 249 -176z" />
    <glyph glyph-name="Dcaron" unicode="&#x10e;" horiz-adv-x="681" 
d="M385 877h12l-99 -105h-13l-99 105h12l94 -98zM100 0v680h174c207 0 337 -126 337 -340s-130 -340 -337 -340h-174zM274 9c203 0 327 122 327 331s-124 331 -327 331h-164v-662h164z" />
    <glyph glyph-name="Dcroat" unicode="&#x110;" horiz-adv-x="681" 
d="M100 0v349h-77v9h77v322h174c207 0 337 -126 337 -340s-130 -340 -337 -340h-174zM274 9c203 0 327 122 327 331s-124 331 -327 331h-164v-313h171v-9h-171v-340h164z" />
    <glyph glyph-name="Eacute" unicode="&#xc9;" horiz-adv-x="589" 
d="M302 772l119 105h13l-120 -105h-12zM100 0v680h429v-9h-419v-313h384v-9h-384v-340h419v-9h-429z" />
    <glyph glyph-name="Ecircumflex" unicode="&#xca;" horiz-adv-x="589" 
d="M409 772l-93 98l-94 -98h-12l99 105h13l99 -105h-12zM100 0v680h429v-9h-419v-313h384v-9h-384v-340h419v-9h-429z" />
    <glyph glyph-name="Edieresis" unicode="&#xcb;" horiz-adv-x="589" 
d="M270 772v105h10v-105h-10zM350 772v105h10v-105h-10zM100 0v680h429v-9h-419v-313h384v-9h-384v-340h419v-9h-429z" />
    <glyph glyph-name="Egrave" unicode="&#xc8;" horiz-adv-x="589" 
d="M328 772h-12l-120 105h13zM100 0v680h429v-9h-419v-313h384v-9h-384v-340h419v-9h-429z" />
    <glyph glyph-name="Ebreve" unicode="&#x114;" horiz-adv-x="589" 
d="M212 877h10c8 -70 49 -96 94 -96s85 26 93 96h10c-8 -75 -53 -105 -103 -105s-96 30 -104 105zM100 0v680h429v-9h-419v-313h384v-9h-384v-340h419v-9h-429z" />
    <glyph glyph-name="Ecaron" unicode="&#x11a;" horiz-adv-x="589" 
d="M409 877h12l-99 -105h-13l-99 105h12l94 -98zM100 0v680h429v-9h-419v-313h384v-9h-384v-340h419v-9h-429z" />
    <glyph glyph-name="Edotaccent" unicode="&#x116;" horiz-adv-x="589" 
d="M310 772v105h10v-105h-10zM100 0v680h429v-9h-419v-313h384v-9h-384v-340h419v-9h-429z" />
    <glyph glyph-name="Emacron" unicode="&#x112;" horiz-adv-x="589" 
d="M230 820v9h170v-9h-170zM100 0v680h429v-9h-419v-313h384v-9h-384v-340h419v-9h-429z" />
    <glyph glyph-name="Eogonek" unicode="&#x118;" horiz-adv-x="589" 
d="M100 0v680h429v-9h-419v-313h384v-9h-384v-340h419v-9h-26c-111 -42 -141 -86 -141 -133c0 -53 43 -87 107 -87c31 0 46 6 58 12v-9c-15 -8 -35 -12 -59 -12c-68 0 -116 38 -116 96c0 48 30 92 131 133h-383z" />
    <glyph glyph-name="Gbreve" unicode="&#x11e;" horiz-adv-x="693" 
d="M254 877h10c8 -70 49 -96 94 -96s85 26 93 96h10c-8 -75 -53 -105 -103 -105s-96 30 -104 105zM601 0h-10v211c-27 -153 -122 -219 -237 -219c-176 0 -284 133 -284 347c0 215 108 349 284 349c113 0 212 -64 249 -176h-10c-35 105 -130 167 -239 167
c-171 0 -274 -130 -274 -340c0 -209 103 -338 274 -338c133 0 237 92 237 308h-228v9h238v-318z" />
    <glyph glyph-name="Gcircumflex" unicode="&#x11c;" horiz-adv-x="693" 
d="M451 772l-93 98l-94 -98h-12l99 105h13l99 -105h-12zM601 0h-10v211c-27 -153 -122 -219 -237 -219c-176 0 -284 133 -284 347c0 215 108 349 284 349c113 0 212 -64 249 -176h-10c-35 105 -130 167 -239 167c-171 0 -274 -130 -274 -340c0 -209 103 -338 274 -338
c133 0 237 92 237 308h-228v9h238v-318z" />
    <glyph glyph-name="Gcommaaccent" unicode="&#x122;" horiz-adv-x="693" 
d="M601 0h-10v211c-27 -153 -122 -219 -237 -219c-176 0 -284 133 -284 347c0 215 108 349 284 349c113 0 212 -64 249 -176h-10c-35 105 -130 167 -239 167c-171 0 -274 -130 -274 -340c0 -209 103 -338 274 -338c133 0 237 92 237 308h-228v9h238v-318zM335 -120v28h28
v-14c0 -53 -8 -83 -20 -115h-8c11 42 16 60 16 101h-16z" />
    <glyph glyph-name="Gdotaccent" unicode="&#x120;" horiz-adv-x="693" 
d="M352 772v105h10v-105h-10zM601 0h-10v211c-27 -153 -122 -219 -237 -219c-176 0 -284 133 -284 347c0 215 108 349 284 349c113 0 212 -64 249 -176h-10c-35 105 -130 167 -239 167c-171 0 -274 -130 -274 -340c0 -209 103 -338 274 -338c133 0 237 92 237 308h-228v9
h238v-318z" />
    <glyph glyph-name="Hbar" unicode="&#x126;" horiz-adv-x="681" 
d="M100 0v529h-44v9h44v142h10v-142h461v142h10v-142h45v-9h-45v-529h-10v349h-461v-349h-10zM110 358h461v171h-461v-171z" />
    <glyph glyph-name="Hcircumflex" unicode="&#x124;" horiz-adv-x="681" 
d="M435 772l-93 98l-94 -98h-12l99 105h13l99 -105h-12zM100 0v680h10v-322h461v322h10v-680h-10v349h-461v-349h-10z" />
    <glyph glyph-name="Iacute" unicode="&#xcd;" horiz-adv-x="210" 
d="M92 772l119 105h13l-120 -105h-12zM100 0v680h10v-680h-10z" />
    <glyph glyph-name="Icircumflex" unicode="&#xce;" horiz-adv-x="210" 
d="M199 772l-93 98l-94 -98h-12l99 105h13l99 -105h-12zM100 0v680h10v-680h-10z" />
    <glyph glyph-name="Idieresis" unicode="&#xcf;" horiz-adv-x="210" 
d="M60 772v105h10v-105h-10zM140 772v105h10v-105h-10zM100 0v680h10v-680h-10z" />
    <glyph glyph-name="Igrave" unicode="&#xcc;" horiz-adv-x="210" 
d="M118 772h-12l-120 105h13zM100 0v680h10v-680h-10z" />
    <glyph glyph-name="Ibreve" unicode="&#x12c;" horiz-adv-x="210" 
d="M2 877h10c8 -70 49 -96 94 -96s85 26 93 96h10c-8 -75 -53 -105 -103 -105s-96 30 -104 105zM100 0v680h10v-680h-10z" />
    <glyph glyph-name="Idotaccent" unicode="&#x130;" horiz-adv-x="210" 
d="M100 772v105h10v-105h-10zM100 0v680h10v-680h-10z" />
    <glyph glyph-name="Imacron" unicode="&#x12a;" horiz-adv-x="210" 
d="M20 820v9h170v-9h-170zM100 0v680h10v-680h-10z" />
    <glyph glyph-name="Iogonek" unicode="&#x12e;" horiz-adv-x="210" 
d="M-31 -133c0 -53 43 -87 107 -87c31 0 46 6 58 12v-9c-15 -8 -35 -12 -59 -12c-68 0 -116 38 -116 96c0 50 32 96 141 137v676h10v-680c-111 -42 -141 -86 -141 -133z" />
    <glyph glyph-name="Itilde" unicode="&#x128;" horiz-adv-x="210" 
d="M-17 772h-10c0 83 35 105 68 105c64 0 75 -96 128 -96c27 0 58 16 58 96h10c0 -83 -35 -105 -68 -105c-63 0 -73 96 -128 96c-27 0 -58 -16 -58 -96zM100 0v680h10v-680h-10z" />
    <glyph glyph-name="Jcircumflex" unicode="&#x134;" horiz-adv-x="506" 
d="M505 772l-93 98l-94 -98h-12l99 105h13l99 -105h-12zM40 199h10c13 -124 70 -198 184 -198c107 0 172 84 172 219v460h10v-460c0 -140 -70 -228 -182 -228c-120 0 -181 78 -194 207z" />
    <glyph glyph-name="IJ" unicode="&#x132;" horiz-adv-x="716" 
d="M100 0v680h10v-680h-10zM250 199h10c13 -124 70 -198 184 -198c107 0 172 84 172 219v460h10v-460c0 -140 -70 -228 -182 -228c-120 0 -181 78 -194 207z" />
    <glyph glyph-name="Kcommaaccent" unicode="&#x136;" 
d="M100 0v680h10v-331l401 331h14l-402 -332l403 -348h-15l-401 345v-345h-10zM266 -120v28h28v-14c0 -53 -8 -83 -20 -115h-8c11 42 16 60 16 101h-16z" />
    <glyph glyph-name="Lacute" unicode="&#x139;" horiz-adv-x="544" 
d="M109 772l119 105h13l-120 -105h-12zM100 0v680h10v-671h394v-9h-404z" />
    <glyph glyph-name="Lcaron" unicode="&#x13d;" horiz-adv-x="544" 
d="M100 0v680h10v-671h394v-9h-404zM260 652v28h28v-14c0 -53 -8 -83 -20 -115h-8c11 42 16 60 16 101h-16z" />
    <glyph glyph-name="Lcommaaccent" unicode="&#x13b;" horiz-adv-x="544" 
d="M100 0v680h10v-671h394v-9h-404zM260 -120v28h28v-14c0 -53 -8 -83 -20 -115h-8c11 42 16 60 16 101h-16z" />
    <glyph glyph-name="Ldot" unicode="&#x13f;" horiz-adv-x="544" 
d="M100 0v680h10v-671h394v-9h-404zM364 245v105h10v-105h-10z" />
    <glyph glyph-name="Ntilde" unicode="&#xd1;" horiz-adv-x="681" 
d="M219 772h-10c0 83 35 105 68 105c64 0 75 -96 128 -96c27 0 58 16 58 96h10c0 -83 -35 -105 -68 -105c-63 0 -73 96 -128 96c-27 0 -58 -16 -58 -96zM100 0v680h13l430 -626l28 -41v667h10v-680h-13l-428 622l-30 45v-667h-10z" />
    <glyph glyph-name="Nacute" unicode="&#x143;" horiz-adv-x="681" 
d="M328 772l119 105h13l-120 -105h-12zM100 0v680h13l430 -626l28 -41v667h10v-680h-13l-428 622l-30 45v-667h-10z" />
    <glyph glyph-name="Ncaron" unicode="&#x147;" horiz-adv-x="681" 
d="M435 877h12l-99 -105h-13l-99 105h12l94 -98zM100 0v680h13l430 -626l28 -41v667h10v-680h-13l-428 622l-30 45v-667h-10z" />
    <glyph glyph-name="Ncommaaccent" unicode="&#x145;" horiz-adv-x="681" 
d="M100 0v680h13l430 -626l28 -41v667h10v-680h-13l-428 622l-30 45v-667h-10zM329 -120v28h28v-14c0 -53 -8 -83 -20 -115h-8c11 42 16 60 16 101h-16z" />
    <glyph glyph-name="Oacute" unicode="&#xd3;" horiz-adv-x="736" 
d="M355 772l119 105h13l-120 -105h-12zM368 -8c-184 0 -298 133 -298 347c0 215 114 349 298 349s298 -134 298 -348s-114 -348 -298 -348zM368 1c179 0 288 130 288 339s-109 339 -288 339s-288 -130 -288 -340c0 -209 109 -338 288 -338z" />
    <glyph glyph-name="Ocircumflex" unicode="&#xd4;" horiz-adv-x="736" 
d="M462 772l-93 98l-94 -98h-12l99 105h13l99 -105h-12zM368 -8c-184 0 -298 133 -298 347c0 215 114 349 298 349s298 -134 298 -348s-114 -348 -298 -348zM368 1c179 0 288 130 288 339s-109 339 -288 339s-288 -130 -288 -340c0 -209 109 -338 288 -338z" />
    <glyph glyph-name="Odieresis" unicode="&#xd6;" horiz-adv-x="736" 
d="M323 772v105h10v-105h-10zM403 772v105h10v-105h-10zM368 -8c-184 0 -298 133 -298 347c0 215 114 349 298 349s298 -134 298 -348s-114 -348 -298 -348zM368 1c179 0 288 130 288 339s-109 339 -288 339s-288 -130 -288 -340c0 -209 109 -338 288 -338z" />
    <glyph glyph-name="Ograve" unicode="&#xd2;" horiz-adv-x="736" 
d="M381 772h-12l-120 105h13zM368 -8c-184 0 -298 133 -298 347c0 215 114 349 298 349s298 -134 298 -348s-114 -348 -298 -348zM368 1c179 0 288 130 288 339s-109 339 -288 339s-288 -130 -288 -340c0 -209 109 -338 288 -338z" />
    <glyph glyph-name="Otilde" unicode="&#xd5;" horiz-adv-x="736" 
d="M246 772h-10c0 83 35 105 68 105c64 0 75 -96 128 -96c27 0 58 16 58 96h10c0 -83 -35 -105 -68 -105c-63 0 -73 96 -128 96c-27 0 -58 -16 -58 -96zM368 -8c-184 0 -298 133 -298 347c0 215 114 349 298 349s298 -134 298 -348s-114 -348 -298 -348zM368 1
c179 0 288 130 288 339s-109 339 -288 339s-288 -130 -288 -340c0 -209 109 -338 288 -338z" />
    <glyph glyph-name="Obreve" unicode="&#x14e;" horiz-adv-x="736" 
d="M265 877h10c8 -70 49 -96 94 -96s85 26 93 96h10c-8 -75 -53 -105 -103 -105s-96 30 -104 105zM368 -8c-184 0 -298 133 -298 347c0 215 114 349 298 349s298 -134 298 -348s-114 -348 -298 -348zM368 1c179 0 288 130 288 339s-109 339 -288 339s-288 -130 -288 -340
c0 -209 109 -338 288 -338z" />
    <glyph glyph-name="Ohungarumlaut" unicode="&#x150;" horiz-adv-x="736" 
d="M317 772l79 105h12l-81 -105h-10zM417 772l79 105h12l-81 -105h-10zM368 -8c-184 0 -298 133 -298 347c0 215 114 349 298 349s298 -134 298 -348s-114 -348 -298 -348zM368 1c179 0 288 130 288 339s-109 339 -288 339s-288 -130 -288 -340c0 -209 109 -338 288 -338z
" />
    <glyph glyph-name="Omacron" unicode="&#x14c;" horiz-adv-x="736" 
d="M283 820v9h170v-9h-170zM368 -8c-184 0 -298 133 -298 347c0 215 114 349 298 349s298 -134 298 -348s-114 -348 -298 -348zM368 1c179 0 288 130 288 339s-109 339 -288 339s-288 -130 -288 -340c0 -209 109 -338 288 -338z" />
    <glyph glyph-name="Racute" unicode="&#x154;" horiz-adv-x="601" 
d="M283 772l119 105h13l-120 -105h-12zM100 0v680h204c124 0 207 -67 207 -175c0 -91 -60 -153 -153 -169c77 -9 115 -41 141 -139l52 -197h-10l-50 192c-30 117 -79 138 -192 138h-189v-330h-10zM304 671h-194v-332h194c119 0 197 63 197 166s-78 166 -197 166z" />
    <glyph glyph-name="Rcaron" unicode="&#x158;" horiz-adv-x="601" 
d="M390 877h12l-99 -105h-13l-99 105h12l94 -98zM100 0v680h204c124 0 207 -67 207 -175c0 -91 -60 -153 -153 -169c77 -9 115 -41 141 -139l52 -197h-10l-50 192c-30 117 -79 138 -192 138h-189v-330h-10zM304 671h-194v-332h194c119 0 197 63 197 166s-78 166 -197 166z
" />
    <glyph glyph-name="Rcommaaccent" unicode="&#x156;" horiz-adv-x="601" 
d="M100 0v680h204c124 0 207 -67 207 -175c0 -91 -60 -153 -153 -169c77 -9 115 -41 141 -139l52 -197h-10l-50 192c-30 117 -79 138 -192 138h-189v-330h-10zM304 671h-194v-332h194c119 0 197 63 197 166s-78 166 -197 166zM284 -120v28h28v-14c0 -53 -8 -83 -20 -115h-8
c11 42 16 60 16 101h-16z" />
    <glyph glyph-name="Scaron" unicode="&#x160;" horiz-adv-x="570" 
d="M379 877h12l-99 -105h-13l-99 105h12l94 -98zM83 521c0 -284 437 -42 437 -349c0 -118 -94 -180 -222 -180c-136 0 -228 61 -248 177h10c18 -109 108 -168 238 -168c138 0 212 69 212 171c0 296 -437 55 -437 349c0 93 67 167 206 167c121 0 209 -55 224 -176h-10
c-16 116 -98 167 -214 167c-128 0 -196 -64 -196 -158z" />
    <glyph glyph-name="Sacute" unicode="&#x15a;" horiz-adv-x="570" 
d="M272 772l119 105h13l-120 -105h-12zM83 521c0 -284 437 -42 437 -349c0 -118 -94 -180 -222 -180c-136 0 -228 61 -248 177h10c18 -109 108 -168 238 -168c138 0 212 69 212 171c0 296 -437 55 -437 349c0 93 67 167 206 167c121 0 209 -55 224 -176h-10
c-16 116 -98 167 -214 167c-128 0 -196 -64 -196 -158z" />
    <glyph glyph-name="Scedilla" unicode="&#x15e;" horiz-adv-x="570" 
d="M336 -136c0 38 -29 54 -108 60l46 69c-123 6 -205 67 -224 176h10c18 -109 108 -168 238 -168c138 0 212 69 212 171c0 296 -437 55 -437 349c0 93 67 167 206 167c121 0 209 -55 224 -176h-10c-16 116 -98 167 -214 167c-128 0 -196 -64 -196 -158
c0 -284 437 -42 437 -349c0 -118 -94 -180 -222 -180h-14l-40 -60c70 -7 102 -26 102 -68c0 -54 -49 -80 -155 -85v9c96 3 145 27 145 76z" />
    <glyph glyph-name="Scircumflex" unicode="&#x15c;" horiz-adv-x="570" 
d="M379 772l-93 98l-94 -98h-12l99 105h13l99 -105h-12zM83 521c0 -284 437 -42 437 -349c0 -118 -94 -180 -222 -180c-136 0 -228 61 -248 177h10c18 -109 108 -168 238 -168c138 0 212 69 212 171c0 296 -437 55 -437 349c0 93 67 167 206 167c121 0 209 -55 224 -176h-10
c-16 116 -98 167 -214 167c-128 0 -196 -64 -196 -158z" />
    <glyph glyph-name="Scommaaccent" unicode="&#x218;" horiz-adv-x="570" 
d="M83 521c0 -284 437 -42 437 -349c0 -118 -94 -180 -222 -180c-136 0 -228 61 -248 177h10c18 -109 108 -168 238 -168c138 0 212 69 212 171c0 296 -437 55 -437 349c0 93 67 167 206 167c121 0 209 -55 224 -176h-10c-16 116 -98 167 -214 167
c-128 0 -196 -64 -196 -158zM273 -120v28h28v-14c0 -53 -8 -83 -20 -115h-8c11 42 16 60 16 101h-16z" />
    <glyph glyph-name="Tbar" unicode="&#x166;" horiz-adv-x="598" 
d="M294 0v348h-110v9h110v314h-259v9h528v-9h-259v-314h110v-9h-110v-348h-10z" />
    <glyph glyph-name="Tcaron" unicode="&#x164;" horiz-adv-x="598" 
d="M398 877h12l-99 -105h-13l-99 105h12l94 -98zM294 0v671h-259v9h528v-9h-259v-671h-10z" />
    <glyph glyph-name="Tcedilla" unicode="&#x162;" horiz-adv-x="598" 
d="M294 0v671h-259v9h528v-9h-259v-671h-10zM290 -120v28h28v-14c0 -53 -8 -83 -20 -115h-8c11 42 16 60 16 101h-16z" />
    <glyph glyph-name="Tcommaaccent" unicode="&#x21a;" horiz-adv-x="598" 
d="M294 0v671h-259v9h528v-9h-259v-671h-10zM290 -120v28h28v-14c0 -53 -8 -83 -20 -115h-8c11 42 16 60 16 101h-16z" />
    <glyph glyph-name="Uacute" unicode="&#xda;" horiz-adv-x="676" 
d="M325 772l119 105h13l-120 -105h-12zM586 260c0 -165 -95 -268 -248 -268s-248 102 -248 267v421h10v-421c0 -160 90 -258 238 -258s238 99 238 259v420h10v-420z" />
    <glyph glyph-name="Ucircumflex" unicode="&#xdb;" horiz-adv-x="676" 
d="M432 772l-93 98l-94 -98h-12l99 105h13l99 -105h-12zM586 260c0 -165 -95 -268 -248 -268s-248 102 -248 267v421h10v-421c0 -160 90 -258 238 -258s238 99 238 259v420h10v-420z" />
    <glyph glyph-name="Udieresis" unicode="&#xdc;" horiz-adv-x="676" 
d="M293 772v105h10v-105h-10zM373 772v105h10v-105h-10zM586 260c0 -165 -95 -268 -248 -268s-248 102 -248 267v421h10v-421c0 -160 90 -258 238 -258s238 99 238 259v420h10v-420z" />
    <glyph glyph-name="Ugrave" unicode="&#xd9;" horiz-adv-x="676" 
d="M351 772h-12l-120 105h13zM586 260c0 -165 -95 -268 -248 -268s-248 102 -248 267v421h10v-421c0 -160 90 -258 238 -258s238 99 238 259v420h10v-420z" />
    <glyph glyph-name="Ubreve" unicode="&#x16c;" horiz-adv-x="676" 
d="M235 877h10c8 -70 49 -96 94 -96s85 26 93 96h10c-8 -75 -53 -105 -103 -105s-96 30 -104 105zM586 260c0 -165 -95 -268 -248 -268s-248 102 -248 267v421h10v-421c0 -160 90 -258 238 -258s238 99 238 259v420h10v-420z" />
    <glyph glyph-name="Uhungarumlaut" unicode="&#x170;" horiz-adv-x="676" 
d="M287 772l79 105h12l-81 -105h-10zM387 772l79 105h12l-81 -105h-10zM586 260c0 -165 -95 -268 -248 -268s-248 102 -248 267v421h10v-421c0 -160 90 -258 238 -258s238 99 238 259v420h10v-420z" />
    <glyph glyph-name="Umacron" unicode="&#x16a;" horiz-adv-x="676" 
d="M253 820v9h170v-9h-170zM586 260c0 -165 -95 -268 -248 -268s-248 102 -248 267v421h10v-421c0 -160 90 -258 238 -258s238 99 238 259v420h10v-420z" />
    <glyph glyph-name="Uogonek" unicode="&#x172;" horiz-adv-x="676" 
d="M265 -133c0 -53 43 -87 107 -87c31 0 46 6 58 12v-9c-15 -8 -35 -12 -59 -12c-68 0 -116 38 -116 96c0 46 27 88 116 127c-11 -1 -22 -2 -33 -2c-153 0 -248 102 -248 267v421h10v-421c0 -160 90 -258 238 -258s238 99 238 259v420h10v-420c0 -140 -69 -236 -183 -261
c-109 -42 -138 -85 -138 -132z" />
    <glyph glyph-name="Uring" unicode="&#x16e;" horiz-adv-x="676" 
d="M338 772c-47 0 -82 34 -82 81c0 48 35 83 82 83s82 -36 82 -82c0 -47 -35 -82 -82 -82zM338 781c41 0 72 31 72 73c0 41 -31 73 -72 73s-72 -31 -72 -74c0 -41 31 -72 72 -72zM586 260c0 -165 -95 -268 -248 -268s-248 102 -248 267v421h10v-421c0 -160 90 -258 238 -258
s238 99 238 259v420h10v-420z" />
    <glyph glyph-name="Utilde" unicode="&#x168;" horiz-adv-x="676" 
d="M216 772h-10c0 83 35 105 68 105c64 0 75 -96 128 -96c27 0 58 16 58 96h10c0 -83 -35 -105 -68 -105c-63 0 -73 96 -128 96c-27 0 -58 -16 -58 -96zM586 260c0 -165 -95 -268 -248 -268s-248 102 -248 267v421h10v-421c0 -160 90 -258 238 -258s238 99 238 259v420h10
v-420z" />
    <glyph glyph-name="Wacute" unicode="&#x1e82;" horiz-adv-x="1080" 
d="M542 772l119 105h13l-120 -105h-12zM788 0l-237 635l-11 30l-11 -30l-237 -635h-12l-225 680h12l207 -634l12 -38l14 38l235 634h11l234 -634l14 -38l12 38l208 634h11l-225 -680h-12z" />
    <glyph glyph-name="Wcircumflex" unicode="&#x174;" horiz-adv-x="1080" 
d="M649 772l-93 98l-94 -98h-12l99 105h13l99 -105h-12zM788 0l-237 635l-11 30l-11 -30l-237 -635h-12l-225 680h12l207 -634l12 -38l14 38l235 634h11l234 -634l14 -38l12 38l208 634h11l-225 -680h-12z" />
    <glyph glyph-name="Wdieresis" unicode="&#x1e84;" horiz-adv-x="1080" 
d="M510 772v105h10v-105h-10zM590 772v105h10v-105h-10zM788 0l-237 635l-11 30l-11 -30l-237 -635h-12l-225 680h12l207 -634l12 -38l14 38l235 634h11l234 -634l14 -38l12 38l208 634h11l-225 -680h-12z" />
    <glyph glyph-name="Wgrave" unicode="&#x1e80;" horiz-adv-x="1080" 
d="M568 772h-12l-120 105h13zM788 0l-237 635l-11 30l-11 -30l-237 -635h-12l-225 680h12l207 -634l12 -38l14 38l235 634h11l234 -634l14 -38l12 38l208 634h11l-225 -680h-12z" />
    <glyph glyph-name="Yacute" unicode="&#xdd;" horiz-adv-x="582" 
d="M278 772l119 105h13l-120 -105h-12zM286 0v270l-256 410h12l216 -347l33 -52l33 52l217 347h11l-256 -410v-270h-10z" />
    <glyph glyph-name="Ydieresis" unicode="&#x178;" horiz-adv-x="582" 
d="M246 772v105h10v-105h-10zM326 772v105h10v-105h-10zM286 0v270l-256 410h12l216 -347l33 -52l33 52l217 347h11l-256 -410v-270h-10z" />
    <glyph glyph-name="Ycircumflex" unicode="&#x176;" horiz-adv-x="582" 
d="M385 772l-93 98l-94 -98h-12l99 105h13l99 -105h-12zM286 0v270l-256 410h12l216 -347l33 -52l33 52l217 347h11l-256 -410v-270h-10z" />
    <glyph glyph-name="Ygrave" unicode="&#x1ef2;" horiz-adv-x="582" 
d="M304 772h-12l-120 105h13zM286 0v270l-256 410h12l216 -347l33 -52l33 52l217 347h11l-256 -410v-270h-10z" />
    <glyph glyph-name="Zcaron" unicode="&#x17d;" horiz-adv-x="578" 
d="M398 877h12l-99 -105h-13l-99 105h12l94 -98zM45 0v9l477 662h-477v9h488v-9l-477 -662h477v-9h-488z" />
    <glyph glyph-name="Zacute" unicode="&#x179;" horiz-adv-x="578" 
d="M291 772l119 105h13l-120 -105h-12zM45 0v9l477 662h-477v9h488v-9l-477 -662h477v-9h-488z" />
    <glyph glyph-name="Zdotaccent" unicode="&#x17b;" horiz-adv-x="578" 
d="M299 772v105h10v-105h-10zM45 0v9l477 662h-477v9h488v-9l-477 -662h477v-9h-488z" />
    <glyph glyph-name="aacute" unicode="&#xe1;" 
d="M275 615l119 105h13l-120 -105h-12zM92 354h-10c17 111 78 177 203 177c122 0 175 -73 175 -197v-220c0 -51 6 -87 24 -114h-12c-18 27 -22 70 -22 104v62c-32 -121 -138 -174 -214 -174c-107 0 -171 53 -171 144c0 70 38 108 107 130c75 24 154 31 278 31v31
c0 124 -50 194 -166 194c-119 0 -176 -65 -192 -168zM75 138c0 -85 59 -137 161 -137c117 0 214 106 214 222v65c-310 -1 -375 -61 -375 -150z" />
    <glyph glyph-name="acircumflex" unicode="&#xe2;" 
d="M382 615l-93 98l-94 -98h-12l99 105h13l99 -105h-12zM92 354h-10c17 111 78 177 203 177c122 0 175 -73 175 -197v-220c0 -51 6 -87 24 -114h-12c-18 27 -22 70 -22 104v62c-32 -121 -138 -174 -214 -174c-107 0 -171 53 -171 144c0 70 38 108 107 130
c75 24 154 31 278 31v31c0 124 -50 194 -166 194c-119 0 -176 -65 -192 -168zM75 138c0 -85 59 -137 161 -137c117 0 214 106 214 222v65c-310 -1 -375 -61 -375 -150z" />
    <glyph glyph-name="adieresis" unicode="&#xe4;" 
d="M243 615v105h10v-105h-10zM323 615v105h10v-105h-10zM92 354h-10c17 111 78 177 203 177c122 0 175 -73 175 -197v-220c0 -51 6 -87 24 -114h-12c-18 27 -22 70 -22 104v62c-32 -121 -138 -174 -214 -174c-107 0 -171 53 -171 144c0 70 38 108 107 130
c75 24 154 31 278 31v31c0 124 -50 194 -166 194c-119 0 -176 -65 -192 -168zM75 138c0 -85 59 -137 161 -137c117 0 214 106 214 222v65c-310 -1 -375 -61 -375 -150z" />
    <glyph glyph-name="agrave" unicode="&#xe0;" 
d="M301 615h-12l-120 105h13zM92 354h-10c17 111 78 177 203 177c122 0 175 -73 175 -197v-220c0 -51 6 -87 24 -114h-12c-18 27 -22 70 -22 104v62c-32 -121 -138 -174 -214 -174c-107 0 -171 53 -171 144c0 70 38 108 107 130c75 24 154 31 278 31v31
c0 124 -50 194 -166 194c-119 0 -176 -65 -192 -168zM75 138c0 -85 59 -137 161 -137c117 0 214 106 214 222v65c-310 -1 -375 -61 -375 -150z" />
    <glyph glyph-name="aring" unicode="&#xe5;" 
d="M288 615c-47 0 -82 34 -82 81c0 48 35 83 82 83s82 -36 82 -82c0 -47 -35 -82 -82 -82zM288 624c41 0 72 31 72 73c0 41 -31 73 -72 73s-72 -31 -72 -74c0 -41 31 -72 72 -72zM92 354h-10c17 111 78 177 203 177c122 0 175 -73 175 -197v-220c0 -51 6 -87 24 -114h-12
c-18 27 -22 70 -22 104v62c-32 -121 -138 -174 -214 -174c-107 0 -171 53 -171 144c0 70 38 108 107 130c75 24 154 31 278 31v31c0 124 -50 194 -166 194c-119 0 -176 -65 -192 -168zM75 138c0 -85 59 -137 161 -137c117 0 214 106 214 222v65c-310 -1 -375 -61 -375 -150z
" />
    <glyph glyph-name="atilde" unicode="&#xe3;" 
d="M166 615h-10c0 83 35 105 68 105c64 0 75 -96 128 -96c27 0 58 16 58 96h10c0 -83 -35 -105 -68 -105c-63 0 -73 96 -128 96c-27 0 -58 -16 -58 -96zM92 354h-10c17 111 78 177 203 177c122 0 175 -73 175 -197v-220c0 -51 6 -87 24 -114h-12c-18 27 -22 70 -22 104v62
c-32 -121 -138 -174 -214 -174c-107 0 -171 53 -171 144c0 70 38 108 107 130c75 24 154 31 278 31v31c0 124 -50 194 -166 194c-119 0 -176 -65 -192 -168zM75 138c0 -85 59 -137 161 -137c117 0 214 106 214 222v65c-310 -1 -375 -61 -375 -150z" />
    <glyph glyph-name="abreve" unicode="&#x103;" 
d="M185 720h10c8 -70 49 -96 94 -96s85 26 93 96h10c-8 -75 -53 -105 -103 -105s-96 30 -104 105zM92 354h-10c17 111 78 177 203 177c122 0 175 -73 175 -197v-220c0 -51 6 -87 24 -114h-12c-18 27 -22 70 -22 104v62c-32 -121 -138 -174 -214 -174
c-107 0 -171 53 -171 144c0 70 38 108 107 130c75 24 154 31 278 31v31c0 124 -50 194 -166 194c-119 0 -176 -65 -192 -168zM75 138c0 -85 59 -137 161 -137c117 0 214 106 214 222v65c-310 -1 -375 -61 -375 -150z" />
    <glyph glyph-name="amacron" unicode="&#x101;" 
d="M203 663v9h170v-9h-170zM92 354h-10c17 111 78 177 203 177c122 0 175 -73 175 -197v-220c0 -51 6 -87 24 -114h-12c-18 27 -22 70 -22 104v62c-32 -121 -138 -174 -214 -174c-107 0 -171 53 -171 144c0 70 38 108 107 130c75 24 154 31 278 31v31
c0 124 -50 194 -166 194c-119 0 -176 -65 -192 -168zM75 138c0 -85 59 -137 161 -137c117 0 214 106 214 222v65c-310 -1 -375 -61 -375 -150z" />
    <glyph glyph-name="aogonek" unicode="&#x105;" 
d="M92 354h-10c17 111 78 177 203 177c122 0 175 -73 175 -197v-220c0 -51 6 -87 24 -114c-111 -42 -141 -86 -141 -133c0 -53 43 -87 107 -87c31 0 46 6 58 12v-9c-15 -8 -35 -12 -59 -12c-68 0 -116 38 -116 96c0 50 32 96 137 135c-16 28 -20 69 -20 102v62
c-32 -121 -138 -174 -214 -174c-107 0 -171 53 -171 144c0 70 38 108 107 130c75 24 154 31 278 31v31c0 124 -50 194 -166 194c-119 0 -176 -65 -192 -168zM75 138c0 -85 59 -137 161 -137c117 0 214 106 214 222v65c-310 -1 -375 -61 -375 -150z" />
    <glyph glyph-name="ccedilla" unicode="&#xe7;" horiz-adv-x="542" 
d="M328 -136c0 38 -29 54 -108 60l46 68c-132 6 -206 106 -206 269c0 177 81 270 216 270c109 0 185 -66 207 -177h-10c-22 106 -96 168 -197 168c-133 0 -206 -93 -206 -261c0 -163 77 -260 208 -260c102 0 174 57 199 168h10c-30 -124 -105 -177 -209 -177h-2l-40 -60
c70 -7 102 -26 102 -68c0 -54 -49 -80 -155 -85v9c96 3 145 27 145 76z" />
    <glyph glyph-name="cacute" unicode="&#x107;" horiz-adv-x="542" 
d="M258 615l119 105h13l-120 -105h-12zM483 354h-10c-22 106 -96 168 -197 168c-133 0 -206 -93 -206 -261c0 -163 77 -260 208 -260c102 0 174 57 199 168h10c-30 -124 -105 -177 -209 -177c-139 0 -218 101 -218 269c0 177 81 270 216 270c109 0 185 -66 207 -177z" />
    <glyph glyph-name="ccaron" unicode="&#x10d;" horiz-adv-x="542" 
d="M365 720h12l-99 -105h-13l-99 105h12l94 -98zM483 354h-10c-22 106 -96 168 -197 168c-133 0 -206 -93 -206 -261c0 -163 77 -260 208 -260c102 0 174 57 199 168h10c-30 -124 -105 -177 -209 -177c-139 0 -218 101 -218 269c0 177 81 270 216 270
c109 0 185 -66 207 -177z" />
    <glyph glyph-name="ccircumflex" unicode="&#x109;" horiz-adv-x="542" 
d="M365 615l-93 98l-94 -98h-12l99 105h13l99 -105h-12zM483 354h-10c-22 106 -96 168 -197 168c-133 0 -206 -93 -206 -261c0 -163 77 -260 208 -260c102 0 174 57 199 168h10c-30 -124 -105 -177 -209 -177c-139 0 -218 101 -218 269c0 177 81 270 216 270
c109 0 185 -66 207 -177z" />
    <glyph glyph-name="cdotaccent" unicode="&#x10b;" horiz-adv-x="542" 
d="M266 615v105h10v-105h-10zM483 354h-10c-22 106 -96 168 -197 168c-133 0 -206 -93 -206 -261c0 -163 77 -260 208 -260c102 0 174 57 199 168h10c-30 -124 -105 -177 -209 -177c-139 0 -218 101 -218 269c0 177 81 270 216 270c109 0 185 -66 207 -177z" />
    <glyph glyph-name="dcaron" unicode="&#x10f;" 
d="M262 -8c-129 0 -202 101 -202 269c0 177 76 270 202 270c102 0 168 -63 191 -174v363h10v-720h-10v166c-24 -114 -92 -174 -191 -174zM538 692v28h28v-14c0 -53 -8 -83 -20 -115h-8c11 42 16 60 16 101h-16zM262 1c123 0 191 93 191 261c0 163 -71 260 -191 260
c-124 0 -192 -93 -192 -261c0 -163 71 -260 192 -260z" />
    <glyph glyph-name="dcroat" unicode="&#x111;" 
d="M262 -8c-129 0 -202 101 -202 269c0 177 76 270 202 270c102 0 168 -63 191 -174v276h-110v9h110v78h10v-78h50v-9h-50v-633h-10v166c-24 -114 -92 -174 -191 -174zM262 1c123 0 191 93 191 261c0 163 -71 260 -191 260c-124 0 -192 -93 -192 -261
c0 -163 71 -260 192 -260z" />
    <glyph glyph-name="eacute" unicode="&#xe9;" 
d="M265 615l119 105h13l-120 -105h-12zM493 169c-30 -124 -106 -177 -212 -177c-141 0 -221 101 -221 269c0 177 81 270 216 270c136 0 214 -97 214 -259v-7h-420v-4c0 -163 78 -260 211 -260c103 0 177 57 202 168h10zM276 522c-129 0 -202 -88 -206 -248h410
c-2 156 -78 248 -204 248z" />
    <glyph glyph-name="ecircumflex" unicode="&#xea;" 
d="M372 615l-93 98l-94 -98h-12l99 105h13l99 -105h-12zM493 169c-30 -124 -106 -177 -212 -177c-141 0 -221 101 -221 269c0 177 81 270 216 270c136 0 214 -97 214 -259v-7h-420v-4c0 -163 78 -260 211 -260c103 0 177 57 202 168h10zM276 522c-129 0 -202 -88 -206 -248
h410c-2 156 -78 248 -204 248z" />
    <glyph glyph-name="edieresis" unicode="&#xeb;" 
d="M233 615v105h10v-105h-10zM313 615v105h10v-105h-10zM493 169c-30 -124 -106 -177 -212 -177c-141 0 -221 101 -221 269c0 177 81 270 216 270c136 0 214 -97 214 -259v-7h-420v-4c0 -163 78 -260 211 -260c103 0 177 57 202 168h10zM276 522c-129 0 -202 -88 -206 -248
h410c-2 156 -78 248 -204 248z" />
    <glyph glyph-name="egrave" unicode="&#xe8;" 
d="M291 615h-12l-120 105h13zM493 169c-30 -124 -106 -177 -212 -177c-141 0 -221 101 -221 269c0 177 81 270 216 270c136 0 214 -97 214 -259v-7h-420v-4c0 -163 78 -260 211 -260c103 0 177 57 202 168h10zM276 522c-129 0 -202 -88 -206 -248h410
c-2 156 -78 248 -204 248z" />
    <glyph glyph-name="ebreve" unicode="&#x115;" 
d="M175 720h10c8 -70 49 -96 94 -96s85 26 93 96h10c-8 -75 -53 -105 -103 -105s-96 30 -104 105zM493 169c-30 -124 -106 -177 -212 -177c-141 0 -221 101 -221 269c0 177 81 270 216 270c136 0 214 -97 214 -259v-7h-420v-4c0 -163 78 -260 211 -260c103 0 177 57 202 168
h10zM276 522c-129 0 -202 -88 -206 -248h410c-2 156 -78 248 -204 248z" />
    <glyph glyph-name="ecaron" unicode="&#x11b;" 
d="M372 720h12l-99 -105h-13l-99 105h12l94 -98zM493 169c-30 -124 -106 -177 -212 -177c-141 0 -221 101 -221 269c0 177 81 270 216 270c136 0 214 -97 214 -259v-7h-420v-4c0 -163 78 -260 211 -260c103 0 177 57 202 168h10zM276 522c-129 0 -202 -88 -206 -248h410
c-2 156 -78 248 -204 248z" />
    <glyph glyph-name="edotaccent" unicode="&#x117;" 
d="M273 615v105h10v-105h-10zM493 169c-30 -124 -106 -177 -212 -177c-141 0 -221 101 -221 269c0 177 81 270 216 270c136 0 214 -97 214 -259v-7h-420v-4c0 -163 78 -260 211 -260c103 0 177 57 202 168h10zM276 522c-129 0 -202 -88 -206 -248h410
c-2 156 -78 248 -204 248z" />
    <glyph glyph-name="emacron" unicode="&#x113;" 
d="M193 663v9h170v-9h-170zM493 169c-30 -124 -106 -177 -212 -177c-141 0 -221 101 -221 269c0 177 81 270 216 270c136 0 214 -97 214 -259v-7h-420v-4c0 -163 78 -260 211 -260c103 0 177 57 202 168h10zM276 522c-129 0 -202 -88 -206 -248h410c-2 156 -78 248 -204 248
z" />
    <glyph glyph-name="eogonek" unicode="&#x119;" 
d="M282 -127c0 -57 43 -93 107 -93c31 0 46 6 58 12v-9c-15 -8 -35 -12 -59 -12c-68 0 -116 40 -116 102c0 49 20 81 87 130c-24 -7 -50 -11 -78 -11c-141 0 -221 101 -221 269c0 177 81 270 216 270c136 0 214 -97 214 -259v-7h-420v-4c0 -163 78 -260 211 -260
c103 0 177 57 202 168h10c-17 -70 -49 -118 -93 -146c-93 -65 -118 -96 -118 -150zM276 522c-129 0 -202 -88 -206 -248h410c-2 156 -78 248 -204 248z" />
    <glyph glyph-name="gbreve" unicode="&#x11f;" 
d="M175 720h10c8 -70 49 -96 94 -96s85 26 93 96h10c-8 -75 -53 -105 -103 -105s-96 30 -104 105zM262 -8c-129 0 -202 101 -202 269c0 177 76 270 202 270c102 0 168 -63 191 -174v166h10v-549c0 -147 -78 -203 -186 -203c-112 0 -185 58 -204 167h10
c17 -103 88 -158 194 -158c114 0 176 64 176 194v192c-24 -114 -92 -174 -191 -174zM262 1c123 0 191 93 191 261c0 163 -71 260 -191 260c-124 0 -192 -93 -192 -261c0 -163 71 -260 192 -260z" />
    <glyph glyph-name="gcircumflex" unicode="&#x11d;" 
d="M372 615l-93 98l-94 -98h-12l99 105h13l99 -105h-12zM262 -8c-129 0 -202 101 -202 269c0 177 76 270 202 270c102 0 168 -63 191 -174v166h10v-549c0 -147 -78 -203 -186 -203c-112 0 -185 58 -204 167h10c17 -103 88 -158 194 -158c114 0 176 64 176 194v192
c-24 -114 -92 -174 -191 -174zM262 1c123 0 191 93 191 261c0 163 -71 260 -191 260c-124 0 -192 -93 -192 -261c0 -163 71 -260 192 -260z" />
    <glyph glyph-name="gcommaaccent" unicode="&#x123;" 
d="M294 643v-28h-28v14c0 53 8 83 20 115h8c-11 -42 -16 -60 -16 -101h16zM262 -8c-129 0 -202 101 -202 269c0 177 76 270 202 270c102 0 168 -63 191 -174v166h10v-549c0 -147 -78 -203 -186 -203c-112 0 -185 58 -204 167h10c17 -103 88 -158 194 -158
c114 0 176 64 176 194v192c-24 -114 -92 -174 -191 -174zM262 1c123 0 191 93 191 261c0 163 -71 260 -191 260c-124 0 -192 -93 -192 -261c0 -163 71 -260 192 -260z" />
    <glyph glyph-name="gdotaccent" unicode="&#x121;" 
d="M273 615v105h10v-105h-10zM262 -8c-129 0 -202 101 -202 269c0 177 76 270 202 270c102 0 168 -63 191 -174v166h10v-549c0 -147 -78 -203 -186 -203c-112 0 -185 58 -204 167h10c17 -103 88 -158 194 -158c114 0 176 64 176 194v192c-24 -114 -92 -174 -191 -174zM262 1
c123 0 191 93 191 261c0 163 -71 260 -191 260c-124 0 -192 -93 -192 -261c0 -163 71 -260 192 -260z" />
    <glyph glyph-name="hbar" unicode="&#x127;" 
d="M93 0v633h-59v9h59v78h10v-78h111v-9h-111v-258c26 95 101 156 193 156c110 0 167 -69 167 -179v-352h-10v348c0 98 -46 174 -159 174c-122 0 -191 -113 -191 -201v-321h-10z" />
    <glyph glyph-name="hcircumflex" unicode="&#x125;" 
d="M292 765l-93 98l-94 -98h-12l99 105h13l99 -105h-12zM93 0v720h10v-345c26 95 101 156 193 156c110 0 167 -69 167 -179v-352h-10v348c0 98 -46 174 -159 174c-122 0 -191 -113 -191 -201v-321h-10z" />
    <glyph glyph-name="iacute" unicode="&#xed;" horiz-adv-x="196" 
d="M85 615l119 105h13l-120 -105h-12zM93 0v523h10v-523h-10z" />
    <glyph glyph-name="icircumflex" unicode="&#xee;" horiz-adv-x="196" 
d="M192 615l-93 98l-94 -98h-12l99 105h13l99 -105h-12zM93 0v523h10v-523h-10z" />
    <glyph glyph-name="idieresis" unicode="&#xef;" horiz-adv-x="196" 
d="M53 615v105h10v-105h-10zM133 615v105h10v-105h-10zM93 0v523h10v-523h-10z" />
    <glyph glyph-name="igrave" unicode="&#xec;" horiz-adv-x="196" 
d="M111 615h-12l-120 105h13zM93 0v523h10v-523h-10z" />
    <glyph glyph-name="ibreve" unicode="&#x12d;" horiz-adv-x="196" 
d="M-5 720h10c8 -70 49 -96 94 -96s85 26 93 96h10c-8 -75 -53 -105 -103 -105s-96 30 -104 105zM93 0v523h10v-523h-10z" />
    <glyph glyph-name="i.dot" unicode="&#xe166;" horiz-adv-x="196" 
d="M93 615v105h10v-105h-10zM93 0v523h10v-523h-10z" />
    <glyph glyph-name="imacron" unicode="&#x12b;" horiz-adv-x="196" 
d="M13 663v9h170v-9h-170zM93 0v523h10v-523h-10z" />
    <glyph glyph-name="iogonek" unicode="&#x12f;" horiz-adv-x="196" 
d="M93 615v105h10v-105h-10zM-38 -133c0 -53 43 -87 107 -87c31 0 46 6 58 12v-9c-15 -8 -35 -12 -59 -12c-68 0 -116 38 -116 96c0 50 32 96 141 137v519h10v-523c-111 -42 -141 -86 -141 -133z" />
    <glyph glyph-name="itilde" unicode="&#x129;" horiz-adv-x="196" 
d="M-24 615h-10c0 83 35 105 68 105c64 0 75 -96 128 -96c27 0 58 16 58 96h10c0 -83 -35 -105 -68 -105c-63 0 -73 96 -128 96c-27 0 -58 -16 -58 -96zM93 0v523h10v-523h-10z" />
    <glyph glyph-name="jcircumflex" unicode="&#x135;" horiz-adv-x="196" 
d="M192 615l-93 98l-94 -98h-12l99 105h13l99 -105h-12zM103 -96c0 -90 -30 -125 -120 -125h-13v9h11c87 0 112 34 112 116v619h10v-619z" />
    <glyph glyph-name="ij" unicode="&#x133;" horiz-adv-x="392" 
d="M93 615v105h10v-105h-10zM289 615v105h10v-105h-10zM93 0v523h10v-523h-10zM299 -96c0 -90 -30 -125 -120 -125h-13v9h11c87 0 112 34 112 116v619h10v-619z" />
    <glyph glyph-name="kcommaaccent" unicode="&#x137;" horiz-adv-x="476" 
d="M93 0v720h10v-429l319 232h16l-322 -233l325 -290h-16l-322 288v-288h-10zM226 -120v28h28v-14c0 -53 -8 -83 -20 -115h-8c11 42 16 60 16 101h-16z" />
    <glyph glyph-name="lacute" unicode="&#x13a;" horiz-adv-x="196" 
d="M92 765l119 105h13l-120 -105h-12zM93 0v720h10v-720h-10z" />
    <glyph glyph-name="lcaron" unicode="&#x13e;" horiz-adv-x="196" 
d="M93 0v720h10v-720h-10zM176 692v28h28v-14c0 -53 -8 -83 -20 -115h-8c11 42 16 60 16 101h-16z" />
    <glyph glyph-name="lcommaaccent" unicode="&#x13c;" horiz-adv-x="196" 
d="M93 0v720h10v-720h-10zM86 -120v28h28v-14c0 -53 -8 -83 -20 -115h-8c11 42 16 60 16 101h-16z" />
    <glyph glyph-name="ldot" unicode="&#x140;" horiz-adv-x="196" 
d="M93 0v720h10v-720h-10zM193 245v105h10v-105h-10z" />
    <glyph glyph-name="ntilde" unicode="&#xf1;" 
d="M156 615h-10c0 83 35 105 68 105c64 0 75 -96 128 -96c27 0 58 16 58 96h10c0 -83 -35 -105 -68 -105c-63 0 -73 96 -128 96c-27 0 -58 -16 -58 -96zM93 0v523h10v-148c26 95 101 156 193 156c110 0 167 -69 167 -179v-352h-10v348c0 98 -46 174 -159 174
c-122 0 -191 -113 -191 -201v-321h-10z" />
    <glyph glyph-name="nacute" unicode="&#x144;" 
d="M265 615l119 105h13l-120 -105h-12zM93 0v523h10v-148c26 95 101 156 193 156c110 0 167 -69 167 -179v-352h-10v348c0 98 -46 174 -159 174c-122 0 -191 -113 -191 -201v-321h-10z" />
    <glyph glyph-name="ncaron" unicode="&#x148;" 
d="M372 720h12l-99 -105h-13l-99 105h12l94 -98zM93 0v523h10v-148c26 95 101 156 193 156c110 0 167 -69 167 -179v-352h-10v348c0 98 -46 174 -159 174c-122 0 -191 -113 -191 -201v-321h-10z" />
    <glyph glyph-name="ncommaaccent" unicode="&#x146;" 
d="M93 0v523h10v-148c26 95 101 156 193 156c110 0 167 -69 167 -179v-352h-10v348c0 98 -46 174 -159 174c-122 0 -191 -113 -191 -201v-321h-10zM266 -120v28h28v-14c0 -53 -8 -83 -20 -115h-8c11 42 16 60 16 101h-16z" />
    <glyph glyph-name="oacute" unicode="&#xf3;" 
d="M265 615l119 105h13l-120 -105h-12zM278 -8c-139 0 -218 101 -218 269c0 177 82 270 218 270c139 0 218 -100 218 -269c0 -176 -82 -270 -218 -270zM278 1c134 0 208 93 208 261c0 163 -77 260 -208 260c-134 0 -208 -93 -208 -261c0 -163 77 -260 208 -260z" />
    <glyph glyph-name="ocircumflex" unicode="&#xf4;" 
d="M372 615l-93 98l-94 -98h-12l99 105h13l99 -105h-12zM278 -8c-139 0 -218 101 -218 269c0 177 82 270 218 270c139 0 218 -100 218 -269c0 -176 -82 -270 -218 -270zM278 1c134 0 208 93 208 261c0 163 -77 260 -208 260c-134 0 -208 -93 -208 -261
c0 -163 77 -260 208 -260z" />
    <glyph glyph-name="odieresis" unicode="&#xf6;" 
d="M233 615v105h10v-105h-10zM313 615v105h10v-105h-10zM278 -8c-139 0 -218 101 -218 269c0 177 82 270 218 270c139 0 218 -100 218 -269c0 -176 -82 -270 -218 -270zM278 1c134 0 208 93 208 261c0 163 -77 260 -208 260c-134 0 -208 -93 -208 -261
c0 -163 77 -260 208 -260z" />
    <glyph glyph-name="ograve" unicode="&#xf2;" 
d="M291 615h-12l-120 105h13zM278 -8c-139 0 -218 101 -218 269c0 177 82 270 218 270c139 0 218 -100 218 -269c0 -176 -82 -270 -218 -270zM278 1c134 0 208 93 208 261c0 163 -77 260 -208 260c-134 0 -208 -93 -208 -261c0 -163 77 -260 208 -260z" />
    <glyph glyph-name="otilde" unicode="&#xf5;" 
d="M156 615h-10c0 83 35 105 68 105c64 0 75 -96 128 -96c27 0 58 16 58 96h10c0 -83 -35 -105 -68 -105c-63 0 -73 96 -128 96c-27 0 -58 -16 -58 -96zM278 -8c-139 0 -218 101 -218 269c0 177 82 270 218 270c139 0 218 -100 218 -269c0 -176 -82 -270 -218 -270zM278 1
c134 0 208 93 208 261c0 163 -77 260 -208 260c-134 0 -208 -93 -208 -261c0 -163 77 -260 208 -260z" />
    <glyph glyph-name="obreve" unicode="&#x14f;" 
d="M175 720h10c8 -70 49 -96 94 -96s85 26 93 96h10c-8 -75 -53 -105 -103 -105s-96 30 -104 105zM278 -8c-139 0 -218 101 -218 269c0 177 82 270 218 270c139 0 218 -100 218 -269c0 -176 -82 -270 -218 -270zM278 1c134 0 208 93 208 261c0 163 -77 260 -208 260
c-134 0 -208 -93 -208 -261c0 -163 77 -260 208 -260z" />
    <glyph glyph-name="ohungarumlaut" unicode="&#x151;" 
d="M227 615l79 105h12l-81 -105h-10zM327 615l79 105h12l-81 -105h-10zM278 -8c-139 0 -218 101 -218 269c0 177 82 270 218 270c139 0 218 -100 218 -269c0 -176 -82 -270 -218 -270zM278 1c134 0 208 93 208 261c0 163 -77 260 -208 260c-134 0 -208 -93 -208 -261
c0 -163 77 -260 208 -260z" />
    <glyph glyph-name="omacron" unicode="&#x14d;" 
d="M193 663v9h170v-9h-170zM278 -8c-139 0 -218 101 -218 269c0 177 82 270 218 270c139 0 218 -100 218 -269c0 -176 -82 -270 -218 -270zM278 1c134 0 208 93 208 261c0 163 -77 260 -208 260c-134 0 -208 -93 -208 -261c0 -163 77 -260 208 -260z" />
    <glyph glyph-name="racute" unicode="&#x155;" horiz-adv-x="346" 
d="M160 615l119 105h13l-120 -105h-12zM93 0v523h10v-147c25 95 93 155 177 155c19 0 36 -3 46 -8v-10c-12 6 -31 9 -48 9c-112 0 -175 -113 -175 -201v-321h-10z" />
    <glyph glyph-name="rcaron" unicode="&#x159;" horiz-adv-x="346" 
d="M267 720h12l-99 -105h-13l-99 105h12l94 -98zM93 0v523h10v-147c25 95 93 155 177 155c19 0 36 -3 46 -8v-10c-12 6 -31 9 -48 9c-112 0 -175 -113 -175 -201v-321h-10z" />
    <glyph glyph-name="rcommaaccent" unicode="&#x157;" horiz-adv-x="346" 
d="M93 0v523h10v-147c25 95 93 155 177 155c19 0 36 -3 46 -8v-10c-12 6 -31 9 -48 9c-112 0 -175 -113 -175 -201v-321h-10zM91 -120v28h28v-14c0 -53 -8 -83 -20 -115h-8c11 42 16 60 16 101h-16z" />
    <glyph glyph-name="scaron" unicode="&#x161;" horiz-adv-x="480" 
d="M334 720h12l-99 -105h-13l-99 105h12l94 -98zM75 394c0 -205 357 -30 357 -252c0 -98 -76 -150 -180 -150c-115 0 -190 61 -210 177h10c18 -109 90 -168 200 -168c111 0 170 57 170 141c0 210 -357 38 -357 252c0 76 53 137 164 137c101 0 171 -55 186 -177h-10
c-16 117 -81 168 -176 168c-101 0 -154 -52 -154 -128z" />
    <glyph glyph-name="sacute" unicode="&#x15b;" horiz-adv-x="480" 
d="M227 615l119 105h13l-120 -105h-12zM75 394c0 -205 357 -30 357 -252c0 -98 -76 -150 -180 -150c-115 0 -190 61 -210 177h10c18 -109 90 -168 200 -168c111 0 170 57 170 141c0 210 -357 38 -357 252c0 76 53 137 164 137c101 0 171 -55 186 -177h-10
c-16 117 -81 168 -176 168c-101 0 -154 -52 -154 -128z" />
    <glyph glyph-name="scedilla" unicode="&#x15f;" horiz-adv-x="480" 
d="M307 -136c0 38 -29 54 -108 60l46 68c-111 3 -183 63 -203 177h10c18 -109 90 -168 200 -168c111 0 170 57 170 141c0 210 -357 38 -357 252c0 76 53 137 164 137c101 0 171 -55 186 -177h-10c-16 117 -81 168 -176 168c-101 0 -154 -52 -154 -128
c0 -205 357 -30 357 -252c0 -98 -76 -150 -177 -150l-40 -60c70 -7 102 -26 102 -68c0 -54 -49 -80 -155 -85v9c96 3 145 27 145 76z" />
    <glyph glyph-name="scircumflex" unicode="&#x15d;" horiz-adv-x="480" 
d="M334 615l-93 98l-94 -98h-12l99 105h13l99 -105h-12zM75 394c0 -205 357 -30 357 -252c0 -98 -76 -150 -180 -150c-115 0 -190 61 -210 177h10c18 -109 90 -168 200 -168c111 0 170 57 170 141c0 210 -357 38 -357 252c0 76 53 137 164 137c101 0 171 -55 186 -177h-10
c-16 117 -81 168 -176 168c-101 0 -154 -52 -154 -128z" />
    <glyph glyph-name="scommaaccent" unicode="&#x219;" horiz-adv-x="480" 
d="M75 394c0 -205 357 -30 357 -252c0 -98 -76 -150 -180 -150c-115 0 -190 61 -210 177h10c18 -109 90 -168 200 -168c111 0 170 57 170 141c0 210 -357 38 -357 252c0 76 53 137 164 137c101 0 171 -55 186 -177h-10c-16 117 -81 168 -176 168c-101 0 -154 -52 -154 -128z
M228 -120v28h28v-14c0 -53 -8 -83 -20 -115h-8c11 42 16 60 16 101h-16z" />
    <glyph glyph-name="tbar" unicode="&#x167;" horiz-adv-x="246" 
d="M98 125v168h-75v9h75v212h-93v9h93v122h10v-122h123v-9h-123v-212h105v-9h-105v-168c0 -82 25 -116 112 -116h11v-9h-13c-90 0 -120 35 -120 125z" />
    <glyph glyph-name="tcaron" unicode="&#x165;" horiz-adv-x="246" 
d="M181 692v28h28v-14c0 -53 -8 -83 -20 -115h-8c11 42 16 60 16 101h-16zM98 125v389h-93v9h93v122h10v-122h123v-9h-123v-389c0 -82 25 -116 112 -116h11v-9h-13c-90 0 -120 35 -120 125z" />
    <glyph glyph-name="tcedilla" unicode="&#x163;" horiz-adv-x="246" 
d="M98 125v389h-93v9h93v122h10v-122h123v-9h-123v-389c0 -82 25 -116 112 -116h11v-9h-13c-90 0 -120 35 -120 125zM121 -120v28h28v-14c0 -53 -8 -83 -20 -115h-8c11 42 16 60 16 101h-16z" />
    <glyph glyph-name="tcommaaccent" unicode="&#x21b;" horiz-adv-x="246" 
d="M98 125v389h-93v9h93v122h10v-122h123v-9h-123v-389c0 -82 25 -116 112 -116h11v-9h-13c-90 0 -120 35 -120 125zM121 -120v28h28v-14c0 -53 -8 -83 -20 -115h-8c11 42 16 60 16 101h-16z" />
    <glyph glyph-name="uacute" unicode="&#xfa;" horiz-adv-x="552" 
d="M263 615l119 105h13l-120 -105h-12zM449 202v321h10v-523h-10v148c-26 -95 -100 -156 -191 -156c-108 0 -165 69 -165 179v352h10v-348c0 -98 46 -174 157 -174c121 0 189 113 189 201z" />
    <glyph glyph-name="ucircumflex" unicode="&#xfb;" horiz-adv-x="552" 
d="M370 615l-93 98l-94 -98h-12l99 105h13l99 -105h-12zM449 202v321h10v-523h-10v148c-26 -95 -100 -156 -191 -156c-108 0 -165 69 -165 179v352h10v-348c0 -98 46 -174 157 -174c121 0 189 113 189 201z" />
    <glyph glyph-name="udieresis" unicode="&#xfc;" horiz-adv-x="552" 
d="M231 615v105h10v-105h-10zM311 615v105h10v-105h-10zM449 202v321h10v-523h-10v148c-26 -95 -100 -156 -191 -156c-108 0 -165 69 -165 179v352h10v-348c0 -98 46 -174 157 -174c121 0 189 113 189 201z" />
    <glyph glyph-name="ugrave" unicode="&#xf9;" horiz-adv-x="552" 
d="M289 615h-12l-120 105h13zM449 202v321h10v-523h-10v148c-26 -95 -100 -156 -191 -156c-108 0 -165 69 -165 179v352h10v-348c0 -98 46 -174 157 -174c121 0 189 113 189 201z" />
    <glyph glyph-name="ubreve" unicode="&#x16d;" horiz-adv-x="552" 
d="M173 720h10c8 -70 49 -96 94 -96s85 26 93 96h10c-8 -75 -53 -105 -103 -105s-96 30 -104 105zM449 202v321h10v-523h-10v148c-26 -95 -100 -156 -191 -156c-108 0 -165 69 -165 179v352h10v-348c0 -98 46 -174 157 -174c121 0 189 113 189 201z" />
    <glyph glyph-name="uhungarumlaut" unicode="&#x171;" horiz-adv-x="552" 
d="M225 615l79 105h12l-81 -105h-10zM325 615l79 105h12l-81 -105h-10zM449 202v321h10v-523h-10v148c-26 -95 -100 -156 -191 -156c-108 0 -165 69 -165 179v352h10v-348c0 -98 46 -174 157 -174c121 0 189 113 189 201z" />
    <glyph glyph-name="umacron" unicode="&#x16b;" horiz-adv-x="552" 
d="M191 663v9h170v-9h-170zM449 202v321h10v-523h-10v148c-26 -95 -100 -156 -191 -156c-108 0 -165 69 -165 179v352h10v-348c0 -98 46 -174 157 -174c121 0 189 113 189 201z" />
    <glyph glyph-name="uogonek" unicode="&#x173;" horiz-adv-x="552" 
d="M318 -133c0 -53 43 -87 107 -87c31 0 46 6 58 12v-9c-15 -8 -35 -12 -59 -12c-68 0 -116 38 -116 96c0 50 32 96 141 137v144c-26 -95 -100 -156 -191 -156c-108 0 -165 69 -165 179v352h10v-348c0 -98 46 -174 157 -174c121 0 189 113 189 201v321h10v-523
c-111 -42 -141 -86 -141 -133z" />
    <glyph glyph-name="uring" unicode="&#x16f;" horiz-adv-x="552" 
d="M276 615c-47 0 -82 34 -82 81c0 48 35 83 82 83s82 -36 82 -82c0 -47 -35 -82 -82 -82zM276 624c41 0 72 31 72 73c0 41 -31 73 -72 73s-72 -31 -72 -74c0 -41 31 -72 72 -72zM449 202v321h10v-523h-10v148c-26 -95 -100 -156 -191 -156c-108 0 -165 69 -165 179v352h10
v-348c0 -98 46 -174 157 -174c121 0 189 113 189 201z" />
    <glyph glyph-name="utilde" unicode="&#x169;" horiz-adv-x="552" 
d="M154 615h-10c0 83 35 105 68 105c64 0 75 -96 128 -96c27 0 58 16 58 96h10c0 -83 -35 -105 -68 -105c-63 0 -73 96 -128 96c-27 0 -58 -16 -58 -96zM449 202v321h10v-523h-10v148c-26 -95 -100 -156 -191 -156c-108 0 -165 69 -165 179v352h10v-348
c0 -98 46 -174 157 -174c121 0 189 113 189 201z" />
    <glyph glyph-name="wacute" unicode="&#x1e83;" horiz-adv-x="781" 
d="M370 615l119 105h13l-120 -105h-12zM564 0l-160 470l-13 40l-14 -40l-160 -470h-10l-179 523h11l162 -478l11 -34l11 34l162 478h11l163 -478l10 -33l11 33l162 478h11l-179 -523h-10z" />
    <glyph glyph-name="wcircumflex" unicode="&#x175;" horiz-adv-x="781" 
d="M477 615l-93 98l-94 -98h-12l99 105h13l99 -105h-12zM564 0l-160 470l-13 40l-14 -40l-160 -470h-10l-179 523h11l162 -478l11 -34l11 34l162 478h11l163 -478l10 -33l11 33l162 478h11l-179 -523h-10z" />
    <glyph glyph-name="wdieresis" unicode="&#x1e85;" horiz-adv-x="781" 
d="M338 615v105h10v-105h-10zM418 615v105h10v-105h-10zM564 0l-160 470l-13 40l-14 -40l-160 -470h-10l-179 523h11l162 -478l11 -34l11 34l162 478h11l163 -478l10 -33l11 33l162 478h11l-179 -523h-10z" />
    <glyph glyph-name="wgrave" unicode="&#x1e81;" horiz-adv-x="781" 
d="M396 615h-12l-120 105h13zM564 0l-160 470l-13 40l-14 -40l-160 -470h-10l-179 523h11l162 -478l11 -34l11 34l162 478h11l163 -478l10 -33l11 33l162 478h11l-179 -523h-10z" />
    <glyph glyph-name="yacute" unicode="&#xfd;" horiz-adv-x="470" 
d="M212 615l119 105h13l-120 -105h-12zM63 -221h-13v9h11c73 0 85 5 142 147l29 72l-212 516h12l175 -429l30 -74l31 74l170 429h12l-240 -596c-53 -133 -67 -148 -147 -148z" />
    <glyph glyph-name="ydieresis" unicode="&#xff;" horiz-adv-x="470" 
d="M180 615v105h10v-105h-10zM260 615v105h10v-105h-10zM63 -221h-13v9h11c73 0 85 5 142 147l29 72l-212 516h12l175 -429l30 -74l31 74l170 429h12l-240 -596c-53 -133 -67 -148 -147 -148z" />
    <glyph glyph-name="ycircumflex" unicode="&#x177;" horiz-adv-x="470" 
d="M319 615l-93 98l-94 -98h-12l99 105h13l99 -105h-12zM63 -221h-13v9h11c73 0 85 5 142 147l29 72l-212 516h12l175 -429l30 -74l31 74l170 429h12l-240 -596c-53 -133 -67 -148 -147 -148z" />
    <glyph glyph-name="ygrave" unicode="&#x1ef3;" horiz-adv-x="470" 
d="M238 615h-12l-120 105h13zM63 -221h-13v9h11c73 0 85 5 142 147l29 72l-212 516h12l175 -429l30 -74l31 74l170 429h12l-240 -596c-53 -133 -67 -148 -147 -148z" />
    <glyph glyph-name="zcaron" unicode="&#x17e;" horiz-adv-x="475" 
d="M332 720h12l-99 -105h-13l-99 105h12l94 -98zM30 0v9l383 505h-368v9h380v-9l-383 -505h403v-9h-415z" />
    <glyph glyph-name="zacute" unicode="&#x17a;" horiz-adv-x="475" 
d="M225 615l119 105h13l-120 -105h-12zM30 0v9l383 505h-368v9h380v-9l-383 -505h403v-9h-415z" />
    <glyph glyph-name="zdotaccent" unicode="&#x17c;" horiz-adv-x="475" 
d="M233 615v105h10v-105h-10zM30 0v9l383 505h-368v9h380v-9l-383 -505h403v-9h-415z" />
    <glyph glyph-name="acute" unicode="&#xb4;" 
d="M265 615l119 105h13l-120 -105h-12z" />
    <glyph glyph-name="grave" unicode="`" 
d="M291 615h-12l-120 105h13z" />
    <glyph glyph-name="circumflex" unicode="&#x2c6;" 
d="M372 615l-93 98l-94 -98h-12l99 105h13l99 -105h-12z" />
    <glyph glyph-name="caron" unicode="&#x2c7;" 
d="M372 720h12l-99 -105h-13l-99 105h12l94 -98z" />
    <glyph glyph-name="tilde" unicode="&#x2dc;" 
d="M156 615h-10c0 83 35 105 68 105c64 0 75 -96 128 -96c27 0 58 16 58 96h10c0 -83 -35 -105 -68 -105c-63 0 -73 96 -128 96c-27 0 -58 -16 -58 -96z" />
    <glyph glyph-name="dieresis" unicode="&#xa8;" 
d="M233 615v105h10v-105h-10zM313 615v105h10v-105h-10z" />
    <glyph glyph-name="ring" unicode="&#x2da;" 
d="M278 615c-47 0 -82 34 -82 81c0 48 35 83 82 83s82 -36 82 -82c0 -47 -35 -82 -82 -82zM278 624c41 0 72 31 72 73c0 41 -31 73 -72 73s-72 -31 -72 -74c0 -41 31 -72 72 -72z" />
    <glyph glyph-name="cedilla" unicode="&#xb8;" 
d="M329 -136c0 38 -29 54 -108 60l51 76h10l-45 -68c70 -7 102 -26 102 -68c0 -54 -49 -80 -155 -85v9c96 3 145 27 145 76z" />
    <glyph glyph-name="hungarumlaut" unicode="&#x2dd;" 
d="M227 615l79 105h12l-81 -105h-10zM327 615l79 105h12l-81 -105h-10z" />
    <glyph glyph-name="breve" unicode="&#x2d8;" 
d="M175 720h10c8 -70 49 -96 94 -96s85 26 93 96h10c-8 -75 -53 -105 -103 -105s-96 30 -104 105z" />
    <glyph glyph-name="macron" unicode="&#xaf;" 
d="M193 663v9h170v-9h-170z" />
    <glyph glyph-name="dotaccent" unicode="&#x2d9;" 
d="M273 615v105h10v-105h-10z" />
    <glyph glyph-name="periodcentered" unicode="&#xb7;" 
d="M273 245v105h10v-105h-10z" />
    <glyph glyph-name="ogonek" unicode="&#x2db;" 
d="M162 -133c0 -53 43 -87 107 -87c31 0 46 6 58 12v-9c-15 -8 -35 -12 -59 -12c-68 0 -116 38 -116 96c0 50 32 96 144 138l7 -5c-111 -42 -141 -86 -141 -133z" />
    <glyph glyph-name="commaaccentcomb" unicode="&#x326;" 
d="M266 -120v28h28v-14c0 -53 -8 -83 -20 -115h-8c11 42 16 60 16 101h-16z" />
    <glyph glyph-name="caron.alt" unicode="&#xe189;" 
d="M266 692v28h28v-14c0 -53 -8 -83 -20 -115h-8c11 42 16 60 16 101h-16z" />
    <glyph glyph-name="revcommaaccent" unicode="&#xe18a;" 
d="M294 643v-28h-28v14c0 53 8 83 20 115h8c-11 -42 -16 -60 -16 -101h16z" />
    <glyph glyph-name="period" unicode="." horiz-adv-x="196" 
d="M84 0v28h28v-28h-28z" />
    <glyph glyph-name="comma" unicode="," horiz-adv-x="196" 
d="M84 0v28h28v-14c0 -66 -6 -105 -20 -143h-8c14 53 16 76 16 129h-16z" />
    <glyph glyph-name="colon" unicode=":" horiz-adv-x="196" 
d="M84 435v28h28v-28h-28zM84 0v28h28v-28h-28z" />
    <glyph glyph-name="semicolon" unicode=";" horiz-adv-x="196" 
d="M84 435v28h28v-28h-28zM84 0v28h28v-14c0 -66 -6 -105 -20 -143h-8c14 53 16 76 16 129h-16z" />
    <glyph glyph-name="ellipsis" unicode="&#x2026;" horiz-adv-x="596" 
d="M84 0v28h28v-28h-28zM284 0v28h28v-28h-28zM484 0v28h28v-28h-28z" />
    <glyph glyph-name="question" unicode="?" horiz-adv-x="498" 
d="M438 511c0 -178 -213 -121 -213 -382h-10c0 265 213 211 213 382c0 107 -59 168 -179 168c-123 0 -183 -65 -199 -168h-10c17 111 81 177 210 177c126 0 188 -67 188 -177zM206 0v28h28v-28h-28z" />
    <glyph glyph-name="exclam" unicode="!" horiz-adv-x="288" 
d="M139 129v551h10v-551h-10zM130 0v28h28v-28h-28z" />
    <glyph glyph-name="questiondown" unicode="&#xbf;" horiz-adv-x="498" 
d="M292 463v-28h-28v28h28zM60 -48c0 178 213 121 213 382h10c0 -265 -213 -211 -213 -382c0 -107 59 -168 179 -168c123 0 183 65 199 168h10c-17 -111 -81 -177 -210 -177c-126 0 -188 67 -188 177z" />
    <glyph glyph-name="exclamdown" unicode="&#xa1;" horiz-adv-x="288" 
d="M158 463v-28h-28v28h28zM149 334v-551h-10v551h10z" />
    <glyph glyph-name="parenleft" unicode="(" horiz-adv-x="268" 
d="M229 -181c-98 153 -149 302 -149 451s51 297 149 450h9c-98 -157 -148 -303 -148 -450c0 -148 50 -294 148 -451h-9z" />
    <glyph glyph-name="parenright" unicode=")" horiz-adv-x="268" 
d="M39 -181h-9c98 157 148 303 148 451c0 147 -50 293 -148 450h9c98 -153 149 -301 149 -450s-51 -298 -149 -451z" />
    <glyph glyph-name="braceleft" unicode="{" horiz-adv-x="270" 
d="M55 270c63 0 85 -21 85 -112v-249c0 -55 19 -81 73 -81h37v-9h-37c-61 0 -83 31 -83 90v245c0 89 -14 111 -100 111v10c86 0 100 22 100 111v244c0 59 22 90 83 90h37v-9h-37c-54 0 -73 -26 -73 -81v-248c0 -91 -22 -112 -85 -112z" />
    <glyph glyph-name="braceright" unicode="}" horiz-adv-x="270" 
d="M215 270c-63 0 -85 21 -85 112v248c0 55 -19 81 -73 81h-37v9h37c61 0 83 -31 83 -90v-244c0 -89 14 -111 100 -111v-10c-86 0 -100 -22 -100 -111v-245c0 -59 -22 -90 -83 -90h-37v9h37c54 0 73 26 73 81v249c0 91 22 112 85 112z" />
    <glyph glyph-name="bracketleft" unicode="[" horiz-adv-x="280" 
d="M130 -181v901h130v-9h-120v-883h120v-9h-130z" />
    <glyph glyph-name="bracketright" unicode="]" horiz-adv-x="280" 
d="M150 -181h-130v9h120v883h-120v9h130v-901z" />
    <glyph glyph-name="slash" unicode="/" horiz-adv-x="300" 
d="M30 0l230 680h10l-230 -680h-10z" />
    <glyph glyph-name="backslash" unicode="\" horiz-adv-x="300" 
d="M270 0h-10l-230 680h10z" />
    <glyph glyph-name="underscore" unicode="_" horiz-adv-x="431" 
d="M40 -17v9h351v-9h-351z" />
    <glyph glyph-name="hyphen" unicode="-" horiz-adv-x="431" 
d="M90 269v9h251v-9h-251z" />
    <glyph glyph-name="softhyphen" unicode="&#xad;" horiz-adv-x="431" 
 />
    <glyph glyph-name="endash" unicode="&#x2013;" horiz-adv-x="500" 
d="M90 269v9h320v-9h-320z" />
    <glyph glyph-name="emdash" unicode="&#x2014;" horiz-adv-x="1000" 
d="M90 269v9h820v-9h-820z" />
    <glyph glyph-name="brokenbar" unicode="&#xa6;" horiz-adv-x="210" 
d="M100 359v361h10v-361h-10zM100 -221v361h10v-361h-10z" />
    <glyph glyph-name="bar" unicode="|" horiz-adv-x="210" 
d="M100 -221v941h10v-941h-10z" />
    <glyph glyph-name="guillemotleft" unicode="&#xab;" horiz-adv-x="681" 
d="M311 65l-221 200v13l221 200v-13l-214 -193l214 -194v-13zM561 65l-221 200v13l221 200v-13l-214 -193l214 -194v-13z" />
    <glyph glyph-name="guillemotright" unicode="&#xbb;" horiz-adv-x="681" 
d="M370 65v13l214 194l-214 193v13l221 -200v-13zM120 65v13l214 194l-214 193v13l221 -200v-13z" />
    <glyph glyph-name="guilsinglleft" unicode="&#x2039;" horiz-adv-x="431" 
d="M311 65l-221 200v13l221 200v-13l-214 -193l214 -194v-13z" />
    <glyph glyph-name="guilsinglright" unicode="&#x203a;" horiz-adv-x="431" 
d="M120 65v13l214 194l-214 193v13l221 -200v-13z" />
    <glyph glyph-name="quotesinglbase" unicode="&#x201a;" horiz-adv-x="196" 
d="M84 0v28h28v-14c0 -58 -7 -91 -20 -126h-8c12 47 16 66 16 112h-16z" />
    <glyph glyph-name="quotedblbase" unicode="&#x201e;" horiz-adv-x="306" 
d="M84 0v28h28v-14c0 -58 -7 -91 -20 -126h-8c12 47 16 66 16 112h-16zM194 0v28h28v-14c0 -58 -7 -91 -20 -126h-8c12 47 16 66 16 112h-16z" />
    <glyph glyph-name="quoteleft" unicode="&#x2018;" horiz-adv-x="196" 
d="M112 568v-28h-28v14c0 58 7 91 20 126h8c-12 -47 -16 -66 -16 -112h16z" />
    <glyph glyph-name="quotedblleft" unicode="&#x201c;" horiz-adv-x="306" 
d="M222 568v-28h-28v14c0 58 7 91 20 126h8c-12 -47 -16 -66 -16 -112h16zM112 568v-28h-28v14c0 58 7 91 20 126h8c-12 -47 -16 -66 -16 -112h16z" />
    <glyph glyph-name="quoteright" unicode="&#x2019;" horiz-adv-x="196" 
d="M84 652v28h28v-14c0 -58 -7 -91 -20 -126h-8c12 47 16 66 16 112h-16z" />
    <glyph glyph-name="quotedblright" unicode="&#x201d;" horiz-adv-x="306" 
d="M84 652v28h28v-14c0 -58 -7 -91 -20 -126h-8c12 47 16 66 16 112h-16zM194 652v28h28v-14c0 -58 -7 -91 -20 -126h-8c12 47 16 66 16 112h-16z" />
    <glyph glyph-name="quotesingle" unicode="'" horiz-adv-x="178" 
d="M84 540v140h10v-140h-10z" />
    <glyph glyph-name="quotedbl" unicode="&#x22;" horiz-adv-x="298" 
d="M84 540v140h10v-140h-10zM204 540v140h10v-140h-10z" />
    <glyph glyph-name="bullet" unicode="&#x2022;" horiz-adv-x="392" 
d="M196 183c-53 0 -96 43 -96 96s43 96 96 96s96 -43 96 -96s-43 -96 -96 -96z" />
    <glyph glyph-name="ampersand" unicode="&#x26;" horiz-adv-x="698" 
d="M446 551c0 -116 -93 -141 -184 -174l20 -20l234 -228c43 62 67 142 67 226h10c0 -82 -25 -167 -70 -233l125 -122h-14l-117 114c-52 -73 -129 -122 -225 -122c-147 0 -212 93 -212 187c0 128 80 170 165 201c-64 67 -86 108 -86 166c0 83 60 142 149 142
c93 0 138 -66 138 -137zM169 546c0 -54 23 -96 86 -162c90 33 181 58 181 166c0 66 -47 129 -128 129c-83 0 -139 -55 -139 -133zM90 179c0 -89 61 -178 202 -178c90 0 167 47 218 119l-234 229c-9 8 -17 17 -24 24c-84 -30 -162 -70 -162 -194z" />
    <glyph glyph-name="paragraph" unicode="&#xb6;" horiz-adv-x="501" 
d="M301 -181h-10v461h-14c-136 0 -227 75 -227 200c0 123 91 200 227 200h124v-861h-10v852h-90v-852z" />
    <glyph glyph-name="dagger" unicode="&#x2020;" horiz-adv-x="439" 
d="M214 -181v600h-174v9h174v252h10v-252h175v-9h-175v-600h-10z" />
    <glyph glyph-name="daggerdbl" unicode="&#x2021;" horiz-adv-x="439" 
d="M40 44v9h174v366h-174v9h174v252h10v-252h175v-9h-175v-366h175v-9h-175v-225h-10v225h-174z" />
    <glyph glyph-name="section" unicode="&#xa7;" horiz-adv-x="607" 
d="M497 -29c0 -105 -80 -160 -190 -160c-121 0 -200 61 -220 177h10c18 -109 95 -168 210 -168c117 0 180 61 180 151c0 243 -417 48 -417 312c0 62 33 114 92 150c-32 21 -52 54 -52 108c0 82 56 147 174 147c106 0 181 -55 196 -177h-10c-16 117 -85 168 -186 168
c-107 0 -164 -56 -164 -138c0 -235 417 -37 417 -312c0 -67 -39 -112 -90 -147c31 -22 50 -56 50 -111zM80 283c0 -194 244 -125 359 -195c55 37 88 82 88 141c0 199 -241 134 -356 199c-59 -35 -91 -82 -91 -145z" />
    <glyph glyph-name="asterisk" unicode="*" horiz-adv-x="282" 
d="M210 484l-8 -6l-61 84l-61 -84l-8 6l61 83l-98 32l3 10l98 -32v103h10v-103l98 32l3 -10l-98 -32z" />
    <glyph glyph-name="trademark" unicode="&#x2122;" horiz-adv-x="859" 
d="M177 272v398h-154v10h318v-10h-154v-398h-10zM418 272v408h16l163 -365l13 -29l12 29l163 365h15v-408h-10v396l-29 -68l-147 -328h-9l-147 327l-29 69v-396h-11z" />
    <glyph glyph-name="registered" unicode="&#xae;" horiz-adv-x="542" 
d="M271 264c-122 0 -211 90 -211 213c0 122 89 211 211 211s211 -89 211 -210c0 -123 -89 -214 -211 -214zM271 273c116 0 201 87 201 205c0 116 -85 201 -201 201s-201 -85 -201 -202c0 -118 85 -204 201 -204zM191 343v272h85c51 0 84 -28 84 -72c0 -34 -20 -58 -53 -67
c26 -5 39 -19 48 -54l21 -79h-11l-19 76c-11 44 -30 52 -73 52h-72v-128h-10zM275 606h-74v-126h74c46 0 75 24 75 63s-29 63 -75 63z" />
    <glyph glyph-name="copyright" unicode="&#xa9;" horiz-adv-x="862" 
d="M431 -36c-209 0 -361 154 -361 363s152 361 361 361s361 -153 361 -360c0 -209 -152 -364 -361 -364zM431 -27c203 0 351 150 351 355c0 203 -148 351 -351 351s-351 -148 -351 -352c0 -205 148 -354 351 -354zM609 445h-10c-24 72 -90 115 -166 115
c-118 0 -189 -90 -189 -235s71 -234 189 -234c74 0 136 41 165 115h10c-31 -81 -96 -123 -175 -123c-123 0 -199 92 -199 242s76 244 200 244c79 0 149 -45 175 -124z" />
    <glyph glyph-name="at" unicode="@" horiz-adv-x="970" 
d="M753 20c-69 0 -98 45 -98 142v32c-32 -121 -138 -174 -214 -174c-107 0 -171 53 -171 144c0 70 38 108 107 130c75 24 154 31 278 31v31c0 124 -50 194 -166 194c-119 0 -176 -65 -192 -168h-10c17 111 78 177 203 177c122 0 175 -73 175 -197v-200
c0 -84 23 -133 88 -133c90 0 147 105 147 258c0 250 -172 432 -409 432c-244 0 -421 -186 -421 -443c0 -253 177 -436 421 -436c72 0 136 8 196 32l3 -8c-61 -24 -127 -33 -199 -33c-250 0 -431 188 -431 445c0 262 181 452 431 452c243 0 419 -187 419 -441
c0 -156 -58 -267 -157 -267zM280 166c0 -85 59 -137 161 -137c117 0 214 106 214 222v65c-310 -1 -375 -61 -375 -150z" />
    <glyph glyph-name="ordfeminine" unicode="&#xaa;" horiz-adv-x="334" 
d="M58 544h-10c10 67 47 107 123 107c74 0 106 -45 106 -119v-131c0 -31 2 -55 9 -69h-11c-7 14 -8 42 -8 62v29c-22 -67 -82 -96 -126 -96c-65 0 -104 31 -104 86c0 43 23 66 65 80c45 14 92 18 165 18v18c0 72 -29 113 -97 113c-70 0 -103 -38 -112 -98zM48 415
c0 -49 34 -79 93 -79c69 0 126 62 126 130v36c-182 -1 -219 -35 -219 -87z" />
    <glyph glyph-name="ordmasculine" unicode="&#xba;" horiz-adv-x="334" 
d="M167 327c-84 0 -132 60 -132 161c0 107 49 163 132 163c84 0 132 -61 132 -162c0 -106 -50 -162 -132 -162zM167 336c78 0 122 54 122 153c0 96 -45 153 -122 153c-79 0 -122 -55 -122 -154c0 -95 45 -152 122 -152z" />
    <glyph glyph-name="numbersign" unicode="#" horiz-adv-x="646" 
d="M117 0l38 184h-95v9h97l60 294h-90v9h92l38 184h10l-38 -184h252l38 184h10l-38 -184h95v-9h-97l-60 -294h90v-9h-92l-38 -184h-10l38 184h-252l-38 -184h-10zM167 193h252l60 294h-252z" />
    <glyph glyph-name="Euro" unicode="&#x20ac;" horiz-adv-x="576" 
d="M4 263l3 9h75c-1 15 -2 31 -2 48c0 22 1 43 3 63h-59l3 9h57c20 161 108 259 240 259c100 0 185 -59 219 -176h-10c-31 108 -113 167 -209 167c-127 0 -211 -94 -230 -250h309l-3 -9h-307c-2 -20 -3 -41 -3 -63c0 -17 1 -33 2 -48h291l-3 -9h-287
c15 -163 100 -262 231 -262c92 0 174 56 207 167h10c-35 -118 -120 -176 -217 -176c-136 0 -225 103 -241 271h-79z" />
    <glyph glyph-name="dollar" unicode="$" horiz-adv-x="576" 
d="M280 -107v100c-119 6 -198 66 -217 176h10c18 -109 103 -168 228 -168c131 0 202 69 202 171c0 265 -417 49 -417 312c0 93 64 167 194 167v99h10v-99c112 -3 191 -58 206 -176h-10c-16 116 -93 167 -204 167c-121 0 -186 -64 -186 -158c0 -254 417 -38 417 -312
c0 -118 -90 -180 -212 -180h-11v-99h-10z" />
    <glyph glyph-name="yen" unicode="&#xa5;" horiz-adv-x="576" 
d="M133 146v9h150v111h-150v9h147l-233 368h12l196 -314l33 -52l33 52l197 314h11l-233 -368h147v-9h-150v-111h150v-9h-150v-146h-10v146h-150z" />
    <glyph glyph-name="sterling" unicode="&#xa3;" horiz-adv-x="576" 
d="M83 0v9h72c56 37 88 87 88 154c0 41 -11 74 -27 103h-122v9h116c-43 72 -114 121 -114 209c0 93 64 167 196 167c116 0 199 -55 214 -176h-10c-16 116 -93 167 -204 167c-121 0 -186 -64 -186 -158c0 -84 73 -134 116 -209h182v-9h-177c16 -29 26 -62 26 -103
c0 -68 -32 -118 -83 -154h336v-9h-423z" />
    <glyph glyph-name="cent" unicode="&#xa2;" horiz-adv-x="576" 
d="M292 -47v99c-136 2 -213 103 -213 269c0 177 81 270 213 270v99h10v-99c105 -3 178 -68 200 -177h-10c-22 106 -96 168 -197 168c-133 0 -206 -93 -206 -261c0 -163 77 -260 208 -260c102 0 174 57 199 168h10c-30 -124 -105 -177 -204 -177v-99h-10z" />
    <glyph glyph-name="florin" unicode="&#x192;" horiz-adv-x="576" 
d="M291 -96c0 -90 -30 -125 -120 -125h-13v9h11c86 0 112 33 112 116v533h-93v9h93v72c0 90 30 125 120 125h13v-9h-11c-86 0 -112 -33 -112 -116v-72h123v-9h-123v-533z" />
    <glyph glyph-name="currency" unicode="&#xa4;" horiz-adv-x="576" 
d="M138 157l-7 7l59 59c-21 23 -33 54 -33 90c0 37 13 69 35 92l-61 61l7 7l61 -61c23 22 54 34 90 34s67 -12 90 -34l60 60l7 -7l-60 -60c22 -23 35 -55 35 -91s-12 -67 -34 -90l59 -59l-7 -7l-59 59c-23 -22 -55 -35 -91 -35c-37 0 -68 13 -92 34zM289 191
c70 0 122 52 122 123s-52 123 -122 123s-122 -52 -122 -124c0 -70 52 -122 122 -122z" />
    <glyph glyph-name="zero" unicode="0" horiz-adv-x="576" 
d="M288 -8c-152 0 -238 124 -238 329c0 216 90 330 238 330c152 0 238 -122 238 -329c0 -216 -90 -330 -238 -330zM288 1c147 0 228 115 228 321c0 201 -84 320 -228 320c-147 0 -228 -114 -228 -321c0 -200 84 -320 228 -320z" />
    <glyph glyph-name="one" unicode="1" horiz-adv-x="576" 
d="M177 0v9h128v590c-2 -3 -8 -5 -23 -5h-105v9h103c23 0 26 4 26 24v16h9v-634h128v-9h-266z" />
    <glyph glyph-name="two" unicode="2" horiz-adv-x="576" 
d="M84 0v9c0 292 390 240 390 454c0 114 -58 179 -176 179c-125 0 -186 -65 -202 -168h-10c17 111 82 177 213 177c124 0 185 -71 185 -188c0 -223 -390 -166 -390 -454h406v-9h-416z" />
    <glyph glyph-name="three" unicode="3" horiz-adv-x="576" 
d="M512 171c0 -108 -73 -179 -221 -179c-140 0 -211 66 -228 177h10c16 -103 83 -168 217 -168c142 0 212 65 212 170c0 74 -32 162 -243 162h-4v9h4c195 0 222 80 222 141c0 101 -61 159 -186 159c-129 0 -192 -65 -208 -168h-10c17 111 84 177 219 177
c131 0 195 -63 195 -168c0 -61 -26 -127 -159 -145c151 -18 180 -92 180 -167z" />
    <glyph glyph-name="four" unicode="4" horiz-adv-x="576" 
d="M422 0h-10v180h-362v9l362 454h10v-454h103v-9h-103v-180zM62 189h350v439z" />
    <glyph glyph-name="five" unicode="5" horiz-adv-x="576" 
d="M523 212c0 -133 -74 -220 -225 -220c-140 0 -211 66 -228 177h10c16 -103 83 -168 217 -168c145 0 216 80 216 211c0 96 -43 211 -213 211c-109 0 -162 -48 -196 -95l-8 2l18 313h386v-9h-377l-17 -289c40 51 98 87 194 87c174 0 223 -112 223 -220z" />
    <glyph glyph-name="six" unicode="6" horiz-adv-x="576" 
d="M523 207c0 -140 -92 -215 -218 -215h-3h-2c-146 2 -233 97 -233 329c0 216 91 330 240 330c109 0 183 -64 216 -177h-10c-33 108 -104 168 -206 168c-148 0 -230 -114 -230 -321c0 -46 3 -87 10 -123v8c0 141 92 215 218 215c129 0 218 -79 218 -214zM305 1
c124 0 208 74 208 206c0 129 -87 205 -208 205c-124 0 -208 -73 -208 -206c0 -128 85 -205 208 -205z" />
    <glyph glyph-name="seven" unicode="7" horiz-adv-x="576" 
d="M217 0h-10c47 225 134 434 270 634h-414v9h424v-8c-135 -198 -225 -411 -270 -635z" />
    <glyph glyph-name="eight" unicode="8" horiz-adv-x="576" 
d="M298 -8c-130 0 -218 66 -218 174c0 97 66 155 163 171c-82 15 -138 68 -138 155c0 97 81 159 193 159s193 -56 193 -160c0 -83 -55 -138 -139 -154c99 -16 164 -77 164 -170c0 -114 -90 -175 -218 -175zM298 642c-108 0 -183 -57 -183 -150c0 -99 74 -151 183 -151
c107 0 183 55 183 150c0 97 -74 151 -183 151zM298 1c124 0 208 59 208 166c0 104 -87 165 -208 165c-124 0 -208 -59 -208 -166c0 -103 85 -165 208 -165z" />
    <glyph glyph-name="nine" unicode="9" horiz-adv-x="576" 
d="M276 651h2c145 -1 231 -96 231 -329c0 -216 -88 -330 -232 -330c-109 0 -181 64 -214 177h10c33 -108 104 -168 204 -168c143 0 222 114 222 321c0 47 -3 88 -10 124v-4c0 -137 -90 -210 -213 -210c-126 0 -213 77 -213 209c0 137 90 210 213 210zM276 642
c-121 0 -203 -72 -203 -201c0 -127 82 -200 203 -200s203 71 203 201c0 39 -8 72 -22 101c-10 17 -20 32 -33 44c-36 36 -87 55 -148 55z" />
    <glyph glyph-name="degree" unicode="&#xb0;" horiz-adv-x="334" 
d="M167 387c-76 0 -132 55 -132 131c0 77 56 133 132 133s132 -56 132 -132s-56 -132 -132 -132zM167 396c70 0 122 52 122 123s-52 123 -122 123s-122 -52 -122 -124c0 -70 52 -122 122 -122z" />
    <glyph glyph-name="percent" unicode="%" horiz-adv-x="782" 
d="M172 296c-91 0 -143 67 -143 177c0 117 54 178 143 178c92 0 144 -66 144 -177c0 -117 -54 -178 -144 -178zM145 0l480 643h12l-480 -643h-12zM172 305c86 0 134 60 134 169c0 105 -49 168 -134 168c-86 0 -133 -60 -133 -169c0 -106 49 -168 133 -168zM609 -5
c-91 0 -143 66 -143 177c0 117 54 178 143 178c92 0 144 -65 144 -177c0 -117 -54 -178 -144 -178zM609 4c86 0 134 60 134 169c0 106 -49 168 -134 168c-86 0 -133 -60 -133 -169c0 -105 49 -168 133 -168z" />
    <glyph glyph-name="perthousand" unicode="&#x2030;" horiz-adv-x="1127" 
d="M172 296c-91 0 -143 67 -143 177c0 117 54 178 143 178c92 0 144 -66 144 -177c0 -117 -54 -178 -144 -178zM145 0l480 643h12l-480 -643h-12zM172 305c86 0 134 60 134 169c0 105 -49 168 -134 168c-86 0 -133 -60 -133 -169c0 -106 49 -168 133 -168zM609 -5
c-91 0 -143 66 -143 177c0 117 54 178 143 178c92 0 144 -65 144 -177c0 -117 -54 -178 -144 -178zM954 -5c-91 0 -143 66 -143 177c0 117 54 178 143 178c92 0 144 -65 144 -177c0 -117 -54 -178 -144 -178zM609 4c86 0 134 60 134 169c0 106 -49 168 -134 168
c-86 0 -133 -60 -133 -169c0 -105 49 -168 133 -168zM954 4c86 0 134 60 134 169c0 106 -49 168 -134 168c-86 0 -133 -60 -133 -169c0 -105 49 -168 133 -168z" />
    <glyph glyph-name="fraction" unicode="&#x2044;" horiz-adv-x="92" 
d="M-200 0l480 643h12l-480 -643h-12z" />
    <glyph glyph-name="divisionslash" unicode="&#x2215;" horiz-adv-x="92" 
d="M-200 0l480 643h12l-480 -643h-12z" />
    <glyph glyph-name="zero.superior" unicode="&#x2070;" horiz-adv-x="345" 
d="M172 256c-91 0 -143 74 -143 197c0 130 54 198 143 198c92 0 144 -73 144 -197c0 -130 -54 -198 -144 -198zM172 265c86 0 134 67 134 189c0 118 -49 188 -134 188c-86 0 -133 -67 -133 -189c0 -118 49 -188 133 -188z" />
    <glyph glyph-name="onesuperior" unicode="&#xb9;" horiz-adv-x="345" 
d="M104 261v8h76v347c-1 -2 -5 -3 -14 -3h-62v9h60c15 0 18 2 18 15v9h8v-377h77v-8h-163z" />
    <glyph glyph-name="twosuperior" unicode="&#xb2;" horiz-adv-x="345" 
d="M49 261v6c0 175 232 145 232 271c0 66 -34 104 -103 104c-73 0 -109 -38 -118 -98h-10c10 67 50 107 129 107c75 0 112 -43 112 -113c0 -133 -232 -101 -232 -269h241v-8h-251z" />
    <glyph glyph-name="threesuperior" unicode="&#xb3;" horiz-adv-x="345" 
d="M308 364c0 -65 -45 -108 -134 -108c-84 0 -128 40 -138 107h10c10 -61 49 -99 128 -99c83 0 124 38 124 100c0 43 -19 94 -143 94h-3v9h3c114 0 130 47 130 83c0 58 -35 92 -109 92c-75 0 -112 -38 -122 -98h-9c10 67 51 107 132 107c79 0 118 -38 118 -101
c0 -36 -16 -74 -88 -87c83 -12 101 -55 101 -99z" />
    <glyph glyph-name="four.superior" unicode="&#x2074;" horiz-adv-x="345" 
d="M254 261h-10v106h-215v9l216 270h9v-270h61v-9h-61v-106zM40 376h204v256z" />
    <glyph glyph-name="onehalf" unicode="&#xbd;" horiz-adv-x="782" 
d="M104 261v8h76v347c-1 -2 -5 -3 -14 -3h-62v9h60c15 0 18 2 18 15v9h8v-377h77v-8h-163zM155 0l480 643h12l-480 -643h-12zM486 0v6c0 175 232 145 232 271c0 66 -34 104 -103 104c-73 0 -109 -38 -118 -98h-10c10 67 50 107 129 107c75 0 112 -43 112 -113
c0 -133 -232 -101 -232 -269h241v-8h-251z" />
    <glyph glyph-name="onequarter" unicode="&#xbc;" horiz-adv-x="782" 
d="M104 261v8h76v347c-1 -2 -5 -3 -14 -3h-62v9h60c15 0 18 2 18 15v9h8v-377h77v-8h-163zM175 0l480 643h12l-480 -643h-12zM691 0h-10v106h-215v9l216 270h9v-270h61v-9h-61v-106zM477 115h204v256z" />
    <glyph glyph-name="threequarters" unicode="&#xbe;" horiz-adv-x="782" 
d="M308 364c0 -65 -45 -108 -134 -108c-84 0 -128 40 -138 107h10c10 -61 49 -99 128 -99c83 0 124 38 124 100c0 43 -19 94 -143 94h-3v9h3c114 0 130 47 130 83c0 58 -35 92 -109 92c-75 0 -112 -38 -122 -98h-9c10 67 51 107 132 107c79 0 118 -38 118 -101
c0 -36 -16 -74 -88 -87c83 -12 101 -55 101 -99zM192 0l480 643h12l-480 -643h-12zM691 0h-10v106h-215v9l216 270h9v-270h61v-9h-61v-106zM477 115h204v256z" />
    <glyph glyph-name="plus" unicode="+" horiz-adv-x="576" 
d="M294 137h-10v173h-174v9h174v174h10v-174h172v-9h-172v-173z" />
    <glyph glyph-name="minus" unicode="&#x2212;" horiz-adv-x="576" 
d="M110 310v9h356v-9h-356z" />
    <glyph glyph-name="multiply" unicode="&#xd7;" horiz-adv-x="576" 
d="M144 164l-6 7l144 144l-144 144l7 7l144 -144l143 143l7 -6l-143 -143l143 -144l-7 -7l-143 144z" />
    <glyph glyph-name="divide" unicode="&#xf7;" horiz-adv-x="576" 
d="M274 449v28h28v-28h-28zM110 310v9h356v-9h-356zM274 132v28h28v-28h-28z" />
    <glyph glyph-name="equal" unicode="=" horiz-adv-x="576" 
d="M110 410v9h356v-9h-356zM110 210v9h356v-9h-356z" />
    <glyph glyph-name="logicalnot" unicode="&#xac;" horiz-adv-x="576" 
d="M110 310v9h356v-182h-10v173h-346z" />
    <glyph glyph-name="asciitilde" unicode="~" horiz-adv-x="576" 
d="M110 310v9c33 23 62 32 87 32c68 0 114 -64 182 -64c25 0 54 9 87 32v-9c-33 -23 -62 -32 -87 -32c-68 0 -114 64 -182 64c-25 0 -54 -9 -87 -32z" />
    <glyph glyph-name="less" unicode="&#x3c;" horiz-adv-x="576" 
d="M466 110l-356 200v10l356 200v-10l-347 -195l347 -195v-10z" />
    <glyph glyph-name="greater" unicode="&#x3e;" horiz-adv-x="576" 
d="M110 110v10l347 195l-347 195v10l356 -200v-10z" />
    <glyph glyph-name="plusminus" unicode="&#xb1;" horiz-adv-x="576" 
d="M294 167h-10v173h-174v9h174v174h10v-174h172v-9h-172v-173zM110 0v9h356v-9h-356z" />
    <glyph glyph-name="asciicircum" unicode="^" horiz-adv-x="576" 
d="M153 424l130 256h10l130 -256h-10l-125 248l-125 -248h-10z" />
    <glyph glyph-name="notequal" unicode="&#x2260;" horiz-adv-x="576" 
d="M110 210v9h120l107 191h-227v9h232l42 74h10l-42 -74h114v-9h-119l-107 -191h226v-9h-231l-41 -73h-10l41 73h-115z" />
    <glyph glyph-name="approxequal" unicode="&#x2248;" horiz-adv-x="576" 
d="M110 410v9c33 23 62 32 87 32c68 0 114 -64 182 -64c25 0 54 9 87 32v-9c-33 -23 -62 -32 -87 -32c-68 0 -114 64 -182 64c-25 0 -54 -9 -87 -32zM110 210v9c33 23 62 32 87 32c68 0 114 -64 182 -64c25 0 54 9 87 32v-9c-33 -23 -62 -32 -87 -32c-68 0 -114 64 -182 64
c-25 0 -54 -9 -87 -32z" />
    <glyph glyph-name="lessequal" unicode="&#x2264;" horiz-adv-x="576" 
d="M466 140l-356 200v10l356 200v-10l-347 -195l347 -195v-10zM110 0v9h356v-9h-356z" />
    <glyph glyph-name="greaterequal" unicode="&#x2265;" horiz-adv-x="576" 
d="M110 140v10l347 195l-347 195v10l356 -200v-10zM466 0h-356v9h356v-9z" />
    <glyph glyph-name="infinity" unicode="&#x221e;" horiz-adv-x="729" 
d="M50 322c0 100 56 173 160 173c84 0 139 -50 155 -126c15 76 70 126 154 126c104 0 160 -73 160 -173s-62 -173 -159 -173c-88 0 -140 51 -155 126c-16 -75 -68 -126 -156 -126c-97 0 -159 73 -159 173zM59 322c0 -96 57 -163 150 -163c99 0 151 66 151 163
c0 95 -55 163 -150 163c-97 0 -151 -66 -151 -163zM670 322c0 97 -54 163 -151 163c-95 0 -150 -68 -150 -163c0 -97 52 -163 151 -163c93 0 150 67 150 163z" />
    <glyph glyph-name="lozenge" unicode="&#x25ca;" horiz-adv-x="461" 
d="M236 0h-12l-164 321l164 322h12l165 -322zM390 321l-139 276l-21 41l-21 -42l-139 -275l139 -274l21 -42l21 41z" />
    <glyph glyph-name="radical" unicode="&#x221a;" horiz-adv-x="541" 
d="M480 643h11l-245 -643h-14l-182 401h10l162 -354l17 -40l15 39z" />
    <glyph glyph-name="integral" unicode="&#x222b;" horiz-adv-x="356" 
d="M183 -96c0 -90 -30 -125 -120 -125h-13v9h11c86 0 112 33 112 116v614c0 90 30 125 120 125h13v-9h-11c-86 0 -112 -33 -112 -116v-614z" />
    <glyph glyph-name="partialdiff" unicode="&#x2202;" 
d="M278 -8c-139 0 -218 82 -218 219c0 146 82 223 218 223c90 0 155 -35 189 -97c-36 116 -127 213 -271 306h16c194 -128 284 -255 284 -431c0 -143 -82 -220 -218 -220zM278 1c134 0 208 75 208 211c0 133 -77 213 -208 213c-134 0 -208 -76 -208 -214
c0 -132 77 -210 208 -210z" />
    <glyph glyph-name="product" unicode="&#x220f;" horiz-adv-x="621" 
d="M100 -181v824h421v-824h-10v815h-401v-815h-10z" />
    <glyph glyph-name="pi" unicode="&#x3c0;" horiz-adv-x="566" 
d="M112 0v514h-92v9h546v-9h-123v-389c0 -82 25 -116 112 -116h11v-9h-13c-90 0 -120 35 -120 125v389h-311v-514h-10z" />
    <glyph glyph-name="mu" unicode="&#x3bc;" horiz-adv-x="552" 
d="M103 -221h-10v744h10v-348c0 -98 46 -174 157 -174c121 0 189 113 189 201v321h10v-523h-10v148c-26 -95 -100 -156 -191 -156c-82 0 -134 40 -155 107v-320z" />
    <glyph glyph-name="summation" unicode="&#x2211;" horiz-adv-x="569" 
d="M50 -181l300 426l-300 397h459v-9h-439l293 -388l-294 -417h440v-9h-459z" />
    <glyph glyph-name="Ohm" unicode="&#x2126;" horiz-adv-x="752" 
d="M326 0h-266v9h233c-133 47 -215 174 -215 332c0 181 114 310 298 310s298 -129 298 -310c0 -158 -82 -285 -215 -332h233v-9h-266v7c141 38 238 160 238 334c0 176 -109 301 -288 301s-288 -125 -288 -301c0 -174 97 -296 238 -334v-7z" />
    <glyph glyph-name="Omega" unicode="&#x3a9;" horiz-adv-x="752" 
d="M326 0h-266v9h233c-133 47 -215 174 -215 332c0 181 114 310 298 310s298 -129 298 -310c0 -158 -82 -285 -215 -332h233v-9h-266v7c141 38 238 160 238 334c0 176 -109 301 -288 301s-288 -125 -288 -301c0 -174 97 -296 238 -334v-7z" />
    <glyph glyph-name="increment" unicode="&#x2206;" horiz-adv-x="641" 
d="M326 643l265 -643h-541l264 643h12zM305 596l-241 -587h512l-241 588l-15 37z" />
    <glyph glyph-name="Delta" unicode="&#x394;" horiz-adv-x="641" 
d="M326 643l265 -643h-541l264 643h12zM305 596l-241 -587h512l-241 588l-15 37z" />
    <glyph glyph-name="litre" unicode="&#x2113;" horiz-adv-x="481" 
d="M30 137c27 7 55 15 84 26c-11 45 -16 98 -16 158c0 217 66 330 176 330c85 0 134 -78 134 -168c0 -161 -141 -269 -283 -325c25 -101 75 -157 147 -157c77 0 134 56 149 168h10c-19 -125 -79 -177 -159 -177c-76 0 -130 59 -156 163c-29 -11 -58 -20 -86 -27v9zM108 321
c0 -59 5 -110 15 -154c137 55 275 160 275 314c0 87 -46 161 -124 161c-107 0 -166 -115 -166 -321z" />
    <glyph glyph-name="estimated" unicode="&#x212e;" horiz-adv-x="753" 
d="M90 244c0 150 138 259 286 259c159 0 287 -122 287 -259v-7h-465c-2 0 -3 0 -3 -2v-141c0 -6 1 -11 6 -17c43 -47 106 -74 176 -74c71 0 137 29 185 83h41c-52 -59 -135 -99 -227 -99c-153 0 -286 109 -286 257zM551 414c-48 45 -108 73 -174 73c-31 0 -60 -6 -88 -17
c-33 -14 -94 -49 -94 -77v-138c0 -3 1 -4 3 -4h357c2 0 3 1 3 4v141c0 6 -3 11 -7 18z" />
    <glyph glyph-name="ITF" unicode="&#xf8ff;" horiz-adv-x="1739" 
d="M110 0v700h216v-700h-216zM371 496v204h216v-204h-216zM631 0v700h217v-700h-217zM892 496v204h216v-204h-216zM1152 0v700h217v-700h-217zM1413 496v204h216v-204h-216zM1413 247v205h216v-205h-216z" />
    </font>
</defs>
</svg>
